<svg id="icons" height="512" viewBox="0 0 500 500" width="512" xmlns="http://www.w3.org/2000/svg" xmlns:xlink="http://www.w3.org/1999/xlink"><linearGradient id="linear-gradient" gradientUnits="userSpaceOnUse" x1="444.198" x2="313.051" y1="515.497" y2="428.593"><stop offset="0" stop-color="#334ec4"/><stop offset="1" stop-color="#5b8ce8"/></linearGradient><linearGradient id="linear-gradient-2" gradientUnits="userSpaceOnUse" x1="252.196" x2="252.196" y1="279.288" y2="373.982"><stop offset="0" stop-color="#3d3d5e"/><stop offset="1" stop-color="#20203a"/></linearGradient><linearGradient id="linear-gradient-3" gradientUnits="userSpaceOnUse" x1="252.205" x2="252.205" y1="279.587" y2="210.12"><stop offset="0" stop-color="#ef7554"/><stop offset="1" stop-color="#dd6049"/></linearGradient><linearGradient id="linear-gradient-4" gradientUnits="userSpaceOnUse" x1="252.196" x2="252.196" y1="20.874" y2="164.378"><stop offset="0" stop-color="#ffe0a6"/><stop offset="1" stop-color="#ffae85"/></linearGradient><linearGradient id="linear-gradient-5" gradientUnits="userSpaceOnUse" x1="145.034" x2="145.034" y1="206.048" y2="432.742"><stop offset="0" stop-color="#759fff"/><stop offset="1" stop-color="#cbf4ff"/></linearGradient><linearGradient id="linear-gradient-6" x1="32.779" x2="32.779" xlink:href="#linear-gradient-5" y1="206.381" y2="432.316"/><linearGradient id="linear-gradient-7" x1="368.531" x2="368.531" xlink:href="#linear-gradient-5" y1="193.502" y2="480.844"/><linearGradient id="linear-gradient-8" x1="233.198" x2="82.481" xlink:href="#linear-gradient" y1="517.62" y2="272.07"/><linearGradient id="linear-gradient-9" x1="354.966" x2="354.966" xlink:href="#linear-gradient" y1="196.66" y2="429.143"/><linearGradient id="linear-gradient-10" x1="474.522" x2="459.747" xlink:href="#linear-gradient" y1="244.67" y2="371.561"/><linearGradient id="linear-gradient-11" x1="353.021" x2="147.445" xlink:href="#linear-gradient-5" y1="457.561" y2="453.092"/><path d="m317.933 456.079s18.4 3.818 37.632 21.846a25.936 25.936 0 0 0 17.744 6.958c16.8 0 24.8-20.911 12.109-31.927a63.7 63.7 0 0 0 -29.577-14.491z" fill="url(#linear-gradient)"/><path d="m261.332 417.619-18.271-2.642v-138.372h18.271z" fill="url(#linear-gradient-2)"/><path d="m279.776 267.029c-10.432.727-5.257 6.365-20.565 5.077v-50.289s.64-18.794 14.545-23l-21.56-7.915-21.56 7.915c13.905 4.2 14.545 23 14.545 23v50.289c-15.307 1.288-10.127-4.347-20.564-5.078a11.918 11.918 0 0 0 .081 23.836 11.815 11.815 0 0 0 6.69-2.064 19.987 19.987 0 0 1 11.24-3.67h19.136a19.987 19.987 0 0 1 11.236 3.67c7.636 5.53 19.266-.747 18.6-10.333a12.027 12.027 0 0 0 -11.824-11.438z" fill="url(#linear-gradient-3)"/><path d="m332.254 108.111a124.916 124.916 0 0 0 -22.122-51.911s17.643 109.747-36.989 121.537a9.443 9.443 0 0 1 -11.159-8.33c-2.674-23.639-8.023-82.046 8.12-92.666 0 0-.527-32.655-17.908-61.623-17.381 28.967-17.907 61.622-17.907 61.622 16.142 10.62 10.793 69.027 8.119 92.666a9.577 9.577 0 0 1 -11.159 8.33c-54.949-9.289-36.989-121.536-36.989-121.536a124.906 124.906 0 0 0 -22.121 51.912c10.533 12.41 8.427 37.626 8.427 37.626.526 59.516 71.63 55.3 71.63 55.3s71.1 4.213 71.631-55.3c0-.001-2.107-25.217 8.427-37.627z" fill="url(#linear-gradient-4)"/><path d="m141.908 266.621c-3.049 2.427-8.945 8.5-10.372 19.985a5.339 5.339 0 0 0 8.291 5.13 50.653 50.653 0 0 1 11.334-5.784 11.627 11.627 0 0 0 4.885-3.257c2.021-2.37 3.71-6.4 1.458-12.726-3.197-8.461-11.337-6.515-15.596-3.348z" fill="url(#linear-gradient-5)"/><path d="m20.869 307.868c.489 7.251 3.21 17.533 13.52 24.817a6.23 6.23 0 0 0 9.861-5.431 107.276 107.276 0 0 1 .394-18.518 11.758 11.758 0 0 0 -3.39-9.667 11.682 11.682 0 0 0 -20.385 8.799z" fill="url(#linear-gradient-6)"/><path d="m351.685 447.593a147.569 147.569 0 0 0 29.327-20.484v.011c8.66-6.512 26.647-10.411 38.564-7.951 9.712 1.477 26.492 1.378 30.452-15.7 0 0 2.475-21.782-26.164-21.075a28.589 28.589 0 0 0 -10.825 2.452c15.891-30.294 23.75-80.4 17.234-121.023h.009c-1.328-14.192 6.362-19.089 12.544-20.751 9-2.21 12.45-13.838 5.96-20.177-9.845-6.033-20.959 4.763-20.959 4.763-.214-13.073 7.672-22.386 12.822-27.059a21.233 21.233 0 0 0 6.64-11.959c4.672-23.306-26.887-35.656-39.28-15.32-14.238 23.353-8.762 59.419-8.762 59.419-13.536-31.777-50.69-35.347-55.2-14.81-1.418 7.342.507 12.795 3.227 16.654a21.945 21.945 0 0 0 12.267 8.322c29.5 8.086 40.128 47.959 29.393 94.916-4.912-13.611-21.769-25.568-34.167-12.521-5.93 6.6-5.23 17.252 1.078 23.489a49.992 49.992 0 0 1 7.352 9.136c23.389 40.525-45.1 76.936-78.262 82.95 26.574 10.865 39.532 15.451 66.75 6.718z" fill="url(#linear-gradient-7)"/><path d="m313.886 462.33-49.814-18.351c-47.964 4.088-96.45-12.339-124.78-48.058a33.017 33.017 0 0 1 -2.482-38 49.992 49.992 0 0 1 7.352-9.136c6.308-6.237 7.008-16.891 1.078-23.489-12.382-13.037-29.261-1.1-34.167 12.521-10.735-46.957-.1-86.83 29.393-94.916a21.945 21.945 0 0 0 12.267-8.322c2.72-3.859 4.645-9.312 3.226-16.654-4.51-20.531-41.659-16.977-55.2 14.81 0 0 5.476-36.066-8.762-59.419-12.394-20.334-43.952-7.987-39.28 15.32a21.233 21.233 0 0 0 6.64 11.959c5.15 4.673 13.036 13.986 12.822 27.059 0 0-11.115-10.8-20.959-4.763-6.488 6.344-3.047 17.964 5.96 20.177 6.182 1.662 13.872 6.559 12.544 20.751h.009c-6.513 40.645 1.339 90.7 17.235 121.023a28.6 28.6 0 0 0 -10.826-2.452c-28.642-.703-26.167 21.08-26.167 21.08 3.96 17.077 20.74 17.176 30.452 15.7 11.932-2.464 29.918 1.45 38.564 7.952v-.011c44.659 42.582 131.954 52.229 194.895 35.219z" fill="url(#linear-gradient-8)"/><path d="m358.092 266.621c3.049 2.427 8.945 8.5 10.372 19.985a5.339 5.339 0 0 1 -8.291 5.13 50.653 50.653 0 0 0 -11.334-5.784 11.627 11.627 0 0 1 -4.885-3.257c-2.021-2.37-3.71-6.4-1.458-12.726 3.197-8.461 11.337-6.515 15.596-3.348z" fill="url(#linear-gradient-9)"/><path d="m479.131 307.868c-.489 7.251-3.21 17.533-13.52 24.817a6.23 6.23 0 0 1 -9.861-5.431 107.276 107.276 0 0 0 -.394-18.518 11.925 11.925 0 1 1 23.775-.868z" fill="url(#linear-gradient-10)"/><g fill="#fff"><path d="m175.017 448.629c-1.1.461-11.687-6.266-12.82-6.715a126.435 126.435 0 0 1 -13.389-8.731 183.912 183.912 0 0 1 -16.062-13.513 3.749 3.749 0 0 1 5.154-5.447 176.5 176.5 0 0 0 15.406 12.958c6.353 4.947 16.368 10.338 23.565 14.435a3.767 3.767 0 0 1 -1.854 7.013z"/><path d="m107.8 386.146a3.751 3.751 0 0 1 -3.249-1.871c-22.171-35-26.972-98.4-11.629-134.51a2.046 2.046 0 0 1 3.934 1.07c-5.157 29-10.919 86.929 14.08 129.5a3.8 3.8 0 0 1 -3.136 5.811z"/><path d="m302.811 453.138c-4.285.034-5.171-6.358-.9-7.391 53.931-13.394 88.41-46.689 102.483-98.962a3.75 3.75 0 0 1 7.243 1.95c-14.86 55.246-51.711 90.893-108.826 104.403z"/><path d="m411.808 311.505a3.737 3.737 0 0 1 -3.593-3.926c.775-16.6-3.177-46.5-5.846-64.3a1.136 1.136 0 0 1 2.213-.493c1.388 3.303 19.331 70.223 7.226 68.719z"/><path d="m414.916 328.1c-.091 5.38-8.094 5.379-8.184 0 .091-5.375 8.093-5.374 8.184 0z"/><path d="m125.1 400.668c-.091 5.38-8.094 5.379-8.185 0 .096-5.379 8.098-5.378 8.185 0z"/></g><path d="m351.674 447.573c-1.424.4-21.683 5.851-45.551-4.378-22.473-9.632-126.545-40.911-173.523 11.218a16.809 16.809 0 0 0 24.363 23.152c36.836-38.543 93.115-32.7 147.055-12.867a182.945 182.945 0 0 0 47.656-17.125z" fill="url(#linear-gradient-11)"/></svg>