<svg width="27" height="28" viewBox="0 0 27 28" fill="none" xmlns="http://www.w3.org/2000/svg">
<path fill-rule="evenodd" clip-rule="evenodd" d="M15.0625 16.5C15.0625 16.2514 15.1613 16.0129 15.3371 15.8371C15.5129 15.6613 15.7514 15.5625 16 15.5625H26C26.2486 15.5625 26.4871 15.6613 26.6629 15.8371C26.8387 16.0129 26.9375 16.2514 26.9375 16.5V26.5C26.9375 26.7486 26.8387 26.9871 26.6629 27.1629C26.4871 27.3387 26.2486 27.4375 26 27.4375H16C15.7514 27.4375 15.5129 27.3387 15.3371 27.1629C15.1613 26.9871 15.0625 26.7486 15.0625 26.5V16.5ZM16.9375 17.4375V25.5625H25.0625V17.4375H16.9375ZM6.625 0.5625C6.79138 0.562392 6.95479 0.606562 7.09845 0.690477C7.24212 0.774392 7.36087 0.895027 7.4425 1.04L13.0675 11.04C13.1479 11.1827 13.1894 11.3439 13.1881 11.5077C13.1867 11.6715 13.1425 11.832 13.0598 11.9734C12.9771 12.1147 12.8589 12.232 12.7168 12.3134C12.5747 12.3948 12.4138 12.4376 12.25 12.4375H1C0.836238 12.4376 0.675303 12.3948 0.53322 12.3134C0.391137 12.232 0.272864 12.1147 0.190175 11.9734C0.107486 11.832 0.0632676 11.6715 0.0619213 11.5077C0.060575 11.3439 0.102148 11.1827 0.182502 11.04L5.8075 1.04C5.88914 0.895027 6.00788 0.774392 6.15155 0.690477C6.29521 0.606562 6.45862 0.562392 6.625 0.5625ZM2.6025 10.5625H10.6475L6.625 3.4125L2.6025 10.5625ZM15.0625 6.5C15.0625 5.72028 15.2161 4.94819 15.5145 4.22782C15.8129 3.50745 16.2502 2.8529 16.8016 2.30155C17.3529 1.75021 18.0074 1.31285 18.7278 1.01447C19.4482 0.716078 20.2203 0.5625 21 0.5625C21.7797 0.5625 22.5518 0.716078 23.2722 1.01447C23.9926 1.31285 24.6471 1.75021 25.1984 2.30155C25.7498 2.8529 26.1871 3.50745 26.4855 4.22782C26.7839 4.94819 26.9375 5.72028 26.9375 6.5C26.9375 8.07472 26.3119 9.58495 25.1984 10.6984C24.0849 11.8119 22.5747 12.4375 21 12.4375C19.4253 12.4375 17.9151 11.8119 16.8016 10.6984C15.6881 9.58495 15.0625 8.07472 15.0625 6.5ZM21 2.4375C19.9226 2.4375 18.8892 2.86551 18.1274 3.62738C17.3655 4.38925 16.9375 5.42256 16.9375 6.5C16.9375 7.57744 17.3655 8.61075 18.1274 9.37262C18.8892 10.1345 19.9226 10.5625 21 10.5625C22.0774 10.5625 23.1108 10.1345 23.8726 9.37262C24.6345 8.61075 25.0625 7.57744 25.0625 6.5C25.0625 5.42256 24.6345 4.38925 23.8726 3.62738C23.1108 2.86551 22.0774 2.4375 21 2.4375ZM0.337502 15.8375C0.513283 15.6619 0.751563 15.5633 1 15.5633C1.24844 15.5633 1.48672 15.6619 1.6625 15.8375L11.6625 25.8375C11.7546 25.9233 11.8285 26.0268 11.8797 26.1418C11.931 26.2568 11.9585 26.381 11.9607 26.5068C11.963 26.6327 11.9398 26.7578 11.8927 26.8745C11.8455 26.9912 11.7753 27.0973 11.6863 27.1863C11.5973 27.2753 11.4912 27.3455 11.3745 27.3927C11.2578 27.4398 11.1327 27.463 11.0068 27.4607C10.881 27.4585 10.7568 27.431 10.6418 27.3797C10.5268 27.3285 10.4233 27.2546 10.3375 27.1625L0.337502 17.1625C0.161939 16.9867 0.0633265 16.7484 0.0633265 16.5C0.0633265 16.2516 0.161939 16.0133 0.337502 15.8375Z" fill="#313941"/>
<path fill-rule="evenodd" clip-rule="evenodd" d="M11.6626 15.8375C11.8381 16.0133 11.9367 16.2516 11.9367 16.5C11.9367 16.7484 11.8381 16.9867 11.6626 17.1625L1.66255 27.1625C1.48483 27.3281 1.24978 27.4183 1.0069 27.414C0.764023 27.4097 0.532291 27.3113 0.360525 27.1395C0.188759 26.9678 0.0903688 26.736 0.0860836 26.4932C0.0817983 26.2503 0.171952 26.0152 0.337552 25.8375L10.3376 15.8375C10.5133 15.6619 10.7516 15.5633 11.0001 15.5633C11.2485 15.5633 11.4868 15.6619 11.6626 15.8375Z" fill="#313941"/>
</svg>
