<svg id="home" viewBox="0 0 24 24" xmlns="http://www.w3.org/2000/svg"><path d="m19 22.42h-14c-2.07 0-3.75-1.68-3.75-3.75v-8.44c0-1.22.6-2.37 1.6-3.07l7-4.9c1.29-.9 3.02-.9 4.3 0l7 4.9c1 .7 1.6 1.85 1.6 3.07v8.44c0 2.07-1.68 3.75-3.75 3.75zm-7-19.34c-.45 0-.9.14-1.29.41l-7 4.9c-.6.42-.96 1.11-.96 1.84v8.44c0 1.24 1.01 2.25 2.25 2.25h14c1.24 0 2.25-1.01 2.25-2.25v-8.44c0-.73-.36-1.42-.96-1.84l-7-4.9c-.39-.27-.84-.4-1.29-.4z"/><path d="m16 22.42h-8c-.41 0-.75-.34-.75-.75v-5c0-2.62 2.13-4.75 4.75-4.75s4.75 2.13 4.75 4.75v5c0 .41-.34.75-.75.75zm-7.25-1.5h6.5v-4.25c0-1.79-1.46-3.25-3.25-3.25s-3.25 1.46-3.25 3.25z"/></svg>