<svg width="36" height="36" viewBox="0 0 36 36" fill="none" xmlns="http://www.w3.org/2000/svg">
<path fill-rule="evenodd" clip-rule="evenodd" d="M21.685 19.2317C21.685 18.0167 21.2016 16.85 20.3416 15.9917C19.4833 15.1317 18.3166 14.6483 17.1016 14.6483C13.7916 14.6483 8.74496 14.6483 5.43496 14.6483C4.21829 14.6483 3.05329 15.1317 2.19329 15.9917C1.33496 16.85 0.851624 18.0167 0.851624 19.2317V30.8983C0.851624 32.115 1.33496 33.28 2.19329 34.14C3.05329 34.9983 4.21829 35.4817 5.43496 35.4817H17.1016C18.3166 35.4817 19.4833 34.9983 20.3416 34.14C21.2016 33.28 21.685 32.115 21.685 30.8983V19.2317ZM19.185 19.2317V30.8983C19.185 31.4517 18.965 31.9817 18.575 32.3717C18.1833 32.7633 17.6533 32.9817 17.1016 32.9817H5.43496C4.88162 32.9817 4.35162 32.7633 3.96162 32.3717C3.56996 31.9817 3.35162 31.4517 3.35162 30.8983V19.2317C3.35162 18.68 3.56996 18.15 3.96162 17.7583C4.35162 17.3683 4.88162 17.1483 5.43496 17.1483H17.1016C17.6533 17.1483 18.1833 17.3683 18.575 17.7583C18.965 18.15 19.185 18.68 19.185 19.2317Z" fill="#262D34"/>
<path fill-rule="evenodd" clip-rule="evenodd" d="M25.0116 24.0833C25.2583 24.1733 25.4983 24.2583 25.73 24.3417C26.8733 24.7533 28.1333 24.6933 29.2333 24.1767C30.3333 23.6583 31.1816 22.725 31.5933 21.5817C32.715 18.4667 34.4233 13.7183 35.545 10.6033C35.9566 9.46 35.8966 8.2 35.3783 7.1C34.8616 6 33.9283 5.15167 32.7833 4.74C29.67 3.61833 24.9216 1.91 21.8066 0.788333C20.6633 0.376666 19.4016 0.436666 18.3033 0.955C17.2033 1.47167 16.3533 2.405 15.9416 3.55C15.2383 5.505 14.3016 8.10667 13.425 10.5433C13.1916 11.1917 13.5283 11.9083 14.1783 12.1417C14.8266 12.375 15.5433 12.0383 15.7766 11.39L18.295 4.39667C18.4816 3.87667 18.8666 3.45167 19.3666 3.21667C19.8666 2.98167 20.44 2.95333 20.96 3.14167L31.9366 7.09167C32.4566 7.27833 32.8816 7.665 33.1166 8.165C33.3516 8.665 33.38 9.23833 33.1916 9.75667L29.2416 20.735C29.055 21.255 28.6683 21.6783 28.1683 21.915C27.6683 22.15 27.095 22.1767 26.5766 21.99L25.8583 21.7317C25.2083 21.4983 24.4916 21.835 24.2583 22.485C24.025 23.1333 24.3633 23.85 25.0116 24.0833Z" fill="#262D34"/>
<path d="M11.2683 26.7317C12.1888 26.7317 12.935 25.9855 12.935 25.065C12.935 24.1445 12.1888 23.3983 11.2683 23.3983C10.3478 23.3983 9.60162 24.1445 9.60162 25.065C9.60162 25.9855 10.3478 26.7317 11.2683 26.7317Z" fill="#262D34"/>
<path fill-rule="evenodd" clip-rule="evenodd" d="M24.3316 10.9967C23.4666 10.685 22.5116 11.135 22.2 12.0017C21.8883 12.8667 22.3383 13.8217 23.2033 14.1333C24.0683 14.445 25.025 13.995 25.3366 13.13C25.6483 12.265 25.1983 11.3083 24.3316 10.9967Z" fill="#262D34"/>
<path d="M15.435 22.565C16.3555 22.565 17.1016 21.8188 17.1016 20.8983C17.1016 19.9779 16.3555 19.2317 15.435 19.2317C14.5145 19.2317 13.7683 19.9779 13.7683 20.8983C13.7683 21.8188 14.5145 22.565 15.435 22.565Z" fill="#262D34"/>
<path fill-rule="evenodd" clip-rule="evenodd" d="M17.1016 29.2317C17.1016 28.3117 16.355 27.565 15.435 27.565C14.515 27.565 13.7683 28.3117 13.7683 29.2317C13.7683 30.1517 14.515 30.8983 15.435 30.8983C16.355 30.8983 17.1016 30.1517 17.1016 29.2317Z" fill="#262D34"/>
<path fill-rule="evenodd" clip-rule="evenodd" d="M27.8449 18.4617C28.1566 17.595 27.7066 16.64 26.8416 16.3283C25.9766 16.0167 25.0199 16.4667 24.7099 17.3317C24.3983 18.1983 24.8483 19.1533 25.7133 19.465C26.5783 19.7767 27.5349 19.3267 27.8449 18.4617Z" fill="#262D34"/>
<path d="M7.1016 30.8983C8.02208 30.8983 8.76827 30.1521 8.76827 29.2317C8.76827 28.3112 8.02208 27.565 7.1016 27.565C6.18113 27.565 5.43494 28.3112 5.43494 29.2317C5.43494 30.1521 6.18113 30.8983 7.1016 30.8983Z" fill="#262D34"/>
<path fill-rule="evenodd" clip-rule="evenodd" d="M8.76827 20.8983C8.76827 19.9783 8.0216 19.2317 7.1016 19.2317C6.1816 19.2317 5.43494 19.9783 5.43494 20.8983C5.43494 21.8183 6.1816 22.565 7.1016 22.565C8.0216 22.565 8.76827 21.8183 8.76827 20.8983Z" fill="#262D34"/>
<path fill-rule="evenodd" clip-rule="evenodd" d="M22.8266 7.79833C23.1383 6.93333 22.6883 5.97667 21.8233 5.665C20.9566 5.355 20.0016 5.80333 19.69 6.67C19.3783 7.535 19.8283 8.49 20.6933 8.80167C21.56 9.11333 22.515 8.66333 22.8266 7.79833Z" fill="#262D34"/>
</svg>
