<svg width="30" height="32" viewBox="0 0 30 32" fill="none" xmlns="http://www.w3.org/2000/svg">
<g filter="url(#filter0_d_2_18047)">
<path d="M10 2V5" stroke="#292D32" stroke-width="1.5" stroke-miterlimit="10" stroke-linecap="round" stroke-linejoin="round"/>
<path d="M18 2V5" stroke="#292D32" stroke-width="1.5" stroke-miterlimit="10" stroke-linecap="round" stroke-linejoin="round"/>
<path d="M23 8.5V13.63C22.11 12.92 20.98 12.5 19.75 12.5C18.52 12.5 17.37 12.93 16.47 13.66C15.26 14.61 14.5 16.1 14.5 17.75C14.5 18.73 14.78 19.67 15.26 20.45C15.63 21.06 16.11 21.59 16.68 22H10C6.5 22 5 20 5 17V8.5C5 5.5 6.5 3.5 10 3.5H18C21.5 3.5 23 5.5 23 8.5Z" stroke="#292D32" stroke-width="1.5" stroke-miterlimit="10" stroke-linecap="round" stroke-linejoin="round"/>
<path d="M9 11H15" stroke="#292D32" stroke-width="1.5" stroke-miterlimit="10" stroke-linecap="round" stroke-linejoin="round"/>
<path d="M9 16H11.62" stroke="#292D32" stroke-width="1.5" stroke-miterlimit="10" stroke-linecap="round" stroke-linejoin="round"/>
<path d="M25 17.75C25 18.73 24.72 19.67 24.24 20.45C23.96 20.93 23.61 21.35 23.2 21.69C22.28 22.51 21.08 23 19.75 23C18.6 23 17.54 22.63 16.68 22C16.11 21.59 15.63 21.06 15.26 20.45C14.78 19.67 14.5 18.73 14.5 17.75C14.5 16.1 15.26 14.61 16.47 13.66C17.37 12.93 18.52 12.5 19.75 12.5C20.98 12.5 22.11 12.92 23 13.63C24.22 14.59 25 16.08 25 17.75Z" stroke="#292D32" stroke-width="1.5" stroke-miterlimit="10" stroke-linecap="round" stroke-linejoin="round"/>
<path d="M19.75 20.25C19.75 18.87 20.87 17.75 22.25 17.75C20.87 17.75 19.75 16.63 19.75 15.25C19.75 16.63 18.63 17.75 17.25 17.75C18.63 17.75 19.75 18.87 19.75 20.25Z" stroke="#292D32" stroke-width="1.5" stroke-linecap="round" stroke-linejoin="round"/>
</g>
<defs>
<filter id="filter0_d_2_18047" x="-2" y="0" width="32" height="32" filterUnits="userSpaceOnUse" color-interpolation-filters="sRGB">
<feFlood flood-opacity="0" result="BackgroundImageFix"/>
<feColorMatrix in="SourceAlpha" type="matrix" values="0 0 0 0 0 0 0 0 0 0 0 0 0 0 0 0 0 0 127 0" result="hardAlpha"/>
<feOffset dy="4"/>
<feGaussianBlur stdDeviation="2"/>
<feComposite in2="hardAlpha" operator="out"/>
<feColorMatrix type="matrix" values="0 0 0 0 0 0 0 0 0 0 0 0 0 0 0 0 0 0 0.25 0"/>
<feBlend mode="normal" in2="BackgroundImageFix" result="effect1_dropShadow_2_18047"/>
<feBlend mode="normal" in="SourceGraphic" in2="effect1_dropShadow_2_18047" result="shape"/>
</filter>
</defs>
</svg>
