<svg id="expanded" enable-background="new 0 0 512 512" height="512" viewBox="0 0 512 512" width="512" xmlns="http://www.w3.org/2000/svg"><g><g><path d="m255.995 247.16c-54.771 0-99.33-44.564-99.33-99.341 0-54.771 44.56-99.329 99.33-99.329 54.776 0 99.34 44.559 99.34 99.329 0 54.777-44.564 99.341-99.34 99.341zm0-166.67c-37.126 0-67.33 30.204-67.33 67.329 0 37.132 30.204 67.341 67.33 67.341 37.131 0 67.34-30.209 67.34-67.341 0-37.125-30.209-67.329-67.34-67.329z"/></g><g><path d="m318.075 463.51h-124.15c-54.771 0-99.33-44.559-99.33-99.33s44.56-99.33 99.33-99.33h124.15c54.771 0 99.33 44.559 99.33 99.33s-44.559 99.33-99.33 99.33zm-124.15-166.66c-37.126 0-67.33 30.204-67.33 67.33s30.204 67.33 67.33 67.33h124.15c37.126 0 67.33-30.204 67.33-67.33s-30.204-67.33-67.33-67.33z"/></g></g></svg>