<svg width="31" height="30" viewBox="0 0 31 30" fill="none" xmlns="http://www.w3.org/2000/svg"><path d="M28.2573 1.58393C27.5547 0.943197 26.7313 0.479087 25.8457 0.224561C24.9601 -0.0299651 24.034 -0.0686624 23.1331 0.111217L18.3565 1.05757C17.2505 1.2761 16.2444 1.89543 15.5013 2.81528C14.7583 1.89534 13.7521 1.27638 12.646 1.05894L7.86936 0.111217C6.03796 -0.251506 4.17281 0.284397 2.74519 1.58393C1.31757 2.88346 0.500001 4.79253 0.500001 6.81888V21.5351C0.499339 23.1318 1.01277 24.6781 1.95067 25.9041C2.88857 27.13 4.19137 27.9577 5.63168 28.2428L13.4886 29.8027C14.8187 30.0662 16.1815 30.0657 17.5114 29.8014L25.3683 28.2428C26.8087 27.958 28.1117 27.1303 29.0496 25.9043C29.9876 24.6783 30.5009 23.1319 30.5 21.5351V6.81888C30.5011 5.82 30.3005 4.83311 29.9125 3.92835C29.5244 3.02358 28.9585 2.22315 28.2548 1.58393H28.2573ZM28.0023 21.5351C28.0024 22.4932 27.6943 23.4209 27.1316 24.1565C26.5689 24.8921 25.7874 25.389 24.9233 25.5605L17.0664 27.1178C16.9614 27.1382 16.8564 27.1478 16.7514 27.1641V23.181C16.7514 22.8193 16.6196 22.4725 16.3852 22.2168C16.1508 21.961 15.8328 21.8174 15.5013 21.8174C15.1697 21.8174 14.8517 21.961 14.6173 22.2168C14.3829 22.4725 14.2511 22.8193 14.2511 23.181V27.1655C14.1461 27.1491 14.0411 27.1396 13.9361 27.1191L6.07922 25.5605C5.2151 25.389 4.43357 24.8921 3.87089 24.1565C3.30821 23.4209 3.00008 22.4932 3.00021 21.5351V6.81888C3.00021 5.60253 3.4915 4.45845 4.34782 3.67845C4.76893 3.29328 5.26279 3.01424 5.79416 2.86127C6.32553 2.70829 6.88131 2.68514 7.42183 2.79346L12.1985 3.74254C13.3873 3.97709 14.2511 5.10617 14.2511 6.42479V6.81751C14.2511 7.17917 14.3829 7.52601 14.6173 7.78174C14.8517 8.03747 15.1697 8.18114 15.5013 8.18114C15.8328 8.18114 16.1508 8.03747 16.3852 7.78174C16.6196 7.52601 16.7514 7.17917 16.7514 6.81751V6.42479C16.7514 5.10617 17.6139 3.97709 18.804 3.74118L23.5807 2.79346C24.1213 2.68569 24.677 2.70892 25.2084 2.86149C25.7398 3.01407 26.234 3.29226 26.6559 3.67636C27.0778 4.06046 27.4171 4.54107 27.6498 5.08413C27.8825 5.6272 28.0028 6.21943 28.0023 6.81888V21.5351ZM7.54559 11.4307L6.20548 17.7906C6.17634 17.9256 6.17186 18.0656 6.19231 18.2025C6.21276 18.3394 6.25773 18.4706 6.32465 18.5885C6.39157 18.7065 6.47913 18.8089 6.58234 18.8899C6.68555 18.9709 6.80238 19.029 6.92616 19.0608C7.04994 19.0926 7.17825 19.0975 7.30376 19.0752C7.42927 19.0529 7.54952 19.0038 7.65766 18.9308C7.76579 18.8578 7.85968 18.7623 7.93397 18.6497C8.00826 18.5371 8.06149 18.4097 8.09063 18.2747L8.21189 17.7279H10.8971L10.9971 18.216C11.021 18.3634 11.0721 18.5039 11.1471 18.6292C11.2222 18.7544 11.3198 18.8618 11.434 18.9447C11.5482 19.0277 11.6766 19.0845 11.8115 19.1118C11.9464 19.1391 12.0849 19.1363 12.2188 19.1036C12.3527 19.0708 12.4791 19.0088 12.5904 18.9213C12.7016 18.8338 12.7955 18.7226 12.8663 18.5944C12.9371 18.4662 12.9833 18.3237 13.0021 18.1754C13.021 18.0272 13.0121 17.8763 12.976 17.732L11.6759 11.4852C11.2871 8.9584 7.96187 8.97068 7.54559 11.4307ZM8.69318 15.5461L9.50075 11.8943C9.5245 11.8016 9.56326 11.7279 9.62201 11.7279C9.63951 11.7416 9.69327 11.8138 9.72452 11.9679L10.4533 15.5461H8.69318ZM16.7514 13.9097C16.7514 14.053 16.7255 14.1948 16.6752 14.3272C16.625 14.4595 16.5513 14.5798 16.4584 14.6811C16.3656 14.7824 16.2553 14.8628 16.134 14.9176C16.0127 14.9724 15.8826 15.0006 15.7513 15.0006H15.2512C14.986 15.0006 14.7316 14.8857 14.5441 14.6811C14.3565 14.4765 14.2511 14.199 14.2511 13.9097C14.2511 13.6204 14.3565 13.3429 14.5441 13.1383C14.7316 12.9338 14.986 12.8188 15.2512 12.8188H15.7513C16.0165 12.8188 16.2709 12.9338 16.4584 13.1383C16.646 13.3429 16.7514 13.6204 16.7514 13.9097ZM23.3344 12.3429L20.4229 16.9111H22.6268C22.8921 16.9111 23.1465 17.026 23.334 17.2306C23.5216 17.4352 23.6269 17.7126 23.6269 18.0019C23.6269 18.2913 23.5216 18.5687 23.334 18.7733C23.1465 18.9779 22.8921 19.0928 22.6268 19.0928H19.5716C19.2735 19.0927 18.9812 19.0035 18.7263 18.835C18.4713 18.6665 18.2636 18.425 18.1255 18.1369C17.9874 17.8487 17.9243 17.5248 17.943 17.2003C17.9617 16.8758 18.0614 16.5631 18.2315 16.2961L21.143 11.7293H18.939C18.6738 11.7293 18.4194 11.6144 18.2319 11.4098C18.0443 11.2052 17.939 10.9277 17.939 10.6384C17.939 10.3491 18.0443 10.0716 18.2319 9.867C18.4194 9.66242 18.6738 9.54749 18.939 9.54749H21.9943C22.2924 9.54765 22.5847 9.63683 22.8396 9.80534C23.0945 9.97386 23.3023 10.2153 23.4404 10.5034C23.5784 10.7916 23.6416 11.1155 23.6229 11.44C23.6042 11.7645 23.5044 12.0772 23.3344 12.3443V12.3429Z" fill="#313941"/></svg>
