<svg width="31" height="30" viewBox="0 0 31 30" fill="none" xmlns="http://www.w3.org/2000/svg">
<path d="M22.6424 11.3667C22.6426 10.8623 22.543 10.3629 22.3493 9.89711C22.1556 9.43137 21.8717 9.00855 21.5138 8.65303C20.7816 7.95435 19.8085 7.56453 18.7964 7.56453C17.7844 7.56453 16.8112 7.95435 16.079 8.65303L1.19901 23.5371C0.519871 24.2653 0.149969 25.2288 0.167268 26.2244C0.184566 27.22 0.587714 28.1701 1.29175 28.8743C1.99578 29.5785 2.9457 29.9819 3.94131 29.9994C4.93692 30.0169 5.90046 29.6472 6.62884 28.9683L21.5138 14.0842C21.8722 13.7283 22.1565 13.3049 22.3502 12.8385C22.5439 12.372 22.6433 11.8718 22.6424 11.3667ZM4.85568 27.1976C4.60218 27.4392 4.2654 27.574 3.91518 27.574C3.56496 27.574 3.22818 27.4392 2.97468 27.1976C2.72565 26.9479 2.58581 26.6097 2.58581 26.2571C2.58581 25.9044 2.72565 25.5662 2.97468 25.3165L12.717 15.5727L14.6043 17.4601L4.85568 27.1976ZM19.7432 12.3098L16.3724 15.6818L14.4914 13.7945L17.8634 10.4237C17.9836 10.2864 18.1308 10.1752 18.2957 10.0971C18.4606 10.0189 18.6398 9.97548 18.8222 9.96943C19.0046 9.96338 19.1863 9.99484 19.3561 10.0619C19.5258 10.1289 19.68 10.2301 19.809 10.3591C19.9381 10.4882 20.0392 10.6424 20.1063 10.8121C20.1733 10.9818 20.2048 11.1635 20.1987 11.346C20.1927 11.5284 20.1492 11.7076 20.0711 11.8725C19.9929 12.0374 19.8818 12.1845 19.7444 12.3048L19.7432 12.3098ZM6.16862 3.58049L8.11232 3.02621L8.66659 1.08247C8.75588 0.770574 8.9443 0.496234 9.20335 0.300935C9.46241 0.105636 9.778 0 10.1024 0C10.4268 0 10.7424 0.105636 11.0015 0.300935C11.2605 0.496234 11.449 0.770574 11.5383 1.08247L12.0925 3.02621L14.0362 3.58049C14.3481 3.66978 14.6224 3.85821 14.8177 4.11726C15.013 4.37632 15.1187 4.69192 15.1187 5.01635C15.1187 5.34078 15.013 5.65638 14.8177 5.91544C14.6224 6.1745 14.3481 6.36292 14.0362 6.45221L12.0925 7.00649L11.5383 8.95023C11.449 9.26213 11.2605 9.53647 11.0015 9.73177C10.7424 9.92706 10.4268 10.0327 10.1024 10.0327C9.778 10.0327 9.46241 9.92706 9.20335 9.73177C8.9443 9.53647 8.75588 9.26213 8.66659 8.95023L8.11232 7.00649L6.16862 6.45221C5.85673 6.36292 5.5824 6.1745 5.3871 5.91544C5.19181 5.65638 5.08617 5.34078 5.08617 5.01635C5.08617 4.69192 5.19181 4.37632 5.3871 4.11726C5.5824 3.85821 5.85673 3.66978 6.16862 3.58049ZM29.0842 21.5005L27.1405 22.0548L26.5863 23.9985C26.497 24.3104 26.3086 24.5848 26.0495 24.7801C25.7905 24.9754 25.4749 25.081 25.1504 25.081C24.826 25.081 24.5104 24.9754 24.2514 24.7801C23.9923 24.5848 23.8039 24.3104 23.7146 23.9985L23.1603 22.0548L21.2166 21.5005C20.9047 21.4112 20.6304 21.2228 20.4351 20.9638C20.2398 20.7047 20.1342 20.3891 20.1342 20.0647C20.1342 19.7402 20.2398 19.4246 20.4351 19.1656C20.6304 18.9065 20.9047 18.7181 21.2166 18.6288L23.1603 18.0745L23.7146 16.1308C23.8039 15.8189 23.9923 15.5446 24.2514 15.3493C24.5104 15.154 24.826 15.0483 25.1504 15.0483C25.4749 15.0483 25.7905 15.154 26.0495 15.3493C26.3086 15.5446 26.497 15.8189 26.5863 16.1308L27.1405 18.0745L29.0842 18.6288C29.3961 18.7181 29.6705 18.9065 29.8658 19.1656C30.0611 19.4246 30.1667 19.7402 30.1667 20.0647C30.1667 20.3891 30.0611 20.7047 29.8658 20.9638C29.6705 21.2228 29.3961 21.4112 29.0842 21.5005ZM22.3352 3.13531L24.0356 2.65L24.5234 0.947035C24.6028 0.675936 24.7679 0.437865 24.994 0.268497C25.2201 0.0991296 25.495 0.00758698 25.7774 0.00758698C26.0599 0.00758698 26.3348 0.0991296 26.5609 0.268497C26.7869 0.437865 26.952 0.675936 27.0314 0.947035L27.5167 2.6475L29.2172 3.1328C29.4883 3.2122 29.7263 3.3773 29.8957 3.60338C30.0651 3.82947 30.1566 4.10434 30.1566 4.38683C30.1566 4.66931 30.0651 4.94419 29.8957 5.17027C29.7263 5.39636 29.4883 5.56146 29.2172 5.64086L27.5167 6.12616L27.0314 7.83039C26.952 8.10149 26.7869 8.33956 26.5609 8.50892C26.3348 8.67829 26.0599 8.76983 25.7774 8.76983C25.495 8.76983 25.2201 8.67829 24.994 8.50892C24.7679 8.33956 24.6028 8.10149 24.5234 7.83039L24.0381 6.13118L22.3352 5.64336C22.0641 5.56397 21.826 5.39886 21.6567 5.17278C21.4873 4.9467 21.3958 4.67182 21.3958 4.38934C21.3958 4.10685 21.4873 3.83197 21.6567 3.60589C21.826 3.37981 22.0641 3.2147 22.3352 3.13531Z" fill="#313941"/>
</svg>
