<svg xmlns="http://www.w3.org/2000/svg" version="1.1" xmlns:xlink="http://www.w3.org/1999/xlink" width="512" height="512" x="0" y="0" viewBox="0 0 64 64" style="enable-background:new 0 0 512 512" xml:space="preserve" class=""><g><path d="M54.172 12.209a6.052 6.052 0 0 0-4.391-1.693c-6.9.229-12.515 1.729-16.7 4.461a1.98 1.98 0 0 1-2.164 0c-4.182-2.731-9.8-4.231-16.7-4.46a6.024 6.024 0 0 0-4.39 1.693A5.948 5.948 0 0 0 8 16.519v26.053a5.957 5.957 0 0 0 5.776 5.991c6.1.2 11.176 1.55 15.091 4.023a5.907 5.907 0 0 0 6.268 0c3.913-2.473 8.99-3.826 15.089-4.023A5.957 5.957 0 0 0 56 42.572V16.519a5.948 5.948 0 0 0-1.828-4.31zM13.905 44.564A2 2 0 0 1 12 42.572V16.519a1.985 1.985 0 0 1 .61-1.436 2.011 2.011 0 0 1 1.408-.57h.068c6.156.2 11.083 1.487 14.644 3.811a5.916 5.916 0 0 0 1.27.613v29.689a34.536 34.536 0 0 0-16.095-4.062zM52 42.572a2 2 0 0 1-1.9 1.992A34.521 34.521 0 0 0 34 48.627V18.938a5.963 5.963 0 0 0 1.27-.613c3.561-2.324 8.488-3.607 14.643-3.811a1.965 1.965 0 0 1 1.477.569 1.985 1.985 0 0 1 .61 1.436z" fill="#ffffff" opacity="1" data-original="#000000"></path></g></svg>