<svg width="24" height="24" viewBox="0 0 24 24" fill="none" xmlns="http://www.w3.org/2000/svg">
<path d="M21.81 3.94012C20.27 7.78012 16.41 13.0001 13.18 15.5901L11.21 17.1701C10.96 17.3501 10.71 17.5101 10.43 17.6201C10.43 17.4401 10.42 17.2401 10.39 17.0501C10.28 16.2101 9.90002 15.4301 9.23002 14.7601C8.55002 14.0801 7.72002 13.6801 6.87002 13.5701C6.67002 13.5601 6.47002 13.5401 6.27002 13.5601C6.38002 13.2501 6.55002 12.9601 6.76002 12.7201L8.32002 10.7501C10.9 7.52012 16.14 3.64012 19.97 2.11012C20.56 1.89012 21.13 2.05012 21.49 2.42012C21.87 2.79012 22.05 3.36012 21.81 3.94012Z" stroke="#292D32" stroke-width="1.5" stroke-linecap="round" stroke-linejoin="round"/>
<path d="M10.43 17.6201C10.43 18.7201 10.01 19.77 9.22003 20.57C8.61003 21.18 7.78003 21.6001 6.79003 21.7301L4.33003 22.0001C2.99003 22.1501 1.84003 21.01 2.00003 19.65L2.27003 17.1901C2.51003 15.0001 4.34003 13.6001 6.28003 13.5601C6.48003 13.5501 6.69003 13.56 6.88003 13.57C7.73003 13.68 8.56003 14.0701 9.24003 14.7601C9.91003 15.4301 10.29 16.21 10.4 17.05C10.41 17.24 10.43 17.4301 10.43 17.6201Z" stroke="#292D32" stroke-width="1.5" stroke-linecap="round" stroke-linejoin="round"/>
<path d="M14.24 14.47C14.24 11.86 12.12 9.73999 9.51001 9.73999" stroke="#292D32" stroke-width="1.5" stroke-linecap="round" stroke-linejoin="round"/>
</svg>
