<svg width="24" height="24" viewBox="0 0 24 24" fill="none" xmlns="http://www.w3.org/2000/svg">
<path d="M2 19.77V15.73C2 14.14 2.64 13.5 4.23 13.5H8.27C9.86 13.5 10.5 14.14 10.5 15.73V19.77C10.5 21.36 9.86 22 8.27 22H4.23C2.64 22 2 21.36 2 19.77Z" stroke="#292D32" stroke-width="1.5" stroke-linecap="round" stroke-linejoin="round"/>
<path d="M13.5 8.52V3.98C13.5 2.57 14.14 2 15.73 2H19.77C21.36 2 22 2.57 22 3.98V8.51C22 9.93 21.36 10.49 19.77 10.49H15.73C14.14 10.5 13.5 9.93 13.5 8.52Z" stroke="#292D32" stroke-width="1.5" stroke-linecap="round" stroke-linejoin="round"/>
<path d="M6.5 11C4.01472 11 2 8.98528 2 6.5C2 4.01472 4.01472 2 6.5 2C8.98528 2 11 4.01472 11 6.5C11 8.98528 8.98528 11 6.5 11Z" stroke="#292D32" stroke-width="1.5" stroke-linecap="round" stroke-linejoin="round"/>
<path d="M14.9752 22H20.5248C21.6433 22 22.3562 20.7248 21.8154 19.6784L20.3835 16.9056L19.0437 14.3093C18.4844 13.2302 17.0217 13.2302 16.4625 14.3093L15.1165 16.9056L14.4712 18.1546L13.6846 19.6784C13.1438 20.7248 13.8567 22 14.9752 22Z" stroke="#292D32" stroke-width="1.5" stroke-linecap="round" stroke-linejoin="round"/>
</svg>
