<svg height="512" viewBox="0 0 64 64" width="512" xmlns="http://www.w3.org/2000/svg"><g id="_12-Mug" data-name="12-Mug"><path d="m61 25.41v18.18a9.416 9.416 0 0 1 -9.41 9.41h-6.59v-5h6.7a4.3 4.3 0 0 0 4.3-4.3v-18.4a4.3 4.3 0 0 0 -4.3-4.3h-6.7v-5h6.59a9.4 9.4 0 0 1 9.41 9.41z" fill="#f7f2ec"/><path d="m41 60h-34a4 4 0 0 1 -4-4v-3h42v3a4 4 0 0 1 -4 4z" fill="#bc8f6e"/><path d="m44 15v1h-40v-1a3 3 0 0 1 3-3h34a3 3 0 0 1 3 3z" fill="#bc8f6e"/><path d="m10 63a3 3 0 0 1 -3-3h34a3 3 0 0 1 -3 3z" fill="#555f69"/><path d="m45 52v1h-42v-37h42z" fill="#f7f2ec"/><path d="m18 9h-2a3.563 3.563 0 0 1 1.293-2.707c.49-.493.707-.731.707-1.293s-.217-.8-.707-1.293a3.563 3.563 0 0 1 -1.293-2.707h2c0 .562.217.8.707 1.293a3.563 3.563 0 0 1 1.293 2.707 3.563 3.563 0 0 1 -1.293 2.707c-.49.493-.707.731-.707 1.293z" fill="#ded2c2"/><path d="m24 9h-2a3.563 3.563 0 0 1 1.293-2.707c.49-.493.707-.731.707-1.293s-.217-.8-.707-1.293a3.563 3.563 0 0 1 -1.293-2.707h2c0 .562.217.8.707 1.293a3.563 3.563 0 0 1 1.293 2.707 3.563 3.563 0 0 1 -1.293 2.707c-.49.493-.707.731-.707 1.293z" fill="#ded2c2"/><path d="m30 9h-2a3.563 3.563 0 0 1 1.293-2.707c.49-.493.707-.731.707-1.293s-.217-.8-.707-1.293a3.563 3.563 0 0 1 -1.293-2.707h2c0 .562.217.8.707 1.293a3.563 3.563 0 0 1 1.293 2.707 3.563 3.563 0 0 1 -1.293 2.707c-.49.493-.707.731-.707 1.293z" fill="#ded2c2"/><path d="m50 50h3a5 5 0 0 0 5-5v-21a5 5 0 0 0 -5-5h-3a2 2 0 0 1 -2-2v-1h-3v5h6.7a4.3 4.3 0 0 1 4.3 4.3v18.4a4.3 4.3 0 0 1 -4.3 4.3h-6.7v5h3v-1a2 2 0 0 1 2-2z" fill="#e6ddd3"/><path d="m8 27v-11h-5v37h42v-4h-15a22 22 0 0 1 -22-22z" fill="#e6ddd3"/><path d="m43 57h-32a3 3 0 0 1 -3-3v-1h-5v3a4 4 0 0 0 4 4h34a4 4 0 0 0 4-4v-1a2 2 0 0 1 -2 2z" fill="#a97c5d"/><path d="m10 61h28a2.993 2.993 0 0 1 2.12.88c.037.037.066.083.1.123a2.977 2.977 0 0 0 .78-2.003h-34a2.979 2.979 0 0 0 .779 2 2.98 2.98 0 0 1 2.221-1z" fill="#464e57"/><path d="m41 14h-34a2.982 2.982 0 0 1 -2.224-1 2.981 2.981 0 0 0 -.776 2v1h40v-1a2.981 2.981 0 0 0 -.776-2 2.982 2.982 0 0 1 -2.224 1z" fill="#a97c5d"/><path d="m14 28h-2a1 1 0 0 0 -1 1v12a1 1 0 0 0 1 1h2a3 3 0 0 0 3-3v-2a2.981 2.981 0 0 0 -.78-2 2.981 2.981 0 0 0 .78-2v-2a3 3 0 0 0 -3-3zm0 2a1 1 0 0 1 1 1v2a1 1 0 0 1 -1 1h-1v-4zm1 9a1 1 0 0 1 -1 1h-1v-4h1a1 1 0 0 1 1 1z" fill="#464e57"/><path d="m23 28h-4a1 1 0 0 0 -1 1v12a1 1 0 0 0 1 1h4a1 1 0 0 0 1-1v-12a1 1 0 0 0 -1-1zm-1 12h-2v-10h2z" fill="#464e57"/><path d="m25 30v4a2 2 0 0 0 2 2h1v4h-3v2h3a2 2 0 0 0 2-2v-4a2 2 0 0 0 -2-2h-1v-4h3v-2h-3a2 2 0 0 0 -2 2z" fill="#464e57"/><path d="m36 30v-2h-3a2 2 0 0 0 -2 2v4a2 2 0 0 0 2 2h1v4h-3v2h3a2 2 0 0 0 2-2v-4a2 2 0 0 0 -2-2h-1v-4z" fill="#464e57"/><g fill="#e6ddd3"><path d="m14 36h-1v1a1 1 0 0 1 1 1v2a1 1 0 0 0 1-1v-2a1 1 0 0 0 -1-1z"/><path d="m12 42a1 1 0 0 1 -1-1v-12a1 1 0 0 0 -1 1v12a1 1 0 0 0 1 1h2a2.993 2.993 0 0 0 2.554-1.446 2.976 2.976 0 0 1 -1.554.446z"/><path d="m14 30h-1v1a1 1 0 0 1 1 1v2a1 1 0 0 0 1-1v-2a1 1 0 0 0 -1-1z"/><path d="m20 31h1v9h1v-10h-2z"/><path d="m18 41v-12a1 1 0 0 0 -1 1v12a1 1 0 0 0 1 1h4a1 1 0 0 0 1-1h-4a1 1 0 0 1 -1-1z"/><path d="m25 42v-1h-1v2h3a2 2 0 0 0 1.82-1.18 1.99 1.99 0 0 1 -.82.18z"/><path d="m26 37h1v3h1v-4h-1a2 2 0 0 1 -2-2v-4a1.99 1.99 0 0 1 .18-.82 2 2 0 0 0 -1.18 1.82v4a2 2 0 0 0 2 2z"/><path d="m27 30h2v1h-2z"/><path d="m33 30h2v1h-2z"/><path d="m34 36h-1a2 2 0 0 1 -2-2v-4a1.99 1.99 0 0 1 .18-.82 2 2 0 0 0 -1.18 1.82v4a2 2 0 0 0 2 2h1v3h1z"/><path d="m31 42v-1h-1v2h3a2 2 0 0 0 1.82-1.18 1.99 1.99 0 0 1 -.82.18z"/><path d="m36 19h2v2h-2z"/><path d="m40 19h2v2h-2z"/></g></g></svg>