<svg width="15" height="15" viewBox="0 0 15 15" fill="none" xmlns="http://www.w3.org/2000/svg"><g clip-path="url(#clip0_354_1338)"><path d="M5.64459 4.08707L6.41774 6.75159C6.52079 7.10664 6.70536 7.42964 6.95517 7.69211C7.20499 7.9546 7.5124 8.1485 7.85034 8.25679L10.3864 9.06911C10.6137 9.14193 10.6137 9.48096 10.3864 9.55378L7.85034 10.3661C7.51232 10.4742 7.20482 10.6681 6.95497 10.9306C6.70513 11.1931 6.52062 11.5161 6.41774 11.8713L5.64459 14.5358C5.57529 14.7747 5.25261 14.7747 5.1833 14.5358L4.41016 11.8713C4.30727 11.5161 4.12277 11.1931 3.87292 10.9306C3.62308 10.6681 3.31558 10.4742 2.97756 10.3661L0.441543 9.55378C0.214147 9.48096 0.214147 9.14193 0.441543 9.06911L2.97756 8.25679C3.31549 8.1485 3.6229 7.9546 3.87272 7.69211C4.12254 7.42964 4.3071 7.10664 4.41016 6.75159L5.1833 4.08707C5.25261 3.84701 5.57529 3.84701 5.64459 4.08707Z" fill="#7DAED6"/></g><path d="M10.9696 0.135525L11.4922 2.14122C11.5619 2.40848 11.6867 2.65161 11.8555 2.84918C12.0244 3.04676 12.2322 3.19273 12.4606 3.27423L14.1748 3.88571C14.3285 3.94051 14.3285 4.19572 14.1748 4.25053L12.4606 4.862C12.2321 4.94337 12.0243 5.08929 11.8554 5.28688C11.6865 5.48449 11.5618 5.72768 11.4922 5.99502L10.9696 8.00071C10.9228 8.18055 10.7047 8.18055 10.6578 8.00071L10.1352 5.99502C10.0657 5.72768 9.94097 5.48449 9.77209 5.28688C9.60321 5.08929 9.39536 4.94337 9.16688 4.862L7.45268 4.25053C7.29898 4.19572 7.29898 3.94051 7.45268 3.88571L9.16688 3.27423C9.3953 3.19273 9.60309 3.04676 9.77195 2.84918C9.94082 2.65161 10.0656 2.40848 10.1352 2.14122L10.6578 0.135525C10.7047 -0.0451751 10.9228 -0.0451751 10.9696 0.135525Z" fill="#ABCDE8"/><defs><clipPath id="clip0_354_1338"><rect width="10.8284" height="11.3771" fill="white" transform="translate(0 3.62288)"/></clipPath></defs></svg>