<svg width="15" height="15" viewBox="0 0 15 15" fill="none" xmlns="http://www.w3.org/2000/svg"><g clip-path="url(#clip0_354_1326)"><path d="M5.6446 4.08705L6.41773 6.75159C6.52078 7.10663 6.70537 7.42964 6.95516 7.6921C7.20498 7.9546 7.51241 8.14849 7.85034 8.25677L10.3863 9.06912C10.6137 9.14192 10.6137 9.48095 10.3863 9.55376L7.85034 10.3661C7.51232 10.4742 7.2048 10.668 6.95495 10.9305C6.70513 11.193 6.52063 11.5162 6.41773 11.8713L5.6446 14.5358C5.57531 14.7747 5.25261 14.7747 5.18329 14.5358L4.41016 11.8713C4.30726 11.5162 4.12276 11.193 3.87291 10.9305C3.62309 10.668 3.31557 10.4742 2.97756 10.3661L0.441543 9.55376C0.214147 9.48095 0.214147 9.14192 0.441543 9.06912L2.97756 8.25677C3.31548 8.14849 3.62291 7.9546 3.8727 7.6921C4.12253 7.42964 4.30708 7.10663 4.41016 6.75159L5.18329 4.08705C5.25261 3.84702 5.57531 3.84702 5.6446 4.08705Z" fill="#AF7DD6"/><path d="M12.6403 9.39826L13.0117 10.6831C13.0612 10.8544 13.1498 11.0101 13.2698 11.1367C13.3898 11.2633 13.5375 11.3568 13.6998 11.409L14.918 11.8007C15.0272 11.8358 15.0272 11.9993 14.918 12.0344L13.6998 12.4262C13.5375 12.4783 13.3897 12.5718 13.2697 12.6984C13.1497 12.8249 13.0611 12.9808 13.0117 13.152L12.6403 14.4369C12.607 14.5521 12.452 14.5521 12.4187 14.4369L12.0473 13.152C11.9979 12.9808 11.9093 12.8249 11.7893 12.6984C11.6693 12.5718 11.5215 12.4783 11.3592 12.4262L10.141 12.0344C10.0318 11.9993 10.0318 11.8358 10.141 11.8007L11.3592 11.409C11.5215 11.3568 11.6692 11.2633 11.7892 11.1367C11.9092 11.0101 11.9978 10.8544 12.0473 10.6831L12.4187 9.39826C12.452 9.28249 12.607 9.28249 12.6403 9.39826Z" fill="#E8D3FF"/><path d="M10.9697 0.135525L11.4922 2.14122C11.5619 2.40848 11.6867 2.65161 11.8555 2.84918C12.0244 3.04676 12.2322 3.19271 12.4606 3.27423L14.1748 3.8857C14.3285 3.94052 14.3285 4.19571 14.1748 4.25053L12.4606 4.862C12.2321 4.94336 12.0243 5.08929 11.8554 5.2869C11.6865 5.4845 11.5618 5.72768 11.4922 5.99501L10.9697 8.00072C10.9228 8.18056 10.7047 8.18056 10.6579 8.00072L10.1352 5.99501C10.0657 5.72768 9.94099 5.4845 9.77208 5.2869C9.60321 5.08929 9.39537 4.94336 9.16688 4.862L7.45268 4.25053C7.29898 4.19571 7.29898 3.94052 7.45268 3.8857L9.16688 3.27423C9.39531 3.19271 9.60309 3.04676 9.77197 2.84918C9.94081 2.65161 10.0656 2.40848 10.1352 2.14122L10.6579 0.135525C10.7047 -0.0451751 10.9228 -0.0451751 10.9697 0.135525Z" fill="#C8A2F2"/></g><defs><clipPath id="clip0_354_1326"><rect width="15" height="15" fill="white"/></clipPath></defs></svg>
