<?xml version="1.0"?><svg xmlns="http://www.w3.org/2000/svg" xmlns:xlink="http://www.w3.org/1999/xlink" version="1.1" id="Layer_1" x="0px" y="0px" width="512px" height="512px" viewBox="0 0 512 512" enable-background="new 0 0 512 512" xml:space="preserve"><path fill="rgb(0,0,0)018000000180000001" d="M418.749,185.843c0,3.59-2.91,6.5-6.5,6.5h-47.5c-2.492,0-4.764-1.424-5.85-3.667  s-0.794-4.909,0.75-6.863l39.177-49.568h-34.078c-3.59,0-6.5-2.91-6.5-6.5s2.91-6.5,6.5-6.5h47.5c2.492,0,4.764,1.424,5.85,3.667  s0.794,4.909-0.75,6.863l-39.177,49.568h34.078C415.838,179.343,418.749,182.253,418.749,185.843z M297.856,183.323  c1.392,3.31-0.163,7.12-3.472,8.511c-0.823,0.346-1.677,0.51-2.517,0.51c-2.539,0-4.949-1.496-5.995-3.982l-6.91-16.434h-24.735  l-6.91,16.434c-1.045,2.486-3.457,3.982-5.995,3.982c-0.84,0-1.693-0.164-2.517-0.51c-3.309-1.391-4.864-5.202-3.472-8.511  l25.269-60.099c0.005-0.011,0.013-0.02,0.018-0.032c0.639-1.497,1.835-2.76,3.454-3.44c3.309-1.393,7.12,0.163,8.511,3.472  L297.856,183.323z M273.498,158.929l-6.901-16.414l-6.901,16.414H273.498z M346.017,149.293H307.56c-3.59,0-6.5,2.91-6.5,6.5  s2.91,6.5,6.5,6.5h38.457c3.59,0,6.5-2.91,6.5-6.5S349.606,149.293,346.017,149.293z M464.528,155.793  c0,45.384-36.922,82.307-82.307,82.307h-0.14v158.193c0,21.589-17.563,39.152-39.152,39.152H177.333V486  c0,2.552-1.494,4.868-3.819,5.921c-0.859,0.389-1.772,0.579-2.68,0.579c-1.549,0-3.08-0.553-4.289-1.615l-25.734-22.587  l-25.734,22.587c-1.918,1.683-4.644,2.088-6.969,1.036c-2.325-1.053-3.819-3.369-3.819-5.921v-50.555H86.625  c-21.589,0-39.152-17.563-39.152-39.152V58.652c0-21.589,17.563-39.152,39.152-39.152h256.305c21.589,0,39.152,17.563,39.152,39.152  v14.835h0.14C427.605,73.487,464.528,110.41,464.528,155.793z M86.625,422.445h17.664V32.5H86.625  c-14.42,0-26.152,11.732-26.152,26.152v337.641C60.472,410.713,72.204,422.445,86.625,422.445z M164.333,435.445h-47.044v36.201  l19.234-16.882c1.227-1.077,2.757-1.615,4.288-1.615s3.061,0.538,4.288,1.615l19.234,16.882V435.445z M369.082,238.1h-41.673  c-22.242,42.243-64.224,45.604-76.847,45.604c-2.824,0-4.522-0.156-4.707-0.173c-2.684-0.258-4.929-2.146-5.645-4.745  c-0.715-2.6,0.248-5.371,2.421-6.965c17.809-13.068,21.098-24.72,21.909-34c-42.215-3.478-75.492-38.938-75.492-82.026  c0-45.384,36.922-82.306,82.307-82.306h97.727V58.652c0-14.42-11.732-26.152-26.152-26.152H117.289v389.945h225.641  c14.42,0,26.152-11.732,26.152-26.152V238.1z M451.528,155.793c0-38.215-31.091-69.306-69.307-69.306H271.355  c-38.216,0-69.307,31.091-69.307,69.306c0,38.216,31.091,69.307,69.307,69.307c1.77,0,3.468,0.721,4.693,1.998  c1.226,1.276,1.883,2.997,1.812,4.764l-0.045,1.2c-0.294,8.1-0.785,21.615-13.339,36.321c16.068-2.953,39.624-12.237,53.041-40.565  c1.075-2.271,3.362-3.718,5.875-3.718h58.83C420.437,225.1,451.528,194.009,451.528,155.793z M315.877,318.813H170.493  c-3.59,0-6.5,2.91-6.5,6.5s2.91,6.5,6.5,6.5h145.384c3.59,0,6.5-2.91,6.5-6.5S319.467,318.813,315.877,318.813z M315.877,350.74  H170.493c-3.59,0-6.5,2.91-6.5,6.5s2.91,6.5,6.5,6.5h145.384c3.59,0,6.5-2.91,6.5-6.5S319.467,350.74,315.877,350.74z"/></svg>
