<svg id="SVGRoot" height="512" viewBox="0 0 24 24" width="512" xmlns="http://www.w3.org/2000/svg" xmlns:svg="http://www.w3.org/2000/svg"><g id="g3972" stroke-linecap="round" stroke-linejoin="round"><path id="path3965" d="m6.5 2c-1.3763467 0-2.5 1.1236533-2.5 2.5.0001638 5.1345421 0 10.410259 0 15.5 0 1.099349.9006508 2 2 2h12c1.099349 0 2-.900651 2-2-.007-5.101469 0-10.354727 0-15.5 0-1.3763467-1.123652-2.5-2.5-2.5zm0 1h11c.839644 0 1.5.6603555 1.5 1.5v13.771484c-.294854-.171841-.636179-.271484-1-.271484h-12c-.3638215 0-.7051457.09964-1 .271484v-13.771484c0-.8396445.6603555-1.5 1.5-1.5zm-.5 16h12c.562647 0 1 .437353 1 1s-.437353 1-1 1h-12c-.5626475 0-1-.437353-1-1s.4373525-1 1-1z"/><path id="path3968" d="m10.5 6c-1.6509286 0-3 1.3490714-3 3 0 1.650928 1.3490714 3 3 3 .645941 0 1.24553-.206323 1.736328-.556641l3.410156 3.410157a.5.5 0 0 0 .707032 0 .5.5 0 0 0 0-.707032l-3.410157-3.410156c.350318-.490798.556641-1.0903875.556641-1.736328 0-1.6509286-1.349072-3-3-3zm0 1c1.11049 0 2 .8895104 2 2 0 1.11049-.88951 2-2 2-1.1104896 0-2-.88951-2-2 0-1.1104896.8895104-2 2-2z"/></g></svg>