<svg xmlns="http://www.w3.org/2000/svg" version="1.1" xmlns:xlink="http://www.w3.org/1999/xlink" width="512" height="512" x="0" y="0" viewBox="0 0 682.667 682.667" style="enable-background:new 0 0 512 512" xml:space="preserve" class=""><g><defs><clipPath id="a" clipPathUnits="userSpaceOnUse"><path d="M0 512h512V0H0Z" fill="#ffffff" opacity="1" data-original="#000000"></path></clipPath></defs><g clip-path="url(#a)" transform="matrix(1.33333 0 0 -1.33333 0 682.667)"><path d="M0 0h107.569a59.996 59.996 0 0 0 42.426-17.574l81.216-81.215c11.719-11.719 11.719-30.703 0-42.422-11.719-11.719-30.703-11.719-42.422 0L137.578-90l81.213-81.213A30.001 30.001 0 0 1 240.005-180H360c16.568 0 30-13.432 30-30 0-16.568-13.432-30-30-30H196.619a60.009 60.009 0 0 0-30.87 8.55L44.251-128.55a60.009 60.009 0 0 1-30.87 8.55H0V0h107.569" style="stroke-width:30;stroke-linecap:round;stroke-linejoin:round;stroke-miterlimit:10;stroke-dasharray:none;stroke-opacity:1" transform="translate(15 255)" fill="none" stroke="#ffffff" stroke-width="30" stroke-linecap="round" stroke-linejoin="round" stroke-miterlimit="10" stroke-dasharray="none" stroke-opacity="" data-original="#000000" opacity="1"></path><path d="M0 0h-107.569a59.996 59.996 0 0 0-42.426 17.574l-81.216 81.215c-11.719 11.719-11.719 30.703 0 42.422 11.719 11.719 30.703 11.719 42.422 0L-137.578 90l-81.213 81.213A30.001 30.001 0 0 1-240.005 180H-360c-16.568 0-30 12.432-30 29 0 16.568 13.432 27 30 27h163.381c10.875 0 21.545-2.837 30.87-8.432l121.498-99.018a60.009 60.009 0 0 1 30.87-8.55H0V0h-107.569" style="stroke-width:30;stroke-linecap:round;stroke-linejoin:round;stroke-miterlimit:10;stroke-dasharray:none;stroke-opacity:1" transform="translate(497 261)" fill="none" stroke="#ffffff" stroke-width="30" stroke-linecap="round" stroke-linejoin="round" stroke-miterlimit="10" stroke-dasharray="none" stroke-opacity="" data-original="#000000" opacity="1"></path><path d="M0 0h-90c-16.568 0-30 13.432-30 30 0 16.568 13.432 30 30 30H.043" style="stroke-width:30;stroke-linecap:round;stroke-linejoin:round;stroke-miterlimit:10;stroke-dasharray:none;stroke-opacity:1" transform="translate(257 381)" fill="none" stroke="#ffffff" stroke-width="30" stroke-linecap="round" stroke-linejoin="round" stroke-miterlimit="10" stroke-dasharray="none" stroke-opacity="" data-original="#000000" opacity="1"></path><path d="M0 0h-107.578c-16.568 0-30 13.432-30 30 0 16.568 13.432 30 30 30" style="stroke-width:30;stroke-linecap:round;stroke-linejoin:round;stroke-miterlimit:10;stroke-dasharray:none;stroke-opacity:1" transform="translate(304.578 321)" fill="none" stroke="#ffffff" stroke-width="30" stroke-linecap="round" stroke-linejoin="round" stroke-miterlimit="10" stroke-dasharray="none" stroke-opacity="" data-original="#000000" opacity="1"></path><path d="M0 0h90.032c16.569 0 30 13.432 30 30 0 16.568-13.431 30-30 30h-90" style="stroke-width:30;stroke-linecap:round;stroke-linejoin:round;stroke-miterlimit:10;stroke-dasharray:none;stroke-opacity:1" transform="translate(254.968 75)" fill="none" stroke="#ffffff" stroke-width="30" stroke-linecap="round" stroke-linejoin="round" stroke-miterlimit="10" stroke-dasharray="none" stroke-opacity="" data-original="#000000" opacity="1"></path><path d="M0 0c16.568 0 30 13.432 30 30 0 16.568-13.432 30-30 30h-107.578" style="stroke-width:30;stroke-linecap:round;stroke-linejoin:round;stroke-miterlimit:10;stroke-dasharray:none;stroke-opacity:1" transform="translate(315 135)" fill="none" stroke="#ffffff" stroke-width="30" stroke-linecap="round" stroke-linejoin="round" stroke-miterlimit="10" stroke-dasharray="none" stroke-opacity="" data-original="#000000" opacity="1"></path></g></g></svg>