<svg xmlns="http://www.w3.org/2000/svg" version="1.1" xmlns:xlink="http://www.w3.org/1999/xlink" width="512" height="512" x="0" y="0" viewBox="0 0 512 512" style="enable-background:new 0 0 512 512" xml:space="preserve"><g><path d="M429.6 209.1c-15.1-6.6-32.4 1.3-38.5 17.6L356 312h-11.3V80c0-17.6-13.3-32-29.5-32-16.3 0-29.5 14.4-29.5 32v151.8l-14.8.3V32c0-17.6-13.3-32-29.5-32s-29.5 14.4-29.5 32v199.8l-14.9.2V64c0-17.6-13.3-32-29.5-32-16.3 0-29.5 14.4-29.5 32v183.8l-14.8.3V128c0-17.6-13.3-32-29.5-32S64 110.4 64 128v216c0 75.8 37.1 168 169 168 40.8 0 79.4-7 100.7-21 13.3-8.8 24.8-20.1 33.7-33.3 6.7-9.9 12.1-20.5 16-31.8l62.5-175.1c6.1-16.3-1.3-35.1-16.3-41.7z" fill="#ffffff" opacity="1" data-original="#000000"></path></g></svg>