<svg xmlns="http://www.w3.org/2000/svg" version="1.1" xmlns:xlink="http://www.w3.org/1999/xlink" width="512" height="512" x="0" y="0" viewBox="0 0 512 512" style="enable-background:new 0 0 512 512" xml:space="preserve" class=""><g><path d="M15 391h14.5c8.098 0 15.898 2.102 21 5.098l123.602 105.101C185.8 508.4 199 512 212.5 512H391c16.57 0 30-14.434 30-31 0-16.57-13.43-30-30-30H256c-12 0-23.402-4.8-31.8-13.2l-81.302-81.3c-5.699-5.7-5.699-15.3 0-21 5.7-5.7 14.403-6 20.403-.602l77.398 77.403c10.153 10.164 28.188 13.406 42.301 0 11.7-11.7 11.7-30.903 0-42.602L176.5 262.9C161.918 248.315 142.902 241 123.7 241H15c-8.402 0-15 6.598-15 15v120c0 8.398 6.598 15 15 15zm0 0" fill="#ffffff" opacity="1" data-original="#000000" class=""></path><path d="M368.5 421c12.426 0 22.5-10.074 22.5-22.5S380.926 376 368.5 376h-48.836c1.246 4.863 2.11 9.844 2.11 15 0 10.707-2.77 20.992-7.958 30zM338.5 301h-81.645l44.872 45H338.5c12.426 0 22.5-10.074 22.5-22.5S350.926 301 338.5 301zM497 121h-14.5c-8.098 0-15.898-2.102-21-5.098L337.898 11.801C326.2 4.6 313 0 299.5 0H121c-16.57 0-30 14.434-30 31 0 16.57 13.43 30 30 30h135c12 0 23.402 4.8 31.8 13.2l81.302 81.3c5.699 5.7 5.699 15.3 0 21-5.7 5.7-14.403 6-20.403.602l-77.398-77.403c-10.153-10.164-28.188-13.406-42.301 0-11.7 11.7-11.7 30.903 0 42.602l106.5 106.8C350.082 263.68 369.098 271 388.3 271H497c8.402 0 15-6.598 15-15V136c0-8.398-6.598-15-15-15zm0 0" fill="#ffffff" opacity="1" data-original="#000000" class=""></path><path d="M143.5 91c-12.426 0-22.5 10.074-22.5 22.5s10.074 22.5 22.5 22.5h48.836c-1.246-4.863-2.11-9.844-2.11-15 0-10.707 2.77-20.992 7.958-30zM151 188.5c0 12.426 10.074 22.5 22.5 22.5h81.645l-44.872-45H173.5c-12.426 0-22.5 10.074-22.5 22.5zm0 0" fill="#ffffff" opacity="1" data-original="#000000" class=""></path></g></svg>