<svg height="512" viewBox="0 0 64 64" width="512" xmlns="http://www.w3.org/2000/svg"><g id="_04-Heart" data-name="04-Heart"><path d="m29 12.39a22.537 22.537 0 0 0 -5.79 6.25 3.692 3.692 0 0 0 -2.21-.64 21.8 21.8 0 0 0 1-6 12 12 0 0 0 -1.74-5.57 2 2 0 0 1 -.26-.99v-3.44a1 1 0 0 1 1-1h4a1 1 0 0 1 1 1v2h2l4.44-2.67a2.442 2.442 0 0 1 1.21-.33 2.356 2.356 0 0 1 2.35 2.35v1.3a2.347 2.347 0 0 1 -2.35 2.35h-.65l-4 3z" fill="#f8a88d"/><path d="m29 12.39a12.178 12.178 0 0 1 7-2.39c.69 0 1.36.02 1.99.07a21.534 21.534 0 0 1 3.01.4c.38.07.74.16 1.09.26a12.144 12.144 0 0 1 3.27 1.36c1.76 1.1 2.64 2.5 2.64 3.91 0 3-2 3-2 3h-4s0-2-6-2-7 8-7 8h-4s.66-4.63-1.79-6.36a22.537 22.537 0 0 1 5.79-6.25z" fill="#f9c3b9"/><path d="m50 19a2.006 2.006 0 0 1 2 2v2a2.006 2.006 0 0 1 -2 2 4.38 4.38 0 0 1 -1-3 4.38 4.38 0 0 1 1-3z" fill="#e07857"/><path d="m50.84 19.193a1.958 1.958 0 0 0 -.84-.193 4.38 4.38 0 0 0 -1 3 4.38 4.38 0 0 0 1 3 1.958 1.958 0 0 0 .84-.193 4.659 4.659 0 0 1 -.84-2.807 4.659 4.659 0 0 1 .84-2.807z" fill="#cf6542"/><path d="m50 19a4.38 4.38 0 0 0 -1 3 4.38 4.38 0 0 0 1 3h-5l-.17.21a5.851 5.851 0 0 0 -3.83-1.21c-6 0-6 5-6 5s-6 0-6-3v-1s1-8 7-8 6 2 6 2z" fill="#f7b39c"/><path d="m41 4.5v5.97a21.534 21.534 0 0 0 -3.01-.4l.01-.07v-5.5a1.5 1.5 0 0 1 3 0z" fill="#ad313b"/><path d="m47 6.74v.92a1.747 1.747 0 0 1 -.12.65l-1.52 3.78a12.144 12.144 0 0 0 -3.27-1.36l1.51-4.54a1.745 1.745 0 0 1 3.4.55z" fill="#2963a3"/><path d="m16.01 33.36a12.673 12.673 0 0 1 -4.01.64v-3s2-3 2-5 2-8 7-8a3.692 3.692 0 0 1 2.21.64c2.45 1.73 1.79 6.36 1.79 6.36a18.121 18.121 0 0 1 -4.95 6.17 13.482 13.482 0 0 1 -4.04 2.19z" fill="#f24754"/><path d="m46.81 45.68a38.676 38.676 0 0 1 -1.95 4.14c-.7-.91-3.86-5.15-3.86-7.82 0 0 4.48 1.79 5.81 3.68z" fill="#c2313c"/><path d="m30 57a5.282 5.282 0 0 0 3.94 4.98 8.785 8.785 0 0 1 -3.94 1.02 6.364 6.364 0 0 1 -3.12-.81l.12-.19c3-1 3-5 3-5z" fill="#ad313b"/><path d="m37 36s4 3 4 6c0 2.67 3.16 6.91 3.86 7.82a41.686 41.686 0 0 1 -2.48 4.06 36.7 36.7 0 0 1 -2.4 3.11c-.32-.28-5.08-4.35-5.87-8.01a4.748 4.748 0 0 1 -.11-.98c0-3.64 2.49-8.12 2.93-11.91.05-.06.07-.09.07-.09z" fill="#ad313b"/><path d="m34.11 48.98c.79 3.66 5.55 7.73 5.87 8.01a20.236 20.236 0 0 1 -6.04 4.99 5.282 5.282 0 0 1 -3.94-4.98c0-4 4-8 4-8z" fill="#c2313c"/><path d="m47 34s1 2 1 7a14.427 14.427 0 0 1 -1.19 4.68c-1.33-1.89-5.81-3.68-5.81-3.68 0-3-4-6-4-6s-.02.03-.07.09a8.082 8.082 0 0 0 .07-1.09 8.76 8.76 0 0 0 -2-6s0-5 6-5a5.851 5.851 0 0 1 3.83 1.21 6.722 6.722 0 0 1 2.17 4.79z" fill="#c2313c"/><path d="m36.93 36.09c-.44 3.79-2.93 8.27-2.93 11.91a4.748 4.748 0 0 0 .11.98l-.11.02s-4 4-4 8c0 0 0 4-3 5l-.12.19a5.857 5.857 0 0 1 -1.46-1.12 4.583 4.583 0 0 1 -1.42-3.07c0-3-12-11-12-17v-7a12.673 12.673 0 0 0 4.01-.64 13.482 13.482 0 0 0 4.04-2.19 18.121 18.121 0 0 0 4.95-6.17h4v1c0 3 6 3 6 3a8.76 8.76 0 0 1 2 6 8.082 8.082 0 0 1 -.07 1.09z" fill="#db3744"/><path d="m45.36 12.09a11.291 11.291 0 0 0 -2.36-1.085c0 3.995-2 3.995-7 3.995a10.062 10.062 0 0 0 -6.139 2.2 2.986 2.986 0 0 1 -3.931-.268l-.855-.855a24.018 24.018 0 0 0 -1.865 2.563c2.45 1.73 1.79 6.36 1.79 6.36h4s1-8 7-8 6 2 6 2h4s2 0 2-3c0-1.41-.88-2.81-2.64-3.91z" fill="#f8a88d"/><path d="m30.06 25a1.758 1.758 0 0 0 2.266-1.087c.547-1.468 1.874-3.913 4.674-3.913a7.658 7.658 0 0 1 3.539.73 1 1 0 0 0 1.461-.884v-.846s0-2-6-2c-4.737 0-6.353 4.975-6.825 7.074a1.572 1.572 0 0 0 .885.926z" fill="#fbd2c4"/><path d="m50 19h-2v2a2 2 0 0 1 -2 2h-1s-1-1-6-1a5.849 5.849 0 0 0 -5.5 3.578 1.95 1.95 0 0 1 -2.542.957 7.141 7.141 0 0 1 -1.958-1.384v.849c0 3 6 3 6 3s0-5 6-5a5.851 5.851 0 0 1 3.83 1.21l.17-.21h5a4.38 4.38 0 0 1 -1-3 4.38 4.38 0 0 1 1-3z" fill="#f8a183"/><path d="m24.817 8.433a7.779 7.779 0 0 0 -1.817-3.433v-4h-2a1 1 0 0 0 -1 1v3.44a2 2 0 0 0 .26.99 12 12 0 0 1 1.74 5.57 21.8 21.8 0 0 1 -1 6 3.692 3.692 0 0 1 2.21.64 22.537 22.537 0 0 1 5.79-6.25v-2.39h-2.236a2.009 2.009 0 0 1 -1.947-1.567z" fill="#f79274"/><path d="m33.65 1a2.442 2.442 0 0 0 -1.21.33l-4.44 2.67h-2a2 2 0 0 0 2 2h.394a2 2 0 0 0 1.11-.336l5.109-3.406a1.537 1.537 0 0 1 .852-.258c.039 0 .076.009.114.012a2.241 2.241 0 0 0 -.269-.322 2.31 2.31 0 0 0 -1.66-.69z" fill="#f9c3b9"/><path d="m18.035 32.479a70.061 70.061 0 0 1 1.9-10.729 4.966 4.966 0 0 1 2.894-3.34 3.885 3.885 0 0 0 -1.829-.41c-5 0-7 6-7 8s-2 5-2 5v3a12.673 12.673 0 0 0 4.01-.64 12.958 12.958 0 0 0 2.025-.881z" fill="#db3744"/><path d="m18 40a40.22 40.22 0 0 1 .035-7.521 12.958 12.958 0 0 1 -2.025.881 12.673 12.673 0 0 1 -4.01.64v7c0 6 12 14 12 17a4.583 4.583 0 0 0 1.42 3.07 5.857 5.857 0 0 0 1.46 1.12l.12-.19c3-1 3-5 3-5v-1c0-6-11-6-12-16z" fill="#c2313c"/><path d="m36.8 33a8.187 8.187 0 0 0 -1.8-4s-6 0-6-3v-1h-4s-.984 7.913 11.8 8z" fill="#c2313c"/><path d="m38 28a4.235 4.235 0 0 1 .434-1.749 3.922 3.922 0 0 1 3.066-2.214c-.17-.01-.322-.037-.5-.037-6 0-6 5-6 5a8.192 8.192 0 0 1 1.8 4h.2c2 0 1-3 1-5z" fill="#ad313b"/><path d="m16.615 39.182.006.012c.007.014.012.031.02.045a2.691 2.691 0 0 0 1.135 1.208c1.411.706 1.724 4.253 1.724 5.553a.5.5 0 0 0 1 0c0-.541-.065-5.291-2.25-6.43 1.579.158 3.25.595 3.25 1.43a.5.5 0 0 0 1 0c0-2.081-3.561-2.435-5.09-2.491a15.1 15.1 0 0 1 -.886-4.811 13.948 13.948 0 0 0 3.293-1.746 5.53 5.53 0 0 0 5.183 3.548.5.5 0 0 0 0-1 4.641 4.641 0 0 1 -4.36-3.169 18.546 18.546 0 0 0 4.817-6.131.486.486 0 0 0 .043-.2h-.5s.026-.187.048-.491a.5.5 0 0 0 -.5.287 17.767 17.767 0 0 1 -4.8 5.98 12.983 12.983 0 0 1 -3.889 2.109 12.259 12.259 0 0 1 -3.859.615v1a13.248 13.248 0 0 0 3.538-.486 14.375 14.375 0 0 0 1.077 5.168z" fill="#ff8f8f"/><path d="m47.011 45.128c-1.361-1.618-4.556-3.057-5.537-3.473-.243-2.782-3.3-5.365-4.021-5.935.02-.236.047-.464.047-.72a9.212 9.212 0 0 0 -2.146-6.354.491.491 0 0 0 -.309-.137 3.9 3.9 0 0 0 -.045.491s-.192 0-.5-.017a.5.5 0 0 0 .142.369 8.4 8.4 0 0 1 1.858 5.648 7.471 7.471 0 0 1 -.058.893 17.878 17.878 0 0 1 -4.237 3.616 8.1 8.1 0 0 0 -5.205-2.009.5.5 0 0 0 0 1 7.1 7.1 0 0 1 4.216 1.5 5.741 5.741 0 0 1 -2.216.5c-4.448 0-4.5 3.465-4.5 3.5a.5.5 0 0 0 1 0c0-.1.04-2.5 3.5-2.5 2.821 0 5.558-2.241 7.115-3.79-.286 1.189-.688 2.426-1.092 3.639-.136.411-.273.825-.406 1.239-1.409.404-8.117 2.632-8.117 8.412a.5.5 0 0 0 1 0c0-4.4 4.76-6.537 6.753-7.239a15.407 15.407 0 0 0 -.753 4.239 4.963 4.963 0 0 0 .064.731c-.595.618-4.064 4.384-4.064 8.269 0 .037-.03 3.65-2.658 4.526a.5.5 0 0 0 -.337.421c.125.081.244.173.375.243s.3.145.447.214a4.7 4.7 0 0 0 2.721-2.961 6.075 6.075 0 0 0 3.23 2.832c.221-.094.443-.185.662-.3.157-.078.313-.167.47-.253a.487.487 0 0 0 -.186-.174 1.4 1.4 0 0 0 -.149-.054 4.787 4.787 0 0 1 -3.575-4.494c0-2.923 2.321-5.912 3.359-7.1 1.126 3.221 4.64 6.469 5.768 7.448.006.006.016.009.023.015.11-.123.221-.243.33-.369s.208-.258.314-.385c-.01-.007-.015-.02-.025-.026-2.387-2.079-5.127-5.192-5.669-7.7a4.175 4.175 0 0 1 -.1-.883 21.87 21.87 0 0 1 1.472-6.335 34.606 34.606 0 0 0 1.328-4.765c1.07.938 3.2 3.061 3.2 5.1v.012c.008 2.761 3.035 6.906 3.959 8.107.07.094.109.143.131.171.087-.157.186-.314.269-.47s.164-.329.251-.5c-.766-1.016-3.037-4.179-3.515-6.521 1.31.591 3.9 1.876 4.805 3.167a1.523 1.523 0 0 1 .144.238c0 .012.018.016.024.028.076-.182.171-.377.241-.555s.133-.363.202-.549z" fill="#ff8f8f"/><g fill="#db3744"><path d="m40.02 26.549a2.084 2.084 0 0 0 .577.907l2.321 2.562a3.056 3.056 0 0 0 1.114.887 1.214 1.214 0 0 0 .65.079 1.269 1.269 0 0 0 .765-.554 3.012 3.012 0 0 0 -.486-4.008 6.353 6.353 0 0 0 -3.3-1.414 1.462 1.462 0 0 0 -1.641 1.541z"/><path d="m43.021 38.63a2.707 2.707 0 0 0 2.04 2.338.935.935 0 0 0 .487 0 .876.876 0 0 0 .332-.229 4.382 4.382 0 0 0 1.115-3 2.334 2.334 0 0 0 -1.612-2.67c-1.216-.339-1.717.7-2.045 1.554a4.258 4.258 0 0 0 -.317 2.007z"/></g></g></svg>