<svg width="22" height="23" viewBox="0 0 22 23" fill="none" xmlns="http://www.w3.org/2000/svg"><path fill-rule="evenodd" clip-rule="evenodd" d="M13.0946 12.2698C13.0946 11.5104 12.7925 10.7813 12.255 10.2448C11.7185 9.7073 10.9894 9.40521 10.23 9.40521C8.16123 9.40521 5.00706 9.40521 2.93831 9.40521C2.1779 9.40521 1.44977 9.7073 0.912272 10.2448C0.375814 10.7813 0.0737305 11.5104 0.0737305 12.2698V19.5615C0.0737305 20.3219 0.375814 21.05 0.912272 21.5875C1.44977 22.124 2.1779 22.426 2.93831 22.426H10.23C10.9894 22.426 11.7185 22.124 12.255 21.5875C12.7925 21.05 13.0946 20.3219 13.0946 19.5615V12.2698ZM11.5321 12.2698V19.5615C11.5321 19.9073 11.3946 20.2385 11.1508 20.4823C10.906 20.7271 10.5748 20.8635 10.23 20.8635H2.93831C2.59248 20.8635 2.26123 20.7271 2.01748 20.4823C1.77269 20.2385 1.63623 19.9073 1.63623 19.5615V12.2698C1.63623 11.925 1.77269 11.5938 2.01748 11.349C2.26123 11.1052 2.59248 10.9677 2.93831 10.9677H10.23C10.5748 10.9677 10.906 11.1052 11.1508 11.349C11.3946 11.5938 11.5321 11.925 11.5321 12.2698Z" fill="white"/><path fill-rule="evenodd" clip-rule="evenodd" d="M15.1737 15.3021C15.3278 15.3583 15.4778 15.4115 15.6226 15.4635C16.3372 15.7208 17.1247 15.6833 17.8122 15.3604C18.4997 15.0365 19.0299 14.4531 19.2872 13.7385C19.9882 11.7917 21.056 8.82395 21.757 6.87707C22.0143 6.16249 21.9768 5.37499 21.6528 4.68749C21.3299 3.99999 20.7466 3.46978 20.031 3.21249C18.0851 2.51145 15.1174 1.44374 13.1705 0.742698C12.456 0.485407 11.6674 0.522907 10.981 0.846865C10.2935 1.16978 9.7622 1.75312 9.50491 2.46874C9.06533 3.69062 8.47991 5.31666 7.932 6.83957C7.78616 7.24478 7.99658 7.6927 8.40283 7.83853C8.80804 7.98437 9.25595 7.77395 9.40179 7.36874L10.9757 2.99791C11.0924 2.67291 11.333 2.40728 11.6455 2.26041C11.958 2.11353 12.3164 2.09582 12.6414 2.21353L19.5018 4.68228C19.8268 4.79895 20.0924 5.04062 20.2393 5.35312C20.3862 5.66562 20.4039 6.02395 20.2862 6.34791L17.8174 13.2094C17.7007 13.5344 17.4591 13.7989 17.1466 13.9469C16.8341 14.0937 16.4757 14.1104 16.1518 13.9937L15.7028 13.8323C15.2966 13.6865 14.8487 13.8969 14.7028 14.3031C14.557 14.7083 14.7685 15.1562 15.1737 15.3021Z" fill="white"/><path d="M6.58415 16.9573C7.15944 16.9573 7.62581 16.4909 7.62581 15.9156C7.62581 15.3403 7.15944 14.874 6.58415 14.874C6.00885 14.874 5.54248 15.3403 5.54248 15.9156C5.54248 16.4909 6.00885 16.9573 6.58415 16.9573Z" fill="white"/><path fill-rule="evenodd" clip-rule="evenodd" d="M14.7486 7.1229C14.2079 6.9281 13.6111 7.20935 13.4163 7.75102C13.2215 8.29165 13.5027 8.88852 14.0434 9.08331C14.584 9.2781 15.1819 8.99685 15.3767 8.45623C15.5715 7.9156 15.2902 7.31769 14.7486 7.1229Z" fill="white"/><path d="M9.18815 14.3531C9.76345 14.3531 10.2298 13.8867 10.2298 13.3114C10.2298 12.7361 9.76345 12.2698 9.18815 12.2698C8.61285 12.2698 8.14648 12.7361 8.14648 13.3114C8.14648 13.8867 8.61285 14.3531 9.18815 14.3531Z" fill="white"/><path fill-rule="evenodd" clip-rule="evenodd" d="M10.2298 18.5198C10.2298 17.9448 9.76315 17.4781 9.18815 17.4781C8.61315 17.4781 8.14648 17.9448 8.14648 18.5198C8.14648 19.0948 8.61315 19.5615 9.18815 19.5615C9.76315 19.5615 10.2298 19.0948 10.2298 18.5198Z" fill="white"/><path fill-rule="evenodd" clip-rule="evenodd" d="M16.9445 11.7885C17.1393 11.2469 16.858 10.65 16.3174 10.4552C15.7768 10.2604 15.1789 10.5417 14.9851 11.0823C14.7903 11.624 15.0716 12.2208 15.6122 12.4156C16.1528 12.6104 16.7507 12.3292 16.9445 11.7885Z" fill="white"/><path d="M3.98014 19.5615C4.55544 19.5615 5.02181 19.0951 5.02181 18.5198C5.02181 17.9445 4.55544 17.4781 3.98014 17.4781C3.40485 17.4781 2.93848 17.9445 2.93848 18.5198C2.93848 19.0951 3.40485 19.5615 3.98014 19.5615Z" fill="white"/><path fill-rule="evenodd" clip-rule="evenodd" d="M5.02181 13.3114C5.02181 12.7364 4.55514 12.2698 3.98014 12.2698C3.40514 12.2698 2.93848 12.7364 2.93848 13.3114C2.93848 13.8864 3.40514 14.3531 3.98014 14.3531C4.55514 14.3531 5.02181 13.8864 5.02181 13.3114Z" fill="white"/><path fill-rule="evenodd" clip-rule="evenodd" d="M13.8083 5.12394C14.0031 4.58331 13.7219 3.98539 13.1812 3.7906C12.6396 3.59685 12.0427 3.87706 11.8479 4.41873C11.6531 4.95935 11.9344 5.55623 12.475 5.75102C13.0167 5.94581 13.6135 5.66456 13.8083 5.12394Z" fill="white"/></svg>