<svg width="24" height="24" viewBox="0 0 24 24" fill="none" xmlns="http://www.w3.org/2000/svg">
<path d="M3.5 20.4999C4.33 21.3299 5.67 21.3299 6.5 20.4999L19.5 7.49994C20.33 6.66994 20.33 5.32994 19.5 4.49994C18.67 3.66994 17.33 3.66994 16.5 4.49994L3.5 17.4999C2.67 18.3299 2.67 19.6699 3.5 20.4999Z" stroke="#292D32" stroke-width="1.5" stroke-linecap="round" stroke-linejoin="round"/>
<path d="M18.01 8.98999L15.01 5.98999" stroke="#292D32" stroke-width="1.5" stroke-linecap="round" stroke-linejoin="round"/>
<path d="M9.24282 2.74371L10.6212 3.48097L9.2562 4.24271L8.51893 5.62113L7.75719 4.25609L6.37877 3.51882L7.74382 2.75708L8.48108 1.37866L9.24282 2.74371Z" stroke="#292D32" stroke-linecap="round" stroke-linejoin="round"/>
<path d="M5.24421 8.74507L6.6213 9.48482L5.25489 10.2441L4.51515 11.6212L3.75586 10.2548L2.37877 9.51504L3.74518 8.75575L4.48492 7.37866L5.24421 8.74507Z" stroke="#292D32" stroke-linecap="round" stroke-linejoin="round"/>
<path d="M20.2857 13.7886L21.6187 14.6052L20.2115 15.2858L19.3949 16.6188L18.7142 15.2115L17.3813 14.395L18.7885 13.7143L19.6051 12.3813L20.2857 13.7886Z" stroke="#292D32" stroke-linecap="round" stroke-linejoin="round"/>
</svg>
