<svg xmlns="http://www.w3.org/2000/svg" version="1.1" xmlns:xlink="http://www.w3.org/1999/xlink" width="512" height="512" x="0" y="0" viewBox="0 0 32 32" style="enable-background:new 0 0 512 512" xml:space="preserve" class=""><g><path d="M16 3a13 13 0 1 0 13 13A13.015 13.015 0 0 0 16 3zm9.786 8h-4.217a16.027 16.027 0 0 0-1.855-5.341A11.048 11.048 0 0 1 25.786 11zM20 16a26.721 26.721 0 0 1-.17 3h-7.66a26.556 26.556 0 0 1 0-6h7.66a26.721 26.721 0 0 1 .17 3zm-4 11c-1.34 0-2.788-2.375-3.519-6h7.038c-.731 3.625-2.179 6-3.519 6zm-3.519-16C13.212 7.375 14.66 5 16 5s2.788 2.375 3.519 6zm-.2-5.341A16.027 16.027 0 0 0 10.431 11H6.214a11.048 11.048 0 0 1 6.072-5.341zM5.426 13h4.727a29.488 29.488 0 0 0 0 6H5.426a10.776 10.776 0 0 1 0-6zm.788 8h4.217a16.027 16.027 0 0 0 1.855 5.341A11.048 11.048 0 0 1 6.214 21zm13.5 5.341A16.027 16.027 0 0 0 21.569 21h4.217a11.048 11.048 0 0 1-6.072 5.341zM26.574 19h-4.727A29.773 29.773 0 0 0 22 16a29.773 29.773 0 0 0-.153-3h4.727a10.776 10.776 0 0 1 0 6z" data-name="Layer 51" fill="#37495a" opacity="1" data-original="#000000"></path></g></svg>