<svg xmlns="http://www.w3.org/2000/svg" version="1.1" xmlns:xlink="http://www.w3.org/1999/xlink" width="512" height="512" x="0" y="0" viewBox="0 0 512 512" style="enable-background:new 0 0 512 512" xml:space="preserve" class=""><g><linearGradient id="a" x1="0" x2="512" y1="256" y2="256" gradientUnits="userSpaceOnUse"><stop stop-opacity="1" stop-color="#c8a2f2" offset="0"></stop><stop stop-opacity="1" stop-color="#abcde8" offset="0.4980694980694981"></stop><stop stop-opacity="1" stop-color="#bfdfd2" offset="1"></stop></linearGradient><path fill="url(#a)" d="M140.242 191.492c-2.857-10.67-13.821-17.004-24.493-14.146-10.67 2.857-17.003 13.823-14.146 24.493l27.423 102.409c2.848 10.638 13.791 17.011 24.493 14.146 10.67-2.857 17.003-13.823 14.146-24.493zM256 22.348c-143.299 0-256 115.953-256 260v.286c0 32.063 17.765 61.015 46.362 75.556l29.023 14.758-12.562 37.686c-14.565 43.693 23.478 86.852 68.688 77.809l.118-.024L256 462.768l124.372 25.649.118.024c45.183 9.037 83.263-34.082 68.688-77.809l-12.562-37.686 29.023-14.758C494.235 343.648 512 314.697 512 282.633v-.286c0-143.886-112.528-259.999-256-259.999zm-132.38 426.88c-15.047 2.973-27.703-11.383-22.849-25.946l10.668-32.003 84.596 43.015zm264.76-.001-72.414-14.934 84.596-43.015 10.668 32.003c4.848 14.546-7.791 28.927-22.85 25.946zM472 282.633c0 16.93-9.385 32.219-24.492 39.9L256 419.91 64.492 322.533C49.385 314.852 40 299.563 40 282.633v-.286c0-123.364 94.878-220 216-220s216 96.636 216 220zm-75.744-105.279c-10.669-2.855-21.635 3.476-24.493 14.146l-27.424 102.398c-2.857 10.669 3.476 21.635 14.146 24.493 10.738 2.874 21.653-3.543 24.493-14.146l27.424-102.398c2.857-10.669-3.476-21.635-14.146-24.493zM256 102.348c-11.046 0-20 8.954-20 20v230.568c0 11.046 8.954 20 20 20s20-8.954 20-20V122.348c0-11.046-8.954-20-20-20z" opacity="1" data-original="url(#a)" class=""></path></g></svg>