<svg xmlns="http://www.w3.org/2000/svg" version="1.1" xmlns:xlink="http://www.w3.org/1999/xlink" width="512" height="512" x="0" y="0" viewBox="0 0 24 24" style="enable-background:new 0 0 512 512" xml:space="preserve" class=""><g><path d="M12 11.75A4.75 4.75 0 1 0 7.25 7 4.756 4.756 0 0 0 12 11.75zm0-8A3.25 3.25 0 1 1 8.75 7 3.254 3.254 0 0 1 12 3.75zm8.467 13.57-.129-.292a6.016 6.016 0 0 0-5.461-3.778H9.13a6.014 6.014 0 0 0-5.46 3.777l-.139.312a3.325 3.325 0 0 0 .244 3.123 2.719 2.719 0 0 0 2.293 1.288h11.853a2.727 2.727 0 0 0 2.3-1.292 3.341 3.341 0 0 0 .246-3.138zm-1.5 2.319a1.257 1.257 0 0 1-1.044.611H6.068a1.246 1.246 0 0 1-1.036-.607 1.8 1.8 0 0 1-.129-1.7l.139-.312A4.537 4.537 0 0 1 9.13 14.75h5.747a4.537 4.537 0 0 1 4.088 2.884l.129.292a1.822 1.822 0 0 1-.129 1.713z" data-name="Layer 2" fill="#37495a" opacity="1" data-original="#000000"></path></g></svg>