<svg id="Capa_1" enable-background="new 0 0 510 510" height="512" viewBox="0 0 510 510" width="512" xmlns="http://www.w3.org/2000/svg" xmlns:xlink="http://www.w3.org/1999/xlink"><linearGradient id="lg1"><stop offset="0" stop-color="#d1f19e"/><stop offset="1" stop-color="#78a91f"/></linearGradient><linearGradient id="SVGID_1_" gradientTransform="matrix(-.995 -.098 -.098 .995 545.822 41.375)" gradientUnits="userSpaceOnUse" x1="342.469" x2="372.469" xlink:href="#lg1" y1="299.189" y2="343.855"/><linearGradient id="lg2"><stop offset="0" stop-color="#026841" stop-opacity="0"/><stop offset=".3243" stop-color="#046842" stop-opacity=".324"/><stop offset=".5509" stop-color="#0e6546" stop-opacity=".551"/><stop offset=".7476" stop-color="#1d614c" stop-opacity=".748"/><stop offset=".9263" stop-color="#335c54" stop-opacity=".926"/><stop offset="1" stop-color="#3e5959"/></linearGradient><linearGradient id="SVGID_00000052806447478358737230000005924666819454360747_" gradientUnits="userSpaceOnUse" x1="146.221" x2="196.221" xlink:href="#lg2" y1="364.695" y2="342.695"/><linearGradient id="SVGID_00000119831034422966458410000014120320009978702750_" gradientUnits="userSpaceOnUse" x1="155.326" x2="180.826" xlink:href="#lg2" y1="383.164" y2="400.164"/><linearGradient id="SVGID_00000062882176124697860240000005830484286218666140_" gradientUnits="userSpaceOnUse" x1="161.597" x2="144.931" xlink:href="#lg1" y1="358.916" y2="400.916"/><linearGradient id="SVGID_00000139263753412479665550000017655855021590478482_" gradientUnits="userSpaceOnUse" x1="166.155" x2="204.822" xlink:href="#lg2" y1="425.492" y2="420.158"/><linearGradient id="SVGID_00000139989318923051023510000006354894222838106802_" gradientUnits="userSpaceOnUse" x1="243.455" x2="272.789" xlink:href="#lg1" y1="360.866" y2="380.199"/><linearGradient id="SVGID_00000127042187672256149560000012823409584183040673_" gradientUnits="userSpaceOnUse" x1="247.474" x2="203.474" xlink:href="#lg2" y1="404.599" y2="415.265"/><linearGradient id="SVGID_00000109742268034023556990000002232796352372143028_" gradientUnits="userSpaceOnUse" x1="259.053" x2="299.719" xlink:href="#lg2" y1="408.724" y2="375.39"/><linearGradient id="SVGID_00000005237440178279010630000001203921664186570932_" gradientUnits="userSpaceOnUse" x1="201.028" x2="225.028" xlink:href="#lg1" y1="325.658" y2="326.991"/><linearGradient id="SVGID_00000031208156789426452320000008296246061371845558_" gradientUnits="userSpaceOnUse" x1="197.003" x2="223.669" xlink:href="#lg2" y1="312.587" y2="279.254"/><linearGradient id="lg3"><stop offset="0" stop-color="#fef0ae"/><stop offset="1" stop-color="#fac600"/></linearGradient><linearGradient id="SVGID_00000168088218568589008210000014587578379595968943_" gradientTransform="matrix(1 0 0 -1 0 510)" gradientUnits="userSpaceOnUse" x1="239.128" x2="293.714" xlink:href="#lg3" y1="238.113" y2="292.7"/><linearGradient id="lg4"><stop offset="0" stop-color="#fe9738" stop-opacity="0"/><stop offset="1" stop-color="#fe9738"/></linearGradient><linearGradient id="SVGID_00000090252277568436838540000002938304859951199401_" gradientUnits="userSpaceOnUse" x1="261.736" x2="258.733" xlink:href="#lg4" y1="259.449" y2="224.164"/><linearGradient id="SVGID_00000009548830606245950050000017256406935158209464_" gradientTransform="matrix(1 0 0 -1 0 510)" gradientUnits="userSpaceOnUse" x1="278.917" x2="211.198" xlink:href="#lg4" y1="251.359" y2="292.288"/><linearGradient id="SVGID_00000059279261021842228320000000744284812158001546_" gradientTransform="matrix(-.5 -.866 -.866 .5 533.779 468.813)" gradientUnits="userSpaceOnUse" x1="377.483" x2="432.069" xlink:href="#lg3" y1="-22.042" y2="32.545"/><linearGradient id="SVGID_00000133493533438102668930000005603945230029094305_" gradientUnits="userSpaceOnUse" x1="340.989" x2="284.036" xlink:href="#lg4" y1="128.344" y2="119.283"/><linearGradient id="SVGID_00000053531827616566878260000002243955982494422161_" gradientTransform="matrix(-.5 -.866 -.866 .5 533.779 468.813)" gradientUnits="userSpaceOnUse" x1="417.272" x2="349.553" xlink:href="#lg4" y1="-8.796" y2="32.133"/><linearGradient id="SVGID_00000120541831051795436270000002537955832055283899_" gradientTransform="matrix(.5 -.866 .866 .5 -431.779 468.813)" gradientUnits="userSpaceOnUse" x1="587.418" x2="642.004" xlink:href="#lg3" y1="341.577" y2="396.163"/><linearGradient id="SVGID_00000115493317878135426350000012347452676384707755_" gradientUnits="userSpaceOnUse" x1="196.194" x2="203.96" xlink:href="#lg4" y1="120.111" y2="164.551"/><linearGradient id="SVGID_00000092425814429655104840000010651829945301729673_" gradientTransform="matrix(.5 -.866 .866 .5 -431.779 468.813)" gradientUnits="userSpaceOnUse" x1="627.207" x2="559.489" xlink:href="#lg4" y1="354.823" y2="395.751"/><linearGradient id="SVGID_00000157999400642606311080000013643873546019590846_" gradientUnits="userSpaceOnUse" x1="239.128" x2="293.714" xlink:href="#lg3" y1="58.712" y2="113.298"/><linearGradient id="SVGID_00000000220325307133582460000006814402757546880929_" gradientUnits="userSpaceOnUse" x1="260.935" x2="260.935" xlink:href="#lg4" y1="77.463" y2="124.855"/><linearGradient id="SVGID_00000089575262999303680520000014019639738481971863_" gradientUnits="userSpaceOnUse" x1="278.917" x2="211.198" xlink:href="#lg4" y1="71.958" y2="112.887"/><linearGradient id="SVGID_00000150070534319639533600000014627978875923495312_" gradientTransform="matrix(-.5 .866 -.866 -.5 533.779 41.187)" gradientUnits="userSpaceOnUse" x1="222.117" x2="276.703" xlink:href="#lg3" y1="67.659" y2="122.245"/><linearGradient id="SVGID_00000054959264126729748060000017363533303898784136_" gradientUnits="userSpaceOnUse" x1="336.346" x2="296.932" xlink:href="#lg4" y1="208.923" y2="184.899"/><linearGradient id="SVGID_00000121957750756742951490000012869416215310312072_" gradientTransform="matrix(-.5 .866 -.866 -.5 533.779 41.187)" gradientUnits="userSpaceOnUse" x1="261.906" x2="194.187" xlink:href="#lg4" y1="80.905" y2="121.834"/><linearGradient id="SVGID_00000069388368926610064800000014281759541135206035_" gradientTransform="matrix(.5 .866 .866 -.5 -431.779 41.187)" gradientUnits="userSpaceOnUse" x1="432.052" x2="486.638" xlink:href="#lg3" y1="431.277" y2="485.864"/><linearGradient id="SVGID_00000172439377744122530050000011712472389592346811_" gradientUnits="userSpaceOnUse" x1="185.179" x2="227.221" xlink:href="#lg4" y1="208.51" y2="193.871"/><linearGradient id="SVGID_00000026877704136495651820000017048897303136022413_" gradientTransform="matrix(.5 .866 .866 -.5 -431.779 41.187)" gradientUnits="userSpaceOnUse" x1="471.841" x2="404.122" xlink:href="#lg4" y1="444.523" y2="485.452"/><linearGradient id="SVGID_00000079483064978771581560000006095172932381644714_" gradientUnits="userSpaceOnUse" x1="331.668" x2="277.24" xlink:href="#lg4" y1="230.127" y2="186.584"/><linearGradient id="lg5"><stop offset="0" stop-color="#fe9738"/><stop offset="1" stop-color="#ef4424"/></linearGradient><linearGradient id="SVGID_00000013881912081775266000000001663077117609880734_" gradientUnits="userSpaceOnUse" x1="227.152" x2="304.861" xlink:href="#lg5" y1="131.516" y2="209.226"/><linearGradient id="lg6"><stop offset="0" stop-color="#a72b2b" stop-opacity="0"/><stop offset=".1713" stop-color="#a12a28" stop-opacity=".171"/><stop offset=".4154" stop-color="#8e2821" stop-opacity=".415"/><stop offset=".7031" stop-color="#6f2415" stop-opacity=".703"/><stop offset="1" stop-color="#481f05"/></linearGradient><linearGradient id="SVGID_00000013895541519641675860000017556392895379933079_" gradientUnits="userSpaceOnUse" x1="233.408" x2="292.992" xlink:href="#lg6" y1="137.772" y2="197.356"/><linearGradient id="SVGID_00000119808542385777655070000012686057309529514172_" gradientTransform="matrix(1 0 0 -1 0 510)" gradientUnits="userSpaceOnUse" x1="353.955" x2="394.237" xlink:href="#lg3" y1="132.694" y2="172.975"/><linearGradient id="SVGID_00000026121384066540027760000011222445744154589362_" gradientUnits="userSpaceOnUse" x1="370.638" x2="368.422" xlink:href="#lg4" y1="368.128" y2="342.09"/><linearGradient id="SVGID_00000147208699068197175550000013292364798975648699_" gradientTransform="matrix(1 0 0 -1 0 510)" gradientUnits="userSpaceOnUse" x1="383.317" x2="333.345" xlink:href="#lg4" y1="142.469" y2="172.672"/><linearGradient id="SVGID_00000109004469838480377810000002140743458648474815_" gradientTransform="matrix(-.5 -.866 -.866 .5 533.779 468.813)" gradientUnits="userSpaceOnUse" x1="213.151" x2="253.433" xlink:href="#lg3" y1="-21.932" y2="18.35"/><linearGradient id="SVGID_00000168830689069624178840000007866357860991117721_" gradientUnits="userSpaceOnUse" x1="429.123" x2="387.095" xlink:href="#lg4" y1="271.38" y2="264.694"/><linearGradient id="SVGID_00000040547670133407318640000008643373988900747451_" gradientTransform="matrix(-.5 -.866 -.866 .5 533.779 468.813)" gradientUnits="userSpaceOnUse" x1="242.513" x2="192.541" xlink:href="#lg4" y1="-12.157" y2="18.046"/><linearGradient id="SVGID_00000055687400024713320850000013287603927528536215_" gradientTransform="matrix(.5 -.866 .866 .5 -431.779 468.813)" gradientUnits="userSpaceOnUse" x1="532.199" x2="572.48" xlink:href="#lg3" y1="530.675" y2="570.957"/><linearGradient id="SVGID_00000093888156422398485800000003425074109658370988_" gradientUnits="userSpaceOnUse" x1="322.272" x2="328.003" xlink:href="#lg4" y1="265.304" y2="298.099"/><linearGradient id="SVGID_00000017495623263090481160000013393532701815082134_" gradientTransform="matrix(.5 -.866 .866 .5 -431.779 468.813)" gradientUnits="userSpaceOnUse" x1="561.56" x2="511.588" xlink:href="#lg4" y1="540.45" y2="570.653"/><linearGradient id="SVGID_00000017501449400784806800000014095429253162305921_" gradientUnits="userSpaceOnUse" x1="353.955" x2="394.237" xlink:href="#lg3" y1="219.995" y2="260.277"/><linearGradient id="SVGID_00000151537522572141658020000002455568563947481733_" gradientUnits="userSpaceOnUse" x1="370.047" x2="370.047" xlink:href="#lg4" y1="233.833" y2="268.805"/><linearGradient id="SVGID_00000075140115801860495350000000776501998696926871_" gradientUnits="userSpaceOnUse" x1="383.317" x2="333.345" xlink:href="#lg4" y1="229.77" y2="259.973"/><linearGradient id="SVGID_00000072995101829836400200000005990740343460339900_" gradientTransform="matrix(-.5 .866 -.866 -.5 533.779 41.187)" gradientUnits="userSpaceOnUse" x1="288.757" x2="329.038" xlink:href="#lg3" y1="-65.582" y2="-25.301"/><linearGradient id="SVGID_00000163775076711730376160000015167893396127130763_" gradientUnits="userSpaceOnUse" x1="425.696" x2="396.611" xlink:href="#lg4" y1="330.843" y2="313.115"/><linearGradient id="SVGID_00000063593820923821626580000011521728910710313660_" gradientTransform="matrix(-.5 .866 -.866 -.5 533.779 41.187)" gradientUnits="userSpaceOnUse" x1="318.118" x2="268.146" xlink:href="#lg4" y1="-55.808" y2="-25.605"/><linearGradient id="SVGID_00000031192576933686062270000006621190510595741109_" gradientTransform="matrix(.5 .866 .866 -.5 -431.779 41.187)" gradientUnits="userSpaceOnUse" x1="607.804" x2="648.086" xlink:href="#lg3" y1="487.024" y2="527.306"/><linearGradient id="SVGID_00000012450953252264532910000013900610389021524873_" gradientUnits="userSpaceOnUse" x1="314.144" x2="345.168" xlink:href="#lg4" y1="330.538" y2="319.735"/><linearGradient id="SVGID_00000088094932757756207860000002650130657698339981_" gradientTransform="matrix(.5 .866 .866 -.5 -431.779 41.187)" gradientUnits="userSpaceOnUse" x1="637.166" x2="587.194" xlink:href="#lg4" y1="496.799" y2="527.002"/><linearGradient id="SVGID_00000036217202525887813420000015320673446383222425_" gradientUnits="userSpaceOnUse" x1="422.245" x2="382.08" xlink:href="#lg4" y1="346.49" y2="314.358"/><linearGradient id="SVGID_00000006702185484976290920000008163070549702008198_" gradientUnits="userSpaceOnUse" x1="345.117" x2="402.463" xlink:href="#lg5" y1="273.721" y2="331.066"/><linearGradient id="SVGID_00000127004853971335921080000009848344876385901987_" gradientUnits="userSpaceOnUse" x1="349.734" x2="393.703" xlink:href="#lg6" y1="278.337" y2="322.307"/><g><g><path d="m34.162 253.328c111.071 36.214 176.239 129.02 165.209 241.29l-.044.448c-.346 4.236.912 7.696 3.072 10.259l8.324-84.729c4.638-47.211-14.369-93.757-50.972-123.934-33.156-27.335-75.755-45.733-123.804-50.454l-.328-.032c-4.351-.417-5.615 5.799-1.457 7.152z" fill="url(#SVGID_1_)"/><path d="m199.371 494.618c11.03-112.269-54.138-205.076-165.209-241.29-1.801-.586-2.581-2.084-2.537-3.56 145.759 31.031 174.931 126.882 177.022 191.96l-6.248 63.597c-2.16-2.563-3.417-6.023-3.072-10.259z" fill="url(#SVGID_00000052806447478358737230000005924666819454360747_)"/><path d="m199.371 494.618c7.367-74.982-19.263-141.276-70.848-187.834l2.936-29.882c10.043 5.902 19.502 12.513 28.292 19.76 36.603 30.177 55.611 76.722 50.972 123.934l-8.325 84.729c-2.16-2.563-3.417-6.023-3.072-10.259z" fill="url(#SVGID_00000119831034422966458410000014120320009978702750_)"/></g><g><path d="m199.559 496.988c0 .11.001.221.003.332.205 12.527 18.348 14.129 20.851 1.853 1.761-8.634.68-17.534.68-26.629 0-80.608-70.209-145.953-159.284-145.953-.08 0-.159 0-.239 0-3.221.004-3.702 4.653-.557 5.347 84.066 18.552 138.546 81.922 138.546 165.05z" fill="url(#SVGID_00000062882176124697860240000005830484286218666140_)"/><path d="m133.088 341.776v21.843c41.781 30.407 66.471 77.411 66.471 133.37 0 .11.001.221.003.332.205 12.527 18.348 14.129 20.851 1.853 1.761-8.634.68-17.534.68-26.628 0-57.305-35.488-106.886-88.005-130.77z" fill="url(#SVGID_00000139263753412479665550000017655855021590478482_)"/></g><path d="m211.447 510c-.288 0-.577-.01-.868-.03-6.881-.472-12.08-6.422-11.616-13.304.123-1.828 3.277-45.322 25.823-94.075 30.209-65.325 80.983-108.59 146.831-125.116 6.698-1.677 13.486 2.385 15.167 9.081s-2.385 13.486-9.081 15.167c-58.841 14.768-102.541 51.988-129.885 110.628-20.819 44.646-23.884 85.604-23.913 86.012-.459 6.589-5.95 11.637-12.458 11.637z" fill="url(#SVGID_00000139989318923051023510000006354894222838106802_)"/><path d="m211.447 510c-.288 0-.577-.01-.868-.03-6.881-.472-12.08-6.422-11.616-13.304.123-1.828 3.277-45.322 25.823-94.075 30.209-65.325 80.983-108.59 146.831-125.116 6.698-1.677 13.486 2.385 15.167 9.081s-2.385 13.486-9.081 15.167c-58.841 14.768-102.541 51.988-129.885 110.628-20.819 44.646-23.884 85.604-23.913 86.012-.459 6.589-5.95 11.637-12.458 11.637z" fill="url(#SVGID_00000127042187672256149560000012823409584183040673_)"/><path d="m211.447 510c-.288 0-.577-.01-.868-.03-6.881-.472-12.08-6.422-11.616-13.304.123-1.828 3.277-45.322 25.823-94.075 30.209-65.325 80.983-108.59 146.831-125.116 6.698-1.677 13.486 2.385 15.167 9.081s-2.385 13.486-9.081 15.167c-58.841 14.768-102.541 51.988-129.885 110.628-20.819 44.646-23.884 85.604-23.913 86.012-.459 6.589-5.95 11.637-12.458 11.637z" fill="url(#SVGID_00000109742268034023556990000002232796352372143028_)"/><path d="m211.399 510c-6.549.001-12.052-5.098-12.464-11.724-15.557-249.965 44.348-343.828 46.906-347.701 3.805-5.762 11.558-7.347 17.319-3.543 5.748 3.795 7.339 11.523 3.568 17.28-.342.535-14.687 23.29-27.048 74.959-11.518 48.144-23.608 131.89-15.793 257.452.429 6.891-4.81 12.823-11.7 13.252-.264.017-.527.025-.788.025z" fill="url(#SVGID_00000005237440178279010630000001203921664186570932_)"/><path d="m228.137 189.528c-11.874 33.341-26.081 89.628-30.44 174.928h25.124c2.941-55.225 10.001-96.518 16.86-125.185 5.114-21.377 10.565-37.791 15.227-49.743z" fill="url(#SVGID_00000031208156789426452320000008296246061371845558_)"/><g><g><g><g><path d="m280.208 322.64-.058.057c-10.612 10.535-27.818 10.535-38.431 0l-.058-.057c-40.367-40.074-40.367-105.047 0-145.121l.058-.057c10.612-10.535 27.818-10.535 38.431 0l.058.057c40.368 40.074 40.368 105.047 0 145.121z" fill="url(#SVGID_00000168088218568589008210000014587578379595968943_)"/><path d="m241.662 177.519.058-.057c10.612-10.535 27.818-10.535 38.431 0l.058.057c27.145 26.948 36.007 65.149 26.644 99.473h-91.835c-9.363-34.324-.502-72.525 26.644-99.473z" fill="url(#SVGID_00000090252277568436838540000002938304859951199401_)"/><path d="m280.15 177.462.058.057c40.367 40.074 40.367 105.047 0 145.121l-.058.057c-5.306 5.268-12.261 7.901-19.215 7.901v-161.038c6.955 0 13.909 2.634 19.215 7.902z" fill="url(#SVGID_00000009548830606245950050000017256406935158209464_)"/></g><g><path d="m387.54 69.93.079.021c14.43 3.923 23.033 18.824 19.215 33.282l-.021.079c-14.521 54.996-70.789 87.482-125.678 72.56l-.079-.021c-14.43-3.923-23.033-18.824-19.215-33.282l.021-.079c14.521-54.996 70.789-87.482 125.678-72.56z" fill="url(#SVGID_00000059279261021842228320000000744284812158001546_)"/><path d="m281.135 175.872-.079-.021c-14.43-3.923-23.033-18.824-19.215-33.282l.021-.079c9.765-36.983 38.417-63.758 72.824-72.811l45.917 79.531c-25.044 25.271-62.558 36.697-99.468 26.662z" fill="url(#SVGID_00000133493533438102668930000005603945230029094305_)"/><path d="m261.841 142.569.021-.079c14.522-54.996 70.79-87.482 125.678-72.56l.079.021c7.215 1.961 12.973 6.667 16.451 12.69l-139.463 80.519c-3.479-6.022-4.675-13.362-2.766-20.591z" fill="url(#SVGID_00000053531827616566878260000002243955982494422161_)"/></g><g><path d="m134.33 69.93-.079.021c-14.43 3.923-23.033 18.824-19.215 33.282l.021.079c14.521 54.996 70.789 87.482 125.678 72.56l.079-.021c14.43-3.923 23.033-18.824 19.215-33.282l-.021-.079c-14.521-54.996-70.789-87.482-125.678-72.56z" fill="url(#SVGID_00000120541831051795436270000002537955832055283899_)"/><path d="m240.735 175.872.079-.021c14.43-3.923 23.033-18.824 19.215-33.282l-.021-.079c-9.765-36.983-38.417-63.758-72.824-72.811l-45.917 79.531c25.044 25.271 62.558 36.697 99.468 26.662z" fill="url(#SVGID_00000115493317878135426350000012347452676384707755_)"/><path d="m260.029 142.569-.021-.079c-14.521-54.996-70.79-87.482-125.678-72.56l-.079.021c-7.215 1.961-12.973 6.667-16.451 12.69l139.463 80.519c3.479-6.022 4.675-13.362 2.766-20.591z" fill="url(#SVGID_00000092425814429655104840000010651829945301729673_)"/></g></g><g><g><path d="m280.208 7.959-.058-.057c-10.612-10.535-27.818-10.535-38.431 0l-.058.057c-40.367 40.074-40.367 105.047 0 145.121l.058.057c10.612 10.535 27.818 10.535 38.431 0l.058-.057c40.368-40.074 40.368-105.047 0-145.121z" fill="url(#SVGID_00000157999400642606311080000013643873546019590846_)"/><path d="m241.662 153.08.058.057c10.612 10.535 27.818 10.535 38.431 0l.058-.057c27.145-26.948 36.007-65.149 26.644-99.473h-91.835c-9.363 34.323-.502 72.524 26.644 99.473z" fill="url(#SVGID_00000000220325307133582460000006814402757546880929_)"/><path d="m280.15 153.137.058-.057c40.367-40.074 40.367-105.047 0-145.121l-.058-.057c-5.306-5.268-12.26-7.902-19.215-7.902v161.038c6.955 0 13.909-2.633 19.215-7.901z" fill="url(#SVGID_00000089575262999303680520000014019639738481971863_)"/></g><g><path d="m387.54 260.669.079-.021c14.43-3.923 23.033-18.824 19.215-33.282l-.021-.079c-14.521-54.996-70.789-87.482-125.678-72.56l-.079.021c-14.43 3.923-23.033 18.824-19.215 33.282l.021.079c14.521 54.996 70.789 87.482 125.678 72.56z" fill="url(#SVGID_00000150070534319639533600000014627978875923495312_)"/><path d="m281.135 154.727-.079.021c-14.43 3.923-23.033 18.824-19.215 33.282l.021.079c9.765 36.983 38.417 63.758 72.824 72.811l45.917-79.531c-25.044-25.271-62.558-36.697-99.468-26.662z" fill="url(#SVGID_00000054959264126729748060000017363533303898784136_)"/><path d="m261.841 188.03.021.079c14.522 54.996 70.79 87.482 125.678 72.56l.079-.021c7.215-1.961 12.973-6.667 16.451-12.69l-139.463-80.519c-3.479 6.022-4.675 13.362-2.766 20.591z" fill="url(#SVGID_00000121957750756742951490000012869416215310312072_)"/></g><g><path d="m134.33 260.669-.079-.021c-14.43-3.923-23.033-18.824-19.215-33.282l.021-.079c14.521-54.996 70.789-87.482 125.678-72.56l.079.021c14.43 3.923 23.033 18.824 19.215 33.282l-.021.079c-14.521 54.996-70.789 87.482-125.678 72.56z" fill="url(#SVGID_00000069388368926610064800000014281759541135206035_)"/><path d="m240.735 154.727.079.021c14.43 3.923 23.033 18.824 19.215 33.282l-.021.079c-9.765 36.983-38.417 63.758-72.824 72.811l-45.917-79.531c25.044-25.271 62.558-36.697 99.468-26.662z" fill="url(#SVGID_00000172439377744122530050000011712472389592346811_)"/><path d="m260.029 188.03-.021.079c-14.521 54.996-70.79 87.482-125.678 72.56l-.079-.021c-7.215-1.961-12.973-6.667-16.451-12.69l139.463-80.519c3.479 6.022 4.675 13.362 2.766 20.591z" fill="url(#SVGID_00000026877704136495651820000017048897303136022413_)"/></g></g></g><path d="m407.618 231.841-106.612-106.613-36.936 36.936c.568 1.084 1.2 2.135 1.907 3.135-.976 1.378-1.822 2.844-2.529 4.378-2.391-.219-4.806-.122-7.176.285l-33.759 33.759c-.373.732-.737 1.467-1.092 2.206l81.851 81.851c4.669-11.759 7.073-24.199 7.199-36.66 22.573 12.729 49.987 16.913 77.068 9.551l.079-.021c12.942-3.519 21.189-15.867 20-28.807z" fill="url(#SVGID_00000079483064978771581560000006095172932381644714_)"/><path d="m311.7 147.985c-1.371-1.773-2.329-3.845-2.593-6.071-.722-6.098-3.422-12.007-8.102-16.686-4.679-4.679-10.588-7.38-16.686-8.101-2.226-.263-4.297-1.222-6.071-2.593-4.788-3.701-10.794-5.904-17.314-5.904s-12.526 2.202-17.314 5.904c-1.773 1.371-3.845 2.329-6.071 2.593-6.098.722-12.007 3.422-16.686 8.101s-7.38 10.588-8.101 16.686c-.263 2.226-1.222 4.297-2.593 6.071-3.701 4.788-5.904 10.794-5.904 17.314s2.202 12.526 5.904 17.314c1.371 1.773 2.329 3.845 2.593 6.071.722 6.098 3.422 12.007 8.101 16.686s10.588 7.38 16.686 8.102c2.226.263 4.297 1.222 6.071 2.593 4.788 3.701 10.794 5.904 17.314 5.904s12.526-2.202 17.314-5.904c1.773-1.371 3.845-2.329 6.071-2.593 6.098-.722 12.007-3.422 16.686-8.102 4.679-4.679 7.38-10.588 8.102-16.686.263-2.226 1.222-4.297 2.593-6.071 3.701-4.788 5.904-10.794 5.904-17.314s-2.202-12.526-5.904-17.314z" fill="url(#SVGID_00000013881912081775266000000001663077117609880734_)"/><path d="m282.232 158.036c-.575-.744-.977-1.613-1.088-2.547-.303-2.558-1.436-5.037-3.399-7s-4.442-3.096-7-3.399c-.934-.111-1.803-.513-2.547-1.088-2.009-1.553-4.528-2.477-7.264-2.477-2.735 0-5.255.924-7.264 2.477-.744.575-1.613.977-2.547 1.088-2.558.303-5.037 1.436-7 3.399s-3.096 4.442-3.399 7c-.111.934-.513 1.803-1.088 2.547-1.553 2.009-2.477 4.528-2.477 7.264s.924 5.255 2.477 7.264c.575.744.977 1.613 1.088 2.547.303 2.558 1.436 5.037 3.399 7s4.442 3.096 7 3.399c.934.111 1.803.513 2.547 1.088 2.009 1.553 4.528 2.477 7.264 2.477 2.735 0 5.255-.924 7.264-2.477.744-.575 1.613-.977 2.547-1.088 2.558-.303 5.037-1.436 7-3.399s3.096-4.442 3.399-7c.111-.934.513-1.803 1.088-2.547 1.553-2.009 2.477-4.528 2.477-7.264s-.925-5.256-2.477-7.264z" fill="url(#SVGID_00000013895541519641675860000017556392895379933079_)"/></g><g><g><g><g><path d="m384.27 414.759-.043.042c-7.831 7.774-20.528 7.774-28.36 0l-.043-.042c-29.789-29.572-29.789-77.519 0-107.091l.043-.042c7.831-7.774 20.528-7.774 28.36 0l.043.042c29.789 29.573 29.789 77.519 0 107.091z" fill="url(#SVGID_00000119808542385777655070000012686057309529514172_)"/><path d="m355.825 307.668.043-.042c7.831-7.774 20.528-7.774 28.36 0l.043.042c20.032 19.886 26.571 48.076 19.662 73.406h-67.769c-6.91-25.329-.371-53.519 19.661-73.406z" fill="url(#SVGID_00000026121384066540027760000011222445744154589362_)"/><path d="m384.227 307.626.043.042c29.789 29.572 29.789 77.519 0 107.091l-.043.042c-3.916 3.887-9.048 5.831-14.18 5.831v-118.837c5.133 0 10.265 1.944 14.18 5.831z" fill="url(#SVGID_00000147208699068197175550000013292364798975648699_)"/></g><g><path d="m463.475 228.273.058.016c10.648 2.895 16.997 13.891 14.18 24.56l-.015.058c-10.716 40.584-52.239 64.557-92.744 53.545l-.058-.016c-10.648-2.895-16.997-13.891-14.18-24.56l.015-.058c10.716-40.583 52.239-64.556 92.744-53.545z" fill="url(#SVGID_00000109004469838480377810000002140743458648474815_)"/><path d="m384.954 306.453-.058-.016c-10.649-2.895-16.997-13.891-14.18-24.56l.015-.058c7.206-27.291 28.35-47.05 53.74-53.73l33.884 58.689c-18.48 18.648-46.164 27.08-73.401 19.675z" fill="url(#SVGID_00000168830689069624178840000007866357860991117721_)"/><path d="m370.716 281.877.015-.058c10.716-40.584 52.239-64.557 92.744-53.546l.058.016c5.324 1.447 9.574 4.92 12.14 9.365l-102.916 59.419c-2.567-4.445-3.45-9.861-2.041-15.196z" fill="url(#SVGID_00000040547670133407318640000008643373988900747451_)"/></g><g><path d="m276.62 228.273-.058.016c-10.648 2.895-16.997 13.891-14.18 24.56l.015.058c10.716 40.584 52.239 64.557 92.744 53.545l.058-.016c10.648-2.895 16.997-13.891 14.18-24.56l-.015-.058c-10.716-40.583-52.239-64.556-92.744-53.545z" fill="url(#SVGID_00000055687400024713320850000013287603927528536215_)"/><path d="m355.141 306.453.058-.016c10.648-2.895 16.997-13.891 14.18-24.56l-.015-.058c-7.206-27.291-28.35-47.05-53.74-53.73l-33.884 58.689c18.48 18.648 46.163 27.08 73.401 19.675z" fill="url(#SVGID_00000093888156422398485800000003425074109658370988_)"/><path d="m369.379 281.877-.015-.058c-10.716-40.584-52.239-64.557-92.744-53.546l-.058.016c-5.324 1.447-9.574 4.92-12.14 9.365l102.916 59.419c2.567-4.445 3.45-9.861 2.041-15.196z" fill="url(#SVGID_00000017495623263090481160000013393532701815082134_)"/></g></g><g><g><path d="m384.27 182.542-.043-.042c-7.831-7.774-20.528-7.774-28.36 0l-.043.042c-29.789 29.572-29.789 77.519 0 107.091l.043.042c7.831 7.774 20.528 7.774 28.36 0l.043-.042c29.789-29.572 29.789-77.518 0-107.091z" fill="url(#SVGID_00000017501449400784806800000014095429253162305921_)"/><path d="m355.825 289.633.043.042c7.831 7.774 20.528 7.774 28.36 0l.043-.042c20.032-19.886 26.571-48.076 19.662-73.406h-67.769c-6.91 25.33-.371 53.52 19.661 73.406z" fill="url(#SVGID_00000151537522572141658020000002455568563947481733_)"/><path d="m384.227 289.676.043-.042c29.789-29.572 29.789-77.519 0-107.091l-.043-.042c-3.916-3.887-9.048-5.831-14.18-5.831v118.837c5.133 0 10.265-1.944 14.18-5.831z" fill="url(#SVGID_00000075140115801860495350000000776501998696926871_)"/></g><g><path d="m463.475 369.028.058-.016c10.648-2.895 16.997-13.891 14.18-24.56l-.015-.058c-10.716-40.584-52.239-64.557-92.744-53.546l-.058.016c-10.648 2.895-16.997 13.891-14.18 24.56l.015.058c10.716 40.585 52.239 64.558 92.744 53.546z" fill="url(#SVGID_00000072995101829836400200000005990740343460339900_)"/><path d="m384.954 290.849-.058.016c-10.649 2.895-16.997 13.891-14.18 24.56l.015.058c7.206 27.291 28.35 47.05 53.74 53.73l33.884-58.69c-18.48-18.647-46.164-27.079-73.401-19.674z" fill="url(#SVGID_00000163775076711730376160000015167893396127130763_)"/><path d="m370.716 315.425.015.058c10.716 40.584 52.239 64.557 92.744 53.546l.058-.016c5.324-1.447 9.574-4.92 12.14-9.365l-102.916-59.419c-2.567 4.445-3.45 9.861-2.041 15.196z" fill="url(#SVGID_00000063593820923821626580000011521728910710313660_)"/></g><g><path d="m276.62 369.028-.058-.016c-10.648-2.895-16.997-13.891-14.18-24.56l.015-.058c10.716-40.584 52.239-64.557 92.744-53.546l.058.016c10.648 2.895 16.997 13.891 14.18 24.56l-.015.058c-10.716 40.585-52.239 64.558-92.744 53.546z" fill="url(#SVGID_00000031192576933686062270000006621190510595741109_)"/><path d="m355.141 290.849.058.016c10.648 2.895 16.997 13.891 14.18 24.56l-.015.058c-7.206 27.291-28.35 47.05-53.74 53.73l-33.884-58.69c18.48-18.647 46.163-27.079 73.401-19.674z" fill="url(#SVGID_00000012450953252264532910000013900610389021524873_)"/><path d="m369.379 315.425-.015.058c-10.716 40.584-52.239 64.557-92.744 53.546l-.058-.016c-5.324-1.447-9.574-4.92-12.14-9.365l102.916-59.419c2.567 4.445 3.45 9.861 2.041 15.196z" fill="url(#SVGID_00000088094932757756207860000002650130657698339981_)"/></g></g></g><path d="m478.292 347.755-78.674-78.674-27.257 27.257c.419.8.885 1.576 1.408 2.313-.72 1.017-1.345 2.099-1.866 3.231-1.764-.162-3.546-.09-5.296.21l-24.912 24.912c-.275.54-.544 1.083-.806 1.628l60.402 60.402c3.446-8.677 5.219-17.858 5.313-27.053 16.658 9.393 36.888 12.481 56.872 7.048l.058-.016c9.549-2.597 15.635-11.709 14.758-21.258z" fill="url(#SVGID_00000036217202525887813420000015320673446383222425_)"/><path d="m407.509 285.874c-1.011-1.308-1.719-2.837-1.913-4.48-.533-4.5-2.525-8.86-5.978-12.313s-7.813-5.446-12.313-5.978c-1.642-.194-3.171-.902-4.48-1.913-3.533-2.731-7.965-4.357-12.777-4.357s-9.244 1.625-12.777 4.357c-1.308 1.012-2.837 1.719-4.48 1.913-4.5.533-8.86 2.525-12.313 5.978s-5.446 7.813-5.978 12.313c-.194 1.642-.902 3.171-1.913 4.48-2.731 3.533-4.357 7.965-4.357 12.777s1.625 9.244 4.357 12.777c1.011 1.308 1.719 2.837 1.913 4.48.533 4.5 2.525 8.86 5.978 12.313s7.813 5.446 12.313 5.978c1.642.194 3.171.902 4.48 1.913 3.533 2.731 7.965 4.357 12.777 4.357s9.244-1.625 12.777-4.357c1.308-1.012 2.837-1.719 4.48-1.913 4.5-.533 8.86-2.525 12.313-5.978s5.446-7.813 5.978-12.313c.194-1.642.902-3.171 1.913-4.48 2.731-3.533 4.357-7.965 4.357-12.777s-1.625-9.244-4.357-12.777z" fill="url(#SVGID_00000006702185484976290920000008163070549702008198_)"/><path d="m385.763 293.291c-.424-.549-.721-1.19-.803-1.879-.223-1.888-1.059-3.717-2.508-5.166s-3.278-2.285-5.166-2.508c-.689-.082-1.33-.378-1.879-.803-1.482-1.146-3.342-1.828-5.36-1.828s-3.878.682-5.36 1.828c-.549.424-1.19.721-1.879.803-1.888.223-3.717 1.059-5.166 2.508s-2.285 3.278-2.508 5.166c-.082.689-.378 1.33-.803 1.879-1.146 1.482-1.828 3.342-1.828 5.36s.682 3.878 1.828 5.36c.424.549.721 1.19.803 1.879.223 1.888 1.059 3.717 2.508 5.166s3.278 2.285 5.166 2.508c.689.082 1.33.378 1.879.803 1.482 1.146 3.342 1.828 5.36 1.828s3.878-.682 5.36-1.828c.549-.424 1.19-.721 1.879-.803 1.888-.223 3.717-1.059 5.166-2.508s2.285-3.278 2.508-5.166c.082-.689.378-1.33.803-1.879 1.146-1.482 1.828-3.342 1.828-5.36s-.682-3.878-1.828-5.36z" fill="url(#SVGID_00000127004853971335921080000009848344876385901987_)"/></g></g></svg>