<svg id="Capa_1" enable-background="new 0 0 497.003 497.003" height="512" viewBox="0 0 497.003 497.003" width="512" xmlns="http://www.w3.org/2000/svg"><g><g fill="#9a4588"><g><path d="m330.107 116.053-39.118-17.207 9.321-45.172c2.296-11.127 8.554-21.042 17.61-27.902l27.305-20.683c6.773-5.131 16.548-.831 17.343 7.629l3.205 34.104c1.063 11.311-2.017 22.624-8.667 31.836z"/><path d="m206.017 398.156-39.118-17.207-26.999 37.397c-6.65 9.212-9.73 20.524-8.667 31.836l3.205 34.104c.795 8.46 10.57 12.759 17.343 7.629l27.305-20.683c9.056-6.86 15.314-16.775 17.61-27.902z"/></g><g><path d="m398.039 205.598-17.316-39.07 37.321-27.103c9.193-6.676 20.497-9.787 31.811-8.756l34.113 3.11c8.462.771 12.789 10.534 7.677 17.321l-20.607 27.362c-6.835 9.075-16.732 15.361-27.853 17.688z"/><path d="m116.282 330.474-17.316-39.07-45.146 9.447c-11.12 2.327-21.018 8.612-27.853 17.688l-20.607 27.363c-5.112 6.787-.785 16.55 7.677 17.321l34.113 3.11c11.314 1.032 22.618-2.08 31.811-8.756z"/></g></g><g fill="#9a4588"><g><path d="m115.713 167.454-17.043 39.19-45.211-9.132c-11.136-2.249-21.077-8.465-27.976-17.493l-20.797-27.217c-5.159-6.751-.901-16.544 7.556-17.374l34.09-3.348c11.307-1.111 22.632 1.922 31.872 8.533z"/><path d="m398.335 290.359-17.043 39.19 37.51 26.841c9.239 6.612 20.565 9.644 31.872 8.533l34.09-3.348c8.456-.831 12.715-10.623 7.556-17.374l-20.798-27.218c-6.898-9.027-16.839-15.243-27.976-17.493z"/></g><g><path d="m205.599 98.965-39.07 17.316-27.102-37.321c-6.676-9.193-9.787-20.497-8.756-31.811l3.11-34.113c.771-8.462 10.534-12.789 17.321-7.677l27.362 20.607c9.075 6.835 15.361 16.732 17.688 27.853z"/><path d="m330.476 380.721-39.07 17.316 9.447 45.146c2.327 11.12 8.612 21.018 17.688 27.853l27.362 20.607c6.787 5.112 16.55.785 17.321-7.677l3.11-34.113c1.032-11.314-2.08-22.618-8.756-31.811z"/></g></g><g><g><g><path d="m201.713 136.099-40.358 27.38-38.015-36.407c-9.364-8.968-15.154-21.03-16.293-33.946l-3.435-38.94c-.852-9.659 9.232-16.501 17.892-12.139l34.912 17.585c11.58 5.832 20.648 15.671 25.519 27.686z" fill="#ffceec"/><path d="m335.651 333.524-40.358 27.38 19.778 48.78c4.872 12.015 13.94 21.854 25.519 27.686l34.912 17.585c8.66 4.362 18.745-2.48 17.892-12.139l-3.435-38.94c-1.139-12.915-6.929-24.978-16.293-33.945z" fill="#ffceec"/><path d="m393.394 442.816-3.435-38.94c-1.139-12.915-6.929-24.978-16.293-33.946l-38.015-36.407-10.542 7.152 30.548 29.255c9.364 8.968 15.154 21.03 16.293 33.946l3.435 38.94c.362 4.097-1.249 7.683-3.879 10.126l3.996 2.013c8.66 4.361 18.744-2.48 17.892-12.139z" fill="#fec0dd"/></g><g><g fill="#ffceec"><path d="m136.1 295.291 27.38 40.358-36.407 38.015c-8.968 9.364-21.03 15.154-33.946 16.293l-38.94 3.435c-9.659.852-16.501-9.232-12.139-17.892l17.585-34.912c5.832-11.58 15.671-20.648 27.686-25.519z"/><path d="m333.525 161.353 27.38 40.358 48.78-19.778c12.015-4.872 21.854-13.94 27.686-25.519l17.585-34.912c4.362-8.66-2.48-18.745-12.139-17.892l-38.94 3.435c-12.915 1.139-24.978 6.929-33.945 16.293z"/><path d="m333.525 161.353 27.38 40.358 48.78-19.778c12.015-4.872 21.854-13.94 27.686-25.519l17.585-34.912c4.362-8.66-2.48-18.745-12.139-17.892l-38.94 3.435c-12.915 1.139-24.978 6.929-33.945 16.293z"/><path d="m333.525 161.353 27.38 40.358 48.78-19.778c12.015-4.872 21.854-13.94 27.686-25.519l17.585-34.912c4.362-8.66-2.48-18.745-12.139-17.892l-38.94 3.435c-12.915 1.139-24.978 6.929-33.945 16.293z"/></g><path d="m442.817 103.61-11.811 1.042c6.042 2.746 9.283 10.214 5.94 16.85l-17.585 34.912c-5.832 11.58-15.671 20.648-27.686 25.519l-34.656 14.051 3.885 5.727 48.78-19.778c12.016-4.872 21.854-13.94 27.686-25.519l17.585-34.912c4.363-8.66-2.479-18.745-12.138-17.892z" fill="#fec0dd"/></g></g><g><g><path d="m243.615 126.847-47.351 11.678-23.023-47.335c-5.671-11.659-6.916-24.981-3.504-37.49l10.288-37.713c2.552-9.355 14.384-12.273 20.992-5.177l26.643 28.605c8.837 9.488 13.929 21.861 14.329 34.82z" fill="#ffceec"/><path d="m241.99 74.236c-.401-12.959-5.492-25.333-14.329-34.82l-26.643-28.605c-5.14-5.519-13.438-4.978-18.074-.065.021.022.044.042.065.065l26.643 28.605c8.837 9.488 13.929 21.861 14.329 34.82l1.626 52.612-31.271 7.712 1.929 3.966 47.351-11.678z" fill="#fec0dd"/><path d="m300.741 358.478-47.351 11.678 1.626 52.612c.4 12.959 5.492 25.332 14.329 34.82l26.643 28.605c6.609 7.096 18.441 4.178 20.992-5.177l10.288-37.713c3.412-12.508 2.167-25.83-3.504-37.49z" fill="#ffceec"/><path d="m323.764 405.812-23.023-47.334-16.08 3.966 21.094 43.369c5.671 11.659 6.916 24.981 3.504 37.49l-10.288 37.713c-.567 2.079-1.594 3.838-2.919 5.242 6.621 7.01 18.384 4.083 20.928-5.242l10.288-37.713c3.412-12.51 2.167-25.832-3.504-37.491z" fill="#fec0dd"/></g><g><path d="m126.848 253.388 11.678 47.351-47.335 23.023c-11.659 5.671-24.981 6.916-37.49 3.504l-37.713-10.288c-9.355-2.552-12.273-14.384-5.177-20.992l28.605-26.643c9.488-8.837 21.861-13.929 34.82-14.329z" fill="#ffceec"/><path d="m358.479 196.263 11.678 47.351 52.612-1.626c12.959-.4 25.332-5.492 34.82-14.329l28.605-26.643c7.096-6.609 4.178-18.441-5.177-20.992l-37.713-10.288c-12.508-3.412-25.83-2.167-37.49 3.504z" fill="#ffceec"/><path d="m481.016 180.023-37.713-10.288c-7.577-2.067-15.45-2.413-23.073-1.114 1.698.291 3.389.657 5.064 1.114l37.713 10.288c9.355 2.552 12.273 14.384 5.177 20.993l-28.605 26.643c-9.488 8.837-21.861 13.929-34.82 14.329l-34.739 1.073.136.552 52.612-1.626c12.959-.401 25.333-5.492 34.82-14.329l28.605-26.643c7.096-6.608 4.178-18.44-5.177-20.992z" fill="#fec0dd"/></g></g></g><g><g><g><path d="m138.173 197.012-11.355 47.429-52.621-1.268c-12.962-.312-25.369-5.32-34.917-14.092l-28.785-26.448c-7.14-6.561-4.303-18.412 5.034-21.027l37.642-10.544c12.485-3.497 25.815-2.343 37.513 3.249z" fill="#ffceec"/><path d="m370.187 252.561-11.355 47.429 47.49 22.701c11.698 5.592 25.028 6.746 37.513 3.249l37.642-10.544c9.337-2.615 12.175-14.467 5.034-21.027l-28.785-26.448c-9.547-8.772-21.955-13.78-34.917-14.092z" fill="#ffceec"/><path d="m486.511 294.368-28.786-26.448c-9.547-8.772-21.955-13.78-34.917-14.092l-52.621-1.268-.103.431 34.716.836c12.962.312 25.369 5.32 34.917 14.092l28.785 26.448c7.14 6.561 4.303 18.412-5.034 21.027l-37.642 10.544c-1.799.504-3.617.9-5.444 1.211 7.753 1.325 15.763.943 23.453-1.211l37.642-10.544c9.337-2.614 12.174-14.465 5.034-21.026z" fill="#fec0dd"/></g><g><path d="m197.014 358.83 47.429 11.355-1.268 52.621c-.312 12.962-5.32 25.369-14.092 34.917l-26.448 28.785c-6.561 7.14-18.412 4.303-21.027-5.034l-10.544-37.642c-3.497-12.485-2.343-25.815 3.249-37.513z" fill="#ffceec"/><path d="m197.014 358.83-1.849 3.869 31.27 7.487-1.268 52.621c-.312 12.962-5.32 25.369-14.092 34.917l-26.448 28.786c-.041.044-.084.083-.125.127 4.658 4.94 13.01 5.45 18.134-.127l26.448-28.786c8.772-9.547 13.78-21.955 14.092-34.917l1.268-52.621z" fill="#fec0dd"/><path d="m252.562 126.817 47.429 11.355 22.701-47.49c5.592-11.698 6.746-25.028 3.249-37.513l-10.544-37.642c-2.615-9.337-14.467-12.175-21.027-5.034l-26.448 28.785c-8.772 9.547-13.78 21.955-14.092 34.917z" fill="#ffceec"/><path d="m325.941 53.169-10.544-37.642c-2.599-9.28-14.318-12.135-20.902-5.161 1.305 1.385 2.321 3.117 2.893 5.161l10.544 37.642c3.497 12.485 2.343 25.815-3.249 37.513l-20.851 43.621 16.16 3.869 22.701-47.49c5.591-11.698 6.745-25.028 3.248-37.513z" fill="#fec0dd"/></g></g><g><g><path d="m162.889 161.933-27.105 40.544-48.913-19.445c-12.048-4.79-21.948-13.791-27.859-25.331l-17.822-34.792c-4.421-8.63 2.352-18.761 12.017-17.975l38.962 3.17c12.923 1.052 25.024 6.759 34.056 16.062z" fill="#ffceec"/><path d="m361.221 294.525-27.105 40.544 36.665 37.767c9.031 9.303 21.133 15.01 34.056 16.062l38.962 3.17c9.665.786 16.438-9.344 12.017-17.975l-17.822-34.792c-5.911-11.54-15.811-20.541-27.859-25.331z" fill="#ffceec"/><path d="m455.815 374.093-17.822-34.792c-5.911-11.54-15.811-20.541-27.859-25.331l-48.913-19.445-3.781 5.656 34.686 13.789c12.048 4.79 21.948 13.791 27.859 25.331l17.822 34.792c3.43 6.696.12 14.292-6.05 16.995l12.042.98c9.664.786 16.436-9.345 12.016-17.975z" fill="#fec0dd"/></g><g><path d="m161.935 334.114 40.544 27.105-19.445 48.913c-4.79 12.048-13.791 21.948-25.331 27.859l-34.792 17.822c-8.63 4.421-18.761-2.352-17.975-12.017l3.17-38.962c1.052-12.923 6.759-25.024 16.062-34.056z" fill="#ffceec"/><path d="m294.527 135.783 40.544 27.105 37.767-36.665c9.303-9.031 15.01-21.133 16.062-34.056l3.17-38.962c.786-9.665-9.344-16.437-17.975-12.017l-34.792 17.822c-11.54 5.911-20.541 15.811-25.331 27.859z" fill="#ffceec"/><path d="m374.094 41.189-3.897 1.996c2.597 2.424 4.193 5.965 3.863 10.021l-3.17 38.962c-1.052 12.923-6.759 25.024-16.062 34.056l-30.422 29.535 10.665 7.13 37.767-36.665c9.303-9.031 15.01-21.133 16.062-34.056l3.17-38.962c.786-9.665-9.345-16.438-17.976-12.017z" fill="#fec0dd"/></g></g></g><g><g><path d="m272.887 129.216h-48.77l-11.019-51.47c-2.714-12.678-.733-25.911 5.575-37.238l19.019-34.152c4.718-8.472 16.904-8.472 21.621 0l19.019 34.152c6.308 11.328 8.289 24.56 5.575 37.238z" fill="#d691c6"/><path d="m278.332 40.507-19.019-34.152c-4.718-8.472-16.904-8.472-21.621 0l-.282.506 18.737 33.647c6.308 11.328 8.289 24.56 5.575 37.238l-11.019 51.47h22.185l11.019-51.47c2.714-12.679.733-25.911-5.575-37.239z" fill="#cd7cbb"/><path d="m272.887 367.787h-48.77l-11.019 51.47c-2.714 12.678-.733 25.911 5.575 37.238l19.019 34.152c4.718 8.472 16.904 8.472 21.621 0l19.019-34.152c6.308-11.328 8.289-24.56 5.575-37.238z" fill="#d691c6"/><path d="m283.907 419.257-11.019-51.47h-22.185l11.019 51.47c2.714 12.678.733 25.911-5.575 37.238l-18.737 33.647.282.506c4.718 8.472 16.904 8.472 21.621 0l19.019-34.152c6.308-11.328 8.289-24.561 5.575-37.239z" fill="#cd7cbb"/></g><g><path d="m129.213 224.121v48.76l-14.77 3.16-36.7 7.86c-12.67 2.72-25.91.74-37.23-5.57l-34.16-19.02c-8.47-4.72-8.47-16.9 0-21.62l34.16-19.02c11.32-6.31 24.56-8.29 37.23-5.57l36.7 7.86z" fill="#d691c6"/><path d="m129.213 224.121v48.76l-14.77 3.16c-.92-.44-1.83-.9-2.72-1.4l-29.92-16.67c-7.43-4.13-7.43-14.81 0-18.94l29.92-16.67c.89-.5 1.8-.96 2.72-1.4z" fill="#cd7cbb"/><path d="m367.788 224.116v48.77l51.47 11.019c12.678 2.714 25.911.733 37.238-5.575l34.152-19.019c8.472-4.718 8.472-16.904 0-21.621l-34.152-19.019c-11.328-6.308-24.56-8.289-37.238-5.575z" fill="#d691c6"/><path d="m490.649 237.69-34.152-19.019c-11.302-6.294-24.5-8.278-37.152-5.591 5.2 1.099 10.25 2.964 14.967 5.591l34.152 19.019c8.472 4.718 8.472 16.904 0 21.622l-34.152 19.019c-4.717 2.627-9.767 4.492-14.967 5.591 12.652 2.687 25.85.703 37.152-5.591l34.152-19.019c8.471-4.718 8.471-16.904 0-21.622z" fill="#cd7cbb"/></g></g><g><g><path d="m181.398 146.911-34.485 34.485-44.187-28.603c-10.884-7.046-18.84-17.803-22.389-30.273l-10.702-37.598c-2.654-9.326 5.962-17.943 15.289-15.289l37.598 10.701c12.47 3.549 23.228 11.505 30.273 22.389z" fill="#d691c6"/><path d="m152.794 102.724c-7.046-10.884-17.803-18.84-30.273-22.389l-37.597-10.701c-4.543-1.293-8.913.093-11.899 2.928l27.311 7.774c12.47 3.549 23.228 11.505 30.273 22.389l28.603 44.187-25.768 25.768 13.467 8.718 34.485-34.485z" fill="#cd7cbb"/><path d="m350.093 315.606-34.485 34.485 28.603 44.187c7.046 10.884 17.803 18.84 30.273 22.389l37.598 10.701c9.326 2.654 17.943-5.962 15.289-15.289l-10.701-37.598c-3.549-12.47-11.505-23.228-22.389-30.273z" fill="#d691c6"/><path d="m427.37 412.08-10.701-37.597c-3.549-12.47-11.505-23.228-22.389-30.273l-44.187-28.603-8.718 8.718 30.72 19.886c10.884 7.046 18.84 17.803 22.389 30.273l10.701 37.597c1.362 4.783-.246 9.376-3.39 12.361l10.286 2.928c9.327 2.653 17.944-5.964 15.289-15.29z" fill="#cd7cbb"/></g><g><path d="m146.912 315.606 34.485 34.485-28.603 44.187c-7.046 10.884-17.803 18.84-30.273 22.389l-37.598 10.701c-9.326 2.654-17.943-5.962-15.289-15.289l10.701-37.598c3.549-12.47 11.505-23.228 22.389-30.273z" fill="#d691c6"/><path d="m146.912 315.606-13.467 8.718 25.768 25.768-28.603 44.187c-7.046 10.884-17.803 18.84-30.273 22.389l-27.311 7.774c2.986 2.835 7.356 4.221 11.899 2.928l37.598-10.701c12.47-3.549 23.228-11.505 30.273-22.389l28.603-44.187z" fill="#cd7cbb"/><path d="m315.607 146.911 34.485 34.485 44.187-28.603c10.884-7.046 18.84-17.803 22.389-30.273l10.701-37.598c2.654-9.326-5.962-17.943-15.289-15.289l-37.598 10.701c-12.47 3.549-23.228 11.505-30.273 22.389z" fill="#d691c6"/><path d="m412.081 69.634-10.286 2.928c3.144 2.985 4.751 7.578 3.39 12.361l-10.701 37.597c-3.549 12.47-11.505 23.228-22.389 30.273l-30.72 19.886 8.718 8.718 44.187-28.603c10.884-7.046 18.84-17.803 22.389-30.273l10.701-37.597c2.655-9.328-5.962-17.945-15.289-15.29z" fill="#cd7cbb"/></g></g><g><g><path d="m239.595 165.095-47.344 21.183-33.053-45.179c-8.142-11.129-11.966-24.834-10.762-38.571l3.629-41.414c.9-10.273 12.73-15.566 20.989-9.391l33.296 24.893c11.044 8.256 18.714 20.242 21.586 33.728z" fill="#c365af"/><path d="m227.936 110.344c-2.872-13.486-10.542-25.472-21.586-33.728l-33.296-24.893c-6.176-4.618-14.348-2.821-18.454 2.674l29.719 22.219c11.044 8.257 18.714 20.242 21.586 33.728l10.049 47.193c.939 4.409-1.33 8.874-5.445 10.715l-23.691 10.6 5.433 7.427 47.344-21.183z" fill="#b2529f"/><path d="m304.753 310.725-47.344 21.183 11.659 54.751c2.872 13.486 10.542 25.471 21.586 33.728l33.296 24.893c8.259 6.175 20.089.882 20.989-9.391l3.629-41.414c1.204-13.736-2.621-27.442-10.762-38.571z" fill="#c365af"/><path d="m337.806 355.904-33.053-45.179-16.598 7.427 27.62 37.753c8.142 11.129 11.966 24.834 10.762 38.571l-3.629 41.414c-.227 2.591-1.15 4.864-2.535 6.717l3.577 2.674c8.259 6.175 20.089.882 20.989-9.391l3.629-41.414c1.204-13.737-2.62-27.443-10.762-38.572z" fill="#b2529f"/></g><g><path d="m186.283 304.751-45.18 33.05c-11.13 8.15-24.84 11.97-38.57 10.77l-3.72-.33-37.7-3.3c-10.27-.9-15.56-12.73-9.39-20.99l24.89-33.3c8.26-11.04 20.25-18.71 33.73-21.58l54.75-11.66 4.1 9.17z" fill="#c365af"/><path d="m310.726 192.25 21.183 47.344 54.751-11.659c13.486-2.872 25.471-10.542 33.728-21.586l24.893-33.296c6.175-8.259.882-20.089-9.391-20.989l-41.414-3.629c-13.736-1.204-27.442 2.621-38.571 10.762z" fill="#c365af"/><path d="m435.89 152.064-41.414-3.629c-4.959-.435-9.912-.204-14.743.639l34.126 2.99c10.273.9 15.566 12.73 9.391 20.989l-24.893 33.296c-8.256 11.044-20.242 18.714-33.728 21.586l-34.636 7.375 1.916 4.283 54.751-11.659c13.486-2.872 25.471-10.542 33.728-21.586l24.893-33.296c6.175-8.258.882-20.088-9.391-20.988z" fill="#b2529f"/></g></g><g><g><path d="m304.252 185.828-47.512-20.802 11.219-54.843c2.763-13.509 10.337-25.555 21.314-33.9l33.095-25.16c8.209-6.241 20.081-1.043 21.064 9.222l3.961 41.384c1.314 13.726-2.4 27.462-10.452 38.656z" fill="#c365af"/><path d="m347.393 101.729-3.961-41.384c-.983-10.266-12.855-15.463-21.064-9.222l-3.472 2.639c1.353 1.822 2.262 4.047 2.505 6.583l3.961 41.384c1.314 13.726-2.4 27.462-10.452 38.656l-27.412 38.108 16.755 7.335 32.689-45.443c8.05-11.194 11.764-24.93 10.451-38.656z" fill="#b2529f"/><path d="m240.265 331.976-47.512-20.802-32.689 45.443c-8.052 11.194-11.766 24.93-10.452 38.656l3.961 41.384c.983 10.265 12.855 15.463 21.064 9.222l33.095-25.16c10.977-8.345 18.551-20.391 21.314-33.9z" fill="#c365af"/><path d="m192.753 311.175-5.277 7.335 23.873 10.452c4.016 1.758 6.257 6.083 5.379 10.378l-9.712 47.48c-2.763 13.509-10.337 25.555-21.314 33.9l-29.623 22.52c4.122 5.551 12.378 7.339 18.559 2.639l33.095-25.16c10.977-8.345 18.551-20.391 21.314-33.9l11.219-54.843z" fill="#b2529f"/></g><g><path d="m185.833 192.751-16.53 37.74-4.28 9.77-54.84-11.22c-13.51-2.76-25.55-10.33-33.9-21.31l-25.16-33.09c-6.24-8.21-1.04-20.09 9.22-21.07l38.79-3.71 2.6-.25c13.72-1.31 27.46 2.4 38.65 10.45z" fill="#c365af"/><path d="m331.978 256.738-20.802 47.512 45.443 32.689c11.194 8.052 24.93 11.766 38.656 10.452l41.384-3.961c10.265-.983 15.463-12.855 9.222-21.064l-25.16-33.095c-8.345-10.977-20.391-18.551-33.9-21.314z" fill="#c365af"/><path d="m445.881 322.366-25.16-33.095c-8.345-10.977-20.391-18.551-33.9-21.314l-54.843-11.219-1.811 4.136 34.623 7.082c13.509 2.763 25.555 10.337 33.9 21.314l25.16 33.095c6.241 8.209 1.043 20.081-9.222 21.064l-34.788 3.33c5.055.904 10.245 1.128 15.435.631l41.384-3.961c10.265-.981 15.463-12.853 9.222-21.063z" fill="#b2529f"/></g></g><g><g><path d="m235.073 198.401-.51.51-36.16 36.16-17.12-11.08-29.87-19.34c-11.58-7.49-20.04-18.93-23.82-32.19l-11.38-39.99c-2.82-9.92 6.34-19.08 16.26-16.26l39.99 11.38c13.26 3.78 24.7 12.24 32.19 23.82z" fill="#b2529f"/><path d="m234.562 198.911-36.16 36.16-17.12-11.08c8.61-15.46 25.13-25.92 44.08-25.92 3.141 0 6.221.29 9.2.84z" fill="#9a4588"/><path d="m204.656 151.407c-7.493-11.575-18.934-20.037-32.196-23.811l-39.985-11.381c-4.779-1.36-9.378.067-12.55 3.016l29.39 8.365c13.262 3.775 24.702 12.236 32.195 23.811l26.535 40.991c2.266 3.5 1.778 8.108-1.17 11.057l-22.525 22.525 14.05 9.095 36.675-36.675z" fill="#9a4588"/><path d="m298.605 261.928-36.675 36.675 30.419 46.993c7.493 11.575 18.934 20.036 32.195 23.811l39.985 11.381c9.918 2.823 19.082-6.341 16.259-16.259l-11.381-39.985c-3.775-13.262-12.236-24.703-23.811-32.195z" fill="#b2529f"/><path d="m380.789 364.528-11.381-39.985c-3.775-13.262-12.236-24.703-23.811-32.195l-46.992-30.42-9.095 9.095 32.943 21.325c11.575 7.493 20.036 18.933 23.811 32.195l11.381 39.985c1.463 5.14-.298 10.073-3.71 13.244l10.595 3.016c9.918 2.823 19.082-6.341 16.259-16.26z" fill="#9a4588"/></g><g><path d="m298.605 235.074-36.675-36.675 30.419-46.992c7.493-11.575 18.934-20.036 32.195-23.811l39.985-11.381c9.918-2.823 19.082 6.341 16.259 16.259l-11.381 39.985c-3.775 13.262-12.236 24.703-23.811 32.195z" fill="#b2529f"/><path d="m364.529 116.215-10.595 3.016c3.412 3.171 5.172 8.104 3.71 13.244l-11.381 39.985c-3.775 13.262-12.236 24.703-23.811 32.195l-32.943 21.325 9.095 9.095 46.992-30.42c11.575-7.493 20.036-18.933 23.811-32.195l11.381-39.985c2.824-9.919-6.34-19.083-16.259-16.26z" fill="#9a4588"/><path d="m235.073 298.601-30.42 46.99c-7.49 11.58-18.93 20.04-32.19 23.82l-39.99 11.38c-9.92 2.82-19.08-6.34-16.26-16.26l11.38-39.99c3.78-13.26 12.24-24.7 23.82-32.19l29.87-19.34 17.12-11.08 36.16 36.16z" fill="#b2529f"/><g fill="#9a4588"><path d="m234.562 298.091c-2.98.55-6.06.84-9.2.84-18.95 0-35.47-10.46-44.08-25.92l17.12-11.08z"/><path d="m198.4 261.928-14.05 9.095 21.718 21.718c3.419 3.419 3.985 8.763 1.357 12.822l-25.915 40.033c-7.493 11.575-18.933 20.036-32.195 23.811l-29.39 8.365c3.172 2.949 7.771 4.376 12.55 3.016l39.985-11.381c13.262-3.775 24.702-12.236 32.195-23.811l30.42-46.993z"/></g></g></g><g><g><path d="m269.87 211.488h-42.735l-9.656-45.102c-2.378-11.11-.643-22.705 4.885-32.631l16.665-29.927c4.134-7.423 14.812-7.423 18.946 0l16.665 29.927c5.528 9.926 7.263 21.521 4.885 32.631z" fill="#b2529f"/><path d="m274.641 133.755-16.665-29.927c-4.134-7.423-14.812-7.423-18.946 0l-2.099 3.77 14.566 26.157c5.528 9.926 7.263 21.521 4.885 32.631l-9.656 45.102h23.145l9.656-45.102c2.377-11.11.642-22.705-4.886-32.631z" fill="#9a4588"/><path d="m269.87 285.515h-42.735l-9.656 45.102c-2.378 11.109-.643 22.705 4.885 32.631l16.665 29.927c4.134 7.423 14.812 7.423 18.946 0l16.665-29.927c5.528-9.926 7.263-21.521 4.885-32.631z" fill="#b2529f"/><path d="m279.526 330.617-9.656-45.102h-23.145l9.656 45.102c2.378 11.11.643 22.705-4.885 32.631l-14.566 26.157 2.099 3.77c4.134 7.423 14.812 7.423 18.946 0l16.665-29.927c5.529-9.926 7.264-21.522 4.886-32.631z" fill="#9a4588"/></g><g><path d="m285.516 269.869v-42.735l45.102-9.656c11.109-2.378 22.705-.643 32.631 4.885l29.927 16.665c7.423 4.134 7.423 14.812 0 18.946l-29.927 16.665c-9.926 5.528-21.521 7.263-32.631 4.885z" fill="#b2529f"/><path d="m393.175 239.028-29.927-16.665c-9.926-5.527-21.521-7.263-32.631-4.885l-1.849.396c3.928.992 7.742 2.488 11.334 4.489l29.927 16.665c7.424 4.134 7.424 14.812 0 18.946l-29.927 16.665c-3.593 2.001-7.406 3.497-11.334 4.489l1.849.396c11.11 2.378 22.705.643 32.631-4.885l29.927-16.665c7.424-4.134 7.424-14.812 0-18.946z" fill="#9a4588"/><path d="m211.492 227.131v42.74l-28.43 6.08-16.68 3.57c-11.11 2.38-22.7.65-32.63-4.88l-29.92-16.67c-7.43-4.13-7.43-14.81 0-18.94l29.92-16.67c9.93-5.53 21.52-7.26 32.63-4.88l16.68 3.57z" fill="#b2529f"/><path d="m211.492 227.131v42.74l-28.43 6.08c-5.14-7.9-8.13-17.33-8.13-27.45s2.99-19.55 8.13-27.45z" fill="#9a4588"/></g></g><circle cx="248.503" cy="248.501" fill="#fea95c" r="50.426"/><path d="m248.503 198.075c-3.984 0-7.855.476-11.572 1.35 22.269 5.232 38.854 25.211 38.854 49.076s-16.585 43.844-38.854 49.076c3.718.874 7.588 1.35 11.572 1.35 27.85 0 50.426-22.576 50.426-50.426s-22.577-50.426-50.426-50.426z" fill="#fe9738"/></g></svg>