<svg id="Layer_1" enable-background="new 0 0 500 500" viewBox="0 0 500 500" xmlns="http://www.w3.org/2000/svg"><g><g><path d="m220.788 488c-2.871 0-5.211-2.335-5.239-5.213-1.245-131.634-31.337-238.277-56.362-304.553-27.068-71.688-36.257-74.931-36.526-75.336-1.603-2.409-.949-5.664 1.461-7.267 2.411-1.603 5.663-.95 7.264 1.46 1.128 1.696 10.118 4.638 37.604 77.431 25.324 67.069 55.777 174.994 57.038 308.167.028 2.893-2.297 5.311-5.191 5.311-.015 0-.032 0-.049 0z" fill="#37b489"/><path d="m171.56 253.637s-15.136-8.344-10.673-14.165 15.912-3.493 20.181 1.746c4.269 5.24 4.657 14.166-9.508 12.419z" fill="#5552db"/><path d="m117.275 97.02c-2.162-1.949-12.243-17.901-6.956-17.622 5.287.278 11.965 8.809 11.965 8.809s6.029-14.652 9.831-12.241c3.803 2.411 3.617 12.428 3.617 12.428s-1.298 7.42-4.266 9.646-7.605 4.916-14.191-1.02z" fill="#5552db"/><path d="m130.731 123.888s-9.008-12.518-3.042-13.103c5.967-.585 8.045 2.574 8.045 2.574s.964-8.189 5.526-6.669 5.967 8.505 5.967 8.505-2.106 13.49-16.496 8.693z" fill="#5552db"/><g fill="#776ee5"><path d="m135.797 98.115s3.362-9.681 2.776-15.237c0 0-5.469 2.393-9.03 7.76 0 0-3.065-7.192-15.125-12.12 0 0-.241 10.065 1.991 14.622 0 0-4.531-8.055-5.844-9.034s-.377 11.223 2.836 15.425c0 0-4.359 1.411-10.039 5.593 0 0 7.201 1.726 16.276.842s16.159-7.851 16.159-7.851z"/><path d="m190.77 254.026s-26.973 13.389-28.719 6.21c-1.746-7.18 14.748-14.554 19.599-12.225s-23.092-19.793-16.3-25.032 22.509 12.807 23.092 13.971c.582 1.164.776-18.046 12.419-12.613s0 16.3 0 16.3 15.136-9.314 16.106-2.135c.97 7.18-26.197 15.524-26.197 15.524z"/><path d="m148.615 212.919c-3.145-3.819-.91-10.707 16.295-13.036 0 0-22.069-8.651-16.441-14.667 5.627-6.015 17.076 3.881 17.076 3.881s-12.871-16.494-3.622-18.434 12.742 14.942 12.742 14.942-.97-21.927 7.374-18.24 2.696 26.454 2.696 26.454 19.592-8.846 21.171-.491c1.421 7.521-25.698 15.608-25.698 15.608s-27.791 8.6-31.593 3.983z"/><path d="m161.713 167.181s-26.3 12.172-29.405 6.933 3.493-12.613 4.463-12.613-11.351-7.762-5.287-13.389c6.063-5.627 15.96-3.493 21.199 3.493 0 0-2.135-20.375 7.762-20.375 9.896 0 6.404 17.658 6.404 17.658s13.001-15.136 17.658-5.627c4.656 9.507-22.794 23.92-22.794 23.92z"/><path d="m143.186 129.878s-34.657 13.56-33.298 5.798c1.358-7.762 13.171-10.479 13.171-10.479s-14.917-6.404-10.26-9.314 27.032 2.135 27.032 2.135 2.269-19.211 11.583-17.658 1.164 13.001 1.164 13.001 15.798-10.867 17.407-3.687-26.799 20.204-26.799 20.204z"/><path d="m134.028 99.399c-1.718 4.414-6.938 6.256-11.052 3.908-8.441-4.818-20.982-12.776-22.886-18.49-2.911-8.732 21.539 10.479 21.539 10.479s-2.763-15.33-6.33-20.569 8.464-7.18 13.316 2.329c4.851 9.508 4.851 13.195 4.851 13.195s4.075-13.195 6.21-11.061c1.35 1.35-2.578 12.324-5.648 20.209z"/></g></g><g><path d="m275.911 488c2.871 0 5.211-2.335 5.239-5.213 1.245-131.634 31.337-238.277 56.362-304.553 27.068-71.688 36.257-74.931 36.526-75.336 1.603-2.409.949-5.664-1.461-7.267-2.411-1.603-5.663-.95-7.264 1.46-1.128 1.696-10.118 4.638-37.604 77.431-25.324 67.069-55.777 174.994-57.038 308.167-.028 2.893 2.297 5.311 5.191 5.311z" fill="#37b489"/><path d="m325.139 253.637s15.136-8.344 10.673-14.165-15.912-3.493-20.181 1.746-4.657 14.166 9.508 12.419z" fill="#5552db"/><path d="m379.424 97.02c2.162-1.949 12.243-17.901 6.956-17.622-5.287.278-11.965 8.809-11.965 8.809s-6.029-14.652-9.831-12.241c-3.803 2.411-3.617 12.428-3.617 12.428s1.298 7.42 4.266 9.646 7.606 4.916 14.191-1.02z" fill="#5552db"/><path d="m365.968 123.888s9.008-12.518 3.042-13.103c-5.967-.585-8.045 2.574-8.045 2.574s-.964-8.189-5.526-6.669c-4.563 1.521-5.967 8.505-5.967 8.505s2.106 13.49 16.496 8.693z" fill="#5552db"/><g fill="#776ee5"><path d="m360.902 98.115s-3.362-9.681-2.776-15.237c0 0 5.469 2.393 9.03 7.76 0 0 3.065-7.192 15.125-12.12 0 0 .241 10.065-1.991 14.622 0 0 4.531-8.055 5.844-9.034s.377 11.223-2.836 15.425c0 0 4.359 1.411 10.039 5.593 0 0-7.201 1.726-16.276.842s-16.159-7.851-16.159-7.851z"/><path d="m305.929 254.026s26.973 13.389 28.719 6.21c1.746-7.18-14.748-14.554-19.599-12.225s23.092-19.793 16.3-25.032-22.509 12.807-23.092 13.971c-.582 1.164-.776-18.046-12.419-12.613s0 16.3 0 16.3-15.136-9.314-16.106-2.135c-.97 7.18 26.197 15.524 26.197 15.524z"/><path d="m348.084 212.919c3.145-3.819.91-10.707-16.295-13.036 0 0 22.069-8.651 16.441-14.667-5.627-6.015-17.076 3.881-17.076 3.881s12.871-16.494 3.622-18.434-12.742 14.942-12.742 14.942.97-21.927-7.374-18.24-2.696 26.454-2.696 26.454-19.592-8.846-21.172-.491c-1.421 7.521 25.698 15.608 25.698 15.608s27.792 8.6 31.594 3.983z"/><path d="m334.987 167.181s26.3 12.172 29.405 6.933-3.493-12.613-4.463-12.613 11.351-7.762 5.287-13.389c-6.063-5.627-15.96-3.493-21.199 3.493 0 0 2.135-20.375-7.762-20.375-9.896 0-6.404 17.658-6.404 17.658s-13.001-15.136-17.658-5.627c-4.657 9.507 22.794 23.92 22.794 23.92z"/><path d="m353.514 129.878s34.657 13.56 33.298 5.798c-1.358-7.762-13.171-10.479-13.171-10.479s14.917-6.404 10.26-9.314c-4.657-2.911-27.032 2.135-27.032 2.135s-2.269-19.211-11.583-17.658-1.164 13.001-1.164 13.001-15.798-10.867-17.407-3.687c-1.61 7.179 26.799 20.204 26.799 20.204z"/><path d="m362.671 99.399c1.718 4.414 6.938 6.256 11.052 3.908 8.441-4.818 20.982-12.776 22.886-18.49 2.911-8.732-21.539 10.479-21.539 10.479s2.763-15.33 6.33-20.569-8.464-7.18-13.316 2.329c-4.851 9.508-4.851 13.195-4.851 13.195s-4.075-13.195-6.21-11.061c-1.35 1.35 2.578 12.324 5.648 20.209z"/></g></g><g><path d="m246.806 488c-2.856 0-5.194-2.317-5.237-5.184-2.159-143.511 5.323-310.864 9.792-410.848.565-12.615 1.083-24.219 1.532-34.629.124-2.892 2.598-5.179 5.46-5.012 2.892.125 5.134 2.567 5.01 5.459-.448 10.415-.967 22.019-1.532 34.641-4.464 99.866-11.937 267.034-9.784 410.233.044 2.893-2.267 5.34-5.16 5.34-.026 0-.053 0-.081 0z" fill="#37b489"/><path d="m267.349 40.23s7.971-6.44 10.411-11.467c0 0-5.907-.86-11.768 1.813 0 0 1.2-7.725-6.432-18.284 0 0-5.525 8.417-6.04 13.465 0 0 .412-9.233-.185-10.758s-6.253 9.328-5.747 14.593c0 0-4.446-1.106-11.478-.56 0 0 5.201 5.272 13.371 9.319 8.172 4.047 17.868 1.879 17.868 1.879z" fill="#776ee5"/><path d="m269.278 217.569s10.874-13.434 4.546-17.144-16.055 2.763-18.034 9.225c-1.98 6.462 1.026 14.876 13.488 7.919z" fill="#5552db"/><path d="m264.535 64.826c.904-2.767 1.703-21.62-2.743-18.746s-5.989 13.597-5.989 13.597-12.525-9.704-14.621-5.719 3.052 12.579 3.052 12.579 4.821 5.788 8.503 6.24 9.043.475 11.798-7.951z" fill="#5552db"/><path d="m264.474 93.527s3.625-14.99-2.122-13.283-6.481 5.416-6.481 5.416-3.98-7.222-7.632-4.093c-3.653 3.129-2.321 10.126-2.321 10.126s7.036 11.702 18.556 1.834z" fill="#5552db"/><g fill="#776ee5"><path d="m249.018 74.998s-7.736-6.721-9.995-11.831c0 0 5.934-.648 11.695 2.232 0 0-.924-7.763 7.081-18.043 0 0 5.221 8.609 5.555 13.672 0 0-.082-9.242.569-10.744s5.916 9.545 5.222 14.789c0 0 4.483-.947 11.49-.149 0 0-5.385 5.083-13.695 8.835s-17.922 1.239-17.922 1.239z"/><path d="m251.631 225.169s30.03 2.234 28.941-5.074-19.146-7.921-22.761-3.936 13.927-27.037 5.662-29.33c-8.266-2.293-16.021 20.347-16.122 21.645-.1 1.298-7.521-16.423-16.257-7.001-8.736 9.421 6.144 15.098 6.144 15.098s-17.53-2.922-15.722 4.094c1.807 7.016 30.115 4.504 30.115 4.504z"/><path d="m278.865 175.375c1.317-4.221-2.854-9.171-17.883-5.302 0 0 15.356-14.598 8.67-17.682s-12.83 8.967-12.83 8.967 5.099-17.992-3.213-16.482c-8.311 1.51-5.515 16.663-5.515 16.663s-6.585-18.481-12.251-12.617 6.681 22.81 6.681 22.81-19.201-.723-17.693 6.727c1.357 6.706 26.534 4.264 26.534 4.264s25.907-2.245 27.5-7.348z"/><path d="m254.871 140.126s25.374-2.597 25.372-7.958c-.003-5.36-8.308-7.979-9.043-7.543s5.106-10.973-2.011-12.509-13.649 4.523-14.478 12.164c0 0-7.534-16.381-15.025-11.937s3.083 16.242 3.083 16.242-16.638-5.618-15.894 3.67c.745 9.289 27.996 7.871 27.996 7.871z"/><path d="m258.294 104.271s31.361-2.545 26.499-8.696c-4.863-6.151-14.595-3.637-14.595-3.637s7.348-11.678 2.587-12.277-18.075 12.974-18.075 12.974-11.261-15.675-17.078-10.498 5.709 11.72 5.709 11.72-16.651-2.891-14.182 3.979c2.468 6.87 29.135 6.435 29.135 6.435z"/><path d="m251.191 75.231c3.688 2.972 9.132 1.97 11.53-2.114 4.921-8.382 11.833-21.527 10.639-27.431-1.824-9.022-13.46 19.813-13.46 19.813s-5.238-14.67-4.754-20.989c.484-6.32-10.916-2.011-10.387 8.65s2.364 13.859 2.364 13.859-10.105-9.413-10.893-6.499c-.498 1.841 8.373 9.402 14.961 14.711z"/></g></g><g><path d="m173.411 370.349s-22.785-60.903-28.608-71.536-8.861-29.368-14.177-25.823c-5.317 3.544 7.848 35.95 15.443 46.077 7.594 10.126 27.342 51.282 27.342 51.282z" fill="#52dd84"/><path d="m175.689 366.662s3.798-46.077 6.329-57.216c2.532-11.139 11.899-42.905 15.19-36.896s-7.342 37.908-10.76 50.567c-3.417 12.659-10.759 43.545-10.759 43.545z" fill="#52dd84"/><path d="m170.626 357.801s-5.063-57.216 0-59.495 6.076 10.633 6.076 16.456c0 5.824-6.076 43.039-6.076 43.039z" fill="#37b489"/><path d="m184.297 418.562c.111.751 2.025-30.633 7.848-42.279s8.608-59.495 10.38-63.039 4.051-3.798 5.317 1.772-.76 32.152-5.823 45.823c-5.064 13.671-18.988 49.115-17.722 57.723z" fill="#52dd84"/><path d="m178.474 405.144s-19.747-14.177-28.861-16.709-34.684-29.114-41.266-39.241-11.899-9.367-10.886-4.557 32.563 39.906 49.368 45.317 31.645 15.19 31.645 15.19z" fill="#52dd84"/><g fill="#37b489"><path d="m196.212 457.043s-14.7-19.747-21.778-31.899c-6.79-11.659-14.16-51.393-16.833-56.71s-8.242-9.367-10.268-1.772c-2.025 7.595 4.81 33.925 19.241 55.191 14.432 21.266 29.638 35.19 29.638 35.19z"/><path d="m199.74 461.347s-18.054-9.62-28.141-16.709-22.178-25.961-24.613-34.88c-2.436-8.918-6.357-16.513-9.08-12.716-2.723 3.798 5.885 31.14 17.278 40.76s44.556 23.545 44.556 23.545z"/><path d="m208.208 486.994c-.748 0-1.453-.458-1.731-1.201-.756-2.021-18.558-49.65-21.523-63.295-1.826-8.404-11.127-43.732-18.601-72.119-4.689-17.81-8.393-31.878-9.173-35.193-1.976-8.397-18.25-51.997-18.414-52.436-.357-.956.129-2.021 1.085-2.378.956-.356 2.02.129 2.378 1.085.673 1.803 16.521 44.26 18.549 52.882.769 3.268 4.653 18.019 9.15 35.099 7.483 28.421 16.796 63.792 18.638 72.276 2.908 13.386 21.188 62.291 21.372 62.783.358.956-.127 2.021-1.083 2.379-.212.08-.431.118-.647.118z"/></g><path d="m321.1 375.278s36.554-53.779 44.728-62.731c8.174-8.953 15.561-26.435 19.887-21.733s-16.135 33.07-25.911 41.111-38.704 43.353-38.704 43.353z" fill="#52dd84"/><path d="m312.566 406.819s-6.438-45.782-9.605-56.758-14.344-42.151-17.284-35.962c-2.941 6.188 9.507 37.424 13.647 49.865 4.138 12.441 13.242 42.855 13.242 42.855z" fill="#52dd84"/><path d="m325.263 357.801s5.378-60.776 0-63.196-6.454 11.295-6.454 17.48 6.454 45.716 6.454 45.716z" fill="#37b489"/><path d="m305.236 435.561c.221.727-7.338-29.81-15.103-40.262s-18.853-57.081-21.217-60.262c-2.363-3.181-4.651-3.033-4.926 2.672s6.356 31.527 13.727 44.105c7.371 12.579 24.91 45.18 27.519 53.747z" fill="#37b489"/><path d="m317.555 388.376s19.747-14.177 28.861-16.709 34.684-29.114 41.266-39.241 11.899-9.367 10.886-4.557-32.563 39.906-49.368 45.317c-16.804 5.411-31.645 15.19-31.645 15.19z" fill="#37b489"/><path d="m296.049 463.647s18.136-16.647 27.363-27.259c8.852-10.182 23.529-47.835 27.15-52.557 3.62-4.722 9.85-7.659 10.418.181s-11.075 32.425-29.231 50.614-35.7 29.021-35.7 29.021z" fill="#52dd84"/><path d="m293.874 468.263s19.536-6.071 30.772-11.147c11.236-5.075 26.645-21.351 30.707-29.656s9.336-15.032 11.3-10.792-11.609 29.488-24.601 36.806c-12.993 7.318-48.178 14.789-48.178 14.789z" fill="#37b489"/><path d="m287.82 486.994c.748 0 1.453-.458 1.731-1.201.756-2.021 18.558-49.65 21.523-63.295 1.826-8.404 11.127-43.732 18.601-72.119 4.689-17.81 8.393-31.878 9.173-35.193 1.976-8.397 18.25-51.997 18.414-52.436.357-.956-.129-2.021-1.085-2.378-.956-.356-2.02.129-2.378 1.085-.673 1.803-16.521 44.26-18.549 52.882-.769 3.268-4.653 18.019-9.15 35.099-7.483 28.421-16.796 63.792-18.638 72.276-2.908 13.386-21.188 62.291-21.372 62.783-.358.956.127 2.021 1.083 2.379.213.08.432.118.647.118z" fill="#37b489"/></g></g></svg>