<svg id="&#x421;&#x43B;&#x43E;&#x439;_1" enable-background="new 0 0 512 512" viewBox="0 0 512 512" xmlns="http://www.w3.org/2000/svg"><g><g><path d="m240.3 481c-.3 0-.6 0-.8-.1-1.8-.5-2.8-2.3-2.3-4 30.3-114.9 28.7-210.2 22-269.9-7.3-64.5-21.8-102.3-22-102.7-.7-1.7.2-3.6 1.9-4.3s3.6.2 4.3 1.9c.1.4 15 38.9 22.4 104.3 4.3 38.3 5.3 78.3 2.8 118.8-3.1 50.6-11.5 102.3-25.1 153.4-.4 1.6-1.8 2.6-3.2 2.6z" fill="#769319"/></g></g><g><g><path d="m265.9 318.8c-.1 0-.2 0-.2 0-1.8-.1-3.2-1.7-3-3.5 2.5-33.2 8.8-61.9 18.8-85.4 5.9-13.9 14.5-26.4 24.7-36.1 11.3-10.7 24.5-17.8 38.1-20.4 1.8-.3 3.5.8 3.8 2.6s-.8 3.5-2.6 3.8c-23.9 4.6-46.2 24.8-58 52.6-9.7 22.8-15.8 50.8-18.2 83.3-.3 1.8-1.7 3.1-3.4 3.1z" fill="#769319"/></g></g><g><g><path d="m265.9 309.6c-1.6 0-3-1.1-3.2-2.7-4.6-26.7-9.8-57-28-79.3-18.4-22.6-50-34.1-78.7-28.5-1.8.3-3.5-.8-3.9-2.6-.3-1.8.8-3.5 2.6-3.9 31-6 65.1 6.3 85 30.8 19.3 23.7 24.9 56.2 29.3 82.4.3 1.8-.9 3.5-2.7 3.8 0 0-.2 0-.4 0z" fill="#769319"/></g></g><g><g><path d="m344.8 172.6c.9-19.3 19.9-37.8 28.9-41.3 1.1-.4 2.2-.8 3.2-1.3l2.2-.9c.2-.1.5.1.4.4l-1.9 4.4 4.4-1.9c.2-.1.5.1.4.4l-1.9 4.4 4.4-1.9c.2-.1.5.1.4.4l-1.9 4.4 4.4-1.9c.2-.1.5.1.4.4l-1.1 2.5c-.4 1-.8 1.9-1.1 2.9-3.4 9-22 28.3-41.2 29z" fill="#4b7dd5"/></g><g><path d="m344.8 172.5c-.9 19.3-19.9 37.8-28.9 41.3-1.1.4-2.2.8-3.2 1.3l-2.2.9c-.2.1-.5-.1-.4-.4l1.9-4.4-4.4 1.9c-.2.1-.5-.1-.4-.4l1.9-4.4-4.4 1.9c-.2.1-.5-.1-.4-.4l1.9-4.4-4.4 1.9c-.2.1-.5-.1-.4-.4l1.1-2.5c.4-1 .8-1.9 1.1-2.9 3.3-9 22-28.2 41.2-29z" fill="#4b7dd5"/></g><g><path d="m344.8 172.6c19.3.9 37.8 19.9 41.3 28.9.4 1.1.8 2.2 1.3 3.2l.9 2.2c.1.2-.1.5-.4.4l-4.4-1.9 1.9 4.4c.1.2-.1.5-.4.4l-4.4-1.9 1.9 4.4c.1.2-.1.5-.4.4l-4.4-1.9 1.9 4.4c.1.2-.1.5-.4.4l-2.5-1.1c-1-.4-1.9-.8-2.9-1.1-9-3.4-28.3-22-29-41.2z" fill="#4b7dd5"/></g><g><path d="m344.8 172.5c-19.3-.9-37.8-19.9-41.3-28.9-.4-1.1-.8-2.2-1.3-3.2l-.9-2.2c-.1-.2.1-.5.4-.4l4.4 1.9-1.9-4.4c-.1-.2.1-.5.4-.4l4.4 1.9-1.9-4.4c-.1-.2.1-.5.4-.4l4.4 1.9-1.9-4.4c-.1-.2.1-.5.4-.4l2.5 1.1c1 .4 1.9.8 2.9 1.1 9 3.4 28.3 22.1 29 41.2z" fill="#4b7dd5"/></g><g><path d="m344.8 172.6c-13-14.3-12.7-40.8-8.8-49.7.5-1.1.9-2.1 1.4-3.2l.9-2.2c.1-.2.4-.2.5 0l1.8 4.4 1.8-4.4c.1-.2.4-.2.5 0l1.8 4.4 1.8-4.4c.1-.2.4-.2.5 0l1.8 4.4 1.8-4.4c.1-.2.4-.2.5 0l1 2.5c.4 1 .8 1.9 1.3 2.9 4 8.8 4.5 35.6-8.6 49.7z" fill="#548bed"/></g><g><path d="m344.8 172.6c13 14.3 12.7 40.8 8.8 49.7-.5 1.1-.9 2.1-1.4 3.2l-.9 2.2c-.1.2-.4.2-.5 0l-1.8-4.4-1.8 4.4c-.1.2-.4.2-.5 0l-1.8-4.4-1.8 4.4c-.1.2-.4.2-.5 0l-1.8-4.4-1.8 4.4c-.1.2-.4.2-.5 0l-1-2.5c-.4-1-.8-1.9-1.3-2.9-4.1-8.9-4.5-35.7 8.6-49.7z" fill="#548bed"/></g><g><path d="m344.8 172.6c14.3-13 40.8-12.7 49.7-8.8 1.1.5 2.1.9 3.2 1.4l2.2.9c.2.1.2.4 0 .5l-4.4 1.8 4.4 1.8c.2.1.2.4 0 .5l-4.4 1.8 4.4 1.8c.2.1.2.4 0 .5l-4.4 1.8 4.4 1.8c.2.1.2.4 0 .5l-2.5 1c-1 .4-1.9.8-2.9 1.3-8.8 4-35.6 4.5-49.7-8.6z" fill="#548bed"/></g><g><path d="m344.8 172.5c-14.3 13-40.8 12.7-49.7 8.8-1.1-.5-2.1-.9-3.2-1.4l-2.2-.9c-.2-.1-.2-.4 0-.5l4.4-1.8-4.4-1.8c-.2-.1-.2-.4 0-.5l4.4-1.8-4.4-1.8c-.2-.1-.2-.4 0-.5l4.4-1.8-4.4-1.8c-.2-.1-.2-.4 0-.5l2.5-1c1-.4 1.9-.8 2.9-1.3 8.8-4 35.6-4.4 49.7 8.6z" fill="#548bed"/></g><g><circle cx="344.8" cy="172.6" fill="#4b7dd5" r="4.2"/></g><g><g><g><path d="m344.8 173c-.2 0-.4-.2-.4-.4v-18.1c0-.2.2-.4.4-.4s.4.2.4.4v18.1c0 .2-.1.4-.4.4z" fill="#266ce8"/></g></g><g><path d="m345.2 154.5v3.1h-.8v-3.1c0-.2.2-.4.4-.4.3 0 .4.2.4.4z" fill="#d4e2fa"/></g></g><g><g><g><path d="m344.8 173c-.1.2-.4.3-.6.2l-15.6-9c-.2-.1-.3-.4-.2-.6s.4-.3.6-.2l15.6 9c.3.1.3.4.2.6z" fill="#266ce8"/></g></g><g><path d="m329 163.4 2.7 1.5-.4.7-2.7-1.5c-.2-.1-.3-.4-.2-.6.2-.2.4-.2.6-.1z" fill="#d4e2fa"/></g></g><g><g><g><path d="m344.8 173c.1.2 0 .5-.2.6l-15.6 9c-.2.1-.5 0-.6-.2s0-.5.2-.6l15.6-9c.3-.1.5 0 .6.2z" fill="#266ce8"/></g></g><g><path d="m328.6 181.9 2.7-1.5.4.7-2.7 1.5c-.2.1-.5 0-.6-.2s0-.4.2-.5z" fill="#d4e2fa"/></g></g><g><g><g><path d="m344.8 173c.2 0 .4.2.4.4v18.1c0 .2-.2.4-.4.4s-.4-.2-.4-.4v-18.1c0-.2.2-.4.4-.4z" fill="#266ce8"/></g></g><g><path d="m344.4 191.5v-3.1h.8v3.1c0 .2-.2.4-.4.4s-.4-.2-.4-.4z" fill="#d4e2fa"/></g></g><g><g><g><path d="m344.8 173c.1-.2.4-.3.6-.2l15.6 9c.2.1.3.4.2.6s-.4.3-.6.2l-15.6-9c-.2-.2-.3-.4-.2-.6z" fill="#266ce8"/></g></g><g><path d="m360.6 182.6-2.7-1.5.4-.7 2.7 1.5c.2.1.3.4.2.6-.1.1-.4.2-.6.1z" fill="#d4e2fa"/></g></g><g><g><g><path d="m344.8 173c-.1-.2 0-.5.2-.6l15.6-9c.2-.1.5 0 .6.2s0 .5-.2.6l-15.6 9c-.2.1-.5 0-.6-.2z" fill="#266ce8"/></g></g><g><path d="m361 164.1-2.7 1.5-.4-.7 2.7-1.5c.2-.1.5 0 .6.2.1.1 0 .4-.2.5z" fill="#d4e2fa"/></g></g><g><g><g><path d="m344.8 173c-.1.1-.3 0-.4-.1l-5.8-11.6c-.1-.1 0-.3.1-.4s.3 0 .4.1l5.8 11.6c.1.1.1.3-.1.4z" fill="#266ce8"/></g></g><g><path d="m339.2 160.9 1 2-.5.3-1-2c-.1-.1 0-.3.1-.4s.3 0 .4.1z" fill="#d4e2fa"/></g></g><g><g><g><path d="m344.8 173c0 .2-.2.3-.3.3l-13-.8c-.2 0-.3-.2-.3-.3 0-.2.2-.3.3-.3l13 .8c.2 0 .3.1.3.3z" fill="#266ce8"/></g></g><g><path d="m331.6 171.9 2.2.1v.6l-2.2-.1c-.2 0-.3-.2-.3-.3-.1-.2.1-.3.3-.3z" fill="#d4e2fa"/></g></g><g><g><g><path d="m344.8 173c.1.1.2.3.1.4l-7.2 10.9c-.1.1-.3.2-.4.1s-.2-.3-.1-.4l7.2-10.9c.1-.2.3-.2.4-.1z" fill="#266ce8"/></g></g><g><path d="m337.2 183.9 1.2-1.8.5.3-1.2 1.8c-.1.1-.3.2-.4.1-.1 0-.2-.2-.1-.4z" fill="#d4e2fa"/></g></g><g><g><g><path d="m344.8 173c.1-.1.3 0 .4.1l5.8 11.6c.1.1 0 .3-.1.4s-.3 0-.4-.1l-5.8-11.6c-.1-.2 0-.3.1-.4z" fill="#266ce8"/></g></g><g><path d="m350.5 185-1-2 .5-.3 1 2c.1.1 0 .3-.1.4-.1.2-.3.1-.4-.1z" fill="#d4e2fa"/></g></g><g><g><g><path d="m344.8 173c0-.2.2-.3.3-.3l13 .8c.2 0 .3.2.3.3 0 .2-.2.3-.3.3l-13-.8c-.2 0-.3-.1-.3-.3z" fill="#266ce8"/></g></g><g><path d="m358.1 174.1-2.2-.1v-.6l2.2.1c.2 0 .3.2.3.3 0 .2-.1.3-.3.3z" fill="#d4e2fa"/></g></g><g><g><g><path d="m344.8 173c-.1-.1-.2-.3-.1-.4l7.2-10.9c.1-.1.3-.2.4-.1s.2.3.1.4l-7.2 10.9c0 .1-.2.2-.4.1z" fill="#266ce8"/></g></g><g><path d="m352.4 162.1-1.2 1.8-.5-.3 1.2-1.8c.1-.1.3-.2.4-.1.2 0 .2.2.1.4z" fill="#d4e2fa"/></g></g></g><g><g><path d="m155.4 197c.7-15.2 15.6-29.7 22.7-32.5.8-.3 1.7-.6 2.5-1l1.7-.7c.2-.1.4.1.3.3l-1.5 3.5 3.5-1.5c.2-.1.4.1.3.3l-1.5 3.5 3.5-1.5c.2-.1.4.1.3.3l-1.5 3.5 3.5-1.5c.2-.1.4.1.3.3l-.8 1.9c-.3.8-.6 1.5-.9 2.3-2.7 7.1-17.4 22.2-32.4 22.8z" fill="#4b7dd5"/></g><g><path d="m155.3 197c-.7 15.2-15.6 29.7-22.7 32.5-.8.3-1.7.6-2.5 1l-1.7.7c-.2.1-.4-.1-.3-.3l1.5-3.5-3.5 1.5c-.2.1-.4-.1-.3-.3l1.5-3.5-3.5 1.5c-.2.1-.4-.1-.3-.3l1.5-3.5-3.5 1.5c-.2.1-.4-.1-.3-.3l.8-1.9c.3-.8.6-1.5.9-2.3 2.7-7.1 17.4-22.3 32.4-22.8z" fill="#4b7dd5"/></g><g><path d="m155.3 197c15.2.7 29.7 15.6 32.5 22.7.3.8.6 1.7 1 2.5l.7 1.7c.1.2-.1.4-.3.3l-3.5-1.5 1.5 3.5c.1.2-.1.4-.3.3l-3.5-1.5 1.5 3.5c.1.2-.1.4-.3.3l-3.5-1.5 1.5 3.5c.1.2-.1.4-.3.3l-1.9-.8c-.8-.3-1.5-.6-2.3-.9-7-2.7-22.2-17.3-22.8-32.4z" fill="#4b7dd5"/></g><g><path d="m155.4 197c-15.2-.7-29.7-15.6-32.5-22.7-.3-.8-.6-1.7-1-2.5l-.7-1.7c-.1-.2.1-.4.3-.3l3.5 1.5-1.5-3.5c-.1-.2.1-.4.3-.3l3.5 1.5-1.5-3.5c-.1-.2.1-.4.3-.3l3.5 1.5-1.5-3.5c-.1-.2.1-.4.3-.3l1.9.8c.8.3 1.5.6 2.3.9 7.1 2.7 22.2 17.3 22.8 32.4z" fill="#4b7dd5"/></g><g><path d="m155.4 197c-10.2-11.3-10-32.1-6.9-39 .4-.8.7-1.7 1.1-2.5l.7-1.7c.1-.2.3-.2.4 0l1.4 3.5 1.4-3.5c.1-.2.3-.2.4 0l1.4 3.5 1.4-3.5c.1-.2.3-.2.4 0l1.4 3.5 1.4-3.5c.1-.2.3-.2.4 0l.8 2c.3.8.7 1.5 1 2.3 3.2 6.8 3.5 27.8-6.7 38.9z" fill="#548bed"/></g><g><path d="m155.3 197c10.2 11.3 10 32.1 6.9 39-.4.8-.7 1.7-1.1 2.5l-.7 1.7c-.1.2-.3.2-.4 0l-1.4-3.5-1.4 3.5c-.1.2-.3.2-.4 0l-1.4-3.5-1.4 3.5c-.1.2-.3.2-.4 0l-1.4-3.5-1.4 3.5c-.1.2-.3.2-.4 0l-.8-2c-.3-.8-.7-1.5-1-2.3-3.2-6.8-3.5-27.9 6.7-38.9z" fill="#548bed"/></g><g><path d="m155.4 197c11.3-10.2 32.1-10 39-6.9.8.4 1.7.7 2.5 1.1l1.7.7c.2.1.2.3 0 .4l-3.5 1.4 3.5 1.4c.2.1.2.3 0 .4l-3.5 1.4 3.5 1.4c.2.1.2.3 0 .4l-3.5 1.4 3.5 1.4c.2.1.2.3 0 .4l-2 .8c-.8.3-1.5.7-2.3 1-6.8 3.2-27.9 3.6-38.9-6.7z" fill="#548bed"/></g><g><path d="m155.4 197c-11.3 10.2-32.1 10-39 6.9-.8-.4-1.7-.7-2.5-1.1l-1.7-.7c-.2-.1-.2-.3 0-.4l3.5-1.4-3.5-1.4c-.2-.1-.2-.3 0-.4l3.5-1.4-3.5-1.4c-.2-.1-.2-.3 0-.4l3.5-1.4-3.5-1.4c-.2-.1-.2-.3 0-.4l2-.8c.8-.3 1.5-.7 2.3-1 6.8-3.2 27.8-3.6 38.9 6.7z" fill="#548bed"/></g><g><circle cx="155.4" cy="197" fill="#4b7dd5" r="3.3"/></g><g><g><g><path d="m155.4 197.3c-.2 0-.3-.1-.3-.3v-14.2c0-.2.1-.3.3-.3s.3.1.3.3v14.2c0 .2-.1.3-.3.3z" fill="#266ce8"/></g></g><g><path d="m155.7 182.8v2.4h-.7v-2.4c0-.2.1-.3.3-.3.3 0 .4.1.4.3z" fill="#d4e2fa"/></g></g><g><g><g><path d="m155.4 197.3c-.1.2-.3.2-.4.1l-12.3-7.1c-.2-.1-.2-.3-.1-.4s.3-.2.4-.1l12.3 7.1c.1.1.2.3.1.4z" fill="#266ce8"/></g></g><g><path d="m143 189.8 2.1 1.2-.3.6-2.1-1.2c-.2-.1-.2-.3-.1-.4 0-.3.2-.3.4-.2z" fill="#d4e2fa"/></g></g><g><g><g><path d="m155.4 197.3c.1.2 0 .4-.1.4l-12.3 7.1c-.2.1-.4 0-.4-.1-.1-.2 0-.4.1-.4l12.3-7.1c.1-.1.3 0 .4.1z" fill="#266ce8"/></g></g><g><path d="m142.7 204.3 2.1-1.2.3.6-2.1 1.2c-.2.1-.4 0-.4-.1-.1-.2-.1-.4.1-.5z" fill="#d4e2fa"/></g></g><g><g><g><path d="m155.4 197.3c.2 0 .3.1.3.3v14.2c0 .2-.1.3-.3.3s-.3-.1-.3-.3v-14.2c0-.1.1-.3.3-.3z" fill="#266ce8"/></g></g><g><path d="m155.1 211.8v-2.4h.7v2.4c0 .2-.1.3-.3.3-.3.1-.4-.1-.4-.3z" fill="#d4e2fa"/></g></g><g><g><g><path d="m155.4 197.3c.1-.2.3-.2.4-.1l12.3 7.1c.2.1.2.3.1.4-.1.2-.3.2-.4.1l-12.3-7.1c-.1 0-.2-.2-.1-.4z" fill="#266ce8"/></g></g><g><path d="m167.8 204.9-2.1-1.2.3-.6 2.1 1.2c.2.1.2.3.1.4 0 .2-.2.3-.4.2z" fill="#d4e2fa"/></g></g><g><g><g><path d="m155.4 197.3c-.1-.2 0-.4.1-.4l12.3-7.1c.2-.1.4 0 .4.1.1.2 0 .4-.1.4l-12.3 7.1c-.1.1-.3.1-.4-.1z" fill="#266ce8"/></g></g><g><path d="m168.1 190.3-2.1 1.2-.3-.6 2.1-1.2c.2-.1.4 0 .4.1.1.3.1.5-.1.5z" fill="#d4e2fa"/></g></g><g><g><g><path d="m155.4 197.3c-.1.1-.3 0-.3-.1l-4.6-9.1c-.1-.1 0-.3.1-.3.1-.1.3 0 .3.1l4.6 9.1c.1.1 0 .3-.1.3z" fill="#266ce8"/></g></g><g><path d="m150.9 187.9.8 1.6-.4.2-.8-1.6c-.1-.1 0-.3.1-.3.1-.1.3-.1.3.1z" fill="#d4e2fa"/></g></g><g><g><g><path d="m155.4 197.3c0 .1-.1.2-.3.2l-10.2-.6c-.1 0-.2-.1-.2-.3 0-.1.1-.2.3-.2l10.2.6c.1.1.2.2.2.3z" fill="#266ce8"/></g></g><g><path d="m145 196.4 1.7.1v.5l-1.7-.1c-.1 0-.2-.1-.2-.3-.1-.1 0-.2.2-.2z" fill="#d4e2fa"/></g></g><g><g><g><path d="m155.4 197.3c.1.1.1.2.1.3l-5.6 8.5c-.1.1-.2.1-.3.1-.1-.1-.1-.2-.1-.3l5.6-8.5c0-.1.2-.2.3-.1z" fill="#266ce8"/></g></g><g><path d="m149.4 205.9 1-1.4.4.3-1 1.4c-.1.1-.2.1-.3.1-.1-.1-.1-.3-.1-.4z" fill="#d4e2fa"/></g></g><g><g><g><path d="m155.4 197.3c.1-.1.3 0 .3.1l4.6 9.1c.1.1 0 .3-.1.3s-.3 0-.3-.1l-4.6-9.1c-.1-.1 0-.2.1-.3z" fill="#266ce8"/></g></g><g><path d="m159.9 206.8-.8-1.6.4-.2.8 1.6c.1.1 0 .3-.1.3-.1.1-.3 0-.3-.1z" fill="#d4e2fa"/></g></g><g><g><g><path d="m155.4 197.3c0-.1.1-.2.3-.2l10.2.6c.1 0 .2.1.2.3s-.1.2-.3.2l-10.2-.6c-.1 0-.2-.1-.2-.3z" fill="#266ce8"/></g></g><g><path d="m165.8 198.2-1.7-.1v-.5l1.7.1c.1 0 .2.1.2.3.1.1 0 .2-.2.2z" fill="#d4e2fa"/></g></g><g><g><g><path d="m155.4 197.3c-.1-.1-.1-.2-.1-.3l5.6-8.5c.1-.1.2-.1.3-.1.1.1.1.2.1.3l-5.6 8.5c0 .2-.2.2-.3.1z" fill="#266ce8"/></g></g><g><path d="m161.4 188.7-1 1.4-.4-.3 1-1.4c.1-.1.2-.1.3-.1.1.2.1.3.1.4z" fill="#d4e2fa"/></g></g></g><g><g><path d="m242.6 101.3c1.2-24.6 25.3-48.1 36.8-52.6 1.4-.5 2.7-1 4.1-1.6l2.8-1.2c.3-.1.6.2.5.5l-2.4 5.6 5.6-2.4c.3-.1.6.2.5.5l-2.4 5.6 5.6-2.4c.3-.1.6.2.5.5l-2.4 5.6 5.6-2.4c.3-.1.6.2.5.5l-1.4 3.2c-.5 1.2-1 2.5-1.4 3.7-4.3 11.5-28.1 36-52.5 36.9z" fill="#4b7dd5"/></g><g><path d="m242.6 101.2c-1.2 24.6-25.3 48.1-36.8 52.6-1.4.5-2.7 1-4.1 1.6l-2.8 1.2c-.3.1-.6-.2-.5-.5l2.4-5.6-5.6 2.4c-.3.1-.6-.2-.5-.5l2.4-5.6-5.6 2.4c-.3.1-.6-.2-.5-.5l2.4-5.6-5.6 2.4c-.3.1-.6-.2-.5-.5l1.4-3.2c.5-1.2 1-2.5 1.4-3.7 4.4-11.4 28.1-35.9 52.5-36.9z" fill="#4b7dd5"/></g><g><path d="m242.6 101.3c24.6 1.2 48.1 25.3 52.6 36.8.5 1.4 1 2.7 1.6 4.1l1.2 2.8c.1.3-.2.6-.5.5l-5.6-2.4 2.4 5.6c.1.3-.2.6-.5.5l-5.6-2.4 2.4 5.6c.1.3-.2.6-.5.5l-5.6-2.4 2.4 5.6c.1.3-.2.6-.5.5l-3.2-1.4c-1.2-.5-2.5-1-3.7-1.4-11.5-4.4-36-28.1-36.9-52.5z" fill="#4b7dd5"/></g><g><path d="m242.6 101.2c-24.6-1.2-48.1-25.3-52.6-36.8-.5-1.4-1-2.7-1.6-4.1l-1.2-2.8c-.1-.3.2-.6.5-.5l5.6 2.4-2.4-5.6c-.1-.3.2-.6.5-.5l5.6 2.4-2.4-5.6c-.1-.3.2-.6.5-.5l5.6 2.4-2.4-5.6c-.1-.3.2-.6.5-.5l3.2 1.4c1.2.5 2.5 1 3.7 1.4 11.5 4.4 36 28.1 36.9 52.5z" fill="#4b7dd5"/></g><g><path d="m242.7 101.3c-16.6-18.2-16.1-51.9-11.1-63.2.6-1.3 1.2-2.7 1.7-4l1.1-2.8c.1-.3.5-.3.7 0l2.3 5.6 2.3-5.6c.1-.3.5-.3.7 0l2.3 5.6 2.3-5.6c.1-.3.5-.3.7 0l2.3 5.6 2.3-5.6c.1-.3.5-.3.7 0l1.3 3.2c.5 1.2 1.1 2.5 1.6 3.7 4.8 11.1 5.4 45.2-11.2 63.1z" fill="#548bed"/></g><g><path d="m242.6 101.3c16.6 18.2 16.1 51.9 11.1 63.2-.6 1.3-1.2 2.7-1.7 4l-1.1 2.8c-.1.3-.5.3-.7 0l-2.3-5.6-2.3 5.6c-.1.3-.5.3-.7 0l-2.3-5.6-2.3 5.6c-.1.3-.5.3-.7 0l-2.3-5.6-2.3 5.6c-.1.3-.5.3-.7 0l-1.3-3.2c-.5-1.2-1.1-2.5-1.6-3.7-4.9-11.1-5.4-45.2 11.2-63.1z" fill="#548bed"/></g><g><path d="m242.6 101.3c18.2-16.6 51.9-16.1 63.2-11.1 1.3.6 2.7 1.2 4 1.7l2.8 1.1c.3.1.3.5 0 .7l-5.6 2.3 5.6 2.3c.3.1.3.5 0 .7l-5.6 2.3 5.6 2.3c.3.1.3.5 0 .7l-5.6 2.3 5.6 2.3c.3.1.3.5 0 .7l-3.2 1.3c-1.2.5-2.5 1.1-3.7 1.6-11.1 4.9-45.2 5.4-63.1-11.2z" fill="#548bed"/></g><g><path d="m242.6 101.2c-18.2 16.6-51.9 16.1-63.2 11.1-1.3-.6-2.7-1.2-4-1.7l-2.8-1.1c-.3-.1-.3-.5 0-.7l5.6-2.3-5.6-2.3c-.3-.1-.3-.5 0-.7l5.6-2.3-5.6-2.3c-.3-.1-.3-.5 0-.7l5.6-2.3-5.6-2.3c-.3-.1-.3-.5 0-.7l3.2-1.3c1.2-.5 2.5-1.1 3.7-1.6 11.1-4.8 45.2-5.4 63.1 11.2z" fill="#548bed"/></g><g><circle cx="242.7" cy="101.3" fill="#4b7dd5" r="5.3"/></g><g><g><g><path d="m242.7 101.8c-.3 0-.5-.2-.5-.5v-23c0-.3.2-.5.5-.5s.5.2.5.5v23c0 .3-.2.5-.5.5z" fill="#266ce8"/></g></g><g><path d="m243.2 78.3v3.9h-1.1v-3.9c0-.3.2-.5.5-.5.4 0 .6.2.6.5z" fill="#d4e2fa"/></g></g><g><g><g><path d="m242.7 101.8c-.1.3-.5.3-.7.2l-20-11.5c-.3-.1-.3-.5-.2-.7s.5-.3.7-.2l19.9 11.5c.3.1.4.4.3.7z" fill="#266ce8"/></g></g><g><path d="m222.6 89.6 3.4 2-.5.9-3.4-2c-.3-.1-.3-.5-.2-.7.1-.3.4-.4.7-.2z" fill="#d4e2fa"/></g></g><g><g><g><path d="m242.7 101.8c.1.3.1.6-.2.7l-19.9 11.5c-.3.1-.6.1-.7-.2s-.1-.6.2-.7l19.9-11.5c.2-.1.5-.1.7.2z" fill="#266ce8"/></g></g><g><path d="m222 113.1 3.4-2 .5.9-3.4 2c-.3.1-.6.1-.7-.2-.1-.2 0-.6.2-.7z" fill="#d4e2fa"/></g></g><g><g><g><path d="m242.7 101.8c.3 0 .5.2.5.5v23c0 .3-.2.5-.5.5s-.5-.2-.5-.5v-23c-.1-.3.2-.5.5-.5z" fill="#266ce8"/></g></g><g><path d="m242.1 125.3v-3.9h1.1v3.9c0 .3-.2.5-.5.5s-.6-.2-.6-.5z" fill="#d4e2fa"/></g></g><g><g><g><path d="m242.7 101.8c.1-.3.5-.3.7-.2l19.9 11.5c.3.1.3.5.2.7-.1.3-.5.3-.7.2l-19.9-11.5c-.3-.1-.4-.4-.2-.7z" fill="#266ce8"/></g></g><g><path d="m262.8 114-3.4-2 .5-.9 3.4 2c.3.1.3.5.2.7-.2.3-.5.4-.7.2z" fill="#d4e2fa"/></g></g><g><g><g><path d="m242.7 101.8c-.1-.3-.1-.6.2-.7l19.9-11.5c.3-.1.6-.1.7.2s.1.6-.2.7l-19.9 11.5c-.3.1-.6.1-.7-.2z" fill="#266ce8"/></g></g><g><path d="m263.3 90.5-3.4 2-.5-.9 3.4-2c.3-.1.6-.1.7.2.1.2 0 .6-.2.7z" fill="#d4e2fa"/></g></g><g><g><g><path d="m242.7 101.8c-.2.1-.4 0-.5-.2l-7.4-14.8c-.1-.2 0-.4.2-.5s.4 0 .5.2l7.4 14.8c0 .2 0 .4-.2.5z" fill="#266ce8"/></g></g><g><path d="m235.4 86.5 1.3 2.5-.7.3-1.3-2.5c-.1-.2 0-.4.2-.5s.5 0 .5.2z" fill="#d4e2fa"/></g></g><g><g><g><path d="m242.7 101.8c0 .2-.2.4-.4.4l-16.5-1c-.2 0-.4-.2-.4-.4s.2-.4.4-.4l16.5 1c.2 0 .4.2.4.4z" fill="#266ce8"/></g></g><g><path d="m225.8 100.4 2.8.2v.8l-2.8-.2c-.2 0-.4-.2-.4-.4 0-.3.2-.4.4-.4z" fill="#d4e2fa"/></g></g><g><g><g><path d="m242.7 101.8c.2.1.2.4.1.5l-9.1 13.8c-.1.2-.4.2-.5.1-.2-.1-.2-.4-.1-.5l9.1-13.8c0-.2.3-.2.5-.1z" fill="#266ce8"/></g></g><g><path d="m233 115.7 1.6-2.3.6.4-1.6 2.3c-.1.2-.4.2-.5.1-.2-.1-.2-.3-.1-.5z" fill="#d4e2fa"/></g></g><g><g><g><path d="m242.7 101.8c.2-.1.4 0 .5.2l7.4 14.8c.1.2 0 .4-.2.5s-.4 0-.5-.2l-7.4-14.8c-.1-.2 0-.4.2-.5z" fill="#266ce8"/></g></g><g><path d="m249.9 117.1-1.3-2.5.7-.3 1.3 2.5c.1.2 0 .4-.2.5s-.4 0-.5-.2z" fill="#d4e2fa"/></g></g><g><g><g><path d="m242.7 101.8c0-.2.2-.4.4-.4l16.5 1c.2 0 .4.2.4.4s-.2.4-.4.4l-16.5-1c-.3 0-.4-.2-.4-.4z" fill="#266ce8"/></g></g><g><path d="m259.6 103.2-2.8-.2v-.8l2.8.2c.2 0 .4.2.4.4-.1.3-.2.4-.4.4z" fill="#d4e2fa"/></g></g><g><g><g><path d="m242.7 101.8c-.2-.1-.2-.4-.1-.5l9.1-13.8c.1-.2.4-.2.5-.1.2.1.2.4.1.5l-9.1 13.8c-.1.2-.4.2-.5.1z" fill="#266ce8"/></g></g><g><path d="m252.3 87.9-1.6 2.3-.6-.4 1.6-2.3c.1-.2.4-.2.5-.1.2.1.2.3.1.5z" fill="#d4e2fa"/></g></g></g><g><g><path d="m258.9 392.2c-.2 0-.3 0-.5 0-1.8-.3-3-2-2.8-3.7 1.7-11.4 4.1-24.5 10.7-35.8 7.3-12.6 18.9-20.8 31.1-21.8 1.8-.1 3.4 1.2 3.5 3 .2 1.8-1.2 3.4-3 3.5-9.9.8-19.9 7.9-26 18.6-6 10.3-8.2 22.7-9.9 33.5-.1 1.5-1.5 2.7-3.1 2.7z" fill="#769319"/></g></g><g><g><path d="m263 351.9c-1.6 0-3-1.2-3.2-2.8-2.9-19.3-17.2-36.5-35.8-42.7-1.7-.6-2.6-2.4-2.1-4.2.6-1.7 2.4-2.6 4.2-2.1 20.8 7 36.9 26.3 40.2 47.9.3 1.8-1 3.5-2.8 3.7-.2.2-.4.2-.5.2z" fill="#769319"/></g></g><g><g><path d="m266.6 326.4c-.4 0-.8-.1-1.1-.2-1.7-.6-2.6-2.5-2-4.2 3.8-10.6 11.7-19.8 21.5-25.3s21.8-7.3 32.8-5c1.8.4 2.9 2.1 2.5 3.9s-2.1 2.9-3.9 2.5c-9.5-2-19.8-.4-28.3 4.3s-15.2 12.7-18.5 21.8c-.4 1.3-1.6 2.2-3 2.2z" fill="#769319"/></g></g><g><g><path d="m322.8 292.5c-1.3.3-1.8 1.8-1 2.9 2.7 3.4 7.2 4.9 11.4 3.9 1.3-.3 1.8-1.8 1-2.9-1.3-1.7-3.1-2.9-5.1-3.6-2-.6-4.2-.8-6.3-.3z" fill="#4b7dd5"/></g><g><path d="m323.1 295.7c-1.3 0-2.2-1.4-1.6-2.6 1.9-3.9 6-6.3 10.3-6.1 1.3 0 2.2 1.4 1.6 2.6-1 1.9-2.5 3.5-4.3 4.6-1.7 1-3.8 1.6-6 1.5z" fill="#4b7dd5"/></g><g><path d="m326.6 295.2c-1.2-.6-1.3-2.3-.2-3.1 3.5-2.6 8.2-2.9 12-.8 1.2.6 1.3 2.3.2 3-1.7 1.3-3.8 2-5.9 2.2s-4.2-.3-6.1-1.3z" fill="#548bed"/></g><g><path d="m314.6 296.1c-1.3 0-2.2-1.4-1.6-2.6 1.9-3.9 6-6.3 10.3-6.1 1.3 0 2.2 1.4 1.6 2.6-1 1.9-2.5 3.5-4.3 4.6-1.7.9-3.8 1.5-6 1.5z" fill="#769319"/></g><g><path d="m314.4 294c-1.3.3-1.8 1.8-1 2.9 2.7 3.4 7.2 4.9 11.4 3.9 1.3-.3 1.8-1.8 1-2.9-1.3-1.7-3.1-2.9-5.1-3.6s-4.2-.8-6.3-.3z" fill="#769319"/></g><g><path d="m313.9 296c-1.2-.6-1.3-2.3-.2-3.1 3.5-2.6 8.2-2.9 12-.8 1.2.6 1.3 2.3.2 3-1.7 1.3-3.8 2-5.9 2.2-2 .1-4.2-.3-6.1-1.3z" fill="#91a947"/></g></g><g><g><path d="m306 325.8c-1.2.5-2.6-.5-2.5-1.8.2-4.3 3-8.1 7-9.7 1.2-.5 2.6.5 2.5 1.8-.1 2.2-.9 4.2-2.1 5.9-1.2 1.6-2.9 3-4.9 3.8z" fill="#91a947"/></g><g><path d="m301.5 327c-.6 1.2.3 2.6 1.6 2.6 4.3.1 8.4-2.4 10.3-6.2.6-1.2-.3-2.6-1.6-2.6-2.2-.1-4.3.5-6 1.6-1.8 1.1-3.3 2.7-4.3 4.6z" fill="#91a947"/></g><g><path d="m304.2 328.8c-.9 1-2.5.7-3-.5-1.7-4-1-8.6 1.9-11.9.9-1 2.5-.7 3 .5.9 2 1.1 4.1.8 6.2-.4 2.1-1.3 4.1-2.7 5.7z" fill="#91a947"/></g><g><path d="m303.6 329.3c-1.2.5-2.6-.5-2.5-1.8.2-4.3 3-8.1 7-9.7 1.2-.5 2.6.5 2.5 1.8-.1 2.2-.9 4.2-2.1 5.9-1.2 1.6-2.9 3-4.9 3.8z" fill="#769319"/></g><g><path d="m299 335.5c-.9 1-2.5.7-3-.5-1.7-4-1-8.6 1.9-11.9.9-1 2.5-.7 3 .5.9 2 1.1 4.1.8 6.2-.4 2.1-1.3 4.1-2.7 5.7z" fill="#769319"/></g><g><path d="m297.2 334.3c-.6 1.2.3 2.6 1.6 2.6 4.3.1 8.4-2.4 10.3-6.2.6-1.2-.3-2.6-1.6-2.6-2.2-.1-4.3.5-6 1.6-1.8 1.1-3.3 2.7-4.3 4.6z" fill="#769319"/></g><g><path d="m298.5 336c-1.2.5-2.6-.5-2.5-1.8.2-4.3 3-8.1 7-9.7 1.2-.5 2.6.5 2.5 1.8-.1 2.2-.9 4.2-2.1 5.9-1.2 1.6-2.9 3-4.9 3.8z" fill="#91a947"/></g></g><g><g><path d="m306 325.8c-1.2.5-2.6-.5-2.5-1.8.2-4.3 3-8.1 7-9.7 1.2-.5 2.6.5 2.5 1.8-.1 2.2-.9 4.2-2.1 5.9-1.2 1.6-2.9 3-4.9 3.8z" fill="#91a947"/></g><g><path d="m301.5 327c-.6 1.2.3 2.6 1.6 2.6 4.3.1 8.4-2.4 10.3-6.2.6-1.2-.3-2.6-1.6-2.6-2.2-.1-4.3.5-6 1.6-1.8 1.1-3.3 2.7-4.3 4.6z" fill="#91a947"/></g><g><path d="m304.2 328.8c-.9 1-2.5.7-3-.5-1.7-4-1-8.6 1.9-11.9.9-1 2.5-.7 3 .5.9 2 1.1 4.1.8 6.2-.4 2.1-1.3 4.1-2.7 5.7z" fill="#91a947"/></g><g><path d="m303.6 329.3c-1.2.5-2.6-.5-2.5-1.8.2-4.3 3-8.1 7-9.7 1.2-.5 2.6.5 2.5 1.8-.1 2.2-.9 4.2-2.1 5.9-1.2 1.6-2.9 3-4.9 3.8z" fill="#769319"/></g><g><path d="m299 335.5c-.9 1-2.5.7-3-.5-1.7-4-1-8.6 1.9-11.9.9-1 2.5-.7 3 .5.9 2 1.1 4.1.8 6.2-.4 2.1-1.3 4.1-2.7 5.7z" fill="#769319"/></g><g><path d="m297.2 334.3c-.6 1.2.3 2.6 1.6 2.6 4.3.1 8.4-2.4 10.3-6.2.6-1.2-.3-2.6-1.6-2.6-2.2-.1-4.3.5-6 1.6-1.8 1.1-3.3 2.7-4.3 4.6z" fill="#769319"/></g><g><path d="m298.5 336c-1.2.5-2.6-.5-2.5-1.8.2-4.3 3-8.1 7-9.7 1.2-.5 2.6.5 2.5 1.8-.1 2.2-.9 4.2-2.1 5.9-1.2 1.6-2.9 3-4.9 3.8z" fill="#91a947"/></g></g><g><g><path d="m301.5 327c-.6 1.2.3 2.6 1.6 2.6 4.3.1 8.4-2.4 10.3-6.2.6-1.2-.3-2.6-1.6-2.6-2.2-.1-4.3.5-6 1.6-1.8 1.1-3.3 2.7-4.3 4.6z" fill="#4b7dd5"/></g><g><path d="m304.2 328.8c-.9 1-2.5.7-3-.5-1.7-4-1-8.6 1.9-11.9.9-1 2.5-.7 3 .5.9 2 1.1 4.1.8 6.2-.4 2.1-1.3 4.1-2.7 5.7z" fill="#4b7dd5"/></g><g><path d="m306 325.8c-1.2.5-2.6-.5-2.5-1.8.2-4.3 3-8.1 7-9.7 1.2-.5 2.6.5 2.5 1.8-.1 2.2-.9 4.2-2.1 5.9-1.2 1.6-2.9 3-4.9 3.8z" fill="#548bed"/></g><g><path d="m299 335.5c-.9 1-2.5.7-3-.5-1.7-4-1-8.6 1.9-11.9.9-1 2.5-.7 3 .5.9 2 1.1 4.1.8 6.2-.4 2.1-1.3 4.1-2.7 5.7z" fill="#769319"/></g><g><path d="m297.2 334.3c-.6 1.2.3 2.6 1.6 2.6 4.3.1 8.4-2.4 10.3-6.2.6-1.2-.3-2.6-1.6-2.6-2.2-.1-4.3.5-6 1.6-1.8 1.1-3.3 2.7-4.3 4.6z" fill="#769319"/></g><g><path d="m298.5 336c-1.2.5-2.6-.5-2.5-1.8.2-4.3 3-8.1 7-9.7 1.2-.5 2.6.5 2.5 1.8-.1 2.2-.9 4.2-2.1 5.9-1.2 1.6-2.9 3-4.9 3.8z" fill="#91a947"/></g></g><g><g><path d="m223.9 297.5c1 .9.7 2.5-.5 3-4 1.7-8.6 1-11.8-1.9-1-.9-.7-2.5.5-3 2-.9 4.1-1.1 6.2-.8 2 .3 3.9 1.3 5.6 2.7z" fill="#4b7dd5"/></g><g><path d="m222.1 300.1c1.2.6 2.6-.2 2.6-1.6.1-4.3-2.3-8.4-6.2-10.3-1.2-.6-2.6.2-2.6 1.6-.1 2.2.5 4.3 1.6 6 1.1 1.9 2.6 3.4 4.6 4.3z" fill="#4b7dd5"/></g><g><path d="m219.2 298c1.3 0 2.2-1.4 1.6-2.6-1.9-3.9-5.8-6.4-10.2-6.4-1.3 0-2.2 1.4-1.6 2.6.9 2 2.4 3.6 4.2 4.7s3.9 1.8 6 1.7z" fill="#548bed"/></g><g><path d="m229.4 304.4c1.2.6 2.6-.2 2.6-1.6.1-4.3-2.3-8.4-6.2-10.3-1.2-.6-2.6.2-2.6 1.6-.1 2.2.5 4.3 1.6 6 1.1 1.9 2.7 3.4 4.6 4.3z" fill="#769319"/></g><g><path d="m230.6 302.7c1 .9.7 2.5-.5 3-4 1.7-8.6 1-11.8-1.9-1-.9-.7-2.5.5-3 2-.9 4.1-1.1 6.2-.8 2 .3 4 1.2 5.6 2.7z" fill="#769319"/></g><g><path d="m230.1 304.7c1.3 0 2.2-1.4 1.6-2.6-1.9-3.9-5.8-6.4-10.2-6.4-1.3 0-2.2 1.4-1.6 2.6.9 2 2.4 3.6 4.2 4.7 1.7 1.1 3.8 1.7 6 1.7z" fill="#91a947"/></g></g><g><path d="m295.3 376.6c10.5.1-8 16.9-8 16.9 10.2.1-11.8 14.1-11.8 14.1 10.4 1-13.6 14-13.6 14 11.6.4-8.6 14.5-8.6 14.5l-3.5.6s.3-.5.8-1.4c-.6.8-.9 1.2-.9 1.2l-.8-3.4s4.8-24.2 9.8-13.7c0 0 2.2-27.2 7.3-18.1 0 0 3.9-25.8 8.1-16.5 0 0 7.9-23.8 12.2-14.2 0 0 6.5-17.6 9.2-14.2 0 0 12.9-17.2 14.1-11.6 5.2-.7-5.1 17.6-5.1 17.6 4.3 1.2-9.2 14.2-9.2 14.2z" fill="#769319"/></g><g><path d="m231.2 413.8c5-5.9 5.8 12.5 5.8 12.5 4.9-5.8 2.4 13.3 2.4 13.3 5.5-5.4 1.5 14.3 1.5 14.3 5.7-6.4 4.2 11.7 4.2 11.7l-1.3 2.2s-.1-.4-.4-1.1c.2.7.3 1.1.3 1.1l-2.3-1.1s-11.5-14.1-3.2-12c0 0-14.4-14-6.8-12.6 0 0-12.8-14.3-5.5-12.3 0 0-9.8-15.6-2.3-13.6 0 0-6.9-11.9-3.7-11.9 0 0-3.7-15.4 0-13.4 2-3.3 7.6 11.2 7.6 11.2 2.7-2.1 3.7 11.7 3.7 11.7z" fill="#769319"/></g></svg>