<svg id="Layer_1" enable-background="new 0 0 500 500" viewBox="0 0 500 500" xmlns="http://www.w3.org/2000/svg"><g><path d="m327.874 389.558-2.633-8.648c-1.686-5.463-6.701-9.276-12.418-9.353l-9-.151-4.827-7.96-4.908-14.214c-1.254-3.628-4.196-6.422-7.887-7.48l-11.268-3.234-27.011-23.714-9.356-19.687-16.872 6.3 16.403 19.914 10.872 9.296-26.987 12.243c-2.38 1.08-4.927 1.744-7.531 1.964l-38.962 3.294c-1.454 8.427 4.997 8.192 4.997 8.192l42.566-6.105s21.241-4.115 35.298-6.311c3.305-.516 6.665.445 9.208 2.618l6.527 10.688 30.426 30.003 43.297 76.578h17.508z" fill="#a3764a"/><g><path d="m207.791 270.735 5.804 1.785 3.132-4.558s-4.065-39.718-4.282-47.846 2.659-19.906-17.867-41.069-62.009-63.228-70.124-76.589-9.664 20.031 3.225 36.393 63.175 64.88 68.799 76.215c5.623 11.334-4.682 56.535 11.313 55.669z" fill="#ffdef9"/><path d="m332.025 226.055s59.123-1.204 82.618 9.305c23.495 10.51 56.622 33.459 53.481 48.938s-55.344 21.817-76.406 13.37-41.987-40.579-70.184-40.561c-28.197.017-33.768-14.657-68.856 17.751s-30.821-25.646-30.821-25.646z" fill="#ffdef9"/><path d="m223.34 221.064s63.088-80.747 119.617-94.976c28.964-7.291 112.159-17.978 111.279-5.052s-65.18 36.982-65.18 36.982z" fill="#e29ac3"/><path d="m218.503 275.743s-3.526-19.403 28.195-54.602 60.115-77.818 96.846-82.429 47.095 8.565 45.636 26.562-15.646 49.036-41.461 57.047-55.928 5.062-70.087 25.463c-14.159 20.399-42.821 52.864-59.129 27.959z" fill="#f4b3d6"/><path d="m206.042 193.321s-11.813-62.444-8.542-96.883 38.252-90.499 77.049-81.024 44.136 68.774 37.353 93.546c-6.784 24.772-44.66 84.645-46.113 90.105-1.452 5.46-47.683 76.025-47.683 76.025z" fill="#f9cff3"/><path d="m198.149 135.536s-17.985-46.269-16.357-64.958c1.628-18.69-43.098-36.954-48.129-23.867s1.859 55.513 20.83 77.031 52.334 74.902 52.334 74.902z" fill="#f4b3d6"/><path d="m243.015 275.336 2.87 11.31c.786 3.098.134 6.386-1.776 8.95l-8.537 11.459c-2.862 3.842-8.434 4.33-11.92 1.044l-2.625-2.473c-1.788-1.685-3.154-3.769-3.974-6.085-2.529-7.152-8.905-23.529-16.382-30.267-9.701-8.742 8.328-10.181 17.597-.444s4.689-22.7 24.747 6.506z" fill="#94c64e"/></g><g><path d="m168.393 342.279.844 3.211-2.561 1.608s-21.607-3.118-26.042-3.421c-4.436-.302-10.935 1.003-22.033-10.689s-33.142-35.305-40.258-40.041 11.161-4.827 19.809 2.584 34.018 35.979 40.083 39.308 30.993-1.279 30.158 7.44z" fill="#ffdef9"/><path d="m141.177 409.141s-1.994 32.273 3.217 45.346 17 31.69 25.527 30.323c8.527-1.366 13.17-29.742 9.031-41.44-4.139-11.697-21.22-23.855-20.574-39.259s-7.245-18.779 11.253-37.216-13.315-17.418-13.315-17.418z" fill="#ffdef9"/><path d="m140.906 349.651s-45.539 32.642-54.59 63.203c-4.638 15.659-12.355 60.868-5.274 60.679s21.676-34.773 21.676-34.773z" fill="#e29ac3"/><path d="m170.887 348.244s-10.52-2.364-30.467 14.17-43.872 31.084-47.221 51.047 3.615 25.922 13.48 25.532 27.143-7.44 32.102-21.362c4.96-13.922 4.029-30.44 15.494-37.715s29.85-22.2 16.612-31.672z" fill="#f4b3d6"/><path d="m126.14 339.574s-33.847-7.865-52.736-6.855-50.305 18.853-46.006 40.263 36.576 25.666 50.262 22.52 47.252-22.486 50.268-23.156 42.611-24.332 42.611-24.332z" fill="#f9cff3"/><path d="m94.749 333.957s-24.871-10.871-35.118-10.404-19.215-24.38-11.952-26.833 30.286 2.27 41.613 13.12 39.738 30.283 39.738 30.283z" fill="#f4b3d6"/><path d="m170.111 361.626 6.114 1.823c1.675.5 3.486.217 4.93-.768l6.453-4.405c2.163-1.477 2.556-4.51.84-6.488l-1.292-1.49c-.88-1.015-1.988-1.808-3.235-2.308-3.85-1.543-12.653-5.396-16.165-9.634-4.557-5.497-5.75 4.32-.64 9.603 5.109 5.284-12.507 2.049 2.995 13.667z" fill="#94c64e"/></g><g fill="#f4b3d6"><ellipse cx="291.389" cy="321.593" rx="8.167" ry="15.322"/><ellipse cx="335.003" cy="379.453" rx="11.295" ry="6.021" transform="matrix(.329 -.944 .944 .329 -133.473 571.137)"/><ellipse cx="274.506" cy="379.485" rx="11.295" ry="6.021" transform="matrix(.963 -.268 .268 .963 -91.683 87.478)"/><ellipse cx="312.482" cy="429.686" rx="6.021" ry="11.295" transform="matrix(.095 -.996 .996 .095 -144.939 699.947)"/></g></g></svg>