<svg id="Layer_1" height="512" viewBox="0 0 256 256" width="512" xmlns="http://www.w3.org/2000/svg"><g><g><g><g><g><g><path d="m166.333 160.446c-10.715 30.985-24.653 56.183-31.807 68.148-1.74 2.91-4.153 2.075-3.723-1.287 1.765-13.828 6.37-42.254 17.084-73.239s24.653-56.183 31.807-68.148c1.74-2.91 4.153-2.075 3.723 1.287-1.765 13.828-6.369 42.254-17.084 73.239z" fill="#5a7a39"/></g></g></g><g><g><g><path d="m184.156 190.705c-18.027 23.506-40.117 38.867-51.368 45.777-2.736 1.68-6.092-.894-5.179-3.972 3.755-12.658 12.862-37.976 30.888-61.482s40.117-38.867 51.368-45.777c2.736-1.68 6.092.894 5.179 3.972-3.755 12.657-12.861 37.976-30.888 61.482z" fill="#76a34f"/></g></g></g><g><g><path d="m209.865 125.25c-2.448 1.504-5.411 3.408-8.732 5.709-4.995 13.555-13.488 32.157-26.977 49.745-14.104 18.391-30.694 31.795-42.636 40.067-1.681 4.561-2.966 8.551-3.911 11.738-.913 3.078 2.443 5.652 5.179 3.972 11.251-6.909 33.341-22.271 51.368-45.777 18.026-23.506 27.133-48.825 30.888-61.482.914-3.078-2.443-5.652-5.179-3.972z" fill="#648940"/></g></g><g><g><path d="m209.865 125.25c-.052.032-.108.067-.16.099-3.949 12.99-13.042 37.526-30.549 60.355-17.944 23.398-39.91 38.723-51.208 45.678-.117.385-.231.763-.339 1.127-.913 3.078 2.443 5.652 5.179 3.972 11.251-6.909 33.341-22.271 51.368-45.777 18.026-23.506 27.133-48.825 30.888-61.482.914-3.078-2.443-5.652-5.179-3.972z" fill="#5a7a39"/></g></g></g><g><g><g><g><path d="m89.667 160.446c10.715 30.985 24.653 56.183 31.807 68.148 1.74 2.91 4.153 2.075 3.723-1.287-1.765-13.828-6.37-42.254-17.084-73.239s-24.653-56.184-31.807-68.149c-1.74-2.91-4.153-2.075-3.723 1.287 1.765 13.829 6.369 42.255 17.084 73.24z" fill="#5a7a39"/></g></g></g><g><g><g><path d="m71.844 190.705c18.027 23.506 40.117 38.867 51.368 45.777 2.736 1.68 6.092-.894 5.179-3.972-3.755-12.658-12.862-37.976-30.888-61.482s-40.117-38.867-51.368-45.777c-2.736-1.68-6.092.894-5.179 3.972 3.755 12.657 12.861 37.976 30.888 61.482z" fill="#76a34f"/></g></g></g><g><g><g><path d="m110.78 222.68c-.44 0-.86-.14-1.211-.41 0 0 0 0-.01 0-.42-.33-.689-.79-.76-1.32-.07-.53.07-1.05.39-1.48.65-.85 1.94-1.03 2.801-.39v.01c.88.67 1.05 1.93.39 2.8-.39.5-.97.79-1.6.79zm-6.27-4.97c-.46 0-.92-.16-1.27-.45-10.841-8.95-20.33-18.7-28.221-28.99-14.77-19.26-23.439-39.75-28.12-53.55-.27-.81 0-1.7.681-2.22.66-.51 1.63-.54 2.33-.08 5.489 3.67 10.88 7.68 16.01 11.91.02.01.04.03.06.04 2.08 1.71 4.141 3.49 6.13 5.27.4.35.641.84.66 1.38.04.53-.149 1.04-.5 1.44-.71.79-2.04.87-2.83.16-1.949-1.75-3.97-3.48-6-5.16-3.449-2.84-7.04-5.6-10.67-8.2 4.5 12.02 12.561 29.81 25.42 46.58 7.721 10.06 17 19.59 27.601 28.33v.01c.41.34.66.82.71 1.34.05.54-.11 1.06-.45 1.47-.381.46-.942.72-1.541.72z" fill="#91b56b"/></g></g></g></g></g><g><g><g><g><path d="m126.325 92.855c-.29 0-.577-.125-.775-.367-5.452-6.671-11.633-14.233-12.867-23.858-.07-.548.317-1.049.865-1.119.551-.073 1.048.317 1.119.864 1.161 9.058 7.148 16.384 12.432 22.848.35.428.286 1.058-.142 1.407-.186.151-.41.225-.632.225z" fill="#76a34f"/></g></g><g><g><g><path d="m109.052 64.761c.649 4.064 3.884 4.971 5.202 4.761s4.111-2.079 3.462-6.144c-.531-3.327-4.087-6.954-5.359-8.159-.229-.217-.601-.158-.751.12-.834 1.542-3.085 6.095-2.554 9.422z" fill="#d10028"/></g></g><g><g><path d="m122.022 68.433c-.529 4.081-3.736 5.083-5.06 4.912s-4.17-1.957-3.642-6.039c.433-3.342 3.881-7.071 5.117-8.313.223-.224.596-.175.754.098.879 1.515 3.263 6 2.831 9.342z" fill="#e63950"/></g></g><g><g><path d="m106.534 70.904c1.773 3.714 5.133 3.668 6.337 3.093 1.205-.575 3.354-3.158 1.581-6.872-1.451-3.041-5.889-5.512-7.45-6.308-.281-.143-.621.019-.686.328-.363 1.714-1.234 6.718.218 9.759z" fill="#e63950"/></g></g><g><g><path d="m109.332 69.775c.725 4.54 4.339 5.554 5.812 5.319 1.472-.235 4.592-2.323 3.868-6.863-.593-3.717-4.566-7.768-5.988-9.115-.256-.243-.671-.176-.839.134-.932 1.722-3.447 6.808-2.853 10.525z" fill="#e8566f"/></g></g><g><g><g><g><g><path d="m115.28 76.143c-.104.006-.196-.067-.214-.169-.098-.545-.312-2.244.571-3.361s2.584-1.302 3.138-1.332c.104-.006.195.067.214.169.098.545.312 2.244-.571 3.361s-2.585 1.302-3.138 1.332z" fill="#91b56b"/></g></g></g></g><g><g><g><g><path d="m115.237 76.15c.101-.027.165-.124.151-.227-.076-.549-.402-2.229-1.589-3.016s-2.861-.433-3.397-.29c-.101.027-.165.124-.151.227.076.549.402 2.229 1.589 3.016 1.187.788 2.861.434 3.397.29z" fill="#91b56b"/></g></g></g></g></g></g></g><g><g><g><path d="m128.442 59.382c-.242 0-.485-.087-.677-.264-4.941-4.546-10.541-9.7-12.561-17.016-.147-.532.165-1.083.697-1.23.534-.145 1.084.165 1.23.698 1.867 6.764 7.243 11.711 11.986 16.076.407.374.433 1.007.06 1.413-.196.215-.465.323-.735.323z" fill="#76a34f"/></g></g><g><g><g><path d="m113.354 43.334c.983 3.178 3.677 3.535 4.707 3.216s3.052-2.134 2.069-5.312c-.805-2.602-4.066-5.098-5.221-5.917-.208-.148-.499-.058-.587.182-.491 1.327-1.773 5.228-.968 7.831z" fill="#e63950"/></g></g><g><g><g><g><g><path d="m118.322 47.486c-.094.019-.186-.035-.217-.126-.16-.483-.575-2 .083-3.131s2.182-1.52 2.681-1.619c.094-.019.186.035.217.126.16.483.575 2-.083 3.131-.658 1.13-2.182 1.519-2.681 1.619z" fill="#91b56b"/></g></g></g></g><g><g><g><g><path d="m118.283 47.498c.088-.038.134-.134.108-.226-.141-.489-.655-1.975-1.837-2.537-1.181-.562-2.659-.022-3.127.178-.088.038-.134.134-.108.226.141.489.655 1.975 1.837 2.537 1.182.561 2.659.022 3.127-.178z" fill="#91b56b"/></g></g></g></g></g></g></g><g><g><g><path d="m128.383 49.419c-.266 0-.531-.105-.729-.315-.378-.402-.359-1.035.043-1.414 4.694-4.416 10.016-9.421 11.809-16.208.142-.534.69-.85 1.223-.711.533.141.852.688.711 1.222-1.939 7.34-7.481 12.554-12.371 17.154-.194.182-.44.272-.686.272z" fill="#76a34f"/></g></g><g><g><g><path d="m143.304 33.205c-.948 3.189-3.637 3.575-4.672 3.267-1.034-.308-3.076-2.1-2.127-5.289.776-2.611 4.009-5.142 5.156-5.975.207-.15.498-.063.589.175.506 1.324 1.83 5.211 1.054 7.822z" fill="#e63950"/></g></g><g><g><g><g><g><path d="m138.383 37.412c.094.018.186-.037.215-.128.155-.485.553-2.006-.118-3.13-.67-1.123-2.198-1.496-2.699-1.59-.094-.018-.186.037-.215.128-.155.485-.553 2.006.117 3.13.671 1.123 2.199 1.495 2.7 1.59z" fill="#91b56b"/></g></g></g></g><g><g><g><g><path d="m138.421 37.423c-.088-.037-.135-.133-.11-.225.135-.491.633-1.982 1.808-2.557s2.658-.051 3.129.143c.088.037.135.133.11.225-.135.491-.633 1.982-1.808 2.557s-2.658.052-3.129-.143z" fill="#91b56b"/></g></g></g></g></g></g></g><g><g><g><path d="m128.849 82.45c-.222 0-.446-.074-.632-.226-.428-.35-.491-.979-.142-1.407 5.283-6.465 11.271-13.792 12.431-22.847.071-.547.573-.937 1.119-.865.548.07.936.571.865 1.119-1.233 9.623-7.414 17.186-12.866 23.858-.197.242-.485.368-.775.368z" fill="#76a34f"/></g></g><g><g><g><path d="m146.121 54.356c-.649 4.064-3.884 4.971-5.202 4.761s-4.111-2.079-3.462-6.143c.531-3.327 4.087-6.954 5.359-8.159.229-.217.601-.158.751.12.834 1.541 3.085 6.094 2.554 9.421z" fill="#d10028"/></g></g><g><g><path d="m133.152 58.028c.529 4.081 3.736 5.083 5.06 4.912s4.17-1.957 3.642-6.039c-.433-3.342-3.881-7.071-5.117-8.313-.223-.224-.596-.175-.754.098-.88 1.515-3.264 6-2.831 9.342z" fill="#e63950"/></g></g><g><g><path d="m148.64 60.499c-1.773 3.714-5.133 3.668-6.337 3.093-1.205-.575-3.354-3.158-1.581-6.872 1.451-3.041 5.889-5.512 7.45-6.308.281-.143.621.019.686.328.363 1.714 1.233 6.718-.218 9.759z" fill="#e63950"/></g></g><g><g><path d="m145.842 59.37c-.725 4.54-4.339 5.554-5.812 5.319-1.472-.235-4.592-2.323-3.868-6.863.593-3.717 4.566-7.768 5.988-9.115.256-.243.671-.176.839.134.931 1.722 3.446 6.808 2.853 10.525z" fill="#e8566f"/></g></g><g><g><g><g><g><path d="m139.894 65.738c.104.006.196-.067.214-.169.098-.545.312-2.244-.571-3.361s-2.584-1.302-3.138-1.332c-.104-.006-.195.067-.214.169-.098.545-.312 2.244.571 3.361s2.584 1.302 3.138 1.332z" fill="#91b56b"/></g></g></g></g><g><g><g><g><path d="m139.937 65.745c-.101-.027-.165-.124-.151-.227.076-.549.402-2.229 1.589-3.016s2.861-.433 3.397-.29c.101.027.165.124.151.227-.076.549-.402 2.229-1.589 3.016s-2.862.433-3.397.29z" fill="#91b56b"/></g></g></g></g></g></g></g><g><g><g><path d="m152.961 191.565c-5.967 20.542-16.803 36.669-22.562 44.268-1.4 1.848-4.333.996-4.526-1.315-.792-9.501-1.302-28.924 4.664-49.466s16.803-36.669 22.562-44.268c1.4-1.848 4.333-.996 4.526 1.315.793 9.501 1.303 28.924-4.664 49.466z" fill="#648940"/></g></g></g><g><g><g><path d="m102.696 185.24c5.931 20.418 16.701 36.447 22.425 44 1.392 1.837 4.307.99 4.499-1.307.787-9.444 1.294-28.749-4.636-49.167-5.931-20.418-16.701-36.447-22.425-44-1.392-1.837-4.307-.99-4.499 1.307-.787 9.444-1.295 28.75 4.636 49.167z" fill="#648940"/></g></g></g><g><g><path d="m128 242.239c-1.657 0-3-1.343-3-3v-210.378c0-1.657 1.343-3 3-3s3 1.343 3 3v210.378c0 1.657-1.343 3-3 3z" fill="#76a34f"/></g></g><g><g><g><g><path d="m111.297 166.827c5.527 0 12.282-8.385 12.282-15.168 0-2.771-1.357-4.634-3.245-6.151-.02-.016-.039-.031-.059-.047-1.707-1.357-4.199-1.292-5.769.222-.84.809-1.981 1.307-3.241 1.307-1.258 0-2.398-.496-3.237-1.304-1.577-1.516-4.081-1.574-5.774-.189-.014.011-.027.022-.04.033-1.858 1.532-3.198 3.415-3.198 6.128-.001 6.784 6.754 15.169 12.281 15.169z" fill="#e63950"/></g></g><g><g><path d="m134.344 126.908c-2.764-4.787-13.403-6.444-19.277-3.052-2.4 1.386-3.334 3.492-3.704 5.886-.004.025-.008.05-.011.075-.322 2.157.981 4.282 3.077 4.885 1.121.323 2.123 1.062 2.753 2.153.629 1.089.769 2.325.489 3.455-.525 2.124.677 4.321 2.723 5.095.016.006.033.012.049.018 2.256.843 4.556 1.062 6.906-.295 5.874-3.391 9.759-13.434 6.995-18.22z" fill="#e63950"/></g></g><g><g><path d="m88.486 126.711c-2.847 4.737.861 14.846 6.674 18.34 2.375 1.428 4.67 1.224 6.944.387.024-.009.047-.017.071-.026 2.043-.764 3.27-2.934 2.782-5.059-.261-1.137-.1-2.372.549-3.451.648-1.078 1.661-1.799 2.785-2.103 2.112-.57 3.452-2.687 3.136-4.852-.003-.017-.005-.035-.008-.052-.356-2.382-1.28-4.5-3.605-5.897-5.814-3.494-16.481-2.025-19.328 2.713z" fill="#e63950"/></g></g></g><g><g><circle cx="111.38" cy="140.246" fill="#d10028" r="9.601"/></g></g><g><g><g><path d="m111.38 113.633c-5.527 0-12.282 8.385-12.282 15.168 0 2.771 1.357 4.634 3.245 6.151.02.016.039.031.059.047 1.707 1.357 4.199 1.292 5.769-.222.84-.809 1.981-1.307 3.241-1.307 1.258 0 2.398.496 3.237 1.304 1.577 1.516 4.081 1.574 5.774.189.014-.011.027-.022.04-.033 1.858-1.532 3.198-3.415 3.198-6.128.001-6.784-6.754-15.169-12.281-15.169z" fill="#e8566f"/></g></g><g><g><path d="m88.333 153.552c2.764 4.787 13.403 6.443 19.277 3.052 2.4-1.386 3.334-3.492 3.704-5.886.004-.025.008-.05.011-.075.322-2.157-.981-4.282-3.077-4.885-1.121-.323-2.123-1.062-2.753-2.153-.629-1.089-.769-2.325-.489-3.455.525-2.124-.677-4.321-2.723-5.095-.016-.006-.033-.012-.049-.018-2.256-.843-4.556-1.062-6.906.295-5.874 3.391-9.759 13.434-6.995 18.22z" fill="#e8566f"/></g></g><g><g><path d="m134.191 153.749c2.847-4.737-.861-14.846-6.674-18.34-2.375-1.428-4.67-1.224-6.943-.387-.024.009-.047.017-.071.026-2.043.764-3.27 2.934-2.782 5.059.261 1.137.1 2.372-.549 3.451-.648 1.078-1.661 1.799-2.785 2.103-2.112.57-3.452 2.687-3.136 4.852.003.017.005.035.008.052.356 2.382 1.28 4.5 3.605 5.897 5.813 3.495 16.48 2.025 19.327-2.713z" fill="#e8566f"/></g></g></g><g><g><g><g><g><circle cx="108.1" cy="135.52" fill="#ffa91a" r="1.437"/></g></g><g><g><circle cx="111.317" cy="138.147" fill="#ffa91a" r="1.437"/></g></g><g><g><circle cx="114.661" cy="135.52" fill="#ffa91a" r="1.437"/></g></g><g><g><circle cx="111.317" cy="143.031" fill="#ffa91a" r="1.437"/></g></g><g><g><circle cx="114.661" cy="140.405" fill="#ffa91a" r="1.437"/></g></g><g><g><circle cx="108.1" cy="140.405" fill="#ffa91a" r="1.437"/></g></g></g></g></g></g><g><g><g><g><path d="m141.812 196.573c5.527 0 12.282-8.385 12.282-15.168 0-2.771-1.357-4.634-3.245-6.151-.02-.016-.039-.031-.059-.047-1.707-1.357-4.199-1.292-5.769.222-.84.809-1.981 1.307-3.241 1.307-1.258 0-2.398-.496-3.237-1.304-1.577-1.516-4.081-1.574-5.774-.189-.014.011-.027.022-.04.033-1.858 1.532-3.198 3.415-3.198 6.128 0 6.784 6.754 15.169 12.281 15.169z" fill="#e63950"/></g></g><g><g><path d="m164.86 156.654c-2.764-4.787-13.403-6.443-19.277-3.052-2.4 1.386-3.334 3.492-3.704 5.886-.004.025-.008.05-.011.075-.322 2.157.981 4.282 3.077 4.885 1.121.323 2.123 1.062 2.753 2.153.629 1.089.769 2.325.489 3.455-.525 2.124.677 4.321 2.723 5.095.016.006.033.012.049.018 2.256.843 4.556 1.062 6.906-.295 5.874-3.391 9.758-13.434 6.995-18.22z" fill="#e63950"/></g></g><g><g><path d="m119.002 156.457c-2.847 4.737.861 14.846 6.674 18.34 2.375 1.428 4.67 1.224 6.944.387.024-.009.047-.017.071-.026 2.043-.764 3.27-2.934 2.782-5.059-.261-1.137-.1-2.372.549-3.451.648-1.078 1.661-1.799 2.785-2.103 2.112-.57 3.452-2.687 3.136-4.852-.003-.017-.005-.035-.008-.052-.356-2.382-1.28-4.5-3.605-5.897-5.815-3.495-16.481-2.025-19.328 2.713z" fill="#e63950"/></g></g></g><g><g><circle cx="141.896" cy="169.992" fill="#d10028" r="9.601"/></g></g><g><g><g><path d="m141.896 143.379c-5.527 0-12.282 8.385-12.282 15.168 0 2.771 1.357 4.634 3.245 6.151.02.016.039.031.059.047 1.707 1.357 4.199 1.292 5.769-.222.84-.809 1.981-1.307 3.241-1.307 1.258 0 2.398.496 3.237 1.304 1.577 1.516 4.081 1.574 5.774.189.014-.011.027-.022.04-.033 1.858-1.532 3.198-3.415 3.198-6.128 0-6.784-6.754-15.169-12.281-15.169z" fill="#e8566f"/></g></g><g><g><path d="m118.848 183.298c2.764 4.787 13.403 6.444 19.277 3.052 2.4-1.386 3.334-3.492 3.704-5.886.004-.025.008-.05.011-.075.322-2.157-.981-4.282-3.077-4.885-1.121-.323-2.123-1.062-2.753-2.153-.629-1.089-.769-2.325-.489-3.455.525-2.124-.677-4.321-2.723-5.095-.016-.006-.033-.012-.049-.018-2.256-.843-4.556-1.062-6.906.295-5.874 3.391-9.758 13.434-6.995 18.22z" fill="#e8566f"/></g></g><g><g><path d="m164.706 183.495c2.847-4.737-.861-14.846-6.674-18.34-2.375-1.428-4.67-1.224-6.943-.387-.024.009-.047.017-.071.026-2.043.764-3.27 2.934-2.782 5.059.261 1.137.1 2.372-.549 3.451-.648 1.078-1.661 1.799-2.785 2.103-2.112.57-3.452 2.687-3.136 4.852.003.017.005.035.008.052.356 2.382 1.28 4.5 3.605 5.897 5.813 3.494 16.48 2.025 19.327-2.713z" fill="#e8566f"/></g></g></g><g><g><g><g><g><circle cx="138.615" cy="165.266" fill="#ffa91a" r="1.437"/></g></g><g><g><circle cx="141.832" cy="167.893" fill="#ffa91a" r="1.437"/></g></g><g><g><circle cx="145.176" cy="165.266" fill="#ffa91a" r="1.437"/></g></g><g><g><circle cx="141.832" cy="172.777" fill="#ffa91a" r="1.437"/></g></g><g><g><circle cx="145.176" cy="170.151" fill="#ffa91a" r="1.437"/></g></g><g><g><circle cx="138.615" cy="170.151" fill="#ffa91a" r="1.437"/></g></g></g></g></g></g><g><g><g><g><path d="m142.802 104.081c3.834 0 8.52-5.817 8.52-10.522 0-1.923-.941-3.214-2.251-4.267-.014-.011-.027-.022-.041-.033-1.184-.941-2.913-.896-4.002.154-.583.562-1.374.907-2.248.907-.872 0-1.663-.344-2.246-.904-1.094-1.052-2.831-1.092-4.005-.131-.009.008-.019.015-.028.023-1.289 1.063-2.218 2.369-2.218 4.251-.001 4.705 4.685 10.522 8.519 10.522z" fill="#e63950"/></g></g><g><g><path d="m158.79 76.389c-1.917-3.32-9.297-4.47-13.372-2.117-1.665.961-2.313 2.422-2.569 4.083-.003.017-.005.035-.008.052-.223 1.496.68 2.971 2.134 3.389.778.224 1.473.737 1.909 1.493.436.755.533 1.613.339 2.397-.364 1.473.47 2.998 1.889 3.534.011.004.023.009.034.013 1.565.585 3.161.737 4.791-.204 4.075-2.353 6.77-9.32 4.853-12.64z" fill="#e63950"/></g></g><g><g><path d="m126.978 76.252c-1.975 3.286.597 10.299 4.63 12.723 1.648.99 3.24.849 4.817.268.016-.006.033-.012.049-.018 1.417-.53 2.268-2.035 1.93-3.509-.181-.789-.069-1.645.381-2.394.449-.748 1.152-1.248 1.932-1.459 1.465-.396 2.394-1.864 2.175-3.366-.002-.012-.004-.024-.005-.036-.247-1.652-.888-3.122-2.501-4.091-4.033-2.424-11.433-1.404-13.408 1.882z" fill="#e63950"/></g></g></g><g><g><circle cx="142.86" cy="85.642" fill="#d10028" r="6.66"/></g></g><g><g><g><path d="m142.86 67.18c-3.834 0-8.52 5.817-8.52 10.522 0 1.923.941 3.214 2.251 4.267.014.011.027.022.041.033 1.184.941 2.913.896 4.002-.154.583-.562 1.375-.907 2.248-.907.872 0 1.663.344 2.246.905 1.094 1.052 2.831 1.092 4.005.131.009-.008.019-.015.028-.023 1.289-1.063 2.218-2.369 2.218-4.251 0-4.706-4.685-10.523-8.519-10.523z" fill="#e8566f"/></g></g><g><g><path d="m126.872 94.872c1.917 3.32 9.297 4.47 13.372 2.117 1.665-.961 2.313-2.422 2.569-4.083.003-.017.005-.035.008-.052.223-1.496-.68-2.971-2.134-3.389-.778-.224-1.473-.737-1.909-1.493-.436-.755-.533-1.613-.339-2.397.364-1.473-.47-2.998-1.889-3.534-.011-.004-.023-.009-.034-.013-1.565-.585-3.161-.737-4.791.204-4.076 2.354-6.77 9.32-4.853 12.64z" fill="#e8566f"/></g></g><g><g><path d="m158.683 95.009c1.975-3.286-.597-10.299-4.63-12.723-1.648-.99-3.24-.849-4.817-.268-.016.006-.033.012-.049.018-1.417.53-2.268 2.035-1.93 3.509.181.789.069 1.645-.381 2.394-.449.748-1.152 1.248-1.932 1.459-1.465.396-2.394 1.864-2.175 3.366.002.012.004.024.005.036.247 1.652.888 3.122 2.501 4.091 4.034 2.424 11.433 1.404 13.408-1.882z" fill="#e8566f"/></g></g></g><g><g><g><g><g><circle cx="140.334" cy="84.375" fill="#ffa91a" r="1.106"/></g></g><g><g><circle cx="142.811" cy="86.397" fill="#ffa91a" r="1.106"/></g></g><g><g><circle cx="145.385" cy="84.375" fill="#ffa91a" r="1.106"/></g></g></g></g></g></g><g><g><g><g><path d="m110.696 126.315c3.834 0 8.52-5.817 8.52-10.522 0-1.923-.941-3.214-2.251-4.267-.014-.011-.027-.022-.041-.033-1.184-.941-2.913-.896-4.002.154-.583.562-1.375.907-2.248.907-.872 0-1.663-.344-2.246-.904-1.094-1.052-2.831-1.092-4.005-.131-.009.008-.019.015-.028.023-1.289 1.063-2.218 2.369-2.218 4.251 0 4.705 4.685 10.522 8.519 10.522z" fill="#e63950"/></g></g><g><g><path d="m126.684 98.623c-1.917-3.32-9.297-4.47-13.372-2.117-1.665.961-2.313 2.422-2.569 4.083-.003.017-.005.035-.008.052-.223 1.496.68 2.971 2.134 3.389.778.224 1.473.737 1.909 1.493.436.755.533 1.613.339 2.397-.364 1.473.47 2.998 1.889 3.534.011.004.023.009.034.013 1.565.585 3.161.737 4.791-.204 4.076-2.353 6.77-9.32 4.853-12.64z" fill="#e63950"/></g></g><g><g><path d="m94.873 98.486c-1.975 3.286.597 10.299 4.63 12.723 1.648.99 3.24.849 4.817.268.016-.006.033-.012.049-.018 1.417-.53 2.268-2.035 1.93-3.509-.181-.789-.069-1.645.381-2.394.449-.748 1.152-1.248 1.932-1.459 1.465-.396 2.394-1.864 2.175-3.366-.002-.012-.004-.024-.005-.036-.247-1.652-.888-3.122-2.501-4.091-4.034-2.424-11.433-1.404-13.408 1.882z" fill="#e63950"/></g></g></g><g><g><circle cx="110.754" cy="107.876" fill="#d10028" r="6.66"/></g></g><g><g><g><path d="m110.754 89.414c-3.834 0-8.52 5.817-8.52 10.522 0 1.923.941 3.214 2.251 4.267.014.011.027.022.041.033 1.184.941 2.913.896 4.002-.154.583-.562 1.375-.907 2.248-.907.872 0 1.663.344 2.246.905 1.094 1.052 2.831 1.092 4.005.131.009-.008.019-.015.028-.023 1.289-1.063 2.218-2.369 2.218-4.251.001-4.706-4.685-10.523-8.519-10.523z" fill="#e8566f"/></g></g><g><g><path d="m94.766 117.106c1.917 3.32 9.297 4.47 13.372 2.117 1.665-.961 2.313-2.422 2.569-4.083.003-.017.005-.035.008-.052.223-1.496-.68-2.971-2.134-3.389-.778-.224-1.473-.737-1.909-1.493-.436-.755-.533-1.613-.339-2.397.364-1.473-.47-2.998-1.889-3.534-.011-.004-.023-.009-.034-.013-1.565-.585-3.161-.737-4.791.204-4.075 2.353-6.77 9.32-4.853 12.64z" fill="#e8566f"/></g></g><g><g><path d="m126.578 117.243c1.975-3.286-.597-10.299-4.63-12.723-1.648-.99-3.24-.849-4.817-.268-.016.006-.033.012-.049.018-1.417.53-2.268 2.035-1.93 3.509.181.789.069 1.645-.381 2.394-.449.748-1.152 1.248-1.932 1.459-1.465.396-2.394 1.864-2.175 3.366.002.012.004.024.005.036.247 1.652.888 3.122 2.501 4.091 4.033 2.424 11.433 1.404 13.408-1.882z" fill="#e8566f"/></g></g></g><g><g><g><g><g><circle cx="108.191" cy="106.652" fill="#ffa91a" r="1.123"/></g></g><g><g><circle cx="110.705" cy="108.704" fill="#ffa91a" r="1.123"/></g></g><g><g><circle cx="113.317" cy="106.652" fill="#ffa91a" r="1.123"/></g></g></g></g></g></g><g><g><g><g><path d="m141.812 151.817c5.527 0 12.282-8.385 12.282-15.168 0-2.771-1.357-4.634-3.245-6.151-.02-.016-.039-.031-.059-.047-1.707-1.357-4.199-1.292-5.769.222-.84.809-1.981 1.307-3.241 1.307-1.258 0-2.398-.496-3.237-1.304-1.577-1.516-4.081-1.574-5.774-.189-.014.011-.027.022-.04.033-1.858 1.532-3.198 3.415-3.198 6.128 0 6.784 6.754 15.169 12.281 15.169z" fill="#e63950"/></g></g><g><g><path d="m164.86 111.898c-2.764-4.787-13.403-6.444-19.277-3.052-2.4 1.386-3.334 3.492-3.704 5.886-.004.025-.008.05-.011.075-.322 2.157.981 4.282 3.077 4.885 1.121.323 2.123 1.062 2.753 2.153.629 1.089.769 2.325.489 3.455-.525 2.124.677 4.321 2.723 5.095.016.006.033.012.049.018 2.256.843 4.556 1.062 6.906-.295 5.874-3.391 9.758-13.433 6.995-18.22z" fill="#e63950"/></g></g><g><g><path d="m119.002 111.701c-2.847 4.737.861 14.846 6.674 18.34 2.375 1.428 4.67 1.224 6.944.387.024-.009.047-.017.071-.026 2.043-.764 3.27-2.934 2.782-5.059-.261-1.137-.1-2.372.549-3.451.648-1.078 1.661-1.799 2.785-2.103 2.112-.57 3.452-2.687 3.136-4.852-.003-.017-.005-.035-.008-.052-.356-2.382-1.28-4.5-3.605-5.897-5.815-3.494-16.481-2.024-19.328 2.713z" fill="#e63950"/></g></g></g><g><g><circle cx="141.896" cy="125.236" fill="#d10028" r="9.601"/></g></g><g><g><g><path d="m141.896 98.623c-5.527 0-12.282 8.385-12.282 15.168 0 2.771 1.357 4.634 3.245 6.151.02.016.039.031.059.047 1.707 1.357 4.199 1.292 5.769-.222.84-.809 1.981-1.307 3.241-1.307 1.258 0 2.398.496 3.237 1.304 1.577 1.516 4.081 1.574 5.774.189.014-.011.027-.022.04-.033 1.858-1.532 3.198-3.415 3.198-6.128 0-6.784-6.754-15.169-12.281-15.169z" fill="#e8566f"/></g></g><g><g><path d="m118.848 138.542c2.764 4.787 13.403 6.444 19.277 3.052 2.4-1.386 3.334-3.492 3.704-5.886.004-.025.008-.05.011-.075.322-2.157-.981-4.282-3.077-4.885-1.121-.323-2.123-1.062-2.753-2.153-.629-1.089-.769-2.325-.489-3.455.525-2.124-.677-4.321-2.723-5.095-.016-.006-.033-.012-.049-.018-2.256-.843-4.556-1.062-6.906.295-5.874 3.392-9.758 13.434-6.995 18.22z" fill="#e8566f"/></g></g><g><g><path d="m164.706 138.739c2.847-4.737-.861-14.846-6.674-18.34-2.375-1.428-4.67-1.224-6.943-.387-.024.009-.047.017-.071.026-2.043.764-3.27 2.934-2.782 5.059.261 1.137.1 2.372-.549 3.451-.648 1.078-1.661 1.799-2.785 2.103-2.112.57-3.452 2.687-3.136 4.852.003.017.005.035.008.052.356 2.382 1.28 4.5 3.605 5.897 5.813 3.495 16.48 2.025 19.327-2.713z" fill="#e8566f"/></g></g></g><g><g><g><g><g><circle cx="138.615" cy="120.511" fill="#ffa91a" r="1.437"/></g></g><g><g><circle cx="141.832" cy="123.137" fill="#ffa91a" r="1.437"/></g></g><g><g><circle cx="145.176" cy="120.511" fill="#ffa91a" r="1.437"/></g></g><g><g><circle cx="141.832" cy="128.021" fill="#ffa91a" r="1.437"/></g></g><g><g><circle cx="145.176" cy="125.395" fill="#ffa91a" r="1.437"/></g></g><g><g><circle cx="138.615" cy="125.395" fill="#ffa91a" r="1.437"/></g></g></g></g></g></g><g><g><g><path d="m132.966 27.191c-.011 4.717-3.513 6.321-5.043 6.317s-5.025-1.623-5.014-6.34c.009-3.862 3.39-8.601 4.616-10.193.221-.287.652-.286.872.002 1.218 1.597 4.578 6.352 4.569 10.214z" fill="#648940"/></g></g><g><g><g><g><g><path d="m127.96 34.886c.135-.014.238-.125.241-.261.016-.722-.053-2.95-1.415-4.209s-3.589-1.152-4.307-1.08c-.135.014-.238.125-.241.261-.016.722.053 2.95 1.415 4.209 1.361 1.259 3.588 1.152 4.307 1.08z" fill="#91b56b"/></g></g></g></g><g><g><g><g><path d="m128.017 34.886c-.135-.014-.238-.126-.24-.262-.013-.722.066-2.95 1.434-4.203s3.594-1.136 4.312-1.06c.135.014.238.126.24.262.013.722-.066 2.95-1.434 4.203s-3.594 1.136-4.312 1.06z" fill="#91b56b"/></g></g></g></g></g></g></g></g></svg>