<svg id="Capa_1" enable-background="new 0 0 512 512" height="512" viewBox="0 0 512 512" width="512" xmlns="http://www.w3.org/2000/svg"><g><path d="m214.47 192.287c36.375-9.373 50.652-54.304 27.839-90.112 0 0-23.841-50.177-81.49-58.276h-2c-1.348.77-2.479 1.906-3.188 3.357-31.146 63.698 11.659 115.452 11.659 115.452 9.616 15.094 24.511 26.311 42.765 30.141 1.489.001 2.974-.191 4.415-.562z" fill="#5de1c4"/><path d="m262.31 102.174s-28.815-60.667-99.708-59.359c-1.373.025-2.676.416-3.819 1.078 57.675 8.083 81.527 58.281 81.527 58.281 23.39 36.716 7.768 82.733-30.255 90.675 13.35 2.665 27.14.633 38.871-6.841 26.239-16.715 32.231-54.249 13.384-83.834z" fill="#0ed2b3"/><g><path d="m251.445 198.074c-2.553 0-5.051-1.264-6.524-3.576l-51.444-80.752c-2.292-3.599-1.234-8.375 2.365-10.668 3.6-2.293 8.375-1.234 10.668 2.365l51.444 80.752c2.293 3.599 1.234 8.375-2.365 10.668-1.287.82-2.724 1.211-4.144 1.211z" fill="#0ab69f"/></g><path d="m93.912 222.485c-40.768 10.078-71.57 33.574-92.312 67.498-2.133 3.488-2.133 7.857 0 11.345 27.369 44.762 70.776 68.674 122.522 71.948l39.705-10.061v-140.73z" fill="#5de1c4"/><path d="m124.121 373.276c12.088.652 19.737-.296 19.737-.296 48.151 0 87.185-34.62 87.185-77.325s-39.034-77.325-87.185-77.325c0 0-21.763-2.703-49.947 4.154 12.697 31.546 34.726 70.752 69.914 89.109-19.709 15.543-32.029 38.29-39.704 61.683z" fill="#0ed2b3"/><g><path d="m231.044 303.382h-127.578c-4.267 0-7.726-3.459-7.726-7.726s3.459-7.726 7.726-7.726h127.578c4.267 0 7.726 3.459 7.726 7.726s-3.459 7.726-7.726 7.726z" fill="#0ab69f"/></g><path d="m144.65 468.709c58.661-3.303 183.714-26.579 139.722-168.036l-1.783-5.778c-11.965-2.42-22.952-3.485-33.046-3.396-106.915-.719-115.153 126.95-115.161 166.142-.001 5.226 3.455 9.632 8.208 11.068z" fill="#eaf6ff"/><path d="m302.916 300.672c-7.819-2.432-15.275-4.345-22.388-5.783l1.784 5.783c43.992 141.457-81.061 164.733-139.722 168.036 1.063.321 2.189.497 3.358.497 44.91-.009 206.018-10.811 156.968-168.533z" fill="#d8ecfe"/><g><path d="m287.54 295.039-10.31-5.722c-60.452-35.614-71.161-79.652-62.147-119.774-12.775-3.989-26.234-5.963-39.495-6.6-26.217 1.178-49.646 6.441-62.684 9.932-6.177 1.654-9.834 7.988-8.178 14.165 8.715 32.497 40.16 126.415 114.104 134.405 20.117-2.056 42.92-10.118 68.71-26.406z" fill="#eaf6ff"/></g><path d="m287.54 295.039c-25.791 16.289-48.593 24.35-68.71 26.405 24.759 2.676 54.282-4.28 89.314-26.405.397-9.98.177-19.227-.571-27.819.003-.003.006-.005.008-.007-4.906-56.383-34.096-92.847-91.392-102.217 0 .001-.001.002-.001.004-13.596-2.206-27.448-2.648-40.599-2.057 13.26.638 26.72 2.612 39.495 6.6-9.014 40.121 1.694 84.16 62.147 119.774z" fill="#d8ecfe"/><path d="m458.961 468.709c4.753-1.436 8.209-5.842 8.207-11.068-.008-37.809-7.669-157.965-104.197-165.757-1.065.08-2.154.191-3.238.295-.977-.104-1.948-.215-2.943-.295-13.152.983-27.681 3.797-43.733 8.789-43.992 141.457 81.061 164.733 139.722 168.036z" fill="#eaf6ff"/><path d="m356.791 291.883c96.528 7.792 104.189 127.948 104.197 165.757.001 5.226-3.455 9.632-8.208 11.068 6.745.38 12.615.496 17.246.497 6.395.001 11.567-5.171 11.565-11.565-.008-40.34-8.725-174.428-124.8-165.757z" fill="#d8ecfe"/><path d="m308.184 295.039c14.861 9.386 27.269 15.221 39.667 19.701 91.957 13.097 129.389-97.947 139.025-133.882 1.387-5.17-.959-10.441-5.381-12.994-107.697-20.444-177.673 17.374-173.311 127.175z" fill="#eaf6ff"/><path d="m378.983 317.729c44.192-10.782 80.038-42.305 96.619-84.086l18.171-45.788c2.211-5.571.18-11.928-4.852-15.185l-7.425-4.806c-107.699-20.444-177.675 17.374-173.312 127.175 14.861 9.386 27.269 15.221 39.667 19.701 14.204 2.993 28.472 3.441 31.132 2.989z" fill="#eaf6ff"/><path d="m503.424 172.875c-5.595-1.498-13.106-3.322-21.927-5.01 4.422 2.553 6.767 7.824 5.381 12.994-9.637 35.935-47.068 146.979-139.025 133.882 110.097 38.756 153.291-88.702 163.75-127.701 1.655-6.177-2.002-12.512-8.179-14.165z" fill="#d8ecfe"/><path d="m301.954 289.317c127.887-75.341 33.178-188.39 0-222.283h-4.121c-33.178 33.893-127.887 146.942 0 222.283z" fill="#eaf6ff"/><path d="m316.313 64.886c-4.521-4.522-11.835-4.522-16.356 0-1.28 1.281-2.683 2.71-4.184 4.273 34.622 36.07 122.29 145.106 0 218.928 3.906 2.358 8.019 4.681 12.362 6.963 146.211-76.842 39.929-198.401 8.178-230.164z" fill="#d8ecfe"/><circle cx="308.342" cy="295.05" fill="#ffe177" r="32.428"/><g><path d="m308.342 335.205c-22.141 0-40.155-18.013-40.155-40.155 0-22.141 18.014-40.155 40.155-40.155s40.155 18.013 40.155 40.155c-.001 22.142-18.014 40.155-40.155 40.155zm0-64.857c-13.621 0-24.702 11.081-24.702 24.702s11.081 24.702 24.702 24.702 24.702-11.081 24.702-24.702-11.082-24.702-24.702-24.702z" fill="#fff0ad"/></g></g></svg>