<svg id="Layer_1" enable-background="new 0 0 464.001 464.001" height="512" viewBox="0 0 464.001 464.001" width="512" xmlns="http://www.w3.org/2000/svg"><g><path d="m378.579 464h-63.71c8-72.84-42.67-153.84-42.67-153.84s-4.03-4.93-9.08-11.59c-13.45-17.72-34.17-47.68-5.71-29.67h.01c5 3.16 11.51 7.81 19.85 14.26 16.77 12.97 31.15 29.41 43.37 47.06 41.46 59.9 57.94 133.78 57.94 133.78z" fill="#b4ffc6"/><path d="m314.869 464c8-72.84-42.67-153.84-42.67-153.84s-4.03-4.93-9.08-11.59c-3.47-18.01-5.71-29.67-5.71-29.67h.01c5 3.16 11.51 7.81 19.85 14.26 16.77 12.97 31.15 29.41 43.37 47.06-12.35-3.11-21.45 2.34-3.64 40.11 13.01 27.59 18.71 61.99 20.82 93.67z" fill="#79e9b3"/><path d="m419.519 264.2c-38.08.71-70.8-2.38-95.01-5.92-9.63-1.41-17.91-2.88-24.64-4.22 0 .01.01.02.01.03 5.62 19.89 6.07 43.65-10.24 65.02-37.05 48.49 5.82 81.29-15.7 89.85-21.51 8.56-133.92 3.56-130.45-107.04.38-12 2.06-22.63 4.77-32.04-9.61 6.12-18.89 11.49-27.79 16.14-3.57 1.87-7.08 3.62-10.52 5.26-99.98 47.68-146.9 1.86-75.74-68.02 20.04-19.68 40.67-30.46 60.5-35.43 0 0-.01 0-.01-.01-5.53-4.17-12.14-8.71-19.82-13.23-12.79-7.52-28.54-15-47.14-20.64-56.4-17.13 2.42-97.41 123.52-52.28-10.16-61.47 1.09-125.49 59.55-92.85 32.45 18.13 50.45 40.76 60.37 61.14 4.54 9.29 7.39 18.11 9.18 25.82 65.24-90.71 191.79-52.73 138.64-15.16-23.53 16.64-40.32 33.92-52.02 48.72-5.38 6.81-9.68 13.09-13.07 18.54 19.64-.16 40.23 7.92 57.91 24.01 40 36.41 90.26 90.77 7.7 92.31z" fill="#ffc4df"/><g fill="#ffa4d5"><path d="m59.02 122.657c78.97 7.685 127.892 69.53 127.892 69.53v-15.187c-54.088-75-127.892-54.343-127.892-54.343z"/><path d="m171.969 193.46c-21.25-7.81-48.41-12.87-77.26-5.64h-.01c-5.53-4.17-12.14-8.71-19.82-13.23 65.83-18.29 97.09 18.87 97.09 18.87z"/><path d="m366.979 129.34c-5.38 6.81-9.68 13.09-13.07 18.54-24.79.2-48.06 13.53-62.08 40.42 0 0 1.03-56.73 75.15-58.96z"/><path d="m280.359 95.78c-7.79 10.82-14.7 23.46-20.32 38.17 0 0-2.37-30.33 11.14-63.99 4.54 9.29 7.39 18.11 9.18 25.82z"/><path d="m299.869 254.06c0 .01.01.02.01.03-.01-.02-.02-.03-.02-.03-3.72-13.18-9.71-24.66-14.58-32.63-4.34-7.08-7.79-11.39-8-11.65.43.13 25.98 8.41 47.23 48.5-9.63-1.41-17.91-2.88-24.64-4.22z"/><path d="m261.459 197.16s-5.21-.27-13.44.39c-5.25.42-11.73 1.21-18.87 2.69-5.89 1.21-12.24 2.89-18.72 5.22-2.5.9-5.01 1.89-7.53 2.98-3.21 1.4-6.42 2.96-9.59 4.72-19.06 10.54-36.81 27.97-45.05 56.72-9.61 6.12-18.89 11.49-27.79 16.14 9.72-24.02 23.82-51.76 37.52-65.69 43.92-44.66 103.47-23.17 103.47-23.17z"/></g><path d="m248.018 197.55c-5.25.42-11.73 1.21-18.87 2.69-1.6-68.24-12.65-127.06-12.65-127.06l4.61-14.1c21.13 58.1 25.88 113.34 26.91 138.47z" fill="#fae26b"/><path d="m210.428 205.46c-2.5.9-5.01 1.89-7.53 2.98-3.21 1.4-6.42 2.96-9.59 4.72-15.49-58.38-53.48-122.29-53.48-122.29v-10.31c42.14 39.09 64.71 105.59 70.6 124.9z" fill="#fae26b"/><path d="m234.855 85.457s-5.78-45.023-27.681-61.817.103 49.646 5.658 65.998c5.556 16.352 23.708 15.503 22.023-4.181z" fill="#edd15a"/><path d="m168.331 104.741s-17.488-41.888-43.052-52.288 13.236 47.849 22.92 62.148c9.685 14.299 26.966 8.677 20.132-9.86z" fill="#edd15a"/><path d="m248.199 197.534s-66.622 61.533-47.649 144.606c0 0 7.259-79.052 60.908-144.98l-10.793-1.493z" fill="#ffa4d5"/><path d="m285.275 221.429c19.194-10.297 83.278-38.88 138.854 3.282 0 0-69.84-27.71-123.235 4.79z" fill="#ffa4d5"/><path d="m283.25 168.816s22.424-67.374 93.702-96.248c0 0-63.451 54.064-93.702 96.248z" fill="#ffa4d5"/><path d="m174.118 226.96c-15.27-3.39-56.84-7.09-115.1 31.08 0 0 54.505-21.039 92.243-21.039z" fill="#ffa4d5"/></g></svg>