<svg id="Layer_1" height="512" viewBox="0 0 512 512" width="512" xmlns="http://www.w3.org/2000/svg" data-name="Layer 1"><path d="m492.27 348.8a4.444 4.444 0 0 1 2.37 7.58c-10.39 10.14-97.34 68.91-148.45 32.1 37.92-32.13 50.57-.02 67.37-41.41 2.28-5.64.25-11.95-5.73-13.07-10.63-1.98-25.87-6.67-31.78-17.59a28.87 28.87 0 0 0 -6.39-7.68c.39-.52 4.07-5.41 9.63-11.6l.02.02s50.08-11.67 80.7 27.28c13.77 17.52 22.25 22.72 32.26 24.37z" fill="#f5dac5"/><path d="m445.49 172.07c11.78-10.7 29.7-11.56 40.67-10.88a3.619 3.619 0 0 1 1.95 6.5c-9 6.74-23.38 19.18-29.16 33.38-7.86 19.3-16.38 52.63-37.59 65.5 10.69-20.11 6.53-29.11 12.97-72.3 1.51-10.1 5.67-17.22 11.16-22.2z" fill="#e0c4b1"/><path d="m445.49 172.07c-5.49 4.98-9.65 12.1-11.16 22.2 0 0-26.5 23.24-57.65 63.16-35.2 45.12-83.09 33.37-83.95 33.15a39.972 39.972 0 0 0 4.32-18.98c34.86-33.19 20.12-38.01 62.08-78.3a99.319 99.319 0 0 1 19.71-14.86c34.65-19.69 65.91-6.69 66.65-6.37z" fill="#f9f9f9"/><path d="m434.33 194.27c-6.44 43.19-2.28 52.19-12.97 72.3v.01a35.7 35.7 0 0 1 -7.18 3.37c-12.62 4.29-26.11 17.38-34.89 27.18-5.56 6.19-9.24 11.08-9.63 11.6-11.42-10.01-31.2-15.28-35.3.91-.71 2.8-1.63 7.36-2.87 12.88 0 0-32.09 5.75-57.42-14.72 6.76-3.26 14.14-8.58 18.66-17.22.86.22 48.75 11.97 83.95-33.15 31.15-39.92 57.65-63.16 57.65-63.16z" fill="#f5dac5"/><path d="m300.21 396.74c-7.21-2.76-14.44-7.65-21.24-15.39 10.24 8.96 23.83 3.34 34.51-11.41 9.53-13.16 14.85-33.38 18.01-47.42 1.24-5.52 2.16-10.08 2.87-12.88 4.1-16.19 23.88-10.92 35.3-.91a28.87 28.87 0 0 1 6.39 7.68c5.91 10.92 21.15 15.61 31.78 17.59 5.98 1.12 8.01 7.43 5.73 13.07-16.8 41.39-29.45 9.28-67.37 41.41-10.38 8.79-28.08 15.13-45.98 8.26z" fill="#e0c4b1"/><path d="m364.1 54.04c37.1 74.42 14.74 124.4 14.74 124.4a99.319 99.319 0 0 0 -19.71 14.86c-41.96 40.29-27.22 45.11-62.08 78.3a67.56 67.56 0 0 0 -2.71-17.9c-.06-1.29-1.07-31.82 24.21-88.33a1056.92 1056.92 0 0 0 42.89-114.12l.01-.02a7.09 7.09 0 0 1 2.65 2.81z" fill="#f5dac5"/><path d="m361.45 51.23-.01.02a1056.92 1056.92 0 0 1 -42.89 114.12c-25.28 56.51-24.27 87.04-24.21 88.33-3.24-11.64-9.64-25.54-20.41-42.16 1.12-1.97 2.31-3.95 3.56-5.92 0 0 27.98-38.37 3.35-86.99 14.02-25.55 44.28-16.2 72.89-66.41 1.53-2.68 5.07-2.63 7.72-.99z" fill="#f9f9f9"/><path d="m331.49 322.52c-3.16 14.04-8.48 34.26-18.01 47.42-10.68 14.75-24.27 20.37-34.51 11.41-9.75-8.53-16.47-30.27-14.73-69.94a58.108 58.108 0 0 0 9.83-3.61c25.33 20.47 57.42 14.72 57.42 14.72z" fill="#f9f9f9"/><path d="m294.34 253.7a67.56 67.56 0 0 1 2.71 17.9 39.972 39.972 0 0 1 -4.32 18.98c-4.52 8.64-11.9 13.96-18.66 17.22a58.108 58.108 0 0 1 -9.83 3.61 44.917 44.917 0 0 1 -5.95 1.23s-.52-2-1.12-5.61c-2.43-14.51-6.24-54.99 16.76-95.49 10.77 16.62 17.17 30.52 20.41 42.16zm-11.97 21.65a.243.243 0 0 0 -.23-.25.24.24 0 1 0 -.02.48.237.237 0 0 0 .25-.23zm-1.04-36.69a.251.251 0 0 0 -.23-.25.244.244 0 0 0 -.25.23.237.237 0 0 0 .23.25.243.243 0 0 0 .25-.23zm-9.13 21.02a.226.226 0 0 0 -.23-.25.221.221 0 0 0 -.24.22.235.235 0 1 0 .47.03zm-2.46 34.29a.244.244 0 0 0 -.23-.25.231.231 0 0 0 -.25.23.237.237 0 0 0 .23.25.251.251 0 0 0 .25-.23z" fill="#f9df4a"/><path d="m300.21 396.74c-.69 3.05-10.84 42.92-71.97 54.98-15.89 3.14-27.13 6.52-35.06 9.85.71-.59 23.63-19.94 33.46-75.17 6.01-33.76 37.6-74.99 37.6-74.99-1.74 39.67 4.98 61.41 14.73 69.94 6.8 7.74 14.03 12.63 21.24 15.39z" fill="#f5dac5"/><path d="m273.93 211.54c-23 40.5-19.19 80.98-16.76 95.49 0 0-42.3-60.58-34.88-139.04 4.91-51.91-.39-110.17-.39-110.17 31.22 20.71 49.2 41.57 58.94 60.81 24.63 48.62-3.35 86.99-3.35 86.99-1.25 1.97-2.44 3.95-3.56 5.92z" fill="#f5dac5"/><path d="m258.29 312.64a44.917 44.917 0 0 0 5.95-1.23s-31.59 41.23-37.6 74.99c-9.83 55.23-32.75 74.58-33.46 75.17a.031.031 0 0 1 -.02.01 4.379 4.379 0 0 1 -5.81-2.58c-2.35-6.5-8.51-19.22-23.87-34.14-22.08-21.45-9.42-55.29-9.12-56.06 25.19 14.74 47.66-8.64 47.66-8.64 13.31.6 12.43-22.66 32.02-29.92 17.25-6.4 24.25-17.6 24.25-17.6z" fill="#f9f9f9"/><path d="m257.17 307.03c.6 3.61 1.12 5.61 1.12 5.61a152.151 152.151 0 0 1 -42.7-43.54c-52.01-81.21-9.01-192.15.22-209.72a4.235 4.235 0 0 1 6.09-1.56s5.3 58.26.39 110.17c-7.42 78.46 34.88 139.04 34.88 139.04z" fill="#f9f9f9"/><path d="m258.29 312.64s-7 11.2-24.25 17.6c-19.59 7.26-18.71 30.52-32.02 29.92-51.68-2.34-56.67-62.05-56.67-62.05l.02-.07a121.833 121.833 0 0 0 26.88 5.3c2.66.23 6.64.62 11.46 1.11 25.55 2.62 74.58 8.19 74.58 8.19z" fill="#e0c0aa"/><path d="m215.58 269.11.01-.01a152.151 152.151 0 0 0 42.7 43.54s-49.03-5.57-74.58-8.19c0 0-40.24-8.94-62.73-57.87-16.75-36.43-43.73-66.81-78.46-74.11 5.73-2.51 12.81-5.84 21.5-10.28 44.92-22.93 91.39 15.88 107.14 47.74 15.5 31.36 43.55 58.34 44.42 59.18z" fill="#f5dac5"/><path d="m154.36 368.8a49.182 49.182 0 0 1 -10.11-8.01 86.579 86.579 0 0 1 -13.31-18.17c-1.23-2.17-7.37-11.82-27.93-26.85-11.17-8.17-14.18-18.01-13.86-26.74.45-12.39 7.57-22.54 7.57-22.54a110.894 110.894 0 0 0 48.65 31.55l-.02.07s4.99 59.71 56.67 62.05c0 0-22.47 23.38-47.66 8.64z" fill="#f4d2ba"/><path d="m183.71 304.45c-4.82-.49-8.8-.88-11.46-1.11a121.833 121.833 0 0 1 -26.88-5.3 110.894 110.894 0 0 1 -48.65-31.55 130.636 130.636 0 0 1 -27.36-47.33c-10.31-34.28-38.09-35.7-47.19-38.48a.48.48 0 0 1 .04-.93c2.88-.6 8.96-2.32 20.3-7.28h.01c34.73 7.3 61.71 37.68 78.46 74.11 22.49 48.93 62.73 57.87 62.73 57.87z" fill="#f9f9f9"/><path d="m130.94 342.62a86.579 86.579 0 0 0 13.31 18.17c-.39.19-21.85 10.27-67.77-4.13-30.72-9.64-47.63 2.63-55.54 12a2.788 2.788 0 0 1 -4.92-2.07c2.94-27.7 10.78-92.98 73.13-77.56-.32 8.73 2.69 18.57 13.86 26.74 20.56 15.03 26.7 24.68 27.93 26.85z" fill="#f5dac5"/><g fill="#dbd7d5"><path d="m222.02 360.16c12.4.559 12.492-19.584 28.284-28.212 7.564-12.22 13.936-20.538 13.936-20.538a44.917 44.917 0 0 1 -5.95 1.23s-7 11.2-24.25 17.6c-19.59 7.26-18.71 30.52-32.02 29.92a50.955 50.955 0 0 1 -20.12 11.991c21.966 6.879 40.12-11.991 40.12-11.991z"/><path d="m183.48 424.86c-17.213-16.722-13.314-40.97-10.616-51.214a33.771 33.771 0 0 1 -18.5-4.846c-.3.77-12.96 34.61 9.12 56.06 15.356 14.92 21.516 27.64 23.866 34.14a4.379 4.379 0 0 0 5.81 2.58.031.031 0 0 0 .02-.01c.3-.246 4.457-3.77 9.916-11.778-3.704-6.7-9.759-15.357-19.616-24.932z"/><path d="m241.2 277.229q-2.971-4.01-5.614-8.129c-38.3-59.8-25.077-135.725-11.759-178.613-.727-19.448-1.927-32.667-1.927-32.667a4.235 4.235 0 0 0 -6.09 1.56c-9.23 17.57-52.23 128.51-.22 209.72a152.151 152.151 0 0 0 42.7 43.54s-.52-2-1.12-5.61c0 0-7.708-11.045-15.97-29.801z"/><path d="m165.37 298.04a110.894 110.894 0 0 1 -48.65-31.55 130.636 130.636 0 0 1 -27.36-47.33c-10.31-34.28-38.09-35.7-47.19-38.48a.48.48 0 0 1 .04-.93 93.128 93.128 0 0 0 12.006-4.082 106.155 106.155 0 0 0 -11.696-3.668h-.01c-11.34 5-17.42 6.915-20.3 7.515a.559.559 0 0 0 -.04 1.047c9.1 2.78 36.88 4.259 47.19 38.539a130.69 130.69 0 0 0 27.36 47.36 110.913 110.913 0 0 0 48.65 31.564 121.825 121.825 0 0 0 26.88 5.308c2.66.23 6.64.623 11.46 1.113a64.5 64.5 0 0 1 -12.5-4.71q-2.983-.786-5.84-1.696z"/></g><path d="m81.924 287.571c-55.735-8.771-63.082 52.429-65.904 79.019a2.788 2.788 0 0 0 4.92 2.07 43.1 43.1 0 0 1 16.24-12c3.286-24.884 11.91-62.912 44.744-69.089z" fill="#ccb29f"/><path d="m269.5 299.2c-.079 0-.159 0-.238-.006a5.19 5.19 0 1 1 .238.006z" fill="#d3b939"/><path d="m282.139 280.581c-.079 0-.159 0-.239 0a5.256 5.256 0 0 1 -5-5.467 5.24 5.24 0 1 1 5.241 5.473z" fill="#d3b939"/><path d="m271.97 264.9c-.079 0-.16 0-.239 0a5.24 5.24 0 0 1 -5-5.493 5.238 5.238 0 0 1 5.465-4.975 5.239 5.239 0 0 1 -.226 10.473z" fill="#d3b939"/><path d="m281.093 243.892c-.079 0-.159 0-.238-.006a5.239 5.239 0 0 1 .464-10.468 5.24 5.24 0 0 1 -.226 10.474z" fill="#d3b939"/></svg>