<svg id="Capa_1" enable-background="new 0 0 512 512" height="512" viewBox="0 0 512 512" width="512" xmlns="http://www.w3.org/2000/svg"><g><path d="m294.288 9.036-7.569 11.083c-3.688 5.401-11.655 5.401-15.343 0l-7.527-11.185c-3.688-5.401-11.655-5.401-15.343 0l-7.738 11.331c-3.688 5.401-11.655 5.401-15.343 0l-8.649-12.217c-2.762-4.044-8.179-5.239-12.404-2.763-11.423 6.694-18.267 15.353-24.246 33.413-.784 2.368-4.538 7.399-4.538 7.399-.892 3.602-1.63 7.396-2.195 11.379 0 0-4.556 4.384-4.757 6.622-.807 8.985-1.152 20.337-.106 31.068 8.4 86.169 87.47 160.834 87.47 160.834s77.108-78.865 83.092-162.399c1.334-18.621-.056-34.608-3.409-47.944-.398-1.583-2.033-3.159-2.485-4.668-5.786-19.305-14.719-27.714-26.47-34.696-4.224-2.509-9.67-1.313-12.44 2.743z" fill="#e3b9f9"/><path d="m335.683 45.658c-5.336-5.645-11.372-10.055-17.821-13.197-5.141-2.514-11.775-1.319-15.154 2.74l-9.22 11.085c-4.492 5.398-14.196 5.398-18.688 0l-9.416-11.332c-4.502-5.398-14.196-5.398-18.688 0l-9.426 11.332c-4.492 5.398-14.196 5.398-18.688 0l-9.241-11.095c-3.358-4.049-9.962-5.244-15.102-2.771-6.706 3.235-13.059 7.795-18.653 13.677 5.481-22.108 16.747-37.011 29.676-44.583 4.224-2.472 9.642-1.277 12.403 2.771l5.687 8.323.911 3.681c2.928 4.286 9.889 5.817 13.573 1.739 1.048-.654 1.99-1.536 2.75-2.648l7.737-11.332c3.688-5.398 11.662-5.398 15.35 0l7.737 11.332c.671.981 1.485 1.78 2.387 2.405 4.403 3.93 10.715 3.649 13.732-.768l1.043-4.305 5.749-8.416c2.771-4.059 8.211-5.254 12.434-2.74 12.673 7.53 23.438 22.252 28.928 44.102z" fill="#d09df3"/><g><path d="m241.258 185.834-14.196-50.407c-9.662-34.312-7.816-70.838 5.067-103.908-5.219-.947-9.651-4.797-13.297-8.401-15.099 36.915-17.485 77.99-6.636 116.501l14.186 50.396c.958 3.41 4.059 5.635 7.438 5.635.69 0 1.401-.093 2.091-.288 4.111-1.152 6.501-5.428 5.347-9.528z" fill="#d09df3"/></g><g><path d="m292.558 21.172c-4.307 3.247-8.568 6.477-13.103 8.817 9.703 24.175 13.55 50.43 11.097 76.419-.01.041-.01.082-.01.113l-3.224 40.208c-.34 4.255 2.833 7.984 7.088 8.324.206.01.422.021.628.021 3.987 0 7.366-3.06 7.685-7.108l3.224-40.157c2.775-29.525-1.848-59.358-13.385-86.637z" fill="#d09df3"/></g><g fill="#bd80e1"><path d="m237.838 18.029-1.855 4.367c-.021.072-.052.134-.083.206-4.11 8.942-7.376 18.183-9.797 27.609-2.915-.381-5.656-1.69-7.52-3.925l-5.573-6.696c2.38-7.943 5.305-15.741 8.798-23.344l1.546-3.637 1.895 2.772c2.926 4.285 8.551 5.172 12.589 2.648z"/><path d="m299.154 39.477-5.666 6.809c-1.834 2.205-4.543 3.503-7.397 3.904-2.411-9.385-5.656-18.564-9.715-27.423l-2.578-4.982c4.059 2.823 9.934 2.015 12.952-2.405l1.823-2.668 1.618 3.111c.052.103.103.216.155.319 3.482 7.583 6.429 15.382 8.808 23.335z"/></g><path d="m457.703 108.444-13.189 2.485c-6.427 1.211-12.06-4.422-10.849-10.849l2.587-13.232c1.211-6.427-4.422-12.06-10.849-10.849l-13.484 2.541c-6.427 1.211-12.06-4.422-10.849-10.849l2.523-14.754c.907-4.812-2.079-9.488-6.817-10.725-12.81-3.344-23.773-2.061-40.771 6.482-2.229 1.12-8.44 2.023-8.44 2.023-11.697 7.053-23.741 17.414-35.486 31.696-54.992 66.87-56.079 173.587-56.079 173.587s110.289-1.242 173.588-56.078c14.11-12.223 24.432-24.511 31.491-36.312.838-1.401.796-3.672 1.543-5.058 9.559-17.742 9.189-30.004 5.817-43.251-1.212-4.761-5.908-7.767-10.736-6.857z" fill="#d09df3"/><path d="m461.079 163.61c.219-7.765-.931-15.151-3.27-21.933-1.858-5.412-7.394-9.259-12.653-8.778l-14.358 1.318c-6.993.641-13.855-6.221-13.214-13.214l1.355-14.671c.634-7-6.221-13.855-13.214-13.214l-14.678 1.348c-6.993.641-13.855-6.221-13.214-13.214l1.311-14.38c.488-5.238-3.336-10.752-8.72-12.639-7.03-2.455-14.746-3.722-22.861-3.518 19.508-11.757 38.013-14.329 52.509-10.541 4.735 1.238 7.722 5.915 6.811 10.73l-1.864 9.907-1.958 3.247c-.96 5.101 2.88 11.106 8.368 10.827 1.204.279 2.493.321 3.817.072l13.484-2.542c6.425-1.209 12.063 4.429 10.854 10.854l-2.542 13.484c-.22 1.168-.208 2.309-.012 3.388.334 5.892 4.996 10.156 10.253 9.167l3.782-2.306 10.016-1.886c4.83-.911 9.521 2.091 10.73 6.855 3.634 14.285.836 32.306-10.732 51.639z" fill="#bd80e1"/><g><g><path d="m295.19 195.961 25.605-45.681c17.43-31.094 44.563-55.617 77.057-69.891-3.021-4.36-3.433-10.217-3.462-15.342-36.779 15.427-67.511 42.783-87.071 77.687l-25.605 45.666c-1.734 3.089-1.115 6.855 1.275 9.244.488.488 1.056.925 1.683 1.275 3.722 2.09 8.435.757 10.518-2.958z" fill="#bd80e1"/></g><g><path d="m447.899 115.802c-5.342-.749-10.639-1.479-15.499-3.031-10.234 23.956-26.078 45.24-46.19 61.883-.036.022-.066.051-.087.073l-30.711 26.151c-3.249 2.768-3.642 7.649-.874 10.898.138.153.284.313.43.459 2.819 2.819 7.372 3.045 10.46.408l30.675-26.115c22.838-18.915 40.664-43.279 51.796-70.726z" fill="#bd80e1"/></g></g><g fill="#a06ed6"><path d="m411.429 74.887-4.4 1.776c-.066.036-.131.058-.204.087-9.229 3.416-18.073 7.641-26.45 12.595-1.792-2.331-2.805-5.194-2.542-8.093l.794-8.676c7.299-3.934 14.882-7.379 22.728-10.286l3.665-1.479-.62 3.3c-.962 5.1 2.388 9.705 7.029 10.776z"/><path d="m439.62 133.41-8.822.809c-2.856.262-5.689-.736-7.991-2.469 4.932-8.341 9.127-17.126 12.522-26.26l1.699-5.346c.874 4.866 5.6 8.449 10.859 7.458l3.176-.598-1.056 3.344c-.036.109-.08.226-.116.335-2.899 7.822-6.33 15.42-10.271 22.727z"/></g><path d="m502.964 294.288-11.083-7.569c-5.401-3.688-5.401-11.655 0-15.343l11.185-7.527c5.401-3.688 5.401-11.655 0-15.343l-11.331-7.738c-5.401-3.688-5.401-11.655 0-15.343l12.217-8.649c4.044-2.762 5.239-8.179 2.763-12.404-6.694-11.423-15.353-18.267-33.413-24.246-2.368-.784-7.399-4.538-7.399-4.538-13.258-3.284-29.101-4.474-47.504-2.68-86.17 8.4-162.399 83.092-162.399 83.092s78.865 77.108 162.399 83.092c18.621 1.334 34.608-.056 47.944-3.409 1.583-.398 3.159-2.033 4.668-2.485 19.305-5.786 27.714-14.719 34.696-26.47 2.509-4.224 1.313-9.67-2.743-12.44z" fill="#e3b9f9"/><path d="m466.342 335.683c5.645-5.336 10.055-11.372 13.197-17.821 2.514-5.141 1.319-11.775-2.74-15.154l-11.085-9.22c-5.398-4.492-5.398-14.196 0-18.688l11.332-9.416c5.398-4.502 5.398-14.196 0-18.688l-11.332-9.426c-5.398-4.492-5.398-14.196 0-18.688l11.095-9.241c4.049-3.358 5.244-9.962 2.771-15.102-3.235-6.706-7.795-13.059-13.677-18.653 22.108 5.481 37.011 16.747 44.583 29.676 2.472 4.224 1.277 9.642-2.771 12.403l-8.323 5.687-3.681.911c-4.286 2.928-5.817 9.889-1.739 13.573.654 1.048 1.536 1.99 2.648 2.75l11.332 7.737c5.398 3.688 5.398 11.662 0 15.35l-11.332 7.737c-.981.671-1.78 1.485-2.405 2.387-3.93 4.403-3.649 10.715.768 13.732l4.305 1.043 8.416 5.749c4.059 2.771 5.254 8.211 2.74 12.434-7.53 12.673-22.252 23.438-44.102 28.928z" fill="#d09df3"/><g><path d="m326.166 241.258 50.407-14.196c34.312-9.662 70.838-7.816 103.908 5.067.947-5.219 4.797-9.651 8.401-13.297-36.915-15.099-77.99-17.485-116.501-6.636l-50.396 14.186c-3.41.958-5.635 4.059-5.635 7.438 0 .69.093 1.401.288 2.091 1.152 4.111 5.428 6.501 9.528 5.347z" fill="#d09df3"/></g><g><path d="m490.828 292.558c-3.247-4.307-6.477-8.568-8.817-13.103-24.175 9.703-50.43 13.55-76.419 11.097-.041-.01-.082-.01-.113-.01l-40.208-3.224c-4.255-.34-7.984 2.833-8.324 7.088-.01.206-.021.422-.021.628 0 3.987 3.06 7.366 7.108 7.685l40.156 3.224c29.526 2.775 59.359-1.848 86.638-13.385z" fill="#d09df3"/></g><g fill="#bd80e1"><path d="m493.971 237.838-4.367-1.855c-.072-.021-.134-.052-.206-.083-8.942-4.11-18.183-7.376-27.609-9.797.381-2.915 1.69-5.656 3.925-7.52l6.696-5.573c7.943 2.38 15.741 5.305 23.344 8.798l3.637 1.546-2.772 1.895c-4.285 2.926-5.172 8.551-2.648 12.589z"/><path d="m472.523 299.154-6.81-5.666c-2.205-1.834-3.503-4.543-3.904-7.397 9.385-2.411 18.564-5.656 27.423-9.715l4.982-2.578c-2.823 4.059-2.015 9.934 2.405 12.952l2.668 1.823-3.111 1.618c-.103.052-.216.103-.319.155-7.582 3.482-15.381 6.429-23.334 8.808z"/></g><path d="m403.556 457.703-2.485-13.189c-1.211-6.427 4.422-12.06 10.849-10.849l13.232 2.587c6.427 1.211 12.06-4.422 10.849-10.849l-2.541-13.484c-1.211-6.427 4.422-12.06 10.849-10.849l14.754 2.523c4.812.907 9.488-2.079 10.725-6.817 3.344-12.81 2.061-23.773-6.482-40.771-1.12-2.229-2.023-8.44-2.023-8.44-7.053-11.697-17.414-23.741-31.696-35.486-66.87-54.992-173.587-56.079-173.587-56.079s1.242 110.289 56.078 173.588c12.223 14.11 24.511 24.432 36.312 31.491 1.401.838 3.672.796 5.058 1.543 17.742 9.559 30.004 9.189 43.251 5.817 4.761-1.212 7.767-5.908 6.857-10.736z" fill="#d09df3"/><path d="m348.39 461.079c7.765.219 15.151-.931 21.933-3.27 5.412-1.858 9.259-7.394 8.778-12.653l-1.318-14.358c-.641-6.993 6.221-13.855 13.214-13.214l14.671 1.355c7 .634 13.855-6.221 13.214-13.214l-1.348-14.678c-.641-6.993 6.221-13.855 13.214-13.214l14.38 1.311c5.238.488 10.752-3.336 12.639-8.72 2.455-7.03 3.722-14.746 3.518-22.861 11.757 19.508 14.329 38.013 10.541 52.509-1.238 4.735-5.915 7.722-10.73 6.811l-9.907-1.864-3.247-1.958c-5.101-.96-11.106 2.88-10.827 8.368-.279 1.204-.321 2.493-.072 3.817l2.542 13.484c1.209 6.425-4.429 12.063-10.854 10.854l-13.484-2.542c-1.168-.22-2.309-.208-3.388-.012-5.892.334-10.156 4.996-9.167 10.253l2.306 3.782 1.886 10.016c.911 4.83-2.091 9.521-6.855 10.73-14.285 3.634-32.306.836-51.639-10.732z" fill="#bd80e1"/><g><g><path d="m316.039 295.19 45.681 25.605c31.094 17.43 55.617 44.563 69.891 77.057 4.36-3.021 10.216-3.433 15.342-3.462-15.427-36.779-42.783-67.511-77.687-87.071l-45.666-25.605c-3.089-1.734-6.855-1.115-9.244 1.275-.488.488-.925 1.056-1.275 1.683-2.09 3.722-.757 8.435 2.958 10.518z" fill="#bd80e1"/></g><g><path d="m396.198 447.899c.749-5.342 1.479-10.639 3.031-15.499-23.956-10.234-45.24-26.078-61.883-46.19-.022-.036-.051-.066-.073-.087l-26.151-30.711c-2.768-3.249-7.649-3.642-10.898-.874-.153.138-.313.284-.459.43-2.819 2.819-3.045 7.372-.408 10.46l26.115 30.675c18.915 22.838 43.279 40.664 70.726 51.796z" fill="#bd80e1"/></g></g><g fill="#a06ed6"><path d="m437.113 411.429-1.776-4.4c-.036-.066-.058-.131-.087-.204-3.416-9.229-7.641-18.073-12.595-26.45 2.331-1.792 5.194-2.805 8.093-2.542l8.676.794c3.934 7.299 7.379 14.882 10.286 22.728l1.479 3.665-3.3-.62c-5.1-.962-9.705 2.388-10.776 7.029z"/><path d="m378.591 439.62-.809-8.822c-.262-2.856.736-5.689 2.469-7.991 8.341 4.932 17.126 9.127 26.26 12.522l5.346 1.699c-4.866.874-8.449 5.6-7.458 10.859l.598 3.176-3.344-1.056c-.109-.036-.226-.08-.335-.116-7.823-2.899-15.421-6.33-22.727-10.271z"/></g><path d="m217.712 502.964 7.569-11.083c3.688-5.401 11.655-5.401 15.343 0l7.527 11.185c3.688 5.401 11.655 5.401 15.343 0l7.738-11.331c3.688-5.401 11.655-5.401 15.343 0l8.649 12.217c2.762 4.044 8.179 5.239 12.404 2.763 11.423-6.694 18.267-15.353 24.246-33.413.784-2.368 4.538-7.399 4.538-7.399 3.284-13.258 4.474-29.101 2.68-47.504-8.4-86.17-83.092-162.399-83.092-162.399s-77.108 78.865-83.092 162.399c-1.334 18.621.056 34.608 3.409 47.944.398 1.583 2.033 3.159 2.485 4.668 5.786 19.305 14.719 27.714 26.47 34.696 4.224 2.509 9.67 1.313 12.44-2.743z" fill="#e3b9f9"/><path d="m176.317 466.342c5.336 5.645 11.372 10.055 17.821 13.197 5.141 2.514 11.775 1.319 15.154-2.74l9.22-11.085c4.492-5.398 14.196-5.398 18.688 0l9.416 11.332c4.502 5.398 14.196 5.398 18.687 0l9.426-11.332c4.492-5.398 14.196-5.398 18.688 0l9.241 11.095c3.358 4.049 9.962 5.244 15.102 2.771 6.706-3.235 13.059-7.795 18.653-13.677-5.481 22.108-16.747 37.011-29.676 44.583-4.224 2.472-9.642 1.277-12.403-2.771l-5.687-8.323-.911-3.681c-2.928-4.286-9.889-5.817-13.573-1.739-1.048.654-1.99 1.536-2.75 2.648l-7.737 11.332c-3.688 5.398-11.662 5.398-15.35 0l-7.737-11.332c-.671-.981-1.485-1.78-2.387-2.405-4.403-3.93-10.715-3.649-13.732.768l-1.043 4.305-5.749 8.416c-2.771 4.059-8.211 5.254-12.434 2.74-12.672-7.53-23.437-22.252-28.927-44.102z" fill="#d09df3"/><g><path d="m270.742 326.166 14.196 50.407c9.662 34.312 7.816 70.838-5.067 103.908 5.219.947 9.651 4.797 13.297 8.401 15.099-36.915 17.485-77.99 6.636-116.501l-14.186-50.396c-.958-3.41-4.059-5.635-7.438-5.635-.69 0-1.401.093-2.091.288-4.111 1.152-6.501 5.428-5.347 9.528z" fill="#d09df3"/></g><g><path d="m219.442 490.828c4.307-3.247 8.568-6.477 13.103-8.817-9.703-24.175-13.55-50.43-11.097-76.419.01-.041.01-.082.01-.113l3.224-40.208c.34-4.255-2.833-7.984-7.088-8.324-.206-.01-.422-.021-.628-.021-3.987 0-7.366 3.06-7.685 7.108l-3.224 40.156c-2.775 29.526 1.848 59.359 13.385 86.638z" fill="#d09df3"/></g><g fill="#bd80e1"><path d="m274.162 493.971 1.855-4.367c.021-.072.052-.134.082-.206 4.11-8.942 7.376-18.183 9.797-27.609 2.915.381 5.656 1.69 7.52 3.925l5.573 6.696c-2.38 7.943-5.305 15.741-8.798 23.344l-1.546 3.637-1.895-2.772c-2.925-4.285-8.55-5.172-12.588-2.648z"/><path d="m212.846 472.523 5.666-6.81c1.834-2.205 4.543-3.503 7.397-3.904 2.411 9.385 5.656 18.564 9.715 27.423l2.578 4.982c-4.059-2.823-9.934-2.015-12.952 2.405l-1.823 2.668-1.618-3.111c-.052-.103-.103-.216-.155-.319-3.482-7.582-6.429-15.381-8.808-23.334z"/></g><path d="m54.297 403.556 13.189-2.485c6.427-1.211 12.06 4.422 10.849 10.849l-2.587 13.232c-1.211 6.427 4.422 12.06 10.849 10.849l13.484-2.541c6.427-1.211 12.06 4.422 10.849 10.849l-2.523 14.754c-.907 4.812 2.079 9.488 6.817 10.725 12.81 3.344 23.773 2.061 40.771-6.482 2.229-1.12 8.44-2.023 8.44-2.023 11.697-7.053 23.741-17.414 35.486-31.696 54.992-66.87 56.079-173.587 56.079-173.587s-110.289 1.242-173.588 56.078c-14.11 12.223-24.432 24.511-31.491 36.312-.838 1.401-.796 3.672-1.543 5.058-9.559 17.742-9.189 30.004-5.817 43.251 1.212 4.761 5.908 7.767 10.736 6.857z" fill="#d09df3"/><path d="m50.921 348.39c-.219 7.765.931 15.151 3.27 21.933 1.858 5.412 7.394 9.259 12.653 8.778l14.358-1.318c6.993-.641 13.855 6.221 13.214 13.214l-1.355 14.671c-.634 7 6.221 13.855 13.214 13.214l14.678-1.348c6.993-.641 13.855 6.221 13.214 13.214l-1.311 14.38c-.488 5.238 3.336 10.752 8.72 12.639 7.03 2.455 14.746 3.722 22.861 3.518-19.508 11.757-38.013 14.329-52.509 10.541-4.735-1.238-7.722-5.915-6.811-10.73l1.864-9.907 1.958-3.247c.96-5.101-2.88-11.106-8.368-10.827-1.204-.279-2.493-.321-3.817-.072l-13.484 2.542c-6.425 1.209-12.063-4.429-10.854-10.854l2.542-13.484c.22-1.168.208-2.309.012-3.388-.334-5.892-4.996-10.156-10.253-9.167l-3.782 2.306-10.016 1.886c-4.83.911-9.521-2.091-10.73-6.855-3.634-14.285-.836-32.306 10.732-51.639z" fill="#bd80e1"/><g><g><path d="m216.81 316.039-25.605 45.681c-17.43 31.094-44.563 55.617-77.057 69.891 3.02 4.36 3.433 10.216 3.462 15.342 36.779-15.427 67.511-42.783 87.071-77.687l25.605-45.666c1.734-3.089 1.115-6.855-1.275-9.244-.488-.488-1.056-.925-1.683-1.275-3.722-2.09-8.435-.757-10.518 2.958z" fill="#bd80e1"/></g><g><path d="m64.101 396.198c5.342.749 10.639 1.479 15.499 3.031 10.234-23.956 26.078-45.24 46.19-61.883.036-.022.066-.051.087-.073l30.711-26.151c3.249-2.768 3.642-7.649.874-10.898-.138-.153-.284-.313-.43-.459-2.819-2.819-7.372-3.045-10.46-.408l-30.675 26.115c-22.838 18.915-40.664 43.279-51.796 70.726z" fill="#bd80e1"/></g></g><g fill="#a06ed6"><path d="m100.571 437.113 4.4-1.776c.066-.036.131-.058.204-.087 9.229-3.416 18.073-7.641 26.45-12.595 1.792 2.331 2.805 5.194 2.542 8.093l-.794 8.676c-7.299 3.934-14.882 7.379-22.728 10.286l-3.665 1.479.62-3.3c.962-5.1-2.388-9.705-7.029-10.776z"/><path d="m72.38 378.591 8.821-.809c2.856-.262 5.689.736 7.991 2.469-4.932 8.341-9.127 17.126-12.522 26.26l-1.699 5.346c-.874-4.866-5.6-8.449-10.859-7.458l-3.176.598 1.056-3.344c.036-.109.08-.226.116-.335 2.9-7.823 6.331-15.421 10.272-22.727z"/></g><path d="m9.036 217.712 11.083 7.569c5.401 3.688 5.401 11.655 0 15.343l-11.185 7.527c-5.401 3.688-5.401 11.655 0 15.343l11.331 7.738c5.401 3.688 5.401 11.655 0 15.343l-12.217 8.649c-4.044 2.762-5.239 8.179-2.763 12.404 6.694 11.423 15.353 18.267 33.413 24.246 2.368.784 7.399 4.538 7.399 4.538 13.258 3.284 29.101 4.474 47.504 2.68 86.17-8.4 162.399-83.092 162.399-83.092s-78.865-77.108-162.399-83.092c-18.621-1.334-34.608.056-47.944 3.409-1.583.398-3.159 2.033-4.668 2.485-19.305 5.786-27.714 14.719-34.696 26.47-2.509 4.224-1.313 9.67 2.743 12.44z" fill="#e3b9f9"/><path d="m45.658 176.317c-5.645 5.336-10.055 11.372-13.197 17.821-2.514 5.141-1.319 11.775 2.74 15.154l11.085 9.22c5.398 4.492 5.398 14.196 0 18.688l-11.332 9.416c-5.398 4.502-5.398 14.196 0 18.687l11.332 9.426c5.398 4.492 5.398 14.196 0 18.688l-11.095 9.241c-4.049 3.358-5.244 9.962-2.771 15.102 3.235 6.706 7.795 13.059 13.677 18.653-22.108-5.481-37.011-16.747-44.583-29.676-2.472-4.224-1.277-9.642 2.771-12.403l8.323-5.687 3.681-.911c4.286-2.928 5.817-9.889 1.739-13.573-.654-1.048-1.536-1.99-2.648-2.75l-11.332-7.737c-5.398-3.688-5.398-11.662 0-15.35l11.332-7.737c.981-.671 1.78-1.485 2.405-2.387 3.93-4.403 3.649-10.715-.768-13.732l-4.305-1.043-8.416-5.749c-4.059-2.771-5.254-8.211-2.74-12.434 7.53-12.672 22.252-23.437 44.102-28.927z" fill="#d09df3"/><g><path d="m185.834 270.742-50.407 14.196c-34.312 9.662-70.838 7.816-103.908-5.067-.947 5.219-4.797 9.651-8.401 13.297 36.915 15.099 77.99 17.485 116.501 6.636l50.396-14.186c3.41-.958 5.635-4.059 5.635-7.438 0-.69-.093-1.401-.288-2.091-1.152-4.111-5.428-6.501-9.528-5.347z" fill="#d09df3"/></g><g><path d="m21.172 219.442c3.247 4.307 6.477 8.568 8.817 13.103 24.175-9.703 50.43-13.55 76.419-11.097.041.01.082.01.113.01l40.208 3.224c4.255.34 7.984-2.833 8.324-7.088.01-.206.021-.422.021-.628 0-3.987-3.06-7.366-7.108-7.685l-40.157-3.224c-29.525-2.775-59.358 1.848-86.637 13.385z" fill="#d09df3"/></g><g fill="#bd80e1"><path d="m18.029 274.162 4.367 1.855c.072.021.134.052.206.082 8.942 4.11 18.183 7.376 27.609 9.797-.381 2.915-1.69 5.656-3.925 7.52l-6.696 5.573c-7.943-2.38-15.741-5.305-23.344-8.798l-3.637-1.546 2.772-1.895c4.285-2.925 5.172-8.55 2.648-12.588z"/><path d="m39.477 212.846 6.809 5.666c2.205 1.834 3.503 4.543 3.904 7.397-9.385 2.411-18.564 5.656-27.423 9.715l-4.982 2.578c2.823-4.059 2.015-9.934-2.405-12.952l-2.668-1.823 3.111-1.618c.103-.052.216-.103.319-.155 7.583-3.482 15.382-6.429 23.335-8.808z"/></g><path d="m173.406 57.478c-3.296-2.435-6.564-4.618-9.798-6.553-1.404-.84-3.182-.994-4.571-1.742-17.738-9.556-29.51-10.301-42.754-6.93-4.761 1.212-7.766 5.908-6.857 10.735l2.634 13.477c1.211 6.427-4.422 12.06-10.849 10.849l-13.484-2.541c-6.427-1.211-12.06 4.422-10.849 10.849l.665 14.947c1.211 6.427-4.422 12.06-10.849 10.849l-13.21-2.489c-4.812-.907-9.488 2.079-10.725 6.817-3.35 12.832-2.69 21.725 5.891 38.755 1.109 2.2.721 7.699 2.066 9.93 7.053 11.697 17.414 23.744 31.696 35.488 66.871 54.994 173.588 56.081 173.588 56.081s-52.83-53.914-74.626-122.313c-1.682-5.279-7.828-14.109-9.102-19.543-1.187-5.063 1.705-11.888 1.705-11.888-.427-2.872-.787-5.757-1.069-8.654-1.307-13.406-1.019-25.444.498-36.124z" fill="#d09df3"/><path d="m163.608 50.925c-7.765-.219-15.149.927-21.93 3.266-5.412 1.858-9.259 7.394-8.778 12.653l1.318 14.358c.641 6.993-6.221 13.855-13.214 13.214l-14.671-1.355c-7-.634-13.855 6.221-13.214 13.214l1.348 14.678c.641 6.993-6.221 13.855-13.214 13.214l-14.38-1.311c-5.238-.488-10.752 3.336-12.639 8.72-2.455 7.03-3.722 14.743-3.518 22.858-11.757-19.508-14.329-38.01-10.541-52.506 1.238-4.735 5.915-7.722 10.73-6.811l9.907 1.864 3.247 1.958c5.101.96 11.106-2.88 10.827-8.368.279-1.204.321-2.493.072-3.817l-2.541-13.484c-1.209-6.425 4.429-12.063 10.854-10.854l13.484 2.542c1.168.22 2.309.208 3.388.012 5.892-.334 10.156-4.996 9.167-10.253l-2.306-3.782-1.886-10.016c-.911-4.83 2.091-9.521 6.855-10.73 14.283-3.634 32.302-.832 51.635 10.736z" fill="#bd80e1"/><g><g fill="#bd80e1"><path d="m112.774 79.602c1.545-4.862 2.277-10.158 3.029-15.504 21.706 8.808 41.496 21.799 58.174 38.158 1.586 10.714 4.152 21.232 7.397 31.431l-6.645-7.809c-.021-.021-.051-.051-.072-.093-16.648-20.109-37.931-35.953-61.883-46.183z"/><path d="m198.918 227.33c-.35.629-.783 1.195-1.277 1.679-2.39 2.39-6.15 3.008-9.241 1.277l-45.668-25.61c-34.903-19.553-62.254-50.283-77.686-87.071 5.13-.021 10.982-.433 15.339-3.461 14.278 32.502 38.797 59.627 69.898 77.058l45.678 25.61c3.719 2.081 5.048 6.789 2.957 10.518z"/></g></g><g fill="#a06ed6"><path d="m74.887 100.571 1.776 4.4c.036.066.058.131.087.204 3.416 9.229 7.641 18.073 12.595 26.45-2.331 1.792-5.194 2.805-8.093 2.542l-8.676-.794c-3.934-7.299-7.379-14.882-10.286-22.728l-1.479-3.665 3.3.62c5.1.962 9.705-2.388 10.776-7.029z"/><path d="m133.41 72.38.809 8.821c.262 2.856-.736 5.689-2.469 7.991-8.341-4.932-17.126-9.127-26.26-12.522l-5.346-1.699c4.866-.874 8.449-5.6 7.458-10.859l-.598-3.176 3.344 1.056c.109.036.226.08.335.116 7.822 2.9 15.42 6.331 22.727 10.272z"/></g><circle cx="256" cy="256" fill="#ffdd40" r="59.901"/><path d="m256 191.253c-35.758 0-64.747 28.989-64.747 64.747s28.989 64.747 64.747 64.747 64.747-28.989 64.747-64.747-28.989-64.747-64.747-64.747zm31.956 75.203c-1.535 1.721-2.905 3.606-4.069 5.646-1.195 2.05-2.143 4.182-2.864 6.346-.402 1.216-1.36 2.163-2.565 2.575-2.205.731-4.337 1.689-6.367 2.864-2.05 1.185-3.935 2.544-5.645 4.069-.958.845-2.256 1.195-3.513.937-2.246-.453-4.564-.7-6.933-.7s-4.698.247-6.933.7c-1.257.258-2.555-.093-3.513-.937-1.71-1.514-3.595-2.885-5.656-4.069-2.019-1.175-4.152-2.133-6.356-2.864-1.205-.412-2.163-1.36-2.565-2.575-.721-2.163-1.669-4.296-2.864-6.346-1.164-2.04-2.534-3.925-4.069-5.646-.845-.958-1.195-2.256-.937-3.513.453-2.246.701-4.564.701-6.943 0-2.38-.247-4.698-.701-6.943-.258-1.257.093-2.555.937-3.513 1.535-1.72 2.905-3.606 4.069-5.645 1.195-2.05 2.143-4.182 2.864-6.346.402-1.216 1.36-2.163 2.565-2.575 2.205-.731 4.337-1.689 6.356-2.864 2.06-1.185 3.946-2.545 5.656-4.069.958-.845 2.256-1.195 3.513-.937 2.246.453 4.564.701 6.933.701s4.687-.247 6.933-.701c1.257-.258 2.555.093 3.513.937 1.71 1.525 3.595 2.885 5.656 4.069 2.019 1.175 4.152 2.133 6.356 2.864 1.205.412 2.163 1.36 2.565 2.575.721 2.163 1.669 4.296 2.864 6.356 1.174 2.029 2.534 3.915 4.059 5.635.855.958 1.205 2.256.948 3.513-.453 2.246-.7 4.564-.7 6.943 0 2.38.247 4.698.7 6.943.257 1.257-.093 2.555-.938 3.513z" fill="#ffdd40"/><path d="m256 191.253c-35.758 0-64.747 28.989-64.747 64.747s28.989 64.747 64.747 64.747 64.747-28.989 64.747-64.747-28.989-64.747-64.747-64.747zm31.956 75.203c-1.535 1.721-2.905 3.606-4.069 5.646-1.195 2.05-2.143 4.182-2.864 6.346-.402 1.216-1.36 2.163-2.565 2.575-2.205.731-4.337 1.689-6.367 2.864-2.05 1.185-3.935 2.544-5.645 4.069-.958.845-2.256 1.195-3.513.937-2.246-.453-4.564-.7-6.933-.7s-4.698.247-6.933.7c-1.257.258-2.555-.093-3.513-.937-1.71-1.514-3.595-2.885-5.656-4.069-2.019-1.175-4.152-2.133-6.356-2.864-1.205-.412-2.163-1.36-2.565-2.575-.721-2.163-1.669-4.296-2.864-6.346-1.164-2.04-2.534-3.925-4.069-5.646-.845-.958-1.195-2.256-.937-3.513.453-2.246.701-4.564.701-6.943 0-2.38-.247-4.698-.701-6.943-.258-1.257.093-2.555.937-3.513 1.535-1.72 2.905-3.606 4.069-5.645 1.195-2.05 2.143-4.182 2.864-6.346.402-1.216 1.36-2.163 2.565-2.575 2.205-.731 4.337-1.689 6.356-2.864 2.06-1.185 3.946-2.545 5.656-4.069.958-.845 2.256-1.195 3.513-.937 2.246.453 4.564.701 6.933.701s4.687-.247 6.933-.701c1.257-.258 2.555.093 3.513.937 1.71 1.525 3.595 2.885 5.656 4.069 2.019 1.175 4.152 2.133 6.356 2.864 1.205.412 2.163 1.36 2.565 2.575.721 2.163 1.669 4.296 2.864 6.356 1.174 2.029 2.534 3.915 4.059 5.635.855.958 1.205 2.256.948 3.513-.453 2.246-.7 4.564-.7 6.943 0 2.38.247 4.698.7 6.943.257 1.257-.093 2.555-.938 3.513z" fill="#ffc839"/><circle cx="256" cy="256" fill="#ffe852" r="20.604"/><g><circle cx="256" cy="189.038" fill="#ffe852" r="17.256"/><circle cx="289.481" cy="198.009" fill="#fef8a5" r="17.253"/><circle cx="313.991" cy="222.519" fill="#ffe852" r="17.253"/><circle cx="322.962" cy="256" fill="#fef8a5" r="17.256"/><circle cx="313.991" cy="289.481" fill="#ffe852" r="17.253"/><circle cx="289.481" cy="313.991" fill="#fef8a5" r="17.253"/><circle cx="256" cy="322.962" fill="#ffe852" r="17.256"/><circle cx="222.519" cy="313.991" fill="#fef8a5" r="17.253"/><circle cx="198.009" cy="289.481" fill="#ffe852" r="17.253"/><circle cx="189.038" cy="256" fill="#fef8a5" r="17.256"/><circle cx="198.009" cy="222.519" fill="#ffe852" r="17.253"/><circle cx="222.519" cy="198.009" fill="#fef8a5" r="17.253"/></g></g></svg>