<svg id="Layer_1" enable-background="new 0 0 256 256" viewBox="0 0 256 256" xmlns="http://www.w3.org/2000/svg"><g><g><g><path d="m128.183 168.331c-.796 0-1.559-.316-2.121-.879l-22.265-22.265c-1.172-1.171-1.172-3.071 0-4.242 1.172-1.172 3.07-1.172 4.242 0l20.144 20.143 19.123-19.123c1.172-1.172 3.07-1.171 4.242 0 1.172 1.172 1.172 3.071 0 4.243l-21.244 21.245c-.563.562-1.325.878-2.121.878z" fill="#91b56b"/></g></g><g><g><path d="m127.976 104.709c-.768 0-1.535-.293-2.121-.879-1.172-1.171-1.172-3.071 0-4.243l16.288-16.287c1.172-1.171 3.07-1.171 4.242 0s1.172 3.071 0 4.243l-16.288 16.287c-.586.586-1.354.879-2.121.879z" fill="#91b56b"/></g></g><g><g><path d="m127.976 104.709c-.768 0-1.535-.293-2.121-.878l-15.865-15.864c-1.172-1.172-1.172-3.071 0-4.243s3.07-1.171 4.242 0l15.864 15.864c1.172 1.172 1.172 3.071 0 4.243-.585.585-1.353.878-2.12.878z" fill="#91b56b"/></g></g><g><g><path d="m127.918 57.555c-.256 0-.512-.098-.707-.293-.391-.391-.391-1.023 0-1.414l11.057-11.057c.391-.391 1.023-.391 1.414 0s.391 1.023 0 1.414l-11.057 11.057c-.195.196-.451.293-.707.293z" fill="#91b56b"/></g></g><g><g><path d="m127.901 57.374c-.256 0-.512-.098-.707-.293l-10.876-10.876c-.391-.391-.391-1.023 0-1.414s1.023-.391 1.414 0l10.876 10.876c.391.391.391 1.023 0 1.414-.195.195-.451.293-.707.293z" fill="#91b56b"/></g></g><g><g><path d="m128.302 231.715c-4.31-1.917-6.312-5.784-8.783-9.382-2.333-3.493-4.665-6.753-7.249-10.015-14.084-17.81-32.771-31.816-53.609-40.786 0 0-5.814-2.566-5.814-2.566-1.012-.447-1.47-1.629-1.024-2.641.417-.945 1.485-1.404 2.447-1.097 3.691 1.175 8.58 2.754 12.131 4.132 22.288 8.62 41.93 23.891 56.029 43.176 2.462 3.494 5.014 6.983 7.242 10.585 1.116 2.108 3.934 8.24-.314 8.798-.371.014-.737-.063-1.056-.204z" fill="#648940"/></g></g><g><g><path d="m124.386 229.471c.179-4.716 3.034-8.005 5.457-11.635 2.394-3.526 5.017-7.131 7.719-10.478 15.059-18.522 35.427-32.743 58.119-40.179 0 0 6.048-1.951 6.048-1.951 1.053-.339 2.181.239 2.521 1.291.317.983-.175 2.036-1.097 2.447l-5.814 2.566c-13.272 5.764-25.727 13.444-36.612 22.989-10.184 8.778-18.722 19.182-26.015 30.448-1.837 2.803-3.694 5.222-7.013 6.747-1.542.733-3.422-.55-3.313-2.245z" fill="#648940"/></g></g><g><g><path d="m127.631 201.527c-3.423-.75-4.648-3.27-6.343-5.781-1.523-2.29-3.006-4.374-4.684-6.504-9.913-12.786-23.478-22.281-38.247-28.705-2.188-1.05-.927-4.417 1.424-3.738 0 0 4.016 1.177 4.016 1.177 13.139 3.982 25.118 11.515 34.635 21.413 4.454 4.646 8.387 9.917 11.79 15.345 1.263 2.187 1.486 7.449-2.591 6.793z" fill="#648940"/></g></g><g><g><path d="m125.057 199.283c-.574-3.458 1.315-5.528 3.017-8.034 2.421-3.531 5.078-7.106 8.009-10.265 9.728-10.688 22.291-18.815 36.121-23.008 0 0 4.016-1.177 4.016-1.177 1.063-.312 2.178.298 2.49 1.361.282.96-.189 1.963-1.066 2.377l-3.782 1.792c-4.903 2.279-9.606 4.914-14.077 7.93-7.7 5.261-14.628 11.664-20.388 18.984-2.565 3.122-4.644 6.675-7.069 9.928-1.561 1.984-6.371 4.141-7.271.112z" fill="#648940"/></g></g><g><g><path d="m126.56 238.467c-3.391-2.25-3.678-4.5-3.556-6.75l.021-6.751c.162-66.901.801-135.697 3.535-202.517.036-.795.71-1.411 1.505-1.375.75.034 1.34.64 1.375 1.375 1.153 25.95 1.818 54.882 2.373 81.007.628 34.413 1.08 73.56 1.118 108.009 0 0 .043 13.501.043 13.501l.021 6.751c.122 2.25-.166 4.5-3.556 6.75-.898.596-2.033.56-2.879 0z" fill="#91b56b"/></g></g><g><g><g><g><g><g><path d="m197.731 119.094-23.255-23.255-25.299 25.299c-6.422 6.422-6.422 16.833 0 23.255 6.422 6.422 16.833 6.422 23.255 0z" fill="#ffa91a"/></g></g><g><g><path d="m187.731 109.094-25.299 25.299c-4.629 4.629-11.327 5.903-17.113 3.858.792 2.241 2.065 4.349 3.858 6.142 6.422 6.422 16.833 6.422 23.255 0l25.299-25.299z" fill="#f79219"/></g></g><g><g><path d="m192.731 114.094-25.299 25.299c-5.563 5.563-14.115 6.298-20.479 2.223.629.983 1.364 1.917 2.224 2.777 6.422 6.422 16.833 6.422 23.255 0l25.299-25.299z" fill="#ef7816"/></g></g><g><g><path d="m195.26 121.122c-6.393 4.296-15.132 3.625-20.784-2.027s-6.324-14.391-2.027-20.784c-2.22-3.821-1.705-8.794 1.567-12.066 3.899-3.899 10.221-3.899 14.12 0 1.126 1.126 1.916 2.457 2.392 3.871 3.579-1.395 7.8-.653 10.691 2.237 2.891 2.891 3.633 7.111 2.237 10.691 1.414.476 2.745 1.266 3.871 2.392 3.899 3.899 3.899 10.221 0 14.12-3.273 3.271-8.247 3.786-12.067 1.566z" fill="#f79219"/></g></g></g><g><g><g><path d="m173.891 118.475 10.997-10.997c.337-.337.873-.331 1.204 0s.337.867 0 1.204l-10.997 10.997c-.211-.187-.421-.385-.62-.584s-.398-.409-.584-.62z" fill="#e6e7e8"/></g></g></g><g><g><ellipse cx="186.103" cy="107.467" fill="#fff" rx="5.383" ry="2.609" transform="matrix(.707 -.707 .707 .707 -21.482 163.071)"/></g></g></g><g><g><g><g><g><g><g><path d="m147.825 145.897c.305.248.745.229 1.028-.043 1.507-1.448 5.918-6.162 5.695-11.528s-5.011-9.697-6.634-11.015c-.305-.248-.745-.229-1.028.043-1.507 1.448-5.918 6.162-5.695 11.528.224 5.366 5.012 9.697 6.634 11.015z" fill="#76a34f"/></g></g></g></g><g><g><g><g><path d="m147.942 146.014c-.248-.305-.229-.745.043-1.028 1.448-1.507 6.162-5.918 11.528-5.695s9.697 5.011 11.015 6.634c.248.305.229.745-.043 1.028-1.448 1.507-6.162 5.918-11.528 5.695-5.366-.224-9.697-5.012-11.015-6.634z" fill="#76a34f"/></g></g></g></g></g></g></g></g><g><g><g><g><g><path d="m58.269 119.094 23.255-23.255 25.299 25.299c6.422 6.422 6.422 16.833 0 23.255-6.422 6.422-16.833 6.422-23.255 0z" fill="#ffa91a"/></g></g><g><g><path d="m60.74 121.122c6.393 4.296 15.132 3.625 20.784-2.027s6.324-14.391 2.027-20.784c2.22-3.821 1.705-8.794-1.567-12.066-3.899-3.899-10.221-3.899-14.12 0-1.126 1.126-1.916 2.457-2.392 3.871-3.579-1.395-7.8-.653-10.691 2.237-2.891 2.891-3.633 7.111-2.237 10.691-1.414.476-2.745 1.266-3.871 2.392-3.899 3.899-3.899 10.221 0 14.12 3.273 3.271 8.247 3.786 12.067 1.566z" fill="#f79219"/></g></g><g><g><g><path d="m69.899 119.91c-1.1 0-1.989-.9-1.989-2 0-1.11.89-2 1.989-2 1.11 0 2 .89 2 2 0 1.1-.889 2-2 2zm-14.179-1.44h-.02c-1.57 0-3.101-.64-4.2-1.74-1.11-1.12-1.75-2.66-1.75-4.24 0-1.57.64-3.11 1.75-4.23.64-.64 1.439-1.13 2.319-1.43l3.971-1.33-1.521-3.91c-.27-.7-.41-1.43-.41-2.18 0-1.58.641-3.12 1.75-4.23 1.641-1.65 4.28-2.17 6.41-1.34l3.91 1.52 1.33-3.97c.3-.88.8-1.68 1.43-2.32 1.11-1.11 2.65-1.75 4.221-1.75h.01c1.11 0 2.01.9 2.01 2s-.899 2-2.01 2c-.54 0-1.01.2-1.4.58-.21.22-.359.46-.47.77l-2 5.96c-.18.52-.55.94-1.05 1.17-.49.23-1.061.25-1.57.05l-5.86-2.28c-.239-.09-.479-.14-.739-.14-.54.01-1.011.2-1.391.58-.38.37-.58.87-.58 1.4 0 .25.051.49.141.73l2.28 5.86c.199.52.189 1.07-.051 1.57-.229.5-.649.87-1.17 1.05l-5.97 2.01c-.3.1-.54.25-.76.46-.38.38-.58.86-.58 1.4 0 .55.2 1.03.58 1.41.38.37.85.57 1.39.57.35 0 .71-.09 1-.26l3.25-1.89c.65-.38 1.49-.35 2.12.07l1.59 1.07c.01 0 .01.01.01.01.44.29.74.74.841 1.27.1.52 0 1.05-.301 1.5-.6.88-1.89 1.14-2.779.54l-.561-.37-2.16 1.25c-.911.53-1.95.81-3.01.81z" fill="#ffa91a"/></g></g></g></g><g><g><g><path d="m82.109 118.475-10.997-10.997c-.337-.337-.873-.331-1.204 0s-.337.867 0 1.204l10.997 10.997c.211-.187.421-.385.62-.584s.398-.409.584-.62z" fill="#e6e7e8"/></g></g></g><g><g><ellipse cx="69.897" cy="107.467" fill="#fff" rx="2.609" ry="5.383" transform="matrix(.707 -.707 .707 .707 -55.518 80.901)"/></g></g></g><g><g><g><g><g><g><g><path d="m108.175 145.897c-.305.248-.745.229-1.028-.043-1.507-1.448-5.918-6.162-5.695-11.528s5.011-9.697 6.634-11.015c.305-.248.745-.229 1.028.043 1.507 1.448 5.918 6.162 5.695 11.528-.224 5.366-5.012 9.697-6.634 11.015z" fill="#76a34f"/></g></g></g></g><g><g><g><g><path d="m108.058 146.014c.248-.305.229-.745-.043-1.028-1.448-1.507-6.162-5.918-11.528-5.695s-9.697 5.011-11.015 6.634c-.248.305-.229.745.043 1.028 1.448 1.507 6.162 5.918 11.528 5.695 5.366-.224 9.697-5.012 11.015-6.634z" fill="#76a34f"/></g></g></g></g></g></g></g></g></g><g><g><g><g><g><g><path d="m180.318 66.863-17.448-17.448-18.982 18.982c-4.818 4.818-4.818 12.63 0 17.448 4.818 4.818 12.63 4.818 17.448 0z" fill="#ffa91a"/></g></g><g><g><path d="m175.318 61.863-18.982 18.982c-3.949 3.949-9.906 4.656-14.58 2.132.556 1.029 1.263 1.999 2.132 2.868 4.818 4.818 12.63 4.818 17.448 0l18.982-18.982z" fill="#f79219"/></g></g><g><g><path d="m178.464 68.384c-4.797 3.224-11.354 2.719-15.594-1.521s-4.745-10.798-1.521-15.594c-1.665-2.867-1.279-6.598 1.176-9.053 2.925-2.925 7.669-2.925 10.594 0 .845.845 1.438 1.844 1.795 2.904 2.686-1.047 5.852-.49 8.021 1.679s2.726 5.336 1.679 8.021c1.061.357 2.059.95 2.904 1.795 2.925 2.925 2.925 7.669 0 10.594-2.455 2.455-6.187 2.841-9.054 1.175z" fill="#f79219"/></g></g></g><g><g><g><path d="m162.432 66.399 8.251-8.251c.253-.253.655-.248.903 0s.253.65 0 .903l-8.251 8.251c-.158-.14-.316-.289-.465-.438s-.298-.307-.438-.465z" fill="#e6e7e8"/></g></g></g><g><g><ellipse cx="171.594" cy="58.139" fill="#fff" rx="4.039" ry="1.958" transform="matrix(.707 -.707 .707 .707 9.148 138.364)"/></g></g></g><g><g><g><g><g><g><g><path d="m142.875 86.973c.229.186.559.172.771-.032 1.131-1.087 4.44-4.624 4.273-8.649-.168-4.026-3.76-7.275-4.977-8.264-.229-.186-.559-.172-.771.032-1.131 1.087-4.44 4.623-4.273 8.649s3.76 7.275 4.977 8.264z" fill="#76a34f"/></g></g></g></g><g><g><g><g><path d="m142.962 87.061c-.186-.229-.172-.559.032-.771 1.087-1.131 4.624-4.44 8.649-4.273 4.026.168 7.275 3.76 8.264 4.977.186.229.172.559-.032.771-1.087 1.131-4.623 4.44-8.649 4.273-4.025-.168-7.275-3.76-8.264-4.977z" fill="#76a34f"/></g></g></g></g></g></g></g></g><g><g><g><g><g><path d="m75.682 66.863 17.448-17.448 18.982 18.982c4.818 4.818 4.818 12.63 0 17.448-4.818 4.818-12.63 4.818-17.448 0z" fill="#ffa91a"/></g></g><g><g><path d="m77.536 68.384c4.797 3.224 11.354 2.719 15.594-1.521s4.745-10.798 1.521-15.594c1.665-2.867 1.279-6.598-1.176-9.053-2.925-2.925-7.669-2.925-10.594 0-.845.845-1.438 1.844-1.795 2.904-2.686-1.047-5.852-.49-8.021 1.679s-2.726 5.336-1.679 8.021c-1.061.357-2.059.95-2.904 1.795-2.925 2.925-2.925 7.669 0 10.594 2.455 2.455 6.187 2.841 9.054 1.175z" fill="#f79219"/></g></g></g><g><g><g><path d="m93.568 66.399-8.251-8.251c-.253-.253-.655-.248-.903 0s-.253.65 0 .903l8.251 8.251c.158-.14.316-.289.465-.438s.298-.307.438-.465z" fill="#e6e7e8"/></g></g></g><g><g><ellipse cx="84.406" cy="58.139" fill="#fff" rx="1.958" ry="4.039" transform="matrix(.707 -.707 .707 .707 -16.389 76.713)"/></g></g></g><g><g><g><g><g><g><g><path d="m113.125 86.973c-.229.186-.559.172-.771-.032-1.131-1.087-4.44-4.624-4.273-8.649.168-4.026 3.76-7.275 4.977-8.264.229-.186.559-.172.771.032 1.131 1.087 4.44 4.623 4.273 8.649s-3.76 7.275-4.977 8.264z" fill="#76a34f"/></g></g></g></g><g><g><g><g><path d="m113.038 87.061c.186-.229.172-.559-.032-.771-1.087-1.131-4.624-4.44-8.649-4.273-4.026.168-7.275 3.76-8.264 4.977-.186.229-.172.559.032.771 1.087 1.131 4.623 4.44 8.649 4.273 4.025-.168 7.275-3.76 8.264-4.977z" fill="#76a34f"/></g></g></g></g></g></g></g></g></g><g><g><g><g><path d="m120.282 48.755c-2.022 2.022-5.3 2.022-7.322 0l-3.343-3.343c-2.022-2.022-2.022-5.3 0-7.322 2.022-2.022 5.3-2.022 7.322 0l3.343 3.343c2.022 2.022 2.022 5.301 0 7.322z" fill="#76a34f"/></g></g><g><g><path d="m109.618 38.091c-2.022 2.022-2.022 5.3 0 7.322l.085.085c1.748-.349 3.415-1.198 4.769-2.552s2.204-3.022 2.552-4.769l-.085-.085c-2.021-2.023-5.299-2.023-7.321-.001z" fill="#91b56b"/></g></g></g><g><g><g><path d="m135.718 48.755c2.022 2.022 5.3 2.022 7.322 0l3.343-3.343c2.022-2.022 2.022-5.3 0-7.322-2.022-2.022-5.3-2.022-7.322 0l-3.343 3.343c-2.022 2.022-2.022 5.301 0 7.322z" fill="#76a34f"/></g></g><g><g><path d="m146.382 38.091c2.022 2.022 2.022 5.3 0 7.322l-.085.085c-1.748-.349-3.415-1.198-4.769-2.552s-2.204-3.022-2.552-4.769l.085-.085c2.021-2.023 5.299-2.023 7.321-.001z" fill="#91b56b"/></g></g></g></g><g><g><g><g><path d="m120.693 32.882c-1.237 1.237-3.242 1.237-4.479 0l-2.045-2.045c-1.237-1.237-1.237-3.242 0-4.479 1.237-1.237 3.242-1.237 4.479 0l2.045 2.045c1.237 1.237 1.237 3.242 0 4.479z" fill="#76a34f"/></g></g><g><g><path d="m114.169 26.358c-1.237 1.237-1.237 3.242 0 4.479l.052.052c1.069-.213 2.089-.733 2.918-1.562s1.348-1.849 1.562-2.918l-.052-.052c-1.238-1.236-3.243-1.236-4.48.001z" fill="#91b56b"/></g></g></g><g><g><g><path d="m135.307 32.882c1.237 1.237 3.242 1.237 4.479 0l2.045-2.045c1.237-1.237 1.237-3.242 0-4.479-1.237-1.237-3.242-1.237-4.479 0l-2.045 2.045c-1.237 1.237-1.237 3.242 0 4.479z" fill="#76a34f"/></g></g><g><g><path d="m141.831 26.358c1.237 1.237 1.237 3.242 0 4.479l-.052.052c-1.069-.213-2.089-.733-2.918-1.562s-1.348-1.849-1.562-2.918l.052-.052c1.238-1.236 3.243-1.236 4.48.001z" fill="#91b56b"/></g></g></g></g><g><g><g><path d="m128 27.056c1.805 0 3.269-1.464 3.269-3.269v-2.985c0-1.805-1.464-3.269-3.269-3.269-1.805 0-3.269 1.464-3.269 3.269v2.985c0 1.805 1.464 3.269 3.269 3.269z" fill="#76a34f"/></g></g><g><g><path d="m128 17.533c1.805 0 3.269 1.464 3.269 3.269v.076c-.936.625-2.059.99-3.269.99-1.209 0-2.333-.365-3.269-.99v-.076c0-1.805 1.464-3.269 3.269-3.269z" fill="#91b56b"/></g></g></g><g><g><path d="m127.916 41.105c-.256 0-.512-.098-.707-.293l-9.216-9.216c-.391-.391-.391-1.023 0-1.414s1.023-.391 1.414 0l8.516 8.516 8.676-8.522c.396-.388 1.026-.382 1.415.013.387.394.381 1.027-.013 1.414l-9.384 9.216c-.195.191-.448.286-.701.286z" fill="#91b56b"/></g></g></g></svg>