<svg id="Layer_1" enable-background="new 0 0 200 200" viewBox="0 0 200 200" xmlns="http://www.w3.org/2000/svg"><g><g><path d="m102 199.9h-2.8c-1.6 0-2.8-1.3-2.8-2.8v-109h8.5v109c0 1.5-1.3 2.8-2.9 2.8z" fill="#2f7c01"/></g></g><g><path d="m108.2 43.4h-18.6l-3.4-32.5c0-5.8 5.7-10.5 12.7-10.5 7 0 12.7 4.7 12.7 10.5z" fill="#e3d700"/></g><g><path d="m94.3 42.5-16.2 7.7-22.6-26.8c-3.5-5-1.5-11.4 4.6-14.3 6.1-2.9 13.9-1.2 17.4 3.8z" fill="#e3d700"/></g><g><path d="m104.8 41.6 16.2 7.7 22.7-26.8c3.5-5 1.4-11.4-4.7-14.3-6.1-2.9-13.9-1.2-17.4 3.8z" fill="#e3d700"/></g><g><path d="m83.1 48.3-9.3 13.3-35.9-13.8c-6.1-2.9-8.2-9.3-4.7-14.3 3.5-5 11.3-6.7 17.4-3.8z" fill="#e3d700"/></g><g><path d="m118.5 47 9.3 13.3 35.9-13.8c6.1-2.9 8.2-9.3 4.7-14.3-3.5-5-11.3-6.7-17.4-3.8z" fill="#e3d700"/></g><g><path d="m77.6 55.4v18.7l-39.5 3.4c-7 0-12.7-5.7-12.7-12.7 0-7 5.7-12.7 12.7-12.7z" fill="#e3d700"/></g><g><path d="m125.1 54.3v18.7l39.5 3.4c7 0 12.7-5.7 12.7-12.7 0-7-5.7-12.7-12.7-12.7z" fill="#e3d700"/></g><g><path d="m108.8 85.7h-18.7l-3.4 32c0 5.7 5.7 10.3 12.7 10.3 7 0 12.7-4.6 12.7-10.3z" fill="#e3d700"/></g><g><path d="m94.9 86.6-16.2-7.6-22.7 26.4c-3.5 4.9-1.4 11.3 4.7 14.1 6.1 2.9 13.9 1.2 17.4-3.8z" fill="#e3d700"/></g><g><path d="m105.4 87.5 16.2-7.6 22.7 26.3c3.5 4.9 1.4 11.3-4.7 14.1-6.1 2.9-13.9 1.2-17.4-3.8z" fill="#e3d700"/></g><g><path d="m83.7 80.9-9.3-13.1-36 13.6c-6.1 2.9-8.2 9.2-4.7 14.1 3.5 4.9 11.3 6.6 17.4 3.8z" fill="#e3d700"/></g><g><path d="m119 82.2 9.3-13.1 35.9 13.6c6.1 2.9 8.2 9.2 4.7 14.1-3.5 4.9-11.3 6.6-17.4 3.8z" fill="#e3d700"/></g><g><path d="m91.8 75.9 13.4 3.7-3.9 24c-1.1 4.2-6.2 6.4-11.2 5-5-1.4-8.2-5.9-7.1-10z" fill="#f4e30f"/></g><g><path d="m101.5 79.3 13.1-2.3 11 23.7c1.5 4.3-1.2 8.5-6.2 9.4-4.9.9-10.2-1.9-11.7-6.2z" fill="#f4e30f"/></g><g><path d="m93.8 77.9-10.1-8.7-21.5 14.7c-3.5 2.9-3.3 7.9.5 11.2 3.8 3.3 9.7 3.6 13.2.7z" fill="#f4e30f"/></g><g><path d="m110.7 77.3 9.3-7.7 23 17c3.8 3.3 4 8.3.5 11.2-3.5 2.9-9.4 2.6-13.2-.7z" fill="#f4e30f"/></g><g><path d="m85.1 71.4-4.1-11.4-28.5 2.9c-4.9.9-7.7 5.1-6.2 9.4 1.5 4.3 6.8 7.1 11.7 6.2z" fill="#f4e30f"/></g><g><path d="m116.1 73.3 3.7-13.4 29 5.3c5 1.4 8 6.6 6.6 11.6-1.4 5-6.6 8-11.6 6.6z" fill="#f4e30f"/></g><g><path d="m81.8 64.8 3.7-13.4-27.7-10.2c-5-1.4-10.3 1.6-11.6 6.6-1.4 5 1.6 10.3 6.6 11.6z" fill="#f4e30f"/></g><g><path d="m99.7 45.5 13.4 3.7 8.7-22.3c1.1-4.1-2.1-8.5-7.1-9.9-5-1.4-10 .8-11.2 4.9z" fill="#f4e30f"/></g><g><path d="m109.8 47.6 10.1 8.6 21.5-14.4c3.5-2.9 3.2-7.8-.6-11-3.8-3.2-9.7-3.6-13.2-.7z" fill="#f4e30f"/></g><g><path d="m102.5 44.9-13.1 2.3-11.1-23.4c-1.6-4.2 1.2-8.4 6.1-9.2 4.9-.8 10.2 1.9 11.7 6.1z" fill="#f4e30f"/></g><g><path d="m116.7 53.9 4.1 11.2 28.4-2.7c4.9-.8 7.7-5 6.1-9.2-1.6-4.2-6.8-7-11.7-6.1z" fill="#f4e30f"/></g><g><path d="m91.7 46-9.3 7.6-23.1-16.9c-3.8-3.2-4.1-8.2-.6-11 3.5-2.9 9.4-2.5 13.2.7z" fill="#f4e30f"/></g><g><path d="m102.9 72.5 7.5-4.3 8.9 12.4c1.3 2.3.1 5.6-2.7 7.2-2.8 1.6-6.2 1-7.6-1.3z" fill="#f4e30f"/></g><g><path d="m108.7 69.7 4.8-6.8 15.3 5.6c2.6 1.2 3.2 4.3 1.4 6.9-1.8 2.6-5.3 3.7-7.9 2.5z" fill="#f4e30f"/></g><g><path d="m104.7 72.5-8.3.6-3 16c-.3 2.8 2.1 4.9 5.2 4.7 3.1-.2 5.9-2.7 6.1-5.6z" fill="#f4e30f"/></g><g><path d="m111.9 64.8.7-7.5 17.7-2.7c3.1-.2 5.4 1.9 5.2 4.7-.3 2.8-3 5.3-6.1 5.6z" fill="#f4e30f"/></g><g><path d="m97.9 73.4-6.8-3.2-11.3 13.9c-1.8 2.6-1.2 5.6 1.4 6.9 2.6 1.2 6.1.1 7.9-2.5z" fill="#f4e30f"/></g><g><path d="m112.5 60.6-4.3-7.5 15.2-10.5c2.8-1.6 6.5-.6 8.1 2.2 1.6 2.8.6 6.5-2.2 8.1z" fill="#f4e30f"/></g><g><path d="m93.6 72-4.3-7.5-16.7 7.7c-2.8 1.6-3.8 5.2-2.2 8.1 1.6 2.8 5.2 3.8 8.1 2.2z" fill="#f4e30f"/></g><g><path d="m92.9 55.6 7.5-4.3-6-13.7c-1.3-2.3-4.7-2.9-7.5-1.2-2.8 1.6-4.1 4.8-2.8 7.1z" fill="#f4e30f"/></g><g><path d="m98.3 52 8.3-.7 3.1-15.9c.3-2.8-2-4.9-5.1-4.6-3.1.3-5.9 2.7-6.2 5.5z" fill="#f4e30f"/></g><g><path d="m93.9 54.1-4.8 6.8-15.2-5.4c-2.6-1.2-3.2-4.2-1.4-6.8 1.8-2.6 5.3-3.7 7.9-2.5z" fill="#f4e30f"/></g><g><path d="m104.2 51.7 6.8 3.1 11.4-13.8c1.8-2.6 1.2-5.6-1.4-6.8-2.6-1.2-6.1-.1-7.9 2.5z" fill="#f4e30f"/></g><g><path d="m89.6 59.3-.8 7.4-17.6 2.8c-3.1.3-5.4-1.8-5.1-4.6.3-2.8 3-5.3 6.2-5.5z" fill="#f4e30f"/></g><g><path d="m105.5 53.1-8.6-.7-.3-15.2c.2-2.7 3-4.6 6.3-4.4 3.3.3 5.7 2.7 5.5 5.3z" fill="#fff064"/></g><g><path d="m99.1 52.1-7.8 2.9-9.5-13.3c-1.4-2.5-.2-5.4 2.7-6.5 2.9-1.1 6.5 0 7.9 2.4z" fill="#fff064"/></g><g><path d="m104 52.1 7.2 4.2 11.5-11.5c1.8-2.2 1.1-5.2-1.6-6.8-2.7-1.6-6.4-1.1-8.2 1.1z" fill="#fff064"/></g><g><path d="m93.7 54.4-4.8 5.8-16.1-7.8c-2.7-1.6-3.4-4.6-1.6-6.8 1.8-2.2 5.5-2.7 8.2-1.1z" fill="#fff064"/></g><g><path d="m110.1 55.1 3.8 6.5 17.1-5c2.9-1.1 4.1-4 2.7-6.5-1.4-2.5-5-3.6-7.9-2.4z" fill="#fff064"/></g><g><path d="m90.9 57.5-.7 8.6-18.4.1c-3.3-.3-5.7-3.1-5.4-6.4.3-3.3 3.1-5.7 6.4-5.4z" fill="#fff064"/></g><g><path d="m112.9 58.7-.7 8.6 18.2 3.1c3.3.3 6.1-2.2 6.4-5.4.3-3.3-2.2-6.1-5.4-6.4z" fill="#fff064"/></g><g><path d="m104.2 72.7-8.6-.7-2.8 14.7c-.2 2.6 2.2 5 5.5 5.3 3.3.3 6.1-1.7 6.3-4.3z" fill="#fff064"/></g><g><path d="m97.7 72.6-7.2-4.1-11.5 11.3c-1.8 2.2-1.1 5.2 1.6 6.7 2.7 1.6 6.4 1.1 8.2-1.1z" fill="#fff064"/></g><g><path d="m102.5 73.4 7.8-2.9 9.5 13.1c1.4 2.4.2 5.3-2.7 6.4-2.9 1.1-6.5 0-7.9-2.4z" fill="#fff064"/></g><g><path d="m92.7 69.5-3.8-6.4-17.1 4.9c-2.9 1.1-4.1 3.9-2.7 6.4 1.4 2.4 5 3.5 7.9 2.4z" fill="#fff064"/></g><g><path d="m109 71.4 4.8-5.7 16.1 7.7c2.7 1.6 3.4 4.6 1.6 6.7-1.8 2.2-5.5 2.6-8.2 1.1z" fill="#fff064"/></g><g><path d="m104.5 56-6-.5-.2-10.5c.2-1.9 2.1-3.2 4.3-3 2.2.2 3.9 1.8 3.8 3.7z" fill="#cbff66"/></g><g><path d="m100.1 55.3-5.4 2-6.5-9.1c-1-1.7-.2-3.7 1.9-4.5 2-.8 4.5 0 5.5 1.7z" fill="#cbff66"/></g><g><path d="m103.4 55.3 5 2.9 7.9-8c1.3-1.5.8-3.6-1.1-4.7-1.9-1.1-4.4-.7-5.7.8z" fill="#cbff66"/></g><g><path d="m96.3 56.9-3.3 4-11.1-5.4c-1.9-1.1-2.4-3.2-1.1-4.7 1.3-1.5 3.8-1.9 5.7-.8z" fill="#cbff66"/></g><g><path d="m107.6 57.3 2.6 4.5 11.8-3.5c2-.8 2.9-2.8 1.9-4.5-1-1.7-3.4-2.5-5.5-1.7z" fill="#cbff66"/></g><g><path d="m94.4 59-.5 6h-12.7c-2.2-.2-3.9-2.2-3.7-4.4.2-2.2 2.2-3.9 4.4-3.7z" fill="#cbff66"/></g><g><path d="m109.6 59.9-.5 6 12.5 2.1c2.2.2 4.2-1.5 4.4-3.7.2-2.2-1.5-4.2-3.7-4.4z" fill="#cbff66"/></g><g><path d="m103.5 69.5-6-.5-1.9 10.1c-.1 1.8 1.6 3.4 3.8 3.6 2.2.2 4.2-1.1 4.3-3z" fill="#cbff66"/></g><g><path d="m99.1 69.4-5-2.8-7.9 7.8c-1.3 1.5-.8 3.6 1.1 4.6 1.9 1.1 4.4.7 5.7-.8z" fill="#cbff66"/></g><g><path d="m102.4 69.9 5.4-2 6.6 9c1 1.7.2 3.6-1.9 4.4-2 .8-4.5 0-5.5-1.7z" fill="#cbff66"/></g><g><path d="m95.6 67.3-2.6-4.5-11.8 3.4c-2 .8-2.9 2.7-1.9 4.4 1 1.7 3.4 2.4 5.5 1.7z" fill="#cbff66"/></g><g><path d="m106.9 68.6 3.3-3.9 11.1 5.3c1.9 1.1 2.4 3.1 1.1 4.6-1.3 1.5-3.8 1.8-5.7.8z" fill="#cbff66"/></g><g><path d="m102.8 67.4-4.5.4-.2 7.9c.1 1.4 1.6 2.4 3.3 2.3 1.7-.1 3-1.4 2.8-2.8z" fill="#78e233"/></g><g><path d="m99.5 67.9-4-1.5-4.9 6.9c-.7 1.3-.1 2.8 1.4 3.3 1.5.6 3.4 0 4.1-1.3z" fill="#78e233"/></g><g><path d="m102 67.9 3.7-2.2 6 6c.9 1.1.6 2.7-.8 3.5-1.4.8-3.3.6-4.2-.6z" fill="#78e233"/></g><g><path d="m96.7 66.7-2.5-3-8.3 4c-1.4.8-1.8 2.4-.8 3.5.9 1.1 2.8 1.4 4.2.6z" fill="#78e233"/></g><g><path d="m105.2 66.4 2-3.4 8.9 2.6c1.5.6 2.1 2.1 1.4 3.3-.7 1.3-2.6 1.8-4.1 1.3z" fill="#78e233"/></g><g><path d="m95.2 65.2-.4-4.5h-9.5c-1.7.1-2.9 1.6-2.8 3.3.1 1.7 1.6 2.9 3.3 2.8z" fill="#78e233"/></g><g><path d="m106.6 64.5-.4-4.5 9.4-1.6c1.7-.1 3.2 1.1 3.3 2.8.1 1.7-1.1 3.2-2.8 3.3z" fill="#78e233"/></g><g><path d="m102.1 57.3-4.5.4-1.4-7.6c-.1-1.4 1.2-2.6 2.9-2.7 1.7-.1 3.1.9 3.3 2.2z" fill="#78e233"/></g><g><path d="m98.8 57.3-3.8 2.2-6-5.9c-.9-1.1-.6-2.7.8-3.5 1.4-.8 3.3-.6 4.2.6z" fill="#78e233"/></g><g><path d="m101.3 56.9 4 1.5 4.9-6.8c.7-1.3.1-2.7-1.4-3.3-1.5-.6-3.4 0-4.1 1.2z" fill="#78e233"/></g><g><path d="m96.2 58.9-2 3.3-8.9-2.6c-1.5-.6-2.1-2-1.4-3.3.7-1.3 2.6-1.8 4.1-1.2z" fill="#78e233"/></g><g><path d="m104.6 57.9 2.5 3 8.3-4c1.4-.8 1.8-2.4.8-3.5-.9-1.1-2.8-1.4-4.2-.6z" fill="#78e233"/></g><g><circle cx="100.5" cy="62.8" fill="#56ba15" r="7.1"/></g><g><path d="m87.6 154.3c5.2-18.5-11.6-28.6-11.6-28.6-3 5.2-1.4 14.1-1.4 14.1-7-16.4-23.1-14.2-23.1-14.2s-2.2 16.1 14.2 23.1c0 0-8.9-1.6-14.1 1.4 0 0 10.1 16.8 28.6 11.6 0 0-9.3 2.3-13.3 6.1 0 0 8.6 7.2 22.6 2.6 3.1-1 5.6-3.5 6.6-6.6 4.7-14-2.5-22.7-2.5-22.7-3.7 3.9-6 13.2-6 13.2z" fill="#048e2f"/></g><g><path d="m111.5 172.8c-5.2-18.5 11.6-28.6 11.6-28.6 3 5.2 1.4 14.1 1.4 14.1 7-16.4 23.1-14.2 23.1-14.2s2.2 16.1-14.2 23.1c0 0 8.9-1.6 14.1 1.4 0 0-10.1 16.8-28.6 11.6 0 0 9.3 2.3 13.3 6.1 0 0-8.6 7.2-22.6 2.6-3.1-1-5.6-3.5-6.6-6.6-4.7-14 2.5-22.7 2.5-22.7 3.7 3.9 6 13.2 6 13.2z" fill="#048e2f"/></g></svg>