<svg id="&#x421;&#x43B;&#x43E;&#x439;_1" enable-background="new 0 0 512 512" viewBox="0 0 512 512" xmlns="http://www.w3.org/2000/svg"><g><path d="m286.6 345.6c-.1 0-.3 0-.4 0-1-.2-24.2-6-47.9-22.3-13.9-9.6-25-20.8-33-33.4-10-15.8-15-33.7-15-53.2 0-1 .8-1.7 1.7-1.7 1 0 1.7.8 1.7 1.7 0 34.3 15.6 62.4 46.4 83.7 23.1 16 46.6 21.8 46.9 21.9.9.2 1.5 1.2 1.3 2.1-.2.6-.9 1.2-1.7 1.2z" fill="#769319"/></g><g><path d="m287.9 292.2c-.5 0-.9-.2-1.2-.5-.7-.7-.6-1.8 0-2.4.3-.3 31.8-31.1 31.8-77.3 0-1 .8-1.7 1.7-1.7s1.7.8 1.7 1.7c0 25-8.9 45.3-16.4 58-8.1 13.7-16.1 21.5-16.4 21.8s-.7.4-1.2.4z" fill="#769319"/></g><g><path d="m286.6 345.6c-.1 0-.3 0-.4 0-1-.2-24.2-6-47.9-22.3-13.9-9.6-25-20.8-33-33.4-10-15.8-15-33.7-15-53.2 0-1 .8-1.7 1.7-1.7 1 0 1.7.8 1.7 1.7 0 34.3 15.6 62.4 46.4 83.7 23.1 16 46.6 21.8 46.9 21.9.9.2 1.5 1.2 1.3 2.1-.2.6-.9 1.2-1.7 1.2z" fill="#769319"/></g><g><g><g><path d="m265 481c-.2 0-.5 0-.7-.1-1.5-.4-2.5-2-2-3.5 26.7-100.7 25.3-184.2 19.4-236.5-6.4-56.7-19.2-90-19.3-90.3-.6-1.5.2-3.2 1.6-3.7 1.5-.6 3.2.2 3.7 1.6.1.3 13.2 34.2 19.6 91.5 3.8 33.6 4.6 68.7 2.4 104.3-2.7 44.4-10.1 89.7-22 134.6-.3 1.2-1.4 2.1-2.7 2.1z" fill="#769319"/></g></g><g><g><path d="m265 481c-.2 0-.5 0-.7-.1-1.5-.4-2.5-2-2-3.5 26.7-100.7 25.3-184.2 19.4-236.5-6.4-56.7-19.2-90-19.3-90.3-.6-1.5.2-3.2 1.6-3.7 1.5-.6 3.2.2 3.7 1.6.1.3 13.2 34.2 19.6 91.5 3.8 33.6 4.6 68.7 2.4 104.3-2.7 44.4-10.1 89.7-22 134.6-.3 1.2-1.4 2.1-2.7 2.1z" fill="#769319"/></g></g></g><g><g><g><path d="m274.4 93.1-.2.2s-4.8-2.3-9.4 6.6l-1.8-.9s4.7-9.8.7-11.9v.1-.1.1c-11.4-41.3 7.9-49.4 7.9-49.4s3.8 3.3 4.9 10.9c5.4-5.5 10.4-5.9 10.4-5.9s2.2 3.8 1.4 10.4c5-4.5 9.3-4.8 9.3-4.8s2.6 4.5 1.1 12.2c6.8-3.5 11.7-2.2 11.7-2.2s4.4 20.3-36 34.7z" fill="#5954ff"/></g><g><path d="m250.3 88 .1.3s-4.4 3 1 11.5l-1.7 1.1s-6.1-9-10-6.6h.1s-.1 0-.1-.1v.1c-41.4-10.8-38.8-31.5-38.8-31.5s4.8-1.7 11.9 1.2c-2-7.4.1-11.9.1-11.9s4.4-.1 9.7 4c-1.4-6.5.5-10.5.5-10.5s5.2-.1 11.2 5.2c.4-7.6 3.9-11.2 3.9-11.2s19.9 6.2 12.1 48.4z" fill="#5954ff"/></g><g><path d="m233.9 106.4.3.1s.4 5.3 10.4 4.8l.1 2s-10.9.8-10.7 5.4h-.1.1c-30.1 30.5-46.7 17.9-46.7 17.9s.9-4.9 7-9.7c-7.4-1.9-10.3-6.1-10.3-6.1s2.1-3.8 8.3-6.4c-6.3-2.1-8.8-5.7-8.8-5.7s2.5-4.5 10-7.1c-6.4-4.2-7.8-9-7.8-9s15.5-14 48.2 13.8z" fill="#5954ff"/></g><g><path d="m241.6 129.8.2-.2s4.8 2.3 9.4-6.6l1.7.9s-4.7 9.8-.7 11.9 0 0 0-.1v.1-.1c11.4 41.3-7.9 49.4-7.9 49.4s-3.8-3.3-4.9-10.9c-5.4 5.5-10.4 5.9-10.4 5.9s-2.2-3.8-1.4-10.4c-5 4.5-9.3 4.8-9.3 4.8s-2.6-4.5-1.1-12.2c-6.8 3.5-11.7 2.2-11.7 2.2s-4.3-20.3 36.1-34.7z" fill="#5954ff"/></g><g><path d="m265.7 134.8-.1-.3s4.4-3-1-11.5l1.7-1.1s6.1 9 10 6.6 0 0-.1 0 .1 0 .1.1v-.1c41.4 10.8 38.8 31.5 38.8 31.5s-4.8 1.7-11.9-1.2c2 7.4-.1 11.9-.1 11.9s-4.4.1-9.7-4c1.4 6.5-.5 10.5-.5 10.5s-5.2.1-11.2-5.2c-.4 7.6-3.9 11.2-3.9 11.2s-19.9-6.2-12.1-48.4z" fill="#5954ff"/></g><g><path d="m282.1 116.5-.3-.1s-.4-5.3-10.4-4.8l-.1-2s10.9-.8 10.7-5.4h.1-.1c30.1-30.5 46.7-17.9 46.7-17.9s-.9 4.9-7 9.7c7.4 1.9 10.3 6.1 10.3 6.1s-2.1 3.8-8.3 6.4c6.3 2.1 8.8 5.7 8.8 5.7s-2.5 4.5-10 7.1c6.4 4.2 7.8 9 7.8 9s-15.5 14-48.2-13.8z" fill="#5954ff"/></g><g><circle cx="256.5" cy="113.9" fill="#5969ff" r="26.3"/></g><g><path d="m263.9 87.1-.1.4s-5.9.1-5.9 11.4h-2.2s-.4-12.1-5.4-12.1v-.1.1c-32.4-34.9-17.6-52.8-17.6-52.8s5.5 1.3 10.4 8.3c2.5-8.2 7.3-11.1 7.3-11.1s4.1 2.6 6.7 9.5c2.6-7 6.7-9.5 6.7-9.5s4.9 3.1 7.4 11.5c5-6.9 10.4-8.2 10.4-8.2s14.8 17.7-17.7 52.6z" fill="#5969ff"/></g><g><path d="m257.5 82.5c-1-1-2.1-1.7-3.3-2.2-13.4-14.9-17-25.7-17.6-32.1-.1-1.1-.1-2-.1-2.9.3.3.5.7.8 1.1 1.4 1.9 3.5 3 5.8 3 .4 0 .8 0 1.2-.1 2.7-.4 4.9-2.4 5.7-5 .1-.4.3-.9.4-1.2 1 2.8 3.7 4.7 6.7 4.7s5.7-1.9 6.7-4.7c.2.5.4 1 .5 1.5.8 2.6 3 4.6 5.7 5.1.4.1.8.1 1.2.1 2.3 0 4.5-1.1 5.8-3 .3-.4.5-.7.8-1 0 .9 0 1.9-.1 2.9-.6 6.6-4.3 17.5-18.2 32.8-.6.2-1.3.5-2 1z" fill="#5971ff"/></g><g><path d="m237.5 94.5.3.3s-2.8 5.2 6.9 10.8l-1.1 1.9s-10.7-5.8-13.2-1.4h.1-.1.1c-46.7 10.7-54.7-11.1-54.7-11.1s3.9-4.1 12.4-4.9c-5.8-6.3-6-11.9-6-11.9s4.3-2.3 11.6-1.1c-4.7-5.7-4.9-10.6-4.9-10.6s5.1-2.7 13.7-.6c-3.5-7.8-1.9-13.1-1.9-13.1s22.8-3.9 36.8 41.7z" fill="#5969ff"/></g><g><path d="m207.1 101.9c-9.9 0-16-2.2-19.7-4.5.4-.1.9-.1 1.3-.2 2.7-.3 5-2 6-4.6s.4-5.4-1.5-7.4c-.3-.3-.6-.7-.9-1 .4.1.8.1 1.2.1 2.5 0 4.9-1.3 6.2-3.6 1.5-2.6 1.2-5.8-.7-8.1.5.1 1.1.2 1.6.3.6.1 1.1.2 1.7.2 2.1 0 4.1-.9 5.5-2.6 1.7-2.1 2.1-5 1-7.5-.2-.4-.4-.8-.5-1.2 6 3.2 14.8 11.6 21.8 33.7-.1.7-.1 1.5 0 2.3-1.3.4-2.5 1-3.5 1.7-7 1.6-13.6 2.4-19.5 2.4z" fill="#5971ff"/></g><g><path d="m230.7 121.1.4-.1s3.1 5 12.8-.6l1.1 1.9s-10.3 6.4-7.8 10.8 0 0 0-.1 0 .1-.1.1h.1c-14 45.6-36.9 41.7-36.9 41.7s-1.6-5.4 1.9-13.2c-8.3 1.9-13.3-.7-13.3-.7s.2-4.9 4.9-10.6c-7.3 1.2-11.6-1.1-11.6-1.1s.2-5.8 6.3-12.2c-8.5-.8-12.3-4.9-12.3-4.9s8-21.6 54.5-11z" fill="#5969ff"/></g><g><path d="m208.2 165.9c.2-.4.3-.8.5-1.2 1.1-2.5.8-5.4-1-7.5-1.4-1.7-3.4-2.6-5.5-2.6-.5 0-1.1.1-1.6.2-.4.1-.9.2-1.3.3 1.9-2.3 2.2-5.6.7-8.1-1.3-2.2-3.7-3.6-6.2-3.6-.4 0-.8 0-1.2.1.3-.4.7-.8 1.1-1.2 1.9-2 2.5-4.9 1.5-7.4s-3.3-4.4-6-4.6c-.5 0-.9-.1-1.3-.2 3.7-2.3 9.8-4.5 19.7-4.5 6 0 12.9.8 20.3 2.5.6.5 1.3.9 2.1 1.2-.3 1.3-.4 2.6-.3 3.9-7 21.3-15.6 29.6-21.5 32.7z" fill="#5971ff"/></g><g><path d="m250.4 140.3.1-.4s5.9-.1 5.9-11.4h2.2s.4 12.1 5.4 12.1v.1-.1c32.4 34.9 17.6 52.8 17.6 52.8s-5.5-1.3-10.4-8.3c-2.5 8.2-7.3 11.1-7.3 11.1s-4.1-2.6-6.7-9.5c-2.6 7-6.7 9.5-6.7 9.5s-4.9-3.1-7.4-11.5c-5 6.9-10.4 8.2-10.4 8.2s-14.9-17.6 17.7-52.6z" fill="#5969ff"/></g><g><path d="m250.5 184.5c-.2-.5-.4-1-.5-1.5-.8-2.6-3-4.6-5.7-5.1-.4-.1-.8-.1-1.2-.1-2.3 0-4.5 1.1-5.8 3-.3.4-.5.7-.8 1 0-.9 0-1.9.1-2.9.6-6.6 4.3-17.5 18.2-32.8.7-.3 1.3-.7 2-1.1 1 1 2.1 1.7 3.3 2.2 13.4 14.9 17 25.7 17.6 32.1.1 1.1.1 2 .1 2.9-.3-.3-.5-.7-.8-1.1-1.4-1.9-3.5-3-5.8-3-.4 0-.8 0-1.2.1-2.7.4-4.9 2.4-5.7 5-.1.4-.3.9-.4 1.2-1-2.8-3.7-4.7-6.7-4.7-3 .1-5.7 1.9-6.7 4.8 0-.1 0-.1 0 0z" fill="#5971ff"/></g><g><path d="m276.8 132.9-.3-.3s2.8-5.2-6.9-10.8l1.1-1.9s10.7 5.8 13.2 1.4 0 0-.1 0h.1-.1c46.5-10.6 54.5 11.1 54.5 11.1s-3.9 4.1-12.4 4.9c5.8 6.3 6 11.9 6 11.9s-4.3 2.3-11.6 1.1c4.7 5.7 4.9 10.6 4.9 10.6s-5.1 2.7-13.7.6c3.5 7.8 1.9 13.1 1.9 13.1s-22.6 3.9-36.6-41.7z" fill="#5969ff"/></g><g><path d="m305.8 165.7c-6-3.2-14.8-11.6-21.8-33.7.1-.7.1-1.5 0-2.3 1.3-.4 2.5-1 3.5-1.7 7.2-1.5 13.8-2.3 19.6-2.3 9.9 0 16 2.2 19.7 4.5-.4.1-.9.1-1.3.2-2.7.3-5 2-6 4.6-1 2.5-.4 5.4 1.5 7.4.3.3.6.7.9 1-.4-.1-.8-.1-1.2-.1-2.5 0-4.9 1.3-6.2 3.6-1.5 2.6-1.2 5.8.7 8.1-.5-.1-1.1-.2-1.6-.3-.6-.1-1.1-.2-1.7-.2-2.1 0-4.1.9-5.5 2.6-1.7 2.1-2.1 5-1 7.5 0 .3.2.7.4 1.1z" fill="#5971ff"/></g><g><path d="m283.6 106.3-.4.1s-3.1-5-12.8.6l-1.1-1.9s10.3-6.4 7.8-10.8v.1s0-.1.1-.1h-.1c14-45.6 36.9-41.7 36.9-41.7s1.6 5.4-1.9 13.2c8.3-1.9 13.3.7 13.3.7s-.2 4.9-4.9 10.6c7.3-1.2 11.6 1.1 11.6 1.1s-.2 5.8-6.3 12.2c8.5.8 12.3 4.9 12.3 4.9s-8 21.7-54.5 11z" fill="#5969ff"/></g><g><path d="m306.8 102.1c-6 0-12.9-.8-20.3-2.5-.6-.5-1.3-.9-2.1-1.2.3-1.3.4-2.6.3-3.9 7-21.6 15.6-29.8 21.5-32.9-.2.4-.3.8-.5 1.2-1.1 2.5-.8 5.4 1 7.5 1.4 1.7 3.4 2.6 5.5 2.6.5 0 1.1-.1 1.6-.2.4-.1.9-.2 1.3-.3-1.9 2.3-2.2 5.6-.7 8.1 1.3 2.2 3.7 3.6 6.2 3.6.4 0 .8 0 1.2-.1-.3.4-.7.8-1.1 1.2-1.9 2-2.5 4.9-1.5 7.4 1 2.6 3.3 4.4 6 4.6.5 0 .9.1 1.3.2-3.7 2.5-9.8 4.7-19.7 4.7z" fill="#5971ff"/></g></g><g><g><g><path d="m257.3 102.9c-.3-2.8-2.1-4.7-3.2-7.3-1.4-3.4.5-5.7 2.8-8 1.2-1.2-.7-3.1-1.9-1.9-2 2-3.8 4.1-4 7-.3 4.1 3.2 6.4 3.6 10.2.2 1.7 2.9 1.7 2.7 0z" fill="#3a3ab5"/></g></g><g><g><path d="m251.3 104c-1.6-2.4-4.2-3.1-6.4-4.7-2.8-2.2-2.4-5.2-1.6-8.3.4-1.7-2.2-2.4-2.6-.7-.8 3-1.3 5.8.3 8.6 1.8 3.2 6 3.6 7.9 6.5 1.1 1.4 3.4.1 2.4-1.4z" fill="#3a3ab5"/></g></g><g><g><path d="m246.7 108.1c-2.9-1.3-5.8-.3-8.7-1-3.1-.8-4-3.6-4.8-6.3-.5-1.7-3-1-2.6.7.8 2.8 1.7 5.4 4.2 7.1 3.3 2.2 7.1.3 10.5 1.9 1.6.6 3-1.7 1.4-2.4z" fill="#3a3ab5"/></g></g><g><g><path d="m244.7 113.9c-2.8.3-4.7 2.1-7.3 3.2-3.4 1.4-5.7-.5-8-2.8-1.2-1.2-3.1.7-1.9 1.9 2 2 4.1 3.8 7 4 4.1.3 6.4-3.2 10.2-3.6 1.7-.2 1.7-2.9 0-2.7z" fill="#3a3ab5"/></g></g><g><g><path d="m245.9 119.9c-2.4 1.6-3.1 4.2-4.7 6.4-2.2 2.8-5.2 2.4-8.3 1.6-1.7-.4-2.4 2.2-.7 2.6 3 .8 5.8 1.3 8.6-.3 3.2-1.8 3.6-6 6.5-7.9 1.4-1.1 0-3.4-1.4-2.4z" fill="#3a3ab5"/></g></g><g><g><path d="m249.9 124.5c-1.3 2.9-.3 5.8-1 8.7-.8 3.1-3.6 4-6.3 4.8-1.7.5-1 3 .7 2.6 2.8-.8 5.4-1.7 7.1-4.2 2.2-3.3.3-7.1 1.9-10.5.7-1.6-1.6-3-2.4-1.4z" fill="#3a3ab5"/></g></g><g><g><path d="m255.7 126.5c.3 2.8 2.1 4.7 3.2 7.3 1.4 3.4-.5 5.7-2.8 8-1.2 1.2.7 3.1 1.9 1.9 2-2 3.8-4.1 4-7 .3-4.1-3.2-6.4-3.6-10.2-.2-1.7-2.8-1.7-2.7 0z" fill="#3a3ab5"/></g></g><g><g><path d="m261.7 125.3c1.6 2.4 4.2 3.1 6.4 4.7 2.8 2.2 2.4 5.2 1.6 8.3-.4 1.7 2.2 2.4 2.6.7.8-3 1.3-5.8-.3-8.6-1.8-3.2-6-3.6-7.9-6.5-1-1.4-3.3 0-2.4 1.4z" fill="#3a3ab5"/></g></g><g><g><path d="m266.4 121.3c2.9 1.3 5.8.3 8.7 1 3.1.8 4 3.6 4.8 6.3.5 1.7 3 1 2.6-.7-.8-2.8-1.7-5.4-4.2-7.1-3.3-2.2-7.1-.3-10.5-1.9-1.6-.7-3 1.6-1.4 2.4z" fill="#3a3ab5"/></g></g><g><g><path d="m268.3 115.5c2.8-.3 4.7-2.1 7.3-3.2 3.4-1.4 5.7.5 8 2.8 1.2 1.2 3.1-.7 1.9-1.9-2-2-4.1-3.8-7-4-4.1-.3-6.4 3.2-10.2 3.6-1.7.2-1.7 2.9 0 2.7z" fill="#3a3ab5"/></g></g><g><g><path d="m267.2 109.5c2.4-1.6 3.1-4.2 4.7-6.4 2.2-2.8 5.2-2.4 8.3-1.6 1.7.4 2.4-2.2.7-2.6-3-.8-5.8-1.3-8.6.3-3.2 1.8-3.6 6-6.5 7.9-1.4 1-.1 3.3 1.4 2.4z" fill="#3a3ab5"/></g></g><g><g><path d="m263.1 104.8c1.3-2.9.3-5.8 1-8.7.8-3.1 3.6-4 6.3-4.8 1.7-.5 1-3-.7-2.6-2.8.8-5.4 1.7-7.1 4.2-2.2 3.3-.3 7.1-1.9 10.5-.6 1.6 1.7 3 2.4 1.4z" fill="#3a3ab5"/></g></g></g><g><g><g><path d="m254.5 103c-1-2.7-3.2-4.1-4.8-6.3-2.2-2.9-.9-5.6.8-8.5.9-1.5-1.4-2.9-2.3-1.4-1.4 2.4-2.7 4.9-2.2 7.8.7 4 4.7 5.4 6 9 .4 1.7 3 1 2.5-.6z" fill="#2c2c88"/></g></g><g><g><path d="m248.9 105.6c-2.2-1.9-4.8-1.9-7.4-3-3.3-1.4-3.5-4.5-3.5-7.7 0-1.7-2.7-1.8-2.7-.1 0 3.1.2 6 2.4 8.3 2.6 2.7 6.6 2 9.3 4.4 1.3 1.1 3.2-.7 1.9-1.9z" fill="#2c2c88"/></g></g><g><g><path d="m245.4 110.6c-3.1-.6-5.7 1.1-8.7 1.1-3.2 0-4.7-2.5-6.1-5-.9-1.5-3.2-.2-2.3 1.3 1.4 2.5 2.9 4.9 5.7 5.8 3.8 1.3 7-1.4 10.7-.7 1.6.4 2.4-2.1.7-2.5z" fill="#2c2c88"/></g></g><g><g><path d="m244.9 116.7c-2.7 1-4.1 3.2-6.3 4.8-2.9 2.2-5.6.9-8.5-.8-1.5-.9-2.9 1.4-1.4 2.3 2.4 1.4 4.9 2.7 7.8 2.2 4-.7 5.4-4.7 9-6 1.6-.4 1-3-.6-2.5z" fill="#2c2c88"/></g></g><g><g><path d="m247.5 122.3c-1.9 2.2-1.9 4.8-3 7.4-1.4 3.3-4.5 3.5-7.7 3.5-1.7 0-1.8 2.7-.1 2.7 3.1 0 6-.2 8.3-2.4 2.7-2.6 2-6.6 4.4-9.3 1.1-1.3-.8-3.2-1.9-1.9z" fill="#2c2c88"/></g></g><g><g><path d="m252.5 125.8c-.6 3.1 1.1 5.7 1.1 8.7 0 3.2-2.5 4.7-5 6.1-1.5.9-.2 3.2 1.3 2.3 2.5-1.4 4.9-2.9 5.8-5.7 1.3-3.8-1.4-7-.7-10.7.4-1.6-2.2-2.4-2.5-.7z" fill="#2c2c88"/></g></g><g><g><path d="m258.6 126.3c1 2.7 3.2 4.1 4.8 6.3 2.2 2.9.9 5.6-.8 8.5-.9 1.5 1.4 2.9 2.3 1.4 1.4-2.4 2.7-4.9 2.2-7.8-.7-4-4.7-5.4-6-9-.5-1.6-3.1-1-2.5.6z" fill="#2c2c88"/></g></g><g><g><path d="m264.2 123.7c2.2 1.9 4.8 1.9 7.4 3 3.3 1.4 3.5 4.5 3.5 7.7 0 1.7 2.7 1.8 2.7.1 0-3.1-.2-6-2.4-8.3-2.6-2.7-6.6-2-9.3-4.4-1.3-1.1-3.2.8-1.9 1.9z" fill="#2c2c88"/></g></g><g><g><path d="m267.7 118.7c3.1.6 5.7-1.1 8.7-1.1 3.2 0 4.7 2.5 6.1 5 .9 1.5 3.2.2 2.3-1.3-1.4-2.5-2.9-4.9-5.7-5.8-3.8-1.3-7 1.4-10.7.7-1.7-.4-2.4 2.2-.7 2.5z" fill="#2c2c88"/></g></g><g><g><path d="m268.2 112.6c2.7-1 4.1-3.2 6.3-4.8 2.9-2.2 5.6-.9 8.5.8 1.5.9 2.9-1.4 1.4-2.3-2.4-1.4-4.9-2.7-7.8-2.2-4 .7-5.4 4.7-9 6-1.7.5-1 3.1.6 2.5z" fill="#2c2c88"/></g></g><g><g><path d="m265.6 107c1.9-2.2 1.9-4.8 3-7.4 1.4-3.3 4.5-3.5 7.7-3.5 1.7 0 1.8-2.7.1-2.7-3.1 0-6 .2-8.3 2.4-2.7 2.6-2 6.6-4.4 9.3-1.1 1.3.8 3.2 1.9 1.9z" fill="#2c2c88"/></g></g><g><g><path d="m260.6 103.5c.6-3.1-1.1-5.7-1.1-8.7 0-3.2 2.5-4.7 5-6.1 1.5-.9.2-3.2-1.3-2.3-2.5 1.4-4.9 2.9-5.8 5.7-1.3 3.8 1.4 7 .7 10.7-.4 1.7 2.1 2.4 2.5.7z" fill="#2c2c88"/></g></g></g><g><circle cx="270.8" cy="90" fill="#d8d8f0" r="2"/></g><g><circle cx="256.5" cy="86" fill="#d8d8f0" r="2"/></g><g><circle cx="242.3" cy="90" fill="#d8d8f0" r="2"/></g><g><circle cx="231.9" cy="100.7" fill="#d8d8f0" r="2"/></g><g><circle cx="228.1" cy="114.7" fill="#d8d8f0" r="2"/></g><g><circle cx="232.3" cy="128.9" fill="#d8d8f0" r="2"/></g><g><circle cx="242.9" cy="139.2" fill="#d8d8f0" r="2"/></g><g><circle cx="256.7" cy="142.8" fill="#d8d8f0" r="2"/></g><g><circle cx="270.8" cy="138.6" fill="#d8d8f0" r="2"/></g><g><circle cx="281.2" cy="128.1" fill="#d8d8f0" r="2"/></g><g><circle cx="284.7" cy="114.3" fill="#d8d8f0" r="2"/></g><g><circle cx="280.6" cy="100.2" fill="#d8d8f0" r="2"/></g><g><circle cx="256.9" cy="114.3" fill="#2c2c88" r="11.4"/></g></g><g><g><g><path d="m326.1 204.9c-.1.1-1.8-.7-3.4 2.4l-.7-.3s1.7-3.5.3-4.3c-4.1-14.8 2.8-17.6 2.8-17.6s1.4 1.2 1.7 3.9c1.9-2 3.7-2.1 3.7-2.1s.8 1.3.5 3.7c1.8-1.6 3.3-1.7 3.3-1.7s.9 1.6.4 4.4c2.4-1.2 4.2-.8 4.2-.8s1.6 7.2-12.8 12.4z" fill="#5954ff"/></g><g><path d="m317.5 203v.1s-1.6 1.1.4 4.1l-.6.4s-2.2-3.2-3.6-2.4c-14.8-3.9-13.9-11.2-13.9-11.2s1.7-.6 4.2.4c-.7-2.6 0-4.3 0-4.3s1.6 0 3.5 1.4c-.5-2.3.2-3.7.2-3.7s1.9 0 4 1.8c.1-2.7 1.4-4 1.4-4s7.1 2.4 4.4 17.4z" fill="#5954ff"/></g><g><path d="m311.6 209.6h.1s.1 1.9 3.7 1.7v.7s-3.9.3-3.8 1.9c-10.7 10.9-16.7 6.4-16.7 6.4s.3-1.8 2.5-3.5c-2.7-.7-3.7-2.2-3.7-2.2s.8-1.4 3-2.3c-2.3-.7-3.1-2-3.1-2s.9-1.6 3.6-2.5c-2.3-1.5-2.8-3.2-2.8-3.2s5.5-4.9 17.2 5z" fill="#5954ff"/></g><g><path d="m314.3 218c.1-.1 1.8.7 3.4-2.4l.6.3s-1.7 3.5-.3 4.3c4.1 14.8-2.8 17.6-2.8 17.6s-1.4-1.2-1.7-3.9c-1.9 2-3.7 2.1-3.7 2.1s-.8-1.3-.5-3.7c-1.8 1.6-3.3 1.7-3.3 1.7s-.9-1.6-.4-4.4c-2.4 1.2-4.2.8-4.2.8s-1.5-7.3 12.9-12.4z" fill="#5954ff"/></g><g><path d="m323 219.8v-.1s1.6-1.1-.4-4.1l.6-.4s2.2 3.2 3.6 2.4c14.8 3.9 13.9 11.2 13.9 11.2s-1.7.6-4.2-.4c.7 2.6 0 4.3 0 4.3s-1.6 0-3.5-1.4c.5 2.3-.2 3.7-.2 3.7s-1.9 0-4-1.8c-.1 2.7-1.4 4-1.4 4s-7.2-2.4-4.4-17.4z" fill="#5954ff"/></g><g><path d="m328.8 213.2h-.1s-.1-1.9-3.7-1.7v-.7s3.9-.3 3.8-1.9c10.7-10.9 16.7-6.4 16.7-6.4s-.3 1.8-2.5 3.5c2.7.7 3.7 2.2 3.7 2.2s-.8 1.4-3 2.3c2.3.7 3.1 2 3.1 2s-.9 1.6-3.6 2.5c2.3 1.5 2.8 3.2 2.8 3.2s-5.5 4.9-17.2-5z" fill="#5954ff"/></g><g><circle cx="319.7" cy="212.3" fill="#5969ff" r="9.7"/></g><g><path d="m322.4 202.5v.1s-2.2.1-2.2 4.2h-.8s-.1-4.5-2-4.5c-11.9-12.8-6.5-19.4-6.5-19.4s2 .5 3.8 3c.9-3 2.7-4.1 2.7-4.1s1.5.9 2.5 3.5c1-2.6 2.5-3.5 2.5-3.5s1.8 1.1 2.7 4.2c1.8-2.5 3.8-3 3.8-3s5.4 6.6-6.5 19.5z" fill="#5969ff"/></g><g><path d="m320 200.8c-.4-.4-.8-.6-1.2-.8-4.9-5.5-6.3-9.4-6.5-11.8 0-.4 0-.8 0-1.1.1.1.2.2.3.4.5.7 1.3 1.1 2.1 1.1h.4c1-.2 1.8-.9 2.1-1.8 0-.2.1-.3.2-.5.4 1 1.4 1.7 2.5 1.7s2.1-.7 2.5-1.7c.1.2.1.4.2.6.3 1 1.1 1.7 2.1 1.9h.4c.8 0 1.6-.4 2.1-1.1.1-.1.2-.3.3-.4v1.1c-.2 2.4-1.6 6.4-6.7 12-.3.1-.5.2-.8.4z" fill="#5971ff"/></g><g><path d="m312.7 205.2.1.1s-1 1.9 2.5 4l-.4.7s-3.9-2.1-4.9-.5c-17.1 3.9-20-4.1-20-4.1s1.4-1.5 4.5-1.8c-2.1-2.3-2.2-4.4-2.2-4.4s1.6-.8 4.3-.4c-1.7-2.1-1.8-3.9-1.8-3.9s1.9-1 5-.2c-1.3-2.9-.7-4.8-.7-4.8s8.4-1.5 13.6 15.3z" fill="#5969ff"/></g><g><path d="m301.5 207.9c-3.6 0-5.9-.8-7.2-1.7.2 0 .3 0 .5-.1 1-.1 1.9-.8 2.2-1.7.4-.9.1-2-.5-2.7-.1-.1-.2-.2-.3-.4h.4c.9 0 1.8-.5 2.3-1.3.5-1 .4-2.1-.3-3 .2 0 .4.1.6.1.2.1.4.1.6.1.8 0 1.5-.3 2-1 .6-.8.8-1.8.4-2.8-.1-.2-.1-.3-.2-.4 2.2 1.2 5.4 4.2 8 12.4v.9c-.5.1-.9.4-1.3.6-2.6.7-5 1-7.2 1z" fill="#5971ff"/></g><g><path d="m310.2 215h.1s1.1 1.9 4.7-.2l.4.7s-3.8 2.4-2.9 4c-5.2 16.7-13.6 15.3-13.6 15.3s-.6-2 .7-4.8c-3.1.7-4.9-.3-4.9-.3s.1-1.8 1.8-3.9c-2.7.5-4.3-.4-4.3-.4s.1-2.1 2.3-4.5c-3.1-.3-4.5-1.8-4.5-1.8s3.1-8 20.2-4.1z" fill="#5969ff"/></g><g><path d="m301.9 231.4c.1-.1.1-.3.2-.5.4-.9.3-2-.4-2.8-.5-.6-1.3-1-2-1-.2 0-.4 0-.6.1-.2 0-.3.1-.5.1.7-.8.8-2 .3-3-.5-.8-1.3-1.3-2.3-1.3-.1 0-.3 0-.4 0 .1-.1.3-.3.4-.4.7-.7.9-1.8.6-2.7-.4-.9-1.2-1.6-2.2-1.7-.2 0-.3 0-.5-.1 1.3-.8 3.6-1.7 7.2-1.7 2.2 0 4.7.3 7.5.9.2.2.5.3.8.5-.1.5-.2 1-.1 1.4-2.7 8.1-5.8 11.1-8 12.2z" fill="#5971ff"/></g><g><path d="m317.4 222v-.1s2.2-.1 2.2-4.2h.8s.1 4.5 2 4.5c11.9 12.8 6.5 19.4 6.5 19.4s-2-.5-3.8-3c-.9 3-2.7 4.1-2.7 4.1s-1.5-.9-2.5-3.5c-1 2.6-2.5 3.5-2.5 3.5s-1.8-1.1-2.7-4.2c-1.8 2.5-3.8 3-3.8 3s-5.4-6.6 6.5-19.5z" fill="#5969ff"/></g><g><path d="m317.4 238.3c-.1-.2-.1-.4-.2-.6-.3-1-1.1-1.7-2.1-1.9-.1 0-.3 0-.4 0-.8 0-1.6.4-2.1 1.1-.1.1-.2.3-.3.4 0-.3 0-.7 0-1.1.2-2.4 1.6-6.4 6.7-12 .2-.1.5-.2.7-.4.4.4.8.6 1.2.8 4.9 5.5 6.3 9.4 6.5 11.8v1.1c-.1-.1-.2-.2-.3-.4-.5-.7-1.3-1.1-2.1-1.1-.1 0-.3 0-.4 0-1 .2-1.8.9-2.1 1.8 0 .2-.1.3-.2.5-.4-1-1.4-1.7-2.5-1.7-1-.1-2 .6-2.4 1.7 0-.1 0-.1 0 0z" fill="#5971ff"/></g><g><path d="m327.1 219.3-.1-.1s1-1.9-2.5-4l.4-.7s3.9 2.1 4.9.5c17.1-3.9 20 4.1 20 4.1s-1.4 1.5-4.5 1.8c2.1 2.3 2.2 4.4 2.2 4.4s-1.6.8-4.3.4c1.7 2.1 1.8 3.9 1.8 3.9s-1.9 1-5 .2c1.3 2.9.7 4.8.7 4.8s-8.4 1.5-13.6-15.3z" fill="#5969ff"/></g><g><path d="m337.8 231.4c-2.2-1.2-5.4-4.2-8-12.4 0-.3 0-.5 0-.9.5-.1.9-.4 1.3-.6 2.7-.6 5.1-.9 7.2-.9 3.6 0 5.9.8 7.2 1.7-.2 0-.3 0-.5.1-1 .1-1.9.8-2.2 1.7-.4.9-.1 2 .5 2.7.1.1.2.2.3.4-.1 0-.3 0-.4 0-.9 0-1.8.5-2.3 1.3-.5 1-.4 2.1.3 3-.2 0-.4-.1-.6-.1-.2-.1-.4-.1-.6-.1-.8 0-1.5.3-2 1-.6.8-.8 1.8-.4 2.8 0 0 .1.1.2.3z" fill="#5971ff"/></g><g><path d="m329.6 209.5h-.1s-1.1-1.9-4.7.2l-.4-.7s3.8-2.4 2.9-4c5.2-16.7 13.6-15.3 13.6-15.3s.6 2-.7 4.8c3.1-.7 4.9.3 4.9.3s-.1 1.8-1.8 3.9c2.7-.5 4.3.4 4.3.4s-.1 2.1-2.3 4.5c3.1.3 4.5 1.8 4.5 1.8s-3.1 8.1-20.2 4.1z" fill="#5969ff"/></g><g><path d="m338.1 208c-2.2 0-4.7-.3-7.5-.9-.2-.2-.5-.3-.8-.5.1-.5.2-1 .1-1.4 2.6-7.9 5.7-10.9 7.9-12.1-.1.1-.1.3-.2.5-.4.9-.3 2 .4 2.8.5.6 1.3 1 2 1 .2 0 .4 0 .6-.1.2 0 .3-.1.5-.1-.7.8-.8 2-.3 3 .5.8 1.3 1.3 2.3 1.3h.4c-.1.1-.3.3-.4.4-.7.7-.9 1.8-.6 2.7.4.9 1.2 1.6 2.2 1.7.2 0 .3 0 .5.1-1.2.8-3.4 1.6-7.1 1.6z" fill="#5971ff"/></g></g><g><g><g><path d="m320 208.3c-.1-1-.8-1.7-1.2-2.7-.5-1.2.2-2.1 1-2.9.4-.5-.3-1.2-.7-.7-.7.7-1.4 1.5-1.5 2.6-.1 1.5 1.2 2.4 1.3 3.7.1.6 1.1.6 1.1 0z" fill="#3a3ab5"/></g></g><g><g><path d="m317.8 208.7c-.6-.9-1.6-1.1-2.4-1.7-1-.8-.9-1.9-.6-3 .2-.6-.8-.9-.9-.3-.3 1.1-.5 2.1.1 3.2.7 1.2 2.2 1.3 2.9 2.4.4.4 1.2-.1.9-.6z" fill="#3a3ab5"/></g></g><g><g><path d="m316.1 210.2c-1-.5-2.1-.1-3.2-.4s-1.5-1.3-1.8-2.3c-.2-.6-1.1-.3-.9.3.3 1 .6 2 1.5 2.6 1.2.8 2.6.1 3.9.7.5.2 1-.7.5-.9z" fill="#3a3ab5"/></g></g><g><g><path d="m315.3 212.3c-1 .1-1.7.8-2.7 1.2-1.2.5-2.1-.2-2.9-1-.5-.4-1.2.3-.7.7.7.7 1.5 1.4 2.6 1.5 1.5.1 2.4-1.2 3.7-1.3.7-.2.7-1.2 0-1.1z" fill="#3a3ab5"/></g></g><g><g><path d="m315.8 214.5c-.9.6-1.1 1.6-1.7 2.4-.8 1-1.9.9-3 .6-.6-.2-.9.8-.3.9 1.1.3 2.1.5 3.2-.1 1.2-.7 1.3-2.2 2.4-2.9.4-.4-.1-1.2-.6-.9z" fill="#3a3ab5"/></g></g><g><g><path d="m317.2 216.2c-.5 1-.1 2.1-.4 3.2s-1.3 1.5-2.3 1.8c-.6.2-.3 1.1.3.9 1-.3 2-.6 2.6-1.5.8-1.2.1-2.6.7-3.9.3-.6-.6-1.1-.9-.5z" fill="#3a3ab5"/></g></g><g><g><path d="m319.4 216.9c.1 1 .8 1.7 1.2 2.7.5 1.2-.2 2.1-1 2.9-.4.5.3 1.2.7.7.7-.7 1.4-1.5 1.5-2.6.1-1.5-1.2-2.4-1.3-3.7-.2-.6-1.2-.6-1.1 0z" fill="#3a3ab5"/></g></g><g><g><path d="m321.6 216.5c.6.9 1.6 1.1 2.4 1.7 1 .8.9 1.9.6 3-.2.6.8.9.9.3.3-1.1.5-2.1-.1-3.2-.7-1.2-2.2-1.3-2.9-2.4-.4-.4-1.3.1-.9.6z" fill="#3a3ab5"/></g></g><g><g><path d="m323.3 215c1 .5 2.1.1 3.2.4s1.5 1.3 1.8 2.3c.2.6 1.1.3.9-.3-.3-1-.6-2-1.5-2.6-1.2-.8-2.6-.1-3.9-.7-.6-.2-1.1.7-.5.9z" fill="#3a3ab5"/></g></g><g><g><path d="m324 212.9c1-.1 1.7-.8 2.7-1.2 1.2-.5 2.1.2 2.9 1 .5.4 1.2-.3.7-.7-.7-.7-1.5-1.4-2.6-1.5-1.5-.1-2.4 1.2-3.7 1.3-.6.2-.6 1.2 0 1.1z" fill="#3a3ab5"/></g></g><g><g><path d="m323.6 210.7c.9-.6 1.1-1.6 1.7-2.4.8-1 1.9-.9 3-.6.6.2.9-.8.3-.9-1.1-.3-2.1-.5-3.2.1-1.2.7-1.3 2.2-2.4 2.9-.4.4.1 1.2.6.9z" fill="#3a3ab5"/></g></g><g><g><path d="m322.1 209c.5-1 .1-2.1.4-3.2s1.3-1.5 2.3-1.8c.6-.2.3-1.1-.3-.9-1 .3-2 .6-2.6 1.5-.8 1.2-.1 2.6-.7 3.9-.2.6.6 1.1.9.5z" fill="#3a3ab5"/></g></g></g><g><g><g><path d="m318.9 208.3c-.4-1-1.2-1.5-1.8-2.3-.8-1.1-.3-2.1.3-3.1.3-.5-.5-1.1-.8-.5-.5.9-1 1.8-.8 2.9.3 1.5 1.7 2 2.2 3.3.2.5 1.1.3.9-.3z" fill="#2c2c88"/></g></g><g><g><path d="m316.9 209.3c-.8-.7-1.8-.7-2.7-1.1-1.2-.5-1.3-1.6-1.3-2.8 0-.6-1-.7-1 0 0 1.1.1 2.2.9 3.1.9 1 2.4.7 3.4 1.6.4.3 1.1-.4.7-.8z" fill="#2c2c88"/></g></g><g><g><path d="m315.6 211.1c-1.1-.2-2.1.4-3.2.4-1.2 0-1.7-.9-2.3-1.8-.3-.5-1.2-.1-.9.5.5.9 1.1 1.8 2.1 2.1 1.4.5 2.6-.5 3.9-.3.7.2 1-.8.4-.9z" fill="#2c2c88"/></g></g><g><g><path d="m315.4 213.4c-1 .4-1.5 1.2-2.3 1.8-1.1.8-2.1.3-3.1-.3-.5-.3-1.1.5-.5.8.9.5 1.8 1 2.9.8 1.5-.3 2-1.7 3.3-2.2.5-.2.3-1.1-.3-.9z" fill="#2c2c88"/></g></g><g><g><path d="m316.3 215.4c-.7.8-.7 1.8-1.1 2.7-.5 1.2-1.6 1.3-2.8 1.3-.6 0-.7 1 0 1 1.1 0 2.2-.1 3.1-.9 1-.9.7-2.4 1.6-3.4.3-.5-.3-1.2-.8-.7z" fill="#2c2c88"/></g></g><g><g><path d="m318.2 216.7c-.2 1.1.4 2.1.4 3.2 0 1.2-.9 1.7-1.8 2.3-.5.3-.1 1.2.5.9.9-.5 1.8-1.1 2.1-2.1.5-1.4-.5-2.6-.3-3.9.2-.7-.8-1-.9-.4z" fill="#2c2c88"/></g></g><g><g><path d="m320.4 216.9c.4 1 1.2 1.5 1.8 2.3.8 1.1.3 2.1-.3 3.1-.3.5.5 1.1.8.5.5-.9 1-1.8.8-2.9-.3-1.5-1.7-2-2.2-3.3-.1-.5-1.1-.3-.9.3z" fill="#2c2c88"/></g></g><g><g><path d="m322.5 215.9c.8.7 1.8.7 2.7 1.1 1.2.5 1.3 1.6 1.3 2.8 0 .6 1 .7 1 0 0-1.1-.1-2.2-.9-3.1-.9-1-2.4-.7-3.4-1.6-.5-.3-1.2.4-.7.8z" fill="#2c2c88"/></g></g><g><g><path d="m323.8 214.1c1.1.2 2.1-.4 3.2-.4 1.2 0 1.7.9 2.3 1.8.3.5 1.2.1.9-.5-.5-.9-1.1-1.8-2.1-2.1-1.4-.5-2.6.5-3.9.3-.8-.2-1.1.8-.4.9z" fill="#2c2c88"/></g></g><g><g><path d="m324 211.8c1-.4 1.5-1.2 2.3-1.8 1.1-.8 2.1-.3 3.1.3.5.3 1.1-.5.5-.8-.9-.5-1.8-1-2.9-.8-1.5.3-2 1.7-3.3 2.2-.6.2-.3 1.2.3.9z" fill="#2c2c88"/></g></g><g><g><path d="m323 209.8c.7-.8.7-1.8 1.1-2.7.5-1.2 1.6-1.3 2.8-1.3.6 0 .7-1 0-1-1.1 0-2.2.1-3.1.9-1 .9-.7 2.4-1.6 3.4-.3.5.4 1.2.8.7z" fill="#2c2c88"/></g></g><g><g><path d="m321.2 208.5c.2-1.1-.4-2.1-.4-3.2 0-1.2.9-1.7 1.8-2.3.5-.3.1-1.2-.5-.9-.9.5-1.8 1.1-2.1 2.1-.5 1.4.5 2.6.3 3.9-.2.8.7 1 .9.4z" fill="#2c2c88"/></g></g></g><g><circle cx="324.9" cy="203.6" fill="#d8d8f0" r=".7"/></g><g><circle cx="319.7" cy="202.1" fill="#d8d8f0" r=".7"/></g><g><circle cx="314.4" cy="203.6" fill="#d8d8f0" r=".7"/></g><g><circle cx="310.6" cy="207.5" fill="#d8d8f0" r=".7"/></g><g><circle cx="309.2" cy="212.6" fill="#d8d8f0" r=".7"/></g><g><circle cx="310.8" cy="217.8" fill="#d8d8f0" r=".7"/></g><g><circle cx="314.7" cy="221.6" fill="#d8d8f0" r=".7"/></g><g><circle cx="319.7" cy="222.9" fill="#d8d8f0" r=".7"/></g><g><circle cx="324.9" cy="221.4" fill="#d8d8f0" r=".7"/></g><g><circle cx="328.7" cy="217.6" fill="#d8d8f0" r=".7"/></g><g><circle cx="330" cy="212.5" fill="#d8d8f0" r=".7"/></g><g><circle cx="328.5" cy="207.3" fill="#d8d8f0" r=".7"/></g><g><circle cx="319.8" cy="212.5" fill="#2c2c88" r="4.2"/></g></g><g><g><g><path d="m200.2 224.7-.1.1s-2.4-1.2-4.7 3.3l-.9-.5s2.4-4.9.4-6 0 0 0-.1c-5.7-20.7 3.9-24.7 3.9-24.7s1.9 1.7 2.4 5.5c2.7-2.7 5.2-2.9 5.2-2.9s1.1 1.9.7 5.2c2.5-2.2 4.7-2.4 4.7-2.4s1.3 2.2.6 6.1c3.4-1.7 5.9-1.1 5.9-1.1s2.2 10.3-18.1 17.5z" fill="#5954ff"/></g><g><path d="m188.2 222.2v.2s-2.2 1.5.5 5.7l-.8.5s-3.1-4.5-5-3.3c-20.7-5.4-19.4-15.8-19.4-15.8s2.4-.8 5.9.6c-1-3.7.1-6 .1-6s2.2 0 4.9 2c-.7-3.3.2-5.2.2-5.2s2.6 0 5.6 2.6c.2-3.8 2-5.6 2-5.6s9.8 3.2 6 24.3z" fill="#5954ff"/></g><g><path d="m179.9 231.4h.2s.2 2.6 5.2 2.4v1s-5.5.4-5.4 2.7c-15.1 15.3-23.4 9-23.4 9s.5-2.5 3.5-4.8c-3.7-1-5.1-3-5.1-3s1.1-1.9 4.1-3.2c-3.2-1-4.4-2.8-4.4-2.8s1.3-2.3 5-3.5c-3.2-2.1-3.9-4.5-3.9-4.5s7.9-7.2 24.2 6.7z" fill="#5954ff"/></g><g><path d="m183.8 243.1.1-.1s2.4 1.2 4.7-3.3l.9.5s-2.4 4.9-.4 6v.1c5.7 20.7-3.9 24.7-3.9 24.7s-1.9-1.7-2.4-5.5c-2.7 2.7-5.2 2.9-5.2 2.9s-1.1-1.9-.7-5.2c-2.5 2.2-4.7 2.4-4.7 2.4s-1.3-2.2-.6-6.1c-3.4 1.7-5.9 1.1-5.9 1.1s-2.1-10.3 18.1-17.5z" fill="#5954ff"/></g><g><path d="m195.9 245.7v-.2s2.2-1.5-.5-5.7l.8-.5s3.1 4.5 5 3.3c20.7 5.4 19.4 15.8 19.4 15.8s-2.4.8-5.9-.6c1 3.7-.1 6-.1 6s-2.2 0-4.9-2c.7 3.3-.2 5.2-.2 5.2s-2.6 0-5.6-2.6c-.2 3.8-2 5.6-2 5.6s-9.9-3.2-6-24.3z" fill="#5954ff"/></g><g><path d="m204.1 236.5h-.2s-.2-2.6-5.2-2.4v-1s5.5-.4 5.4-2.7c15.1-15.3 23.4-9 23.4-9s-.5 2.5-3.5 4.8c3.7 1 5.1 3 5.1 3s-1.1 1.9-4.1 3.2c3.2 1 4.4 2.8 4.4 2.8s-1.3 2.3-5 3.5c3.2 2.1 3.9 4.5 3.9 4.5s-7.9 7.2-24.2-6.7z" fill="#5954ff"/></g><g><circle cx="191.2" cy="235.2" fill="#5969ff" r="13.3"/></g><g><path d="m195 221.7-.1.2s-3 .1-3 5.7h-1.1s-.2-6.1-2.7-6.1 0 0 0-.1v.1c-16.4-17.6-8.9-26.7-8.9-26.7s2.8.7 5.3 4.2c1.3-4.1 3.7-5.6 3.7-5.6s2.1 1.3 3.4 4.8c1.3-3.5 3.4-4.8 3.4-4.8s2.5 1.5 3.7 5.8c2.5-3.5 5.3-4.2 5.3-4.2s7.4 9-9 26.7z" fill="#5969ff"/></g><g><path d="m191.7 219.3c-.5-.5-1-.9-1.7-1.1-6.8-7.5-8.6-13-8.9-16.2-.1-.5-.1-1 0-1.5.1.2.3.3.4.5.7 1 1.8 1.5 2.9 1.5h.6c1.4-.2 2.5-1.2 2.9-2.5.1-.2.1-.4.2-.6.5 1.4 1.9 2.4 3.4 2.4s2.9-.9 3.4-2.4c.1.2.2.5.3.8.4 1.3 1.5 2.3 2.9 2.6.2 0 .4.1.6.1 1.2 0 2.3-.6 2.9-1.5.1-.2.3-.4.4-.5v1.5c-.3 3.3-2.2 8.9-9.2 16.6-.4-.1-.7.1-1.1.3z" fill="#5971ff"/></g><g><path d="m181.7 225.4.1.1s-1.4 2.6 3.5 5.5l-.6 1s-5.4-2.9-6.7-.7 0 0-.1 0c-23.5 5.4-27.5-5.6-27.5-5.6s1.9-2.1 6.2-2.5c-2.9-3.2-3-6-3-6s2.2-1.2 5.9-.5c-2.4-2.9-2.5-5.3-2.5-5.3s2.6-1.4 6.9-.3c-1.8-3.9-1-6.6-1-6.6s11.7-2.1 18.8 20.9z" fill="#5969ff"/></g><g><path d="m166.3 229.1c-5 0-8.1-1.1-9.9-2.3.2 0 .4-.1.7-.1 1.4-.1 2.5-1 3-2.3s.2-2.7-.7-3.7c-.2-.2-.3-.3-.4-.5.2 0 .4.1.6.1 1.3 0 2.5-.7 3.1-1.8.8-1.3.6-2.9-.3-4.1.3 0 .5.1.8.2s.6.1.9.1c1.1 0 2.1-.5 2.8-1.3.9-1.1 1.1-2.5.5-3.8-.1-.2-.2-.4-.3-.6 3 1.6 7.5 5.8 11 17v1.2c-.7.2-1.2.5-1.8.9-3.7.6-7 1-10 1z" fill="#5971ff"/></g><g><path d="m178.2 238.8h.2s1.6 2.5 6.5-.3l.6 1s-5.2 3.2-3.9 5.4c-7.1 23-18.6 21-18.6 21s-.8-2.7 1-6.6c-4.2 1-6.7-.4-6.7-.4s.1-2.5 2.5-5.3c-3.7.6-5.9-.5-5.9-.5s.1-2.9 3.2-6.1c-4.3-.4-6.2-2.5-6.2-2.5s3.8-11 27.3-5.7z" fill="#5969ff"/></g><g><path d="m166.8 261.4.3-.6c.6-1.3.4-2.7-.5-3.8-.7-.9-1.7-1.3-2.8-1.3-.3 0-.5 0-.8.1-.2.1-.4.1-.6.1 1-1.2 1.1-2.8.3-4.1-.7-1.1-1.9-1.8-3.1-1.8-.2 0-.4 0-.6.1.2-.2.3-.4.5-.6 1-1 1.3-2.5.8-3.8s-1.7-2.2-3-2.3c-.2 0-.4-.1-.7-.1 1.9-1.2 4.9-2.3 9.9-2.3 3 0 6.5.4 10.3 1.2.3.2.7.4 1.1.6-.2.7-.2 1.3-.1 2-3.6 10.9-8 15.1-11 16.6z" fill="#5971ff"/></g><g><path d="m188.1 248.5.1-.2s3-.1 3-5.7h1.1s.2 6.1 2.7 6.1v.1-.1c16.4 17.6 8.9 26.7 8.9 26.7s-2.8-.7-5.3-4.2c-1.3 4.1-3.7 5.6-3.7 5.6s-2.1-1.3-3.4-4.8c-1.3 3.5-3.4 4.8-3.4 4.8s-2.5-1.5-3.7-5.8c-2.5 3.5-5.3 4.2-5.3 4.2s-7.4-9 9-26.7z" fill="#5969ff"/></g><g><path d="m188.2 270.8c-.1-.2-.2-.5-.3-.8-.4-1.3-1.5-2.3-2.9-2.6-.2 0-.4-.1-.6-.1-1.2 0-2.3.6-2.9 1.5-.1.2-.3.4-.4.5 0-.5 0-.9 0-1.5.3-3.3 2.2-8.9 9.2-16.6.3-.1.7-.3 1-.6.5.5 1 .9 1.7 1.1 6.8 7.5 8.6 13 8.9 16.2.1.5.1 1 0 1.5-.1-.2-.3-.3-.4-.5-.7-1-1.8-1.5-2.9-1.5-.2 0-.4 0-.6 0-1.4.2-2.5 1.2-2.9 2.5-.1.2-.1.4-.2.6-.5-1.4-1.9-2.4-3.4-2.4-1.4.3-2.8 1.3-3.3 2.7z" fill="#5971ff"/></g><g><path d="m201.5 244.8-.1-.1s1.4-2.6-3.5-5.5l.6-1s5.4 2.9 6.7.7h.1c23.5-5.4 27.5 5.6 27.5 5.6s-1.9 2.1-6.2 2.5c2.9 3.2 3 6 3 6s-2.2 1.2-5.9.5c2.4 2.9 2.5 5.3 2.5 5.3s-2.6 1.4-6.9.3c1.8 3.9 1 6.6 1 6.6s-11.7 2.1-18.8-20.9z" fill="#5969ff"/></g><g><path d="m216.1 261.3c-3-1.6-7.5-5.8-11-17 0-.4 0-.8 0-1.2.7-.2 1.2-.5 1.8-.9 3.6-.8 7-1.2 9.9-1.2 5 0 8.1 1.1 9.9 2.3-.2 0-.4.1-.7.1-1.4.1-2.5 1-3 2.3s-.2 2.7.7 3.7c.2.2.3.3.4.5-.2 0-.4-.1-.6-.1-1.3 0-2.5.7-3.1 1.8-.8 1.3-.6 2.9.3 4.1-.3 0-.5-.1-.8-.2s-.6-.1-.9-.1c-1.1 0-2.1.5-2.8 1.3-.9 1.1-1.1 2.5-.5 3.8.3.4.3.6.4.8z" fill="#5971ff"/></g><g><path d="m204.9 231.4h-.2s-1.6-2.5-6.5.3l-.6-1s5.2-3.2 3.9-5.4c7.1-23 18.6-21 18.6-21s.8 2.7-1 6.6c4.2-1 6.7.4 6.7.4s-.1 2.5-2.5 5.3c3.7-.6 5.9.5 5.9.5s-.1 2.9-3.2 6.1c4.3.4 6.2 2.5 6.2 2.5s-3.8 11-27.3 5.7z" fill="#5969ff"/></g><g><path d="m216.6 229.2c-3 0-6.5-.4-10.3-1.2-.3-.2-.7-.4-1.1-.6.2-.7.2-1.3.1-2 3.5-10.9 7.9-15 10.9-16.6-.1.2-.2.4-.3.6-.6 1.3-.4 2.7.5 3.8.7.9 1.7 1.3 2.8 1.3.3 0 .5 0 .8-.1.2-.1.4-.1.6-.1-1 1.2-1.1 2.8-.3 4.1.7 1.1 1.9 1.8 3.1 1.8.2 0 .4 0 .6-.1-.2.2-.3.4-.5.6-1 1-1.3 2.5-.8 3.8s1.7 2.2 3 2.3c.2 0 .4.1.7.1-1.7 1.2-4.8 2.3-9.8 2.3z" fill="#5971ff"/></g></g><g><g><g><path d="m191.7 229.6c-.1-1.4-1.1-2.4-1.6-3.7-.7-1.7.3-2.9 1.4-4 .6-.6-.3-1.6-1-1-1 1-1.9 2.1-2 3.5-.1 2.1 1.6 3.2 1.8 5.1.1 1 1.5 1 1.4.1z" fill="#3a3ab5"/></g></g><g><g><path d="m188.6 230.2c-.8-1.2-2.1-1.5-3.2-2.4-1.4-1.1-1.2-2.6-.8-4.2.2-.8-1.1-1.2-1.3-.4-.4 1.5-.6 2.9.2 4.4.9 1.6 3 1.8 4 3.3.4.7 1.6 0 1.1-.7z" fill="#3a3ab5"/></g></g><g><g><path d="m186.3 232.2c-1.4-.7-2.9-.1-4.4-.5-1.6-.4-2-1.8-2.4-3.2-.2-.8-1.5-.5-1.3.4.4 1.4.8 2.7 2.1 3.6 1.7 1.1 3.6.2 5.3.9.8.4 1.5-.8.7-1.2z" fill="#3a3ab5"/></g></g><g><g><path d="m185.3 235.2c-1.4.1-2.4 1.1-3.7 1.6-1.7.7-2.9-.3-4-1.4-.6-.6-1.6.3-1 1 1 1 2.1 1.9 3.5 2 2.1.1 3.2-1.6 5.1-1.8 1-.2 1-1.5.1-1.4z" fill="#3a3ab5"/></g></g><g><g><path d="m185.9 238.2c-1.2.8-1.5 2.1-2.4 3.2-1.1 1.4-2.6 1.2-4.2.8-.8-.2-1.2 1.1-.4 1.3 1.5.4 2.9.6 4.4-.2 1.6-.9 1.8-3 3.3-4 .7-.4 0-1.6-.7-1.1z" fill="#3a3ab5"/></g></g><g><g><path d="m187.9 240.5c-.7 1.4-.1 2.9-.5 4.4-.4 1.6-1.8 2-3.2 2.4-.8.2-.5 1.5.4 1.3 1.4-.4 2.7-.8 3.6-2.1 1.1-1.7.2-3.6.9-5.3.4-.8-.8-1.4-1.2-.7z" fill="#3a3ab5"/></g></g><g><g><path d="m190.9 241.5c.1 1.4 1.1 2.4 1.6 3.7.7 1.7-.3 2.9-1.4 4-.6.6.3 1.6 1 1 1-1 1.9-2.1 2-3.5.1-2.1-1.6-3.2-1.8-5.1-.2-.9-1.5-.9-1.4-.1z" fill="#3a3ab5"/></g></g><g><g><path d="m193.9 241c.8 1.2 2.1 1.5 3.2 2.4 1.4 1.1 1.2 2.6.8 4.2-.2.8 1.1 1.2 1.3.4.4-1.5.6-2.9-.2-4.4-.9-1.6-3-1.8-4-3.3-.4-.7-1.6-.1-1.1.7z" fill="#3a3ab5"/></g></g><g><g><path d="m196.2 238.9c1.4.7 2.9.1 4.4.5 1.6.4 2 1.8 2.4 3.2.2.8 1.5.5 1.3-.4-.4-1.4-.8-2.7-2.1-3.6-1.7-1.1-3.6-.2-5.3-.9-.8-.3-1.5.8-.7 1.2z" fill="#3a3ab5"/></g></g><g><g><path d="m197.2 236c1.4-.1 2.4-1.1 3.7-1.6 1.7-.7 2.9.3 4 1.4.6.6 1.6-.3 1-1-1-1-2.1-1.9-3.5-2-2.1-.1-3.2 1.6-5.1 1.8-.9.1-.9 1.5-.1 1.4z" fill="#3a3ab5"/></g></g><g><g><path d="m196.6 232.9c1.2-.8 1.5-2.1 2.4-3.2 1.1-1.4 2.6-1.2 4.2-.8.8.2 1.2-1.1.4-1.3-1.5-.4-2.9-.6-4.4.2-1.6.9-1.8 3-3.3 4-.7.5 0 1.6.7 1.1z" fill="#3a3ab5"/></g></g><g><g><path d="m194.6 230.6c.7-1.4.1-2.9.5-4.4.4-1.6 1.8-2 3.2-2.4.8-.2.5-1.5-.4-1.3-1.4.4-2.7.8-3.6 2.1-1.1 1.7-.2 3.6-.9 5.3-.3.8.8 1.5 1.2.7z" fill="#3a3ab5"/></g></g></g><g><g><g><path d="m190.2 229.7c-.5-1.4-1.6-2.1-2.4-3.2-1.1-1.5-.4-2.9.4-4.3.4-.8-.7-1.5-1.2-.7-.7 1.2-1.4 2.5-1.1 3.9.4 2 2.4 2.7 3 4.6.3.8 1.6.5 1.3-.3z" fill="#2c2c88"/></g></g><g><g><path d="m187.4 231c-1.1-1-2.4-1-3.7-1.5-1.7-.7-1.8-2.3-1.8-3.9 0-.9-1.3-.9-1.4 0 0 1.6.1 3 1.2 4.2 1.3 1.4 3.4 1 4.7 2.2.7.5 1.7-.4 1-1z" fill="#2c2c88"/></g></g><g><g><path d="m185.6 233.5c-1.6-.3-2.9.6-4.4.6-1.6 0-2.4-1.3-3.1-2.5-.4-.8-1.6-.1-1.2.7.7 1.3 1.5 2.5 2.9 2.9 1.9.7 3.5-.7 5.4-.4.9.2 1.3-1.1.4-1.3z" fill="#2c2c88"/></g></g><g><g><path d="m185.4 236.6c-1.4.5-2.1 1.6-3.2 2.4-1.5 1.1-2.9.4-4.3-.4-.8-.4-1.5.7-.7 1.2 1.2.7 2.5 1.4 3.9 1.1 2-.4 2.7-2.4 4.6-3 .8-.3.5-1.6-.3-1.3z" fill="#2c2c88"/></g></g><g><g><path d="m186.7 239.4c-1 1.1-1 2.4-1.5 3.7-.7 1.7-2.3 1.8-3.9 1.8-.9 0-.9 1.3 0 1.4 1.6 0 3-.1 4.2-1.2 1.4-1.3 1-3.4 2.2-4.7.5-.6-.4-1.6-1-1z" fill="#2c2c88"/></g></g><g><g><path d="m189.2 241.2c-.3 1.6.6 2.9.6 4.4 0 1.6-1.3 2.4-2.5 3.1-.8.4-.1 1.6.7 1.2 1.3-.7 2.5-1.5 2.9-2.9.7-1.9-.7-3.5-.4-5.4.2-.9-1.1-1.3-1.3-.4z" fill="#2c2c88"/></g></g><g><g><path d="m192.3 241.5c.5 1.4 1.6 2.1 2.4 3.2 1.1 1.5.4 2.9-.4 4.3-.4.8.7 1.5 1.2.7.7-1.2 1.4-2.5 1.1-3.9-.4-2-2.4-2.7-3-4.6-.3-.9-1.6-.6-1.3.3z" fill="#2c2c88"/></g></g><g><g><path d="m195.1 240.2c1.1 1 2.4 1 3.7 1.5 1.7.7 1.8 2.3 1.8 3.9 0 .9 1.3.9 1.4 0 0-1.6-.1-3-1.2-4.2-1.3-1.4-3.4-1-4.7-2.2-.7-.6-1.6.4-1 1z" fill="#2c2c88"/></g></g><g><g><path d="m196.9 237.6c1.6.3 2.9-.6 4.4-.6 1.6 0 2.4 1.3 3.1 2.5.4.8 1.6.1 1.2-.7-.7-1.3-1.5-2.5-2.9-2.9-1.9-.7-3.5.7-5.4.4-.9-.1-1.3 1.2-.4 1.3z" fill="#2c2c88"/></g></g><g><g><path d="m197.1 234.5c1.4-.5 2.1-1.6 3.2-2.4 1.5-1.1 2.9-.4 4.3.4.8.4 1.5-.7.7-1.2-1.2-.7-2.5-1.4-3.9-1.1-2 .4-2.7 2.4-4.6 3-.8.3-.5 1.6.3 1.3z" fill="#2c2c88"/></g></g><g><g><path d="m195.8 231.7c1-1.1 1-2.4 1.5-3.7.7-1.7 2.3-1.8 3.9-1.8.9 0 .9-1.3 0-1.4-1.6 0-3 .1-4.2 1.2-1.4 1.3-1 3.4-2.2 4.7-.5.7.5 1.7 1 1z" fill="#2c2c88"/></g></g><g><g><path d="m193.3 230c.3-1.6-.6-2.9-.6-4.4 0-1.6 1.3-2.4 2.5-3.1.8-.4.1-1.6-.7-1.2-1.3.7-2.5 1.5-2.9 2.9-.7 1.9.7 3.5.4 5.4-.2.8 1.1 1.2 1.3.4z" fill="#2c2c88"/></g></g></g><g><circle cx="198.5" cy="223.1" fill="#d8d8f0" r="1"/></g><g><circle cx="191.3" cy="221.1" fill="#d8d8f0" r="1"/></g><g><circle cx="184" cy="223.1" fill="#d8d8f0" r="1"/></g><g><circle cx="178.8" cy="228.5" fill="#d8d8f0" r="1"/></g><g><circle cx="176.9" cy="235.6" fill="#d8d8f0" r="1"/></g><g><circle cx="179" cy="242.8" fill="#d8d8f0" r="1"/></g><g><circle cx="184.4" cy="248" fill="#d8d8f0" r="1"/></g><g><circle cx="191.3" cy="249.8" fill="#d8d8f0" r="1"/></g><g><circle cx="198.5" cy="247.6" fill="#d8d8f0" r="1"/></g><g><circle cx="203.7" cy="242.4" fill="#d8d8f0" r="1"/></g><g><circle cx="205.5" cy="235.4" fill="#d8d8f0" r="1"/></g><g><circle cx="203.4" cy="228.3" fill="#d8d8f0" r="1"/></g><g><circle cx="191.5" cy="235.4" fill="#2c2c88" r="5.7"/></g></g><g><path d="m282.7 386.6s26.8-47.3 53.2-58 25.6-16.5 25.6-16.5-.1 41.1-22.5 55c-22.4 13.8-61.2 52.3-61.2 52.3z" fill="#769319"/></g><g><path d="m281.3 396.2s-29.6-49.2-44.8-51.9-18.1-8.8-18.1-8.8-3.1 25.8 18.1 37.3c21.3 11.5 40.1 51.5 40.1 51.5z" fill="#769319"/></g><g><path d="m349.1 331.4-65.1 69.2.6-4.6z" fill="#657d15"/></g><g><path d="m277.8 407.1v3.9s-34.1-51.5-43.7-52.5c0 0 8.7 2.3 18.7 15 10.6 13.3 25 33.6 25 33.6z" fill="#657d15"/></g></svg>