<svg id="Capa_1" enable-background="new 0 0 510 510" height="512" viewBox="0 0 510 510" width="512" xmlns="http://www.w3.org/2000/svg" xmlns:xlink="http://www.w3.org/1999/xlink"><linearGradient id="lg1"><stop offset="0" stop-color="#d1f19e"/><stop offset="1" stop-color="#78a91f"/></linearGradient><linearGradient id="SVGID_1_" gradientTransform="matrix(-.966 .259 .259 .966 4218.013 -78.324)" gradientUnits="userSpaceOnUse" x1="4053.301" x2="4052.214" xlink:href="#lg1" y1="-589.306" y2="-617.929"/><linearGradient id="lg2"><stop offset="0" stop-color="#026841" stop-opacity="0"/><stop offset=".3243" stop-color="#046842" stop-opacity=".324"/><stop offset=".5509" stop-color="#0e6546" stop-opacity=".551"/><stop offset=".7476" stop-color="#1d614c" stop-opacity=".748"/><stop offset=".9263" stop-color="#335c54" stop-opacity=".926"/><stop offset="1" stop-color="#3e5959"/></linearGradient><linearGradient id="SVGID_00000168111076797422961640000002637817315016362171_" gradientTransform="matrix(-.966 .259 .259 .966 4218.013 -78.324)" gradientUnits="userSpaceOnUse" x1="4053.336" x2="4050.75" xlink:href="#lg2" y1="-601.544" y2="-623.707"/><linearGradient id="SVGID_00000098222021450832668400000006083112581381172407_" gradientTransform="matrix(-.966 .259 .259 .966 4218.013 -78.324)" gradientUnits="userSpaceOnUse" x1="3967.915" x2="4018.15" xlink:href="#lg1" y1="-659.14" y2="-574.921"/><linearGradient id="SVGID_00000074417454254811824740000016754126880652165788_" gradientTransform="matrix(-1 0 0 1 3398.406 0)" gradientUnits="userSpaceOnUse" x1="3181.694" x2="3136.538" xlink:href="#lg2" y1="365.057" y2="360.541"/><linearGradient id="SVGID_00000111161615434235587800000016473589380546350008_" gradientTransform="matrix(-1 0 0 1 3398.406 0)" gradientUnits="userSpaceOnUse" x1="3204.973" x2="3186.007" xlink:href="#lg2" y1="385.387" y2="329.845"/><linearGradient id="SVGID_00000062891231854316206700000011889540232024188607_" gradientTransform="matrix(-1 0 0 1 3398.406 0)" gradientUnits="userSpaceOnUse" x1="3180.146" x2="3152.15" xlink:href="#lg2" y1="382.808" y2="415.32"/><linearGradient id="SVGID_00000012470126154812400540000014755227276647281341_" gradientTransform="matrix(-1 0 0 1 3398.406 0)" gradientUnits="userSpaceOnUse" x1="3197.422" x2="3195.39" xlink:href="#lg1" y1="325.56" y2="347.913"/><linearGradient id="SVGID_00000032632534426987359600000014487047258401984438_" gradientUnits="userSpaceOnUse" x1="246.451" x2="192.451" xlink:href="#lg1" y1="303.245" y2="366.245"/><linearGradient id="SVGID_00000174601396598980626030000008176460302103524240_" gradientUnits="userSpaceOnUse" x1="190.982" x2="157.649" xlink:href="#lg2" y1="262.252" y2="203.585"/><linearGradient id="lg3"><stop offset="0" stop-color="#fd4755"/><stop offset=".3362" stop-color="#e43f48"/><stop offset="1" stop-color="#a72b2b"/></linearGradient><linearGradient id="SVGID_00000122679760405549576280000017278847001072303786_" gradientTransform="matrix(.866 -.5 .5 .866 -68.16 53.42)" gradientUnits="userSpaceOnUse" x1="117.134" x2="117.134" xlink:href="#lg3" y1="112.938" y2="150.985"/><linearGradient id="lg4"><stop offset="0" stop-color="#a72b2b" stop-opacity="0"/><stop offset="1" stop-color="#481f05"/></linearGradient><linearGradient id="SVGID_00000030453535564743074680000003964133284776625075_" gradientTransform="matrix(.866 -.5 .5 .866 -68.16 53.42)" gradientUnits="userSpaceOnUse" x1="120.282" x2="95.615" xlink:href="#lg4" y1="159.399" y2="181.399"/><linearGradient id="SVGID_00000145021816501072465090000003289071193969115046_" gradientTransform="matrix(.866 -.5 .5 .866 -68.16 53.42)" gradientUnits="userSpaceOnUse" x1="114.36" x2="52.963" xlink:href="#lg4" y1="177.894" y2="196.625"/><linearGradient id="SVGID_00000151508849878070471430000010394601992082054788_" gradientTransform="matrix(.866 -.5 .5 .866 -68.16 53.42)" gradientUnits="userSpaceOnUse" x1="122.888" x2="155.127" xlink:href="#lg4" y1="178.954" y2="194.69"/><linearGradient id="SVGID_00000008840548678832947280000016968047918388711584_" gradientTransform="matrix(.866 -.5 .5 .866 -68.16 53.42)" gradientUnits="userSpaceOnUse" x1="117.134" x2="117.134" xlink:href="#lg4" y1="193.38" y2="254.483"/><linearGradient id="SVGID_00000106868177638833921700000001756692340268804240_" gradientTransform="matrix(.866 -.5 .5 .866 -68.16 53.42)" gradientUnits="userSpaceOnUse" x1="145.363" x2="195.363" xlink:href="#lg3" y1="173.673" y2="201.673"/><linearGradient id="SVGID_00000036930253796169297780000000744052807164977577_" gradientTransform="matrix(.866 -.5 .5 .866 -68.16 53.42)" gradientUnits="userSpaceOnUse" x1="190.988" x2="138.988" xlink:href="#lg4" y1="182.962" y2="184.962"/><linearGradient id="SVGID_00000011027196875783091870000017429070795480722080_" gradientTransform="matrix(.866 -.5 .5 .866 -68.16 53.42)" gradientUnits="userSpaceOnUse" x1="34.664" x2="103.33" xlink:href="#lg3" y1="177.589" y2="193.589"/><linearGradient id="SVGID_00000139273586684007402110000012384933595862366377_" gradientTransform="matrix(.866 -.5 -.5 -.866 48.43 501.34)" gradientUnits="userSpaceOnUse" x1="166.195" x2="233.444" xlink:href="#lg4" y1="263.897" y2="259.15"/><linearGradient id="SVGID_00000015355965569569623580000017901656453890438323_" gradientTransform="matrix(.866 -.5 .5 .866 -68.16 53.42)" gradientUnits="userSpaceOnUse" x1="84.365" x2="141.865" xlink:href="#lg3" y1="152.06" y2="216.56"/><linearGradient id="SVGID_00000047021474342946029070000008731910134350571910_" gradientTransform="matrix(.866 -.5 -.5 -.866 48.43 501.34)" gradientUnits="userSpaceOnUse" x1="240.124" x2="240.124" xlink:href="#lg4" y1="232.517" y2="191.353"/><linearGradient id="SVGID_00000067938387766338112280000010003007628313354675_" gradientTransform="matrix(.866 -.5 .5 .866 325.43 981.119)" gradientUnits="userSpaceOnUse" x1="260.466" x2="200.452" xlink:href="#lg4" y1="-820.33" y2="-784.057"/><linearGradient id="SVGID_00000044136875067744711780000006007507003006142339_" gradientTransform="matrix(.966 .259 -.259 .966 -819.607 -78.324)" gradientUnits="userSpaceOnUse" x1="1305.846" x2="1305.034" xlink:href="#lg1" y1="221.422" y2="200.049"/><linearGradient id="SVGID_00000084511672916100517070000001064133064494041259_" gradientTransform="matrix(.966 .259 -.259 .966 -819.607 -78.324)" gradientUnits="userSpaceOnUse" x1="1305.872" x2="1303.941" xlink:href="#lg2" y1="212.284" y2="195.735"/><linearGradient id="SVGID_00000015322776603750720650000008510170833106312111_" gradientTransform="matrix(.966 .259 -.259 .966 -819.607 -78.324)" gradientUnits="userSpaceOnUse" x1="1242.088" x2="1279.599" xlink:href="#lg1" y1="169.277" y2="232.163"/><linearGradient id="SVGID_00000097466559453126143250000012392585728308369545_" gradientUnits="userSpaceOnUse" x1="334.846" x2="301.128" xlink:href="#lg2" y1="446.303" y2="442.931"/><linearGradient id="SVGID_00000178886679266521867280000010554402783505466559_" gradientUnits="userSpaceOnUse" x1="352.228" x2="338.067" xlink:href="#lg2" y1="461.483" y2="420.01"/><linearGradient id="SVGID_00000022534480979251786530000011279687154531051665_" gradientUnits="userSpaceOnUse" x1="333.69" x2="312.785" xlink:href="#lg2" y1="459.557" y2="483.834"/><linearGradient id="SVGID_00000014606907823575179460000008986600904220145281_" gradientUnits="userSpaceOnUse" x1="346.59" x2="345.073" xlink:href="#lg1" y1="416.81" y2="433.501"/><linearGradient id="SVGID_00000079476373210588006650000004832687791586306208_" gradientUnits="userSpaceOnUse" x1="290.355" x2="314.355" xlink:href="#lg1" y1="325.658" y2="326.991"/><linearGradient id="SVGID_00000032613190266625577570000005493942864552877224_" gradientUnits="userSpaceOnUse" x1="297.007" x2="306.507" xlink:href="#lg2" y1="339.709" y2="305.209"/><linearGradient id="SVGID_00000172416863943632172140000014929705787395290773_" gradientUnits="userSpaceOnUse" x1="444.999" x2="410.79" xlink:href="#lg3" y1="83.166" y2="92.713"/><linearGradient id="SVGID_00000025438265620729206040000016748184105763962297_" gradientUnits="userSpaceOnUse" x1="290.632" x2="286.654" xlink:href="#lg3" y1="272.914" y2="215.634"/><linearGradient id="SVGID_00000145046626890860832630000007986434982926678186_" gradientUnits="userSpaceOnUse" x1="451.33" x2="405.809" xlink:href="#lg3" y1="264.003" y2="218.482"/><linearGradient id="SVGID_00000145756965724532330100000000232514846723685024_" gradientUnits="userSpaceOnUse" x1="230.946" x2="284.248" xlink:href="#lg3" y1="39.57" y2="97.646"/><linearGradient id="SVGID_00000158747676295840358070000005494754111903441808_" gradientUnits="userSpaceOnUse" x1="314.767" x2="392.529" xlink:href="#lg3" y1="31.687" y2="109.448"/><linearGradient id="SVGID_00000047059567238126241120000004958517082890177923_" gradientUnits="userSpaceOnUse" x1="341.572" x2="278.988" xlink:href="#lg4" y1="78.765" y2="97.858"/><linearGradient id="SVGID_00000066485295473477785750000011868588828210632118_" gradientUnits="userSpaceOnUse" x1="350.467" x2="383.881" xlink:href="#lg4" y1="80.066" y2="96.375"/><linearGradient id="SVGID_00000061453688647457943480000003793398627248448907_" gradientUnits="userSpaceOnUse" x1="344.327" x2="344.327" xlink:href="#lg4" y1="95.207" y2="160.136"/><linearGradient id="SVGID_00000121248264473359649750000016910474113295503290_" gradientTransform="matrix(1 0 0 -1 0 707.346)" gradientUnits="userSpaceOnUse" x1="314.767" x2="392.529" xlink:href="#lg3" y1="425.032" y2="502.794"/><linearGradient id="SVGID_00000178175802916341794510000007380229553618081167_" gradientTransform="matrix(1 0 0 -1 0 707.346)" gradientUnits="userSpaceOnUse" x1="341.572" x2="278.988" xlink:href="#lg4" y1="472.11" y2="491.204"/><linearGradient id="SVGID_00000072277741930839197430000018069439134693854372_" gradientTransform="matrix(1 0 0 -1 0 707.346)" gradientUnits="userSpaceOnUse" x1="350.467" x2="383.881" xlink:href="#lg4" y1="473.411" y2="489.72"/><linearGradient id="SVGID_00000059305178255888237410000010856475131283815834_" gradientTransform="matrix(1 0 0 -1 0 707.346)" gradientUnits="userSpaceOnUse" x1="344.327" x2="344.327" xlink:href="#lg4" y1="488.552" y2="553.482"/><linearGradient id="SVGID_00000055666266580303332970000006234209451141200037_" gradientTransform="matrix(0 1 -1 0 510 0)" gradientUnits="userSpaceOnUse" x1="127.44" x2="205.201" xlink:href="#lg3" y1="40.359" y2="118.121"/><linearGradient id="SVGID_00000072973700116149542150000003032211769972773013_" gradientTransform="matrix(0 1 -1 0 510 0)" gradientUnits="userSpaceOnUse" x1="154.245" x2="91.661" xlink:href="#lg4" y1="87.438" y2="106.531"/><linearGradient id="SVGID_00000183232179896354488130000015044174929492797353_" gradientTransform="matrix(0 1 -1 0 510 0)" gradientUnits="userSpaceOnUse" x1="163.14" x2="196.554" xlink:href="#lg4" y1="88.739" y2="105.047"/><linearGradient id="SVGID_00000101824584056598829670000001649060847581047993_" gradientTransform="matrix(0 1 -1 0 510 0)" gradientUnits="userSpaceOnUse" x1="157" x2="157" xlink:href="#lg4" y1="103.879" y2="168.809"/><linearGradient id="SVGID_00000174562172435461743200000018346115274417307052_" gradientTransform="matrix(0 1 1 0 -197.345 0)" gradientUnits="userSpaceOnUse" x1="127.44" x2="205.201" xlink:href="#lg3" y1="416.36" y2="494.121"/><linearGradient id="SVGID_00000119109071184130472420000014370778157616353158_" gradientTransform="matrix(0 1 1 0 -197.345 0)" gradientUnits="userSpaceOnUse" x1="154.245" x2="91.661" xlink:href="#lg4" y1="463.438" y2="482.531"/><linearGradient id="SVGID_00000043424586056873712430000009759680366048879504_" gradientTransform="matrix(0 1 1 0 -197.345 0)" gradientUnits="userSpaceOnUse" x1="163.14" x2="196.554" xlink:href="#lg4" y1="464.739" y2="481.048"/><linearGradient id="SVGID_00000149348692091612316990000012419752940447626905_" gradientTransform="matrix(0 1 1 0 -197.345 0)" gradientUnits="userSpaceOnUse" x1="157" x2="157" xlink:href="#lg4" y1="479.88" y2="544.809"/><linearGradient id="SVGID_00000112620573000929507400000001517811188659397279_" gradientUnits="userSpaceOnUse" x1="396.238" x2="341.543" xlink:href="#lg4" y1="208.91" y2="154.215"/><linearGradient id="SVGID_00000100340575444590651050000013117741811749560765_" gradientUnits="userSpaceOnUse" x1="319.85" x2="376.154" y1="132.522" y2="188.827"><stop offset="0" stop-color="#fe9738"/><stop offset="1" stop-color="#ef4424"/></linearGradient><linearGradient id="SVGID_00000117678529070677504720000018076193132846950566_" gradientUnits="userSpaceOnUse" x1="282.075" x2="358.728" y1="94.748" y2="171.401"><stop offset="0" stop-color="#a72b2b" stop-opacity="0"/><stop offset=".1713" stop-color="#a12a28" stop-opacity=".171"/><stop offset=".4154" stop-color="#8e2821" stop-opacity=".415"/><stop offset=".7031" stop-color="#6f2415" stop-opacity=".703"/><stop offset="1" stop-color="#481f05"/></linearGradient><linearGradient id="SVGID_00000032617723910440907770000006427312448761746613_" gradientUnits="userSpaceOnUse" x1="322.152" x2="349.457" y1="134.824" y2="162.13"><stop offset="0" stop-color="#fef0ae"/><stop offset="1" stop-color="#fac600"/></linearGradient><g><g><path d="m163.64 372.574c-11.879 4.916-21.761 12.963-28.918 22.901-1.767 2.454-5.645 1.534-6.045-1.463-3.149-23.625 6.784-45.627 24.586-60.163z" fill="url(#SVGID_1_)"/><path d="m163.64 372.574c-11.879 4.916-21.761 12.963-28.918 22.901-1.767 2.454-5.645 1.534-6.045-1.463-3.149-23.625 6.784-45.627 24.586-60.163z" fill="url(#SVGID_00000168111076797422961640000002637817315016362171_)"/><path d="m128.108 386.74c.684-5.369 6.053-12.647 14.702-14.964 6.379-1.709 13.059-1.056 18.881 1.618 5.334 2.437 9.943 6.582 12.935 12.136 14.048 26.098 46.707 36.449 72.73 22.248.103-.057.291-.176.549-.35 11.002-7.409 16.671-20.638 14.414-33.708-.51-2.951-1.221-5.905-2.144-8.848-10.46-33.354-45.24-53.371-79.334-45.656-32.228 7.294-53.495 36.192-52.733 67.524z" fill="url(#SVGID_00000098222021450832668400000006083112581381172407_)"/><path d="m128.108 386.74c.684-5.369 6.053-12.647 14.702-14.964 6.379-1.709 13.059-1.056 18.881 1.618 5.334 2.437 9.943 6.582 12.935 12.136 14.048 26.098 46.707 36.449 72.73 22.248.103-.057.291-.176.549-.35 11.002-7.409 16.671-20.638 14.414-33.708-.51-2.951-1.221-5.905-2.144-8.848-10.46-33.354-45.24-53.371-79.334-45.656-32.228 7.294-53.495 36.192-52.733 67.524z" fill="url(#SVGID_00000074417454254811824740000016754126880652165788_)"/><path d="m131.978 362.631c9.453-10.713 21.703-18.695 35.802-23.284 34.694-11.292 64.571 1.269 95.002 40.589-.165 10.909-5.624 21.26-14.878 27.491-.258.174-.446.293-.549.35-26.023 14.2-58.682 3.85-72.73-22.248-2.991-5.554-7.601-9.699-12.935-12.136-5.822-2.674-12.501-3.327-18.881-1.618-8.649 2.317-14.018 9.596-14.702 14.964-.201-8.329 1.167-16.482 3.871-24.108z" fill="url(#SVGID_00000111161615434235587800000016473589380546350008_)"/><path d="m248.819 343.429c4.945 6.256 8.852 13.462 11.354 21.443.923 2.943 1.634 5.897 2.144 8.848 2.257 13.071-3.411 26.3-14.413 33.708-.258.174-.446.293-.549.35-26.023 14.2-58.682 3.85-72.73-22.248-2.991-5.554-7.601-9.699-12.935-12.136-5.445-2.501-11.638-3.207-17.637-1.893z" fill="url(#SVGID_00000062891231854316206700000011889540232024188607_)"/><path d="m277.973 404.424c2.145-1.237 2.854-3.994 1.589-6.122-16.314-27.442-32.761-46.106-50.2-56.986-19.169-11.959-39.676-14.774-62.695-8.606-7.579 2.031-14.734 4.946-21.352 8.672-7.761 4.369-12.763 12.392-13.363 21.278 10.01-10.213 22.675-17.546 37.01-21.387 39.514-10.588 71.398 8.418 102.992 61.578 1.237 2.081 3.922 2.783 6.019 1.573z" fill="url(#SVGID_00000012470126154812400540000014755227276647281341_)"/></g><path d="m303.268 502.164c-6.632 1.916-13.562-1.907-15.479-8.539l-11.155-38.61c-20.358-70.462-52.923-135.992-96.792-194.771l-58.905-78.925 20.035-14.953 58.905 78.925c45.673 61.197 79.579 129.424 100.774 202.784l11.155 38.611c1.917 6.632-1.906 13.562-8.538 15.478z" fill="url(#SVGID_00000032632534426987359600000014487047258401984438_)"/><path d="m199.878 245.291-58.905-78.925-20.035 14.953 58.905 78.925c9.966 13.354 19.343 27.06 28.132 41.089h29.273c-11.417-19.26-23.875-37.96-37.37-56.042z" fill="url(#SVGID_00000174601396598980626030000008176460302103524240_)"/><g><g><path d="m173.714 83.581c28.85 49.969-4.632 123.31-14.667 129.104-10.036 5.794-90.292-1.881-119.141-51.85s104.959-127.223 133.808-77.254z" fill="url(#SVGID_00000122679760405549576280000017278847001072303786_)"/><path d="m173.714 83.581c28.85 49.969-4.632 123.31-14.667 129.104-10.036 5.794-90.292-1.881-119.141-51.85s104.959-127.223 133.808-77.254z" fill="url(#SVGID_00000030453535564743074680000003964133284776625075_)"/><path d="m135.058 105.9c28.85 49.969 28.226 104.34 23.989 106.786s-51.635-24.199-80.485-74.168 27.646-82.587 56.496-32.618z" fill="url(#SVGID_00000145021816501072465090000003289071193969115046_)"/><path d="m78.562 138.518c28.85 49.969 76.248 76.614 80.485 74.168s4.861-56.817-23.989-106.786-85.346-17.351-56.496 32.618z" fill="url(#SVGID_00000151508849878070471430000010394601992082054788_)"/><path d="m44.35 167.669c31.868 43.834 105.138 50.536 114.697 45.017s40.39-72.324 18.362-121.839z" fill="url(#SVGID_00000008840548678832947280000016968047918388711584_)"/></g><g><g><path d="m159.047 212.686 11.55-6.669c31.907-18.422 46.031-53.693 31.546-78.782-9.43-16.334-15.679-34.381-18.535-53.533l-2.948-19.766c-.846-5.675-8.983-6.681-13.847-1.711-27.818 28.423-35.725 65.901-19.743 93.582 10.475 18.143 14.781 39.434 12.497 61.79z" fill="url(#SVGID_00000106868177638833921700000001756692340268804240_)"/><path d="m159.047 212.686 11.55-6.669c31.907-18.422 46.031-53.693 31.546-78.782-9.43-16.334-15.679-34.381-18.535-53.533l-2.948-19.766c-.846-5.675-8.983-6.681-13.847-1.711-27.818 28.423-35.725 65.901-19.743 93.582 10.475 18.143 14.781 39.434 12.497 61.79z" fill="url(#SVGID_00000036930253796169297780000000744052807164977577_)"/><path d="m159.047 212.686-11.55 6.669c-31.907 18.422-69.515 13.017-84-12.071-9.43-16.334-21.935-30.768-37.094-42.818l-15.644-12.436c-4.492-3.571-1.294-11.12 5.442-12.847 38.524-9.88 74.934 2.012 90.916 29.693 10.475 18.143 26.761 32.518 47.263 41.717z" fill="url(#SVGID_00000011027196875783091870000017429070795480722080_)"/><path d="m159.047 212.686-11.55 6.669c-31.907 18.422-69.515 13.017-84-12.071-9.43-16.334-21.935-30.768-37.094-42.818l-15.644-12.436c-4.492-3.571-1.294-11.12 5.442-12.847 38.524-9.88 74.934 2.012 90.916 29.693 10.475 18.143 26.761 32.518 47.263 41.717z" fill="url(#SVGID_00000139273586684007402110000012384933595862366377_)"/></g><g><path d="m117.799 98.828-.078-.007c-14.216-1.267-30.612 8.199-36.622 21.144l-.033.071c-22.862 49.24 2.441 93.065 56.514 97.886l.078.007c14.216 1.267 30.612-8.199 36.622-21.144l.033-.071c22.862-49.24-2.44-93.065-56.514-97.886z" fill="url(#SVGID_00000015355965569569623580000017901656453890438323_)"/><path d="m137.581 217.921.078.007c14.216 1.268 30.612-8.199 36.622-21.144l.033-.071c15.374-33.112 8.942-63.754-13.348-81.755l-87.513 50.526c4.444 28.304 27.766 49.195 64.128 52.437z" fill="url(#SVGID_00000047021474342946029070000008731910134350571910_)"/><path d="m174.281 196.784.033-.071c22.862-49.24-2.441-93.065-56.514-97.886l-.078-.007c-7.108-.634-14.761 1.416-21.388 5.242l62.713 108.623c6.627-3.825 12.229-9.428 15.234-15.901z" fill="url(#SVGID_00000067938387766338112280000010003007628313354675_)"/></g></g></g><g><path d="m374.475 451.916c8.87 3.671 16.249 9.68 21.593 17.101 1.319 1.832 4.215 1.145 4.514-1.093 2.351-17.641-5.066-34.07-18.358-44.924z" fill="url(#SVGID_00000044136875067744711780000006007507003006142339_)"/><path d="m374.475 451.916c8.87 3.671 16.249 9.68 21.593 17.101 1.319 1.832 4.215 1.145 4.514-1.093 2.351-17.641-5.066-34.07-18.358-44.924z" fill="url(#SVGID_00000084511672916100517070000001064133064494041259_)"/><path d="m401.007 462.493c-.511-4.009-4.52-9.444-10.978-11.174-4.764-1.276-9.751-.788-14.098 1.208-3.983 1.82-7.425 4.915-9.658 9.062-10.49 19.488-34.877 27.216-54.308 16.613-.077-.042-.217-.132-.41-.261-8.215-5.532-12.448-15.41-10.763-25.17.38-2.203.912-4.409 1.601-6.607 7.81-24.906 33.781-39.853 59.239-34.091 24.063 5.446 39.944 27.025 39.375 50.42z" fill="url(#SVGID_00000015322776603750720650000008510170833106312111_)"/><path d="m401.007 462.493c-.511-4.009-4.52-9.444-10.978-11.174-4.764-1.276-9.751-.788-14.098 1.208-3.983 1.82-7.425 4.915-9.658 9.062-10.49 19.488-34.877 27.216-54.308 16.613-.077-.042-.217-.132-.41-.261-8.215-5.532-12.448-15.41-10.763-25.17.38-2.203.912-4.409 1.601-6.607 7.81-24.906 33.781-39.853 59.239-34.091 24.063 5.446 39.944 27.025 39.375 50.42z" fill="url(#SVGID_00000097466559453126143250000012392585728308369545_)"/><path d="m398.117 444.491c-7.059-7.999-16.206-13.96-26.734-17.386-25.906-8.432-48.216.948-70.939 30.308.123 8.146 4.2 15.875 11.109 20.528.193.13.333.219.41.261 19.432 10.604 43.818 2.875 54.308-16.613 2.233-4.147 5.676-7.243 9.658-9.062 4.347-1.996 9.335-2.484 14.098-1.208 6.458 1.73 10.467 7.165 10.978 11.174.153-6.22-.869-12.307-2.888-18.002z" fill="url(#SVGID_00000178886679266521867280000010554402783505466559_)"/><path d="m310.871 430.153c-3.692 4.672-6.61 10.052-8.478 16.012-.689 2.197-1.22 4.404-1.601 6.607-1.686 9.76 2.547 19.638 10.763 25.17.193.13.333.219.41.261 19.432 10.604 43.818 2.875 54.308-16.613 2.233-4.147 5.676-7.243 9.658-9.062 4.066-1.867 8.691-2.395 13.17-1.413z" fill="url(#SVGID_00000022534480979251786530000011279687154531051665_)"/><path d="m289.102 475.698c-1.601-.924-2.131-2.982-1.187-4.571 12.182-20.491 24.463-34.428 37.485-42.552 14.313-8.93 29.627-11.032 46.815-6.426 5.66 1.516 11.002 3.693 15.944 6.475 5.795 3.262 9.53 9.254 9.978 15.888-7.474-7.626-16.932-13.102-27.635-15.97-29.506-7.906-53.314 6.286-76.905 45.981-.924 1.555-2.929 2.078-4.495 1.175z" fill="url(#SVGID_00000014606907823575179460000008986600904220145281_)"/></g><g><path d="m300.727 510c-6.549.001-12.052-5.098-12.464-11.724-15.557-249.965 44.348-343.828 46.906-347.701 3.805-5.762 11.558-7.347 17.319-3.543 5.748 3.795 7.339 11.523 3.568 17.28-.342.535-14.687 23.29-27.048 74.959-11.518 48.144-23.608 131.89-15.793 257.452.429 6.891-4.81 12.823-11.7 13.252-.264.017-.528.025-.788.025z" fill="url(#SVGID_00000079476373210588006650000004832687791586306208_)"/><path d="m317.464 189.528c-11.874 33.341-26.081 89.628-30.44 174.928h25.124c2.941-55.225 10.001-96.518 16.86-125.185 5.114-21.377 10.565-37.791 15.227-49.743z" fill="url(#SVGID_00000032613190266625577570000005493942864552877224_)"/></g><g><g><path d="m460.516 136.165c-37.838 37.838-109.037 27.986-116.189 20.835-7.151-7.151-17.003-78.35 20.835-116.188s133.192 57.515 95.354 95.353z" fill="url(#SVGID_00000172416863943632172140000014929705787395290773_)"/><path d="m323.492 273.188c37.838-37.838 27.987-109.037 20.835-116.188-7.151-7.151-78.35-17.003-116.188 20.835s57.515 133.191 95.353 95.353z" fill="url(#SVGID_00000025438265620729206040000016748184105763962297_)"/><path d="m365.163 273.188c-37.838-37.838-27.987-109.037-20.836-116.188s78.35-17.003 116.188 20.835-57.514 133.191-95.352 95.353z" fill="url(#SVGID_00000145046626890860832630000007986434982926678186_)"/><path d="m228.139 136.165c37.838 37.838 109.037 27.987 116.188 20.835 7.151-7.151 17.003-78.35-20.835-116.188s-133.191 57.515-95.353 95.353z" fill="url(#SVGID_00000145756965724532330100000000232514846723685024_)"/></g><g><g><path d="m421.582 45.984c0 61.312-65.666 111.016-77.255 111.016-11.588 0-77.255-49.703-77.255-111.016s154.51-61.312 154.51 0z" fill="url(#SVGID_00000158747676295840358070000005494754111903441808_)"/><path d="m376.945 45.984c0 61.312-27.725 111.016-32.618 111.016s-32.618-49.703-32.618-111.016 65.236-61.312 65.236 0z" fill="url(#SVGID_00000047059567238126241120000004958517082890177923_)"/><path d="m311.709 45.984c0 61.312 27.725 111.016 32.618 111.016s32.618-49.703 32.618-111.016-65.236-61.312-65.236 0z" fill="url(#SVGID_00000066485295473477785750000011868588828210632118_)"/><path d="m267.505 54.633c5.682 57.27 65.784 102.367 76.822 102.367s71.14-45.097 76.822-102.367z" fill="url(#SVGID_00000061453688647457943480000003793398627248448907_)"/></g><g><path d="m421.582 268.016c0-61.312-65.666-111.016-77.255-111.016-11.588 0-77.255 49.703-77.255 111.016s154.51 61.312 154.51 0z" fill="url(#SVGID_00000121248264473359649750000016910474113295503290_)"/><path d="m376.945 268.016c0-61.312-27.725-111.016-32.618-111.016s-32.618 49.703-32.618 111.016 65.236 61.312 65.236 0z" fill="url(#SVGID_00000178175802916341794510000007380229553618081167_)"/><path d="m311.709 268.016c0-61.312 27.725-111.016 32.618-111.016s32.618 49.703 32.618 111.016-65.236 61.312-65.236 0z" fill="url(#SVGID_00000072277741930839197430000018069439134693854372_)"/><path d="m267.505 259.367c5.682-57.27 65.784-102.367 76.822-102.367s71.14 45.097 76.822 102.367z" fill="url(#SVGID_00000059305178255888237410000010856475131283815834_)"/></g></g><g><g><path d="m455.343 234.255c-61.312 0-111.016-65.666-111.016-77.255s49.703-77.255 111.016-77.255 61.312 154.51 0 154.51z" fill="url(#SVGID_00000055666266580303332970000006234209451141200037_)"/><path d="m455.343 189.618c-61.312 0-111.016-27.725-111.016-32.618s49.703-32.618 111.016-32.618 61.312 65.236 0 65.236z" fill="url(#SVGID_00000072973700116149542150000003032211769972773013_)"/><path d="m455.343 124.382c-61.312 0-111.016 27.725-111.016 32.618s49.703 32.618 111.016 32.618 61.312-65.236 0-65.236z" fill="url(#SVGID_00000183232179896354488130000015044174929492797353_)"/><path d="m446.694 80.178c-57.27 5.682-102.367 65.784-102.367 76.822s45.097 71.14 102.367 76.822z" fill="url(#SVGID_00000101824584056598829670000001649060847581047993_)"/></g><g><path d="m233.312 234.255c61.312 0 111.016-65.666 111.016-77.255s-49.703-77.255-111.016-77.255-61.313 154.51 0 154.51z" fill="url(#SVGID_00000174562172435461743200000018346115274417307052_)"/><path d="m233.312 189.618c61.312 0 111.016-27.725 111.016-32.618s-49.703-32.618-111.016-32.618-61.313 65.236 0 65.236z" fill="url(#SVGID_00000119109071184130472420000014370778157616353158_)"/><path d="m233.312 124.382c61.312 0 111.016 27.725 111.016 32.618s-49.703 32.618-111.016 32.618-61.313-65.236 0-65.236z" fill="url(#SVGID_00000043424586056873712430000009759680366048879504_)"/><path d="m241.961 80.178c57.27 5.682 102.367 65.784 102.367 76.822s-45.097 71.14-102.367 76.822z" fill="url(#SVGID_00000149348692091612316990000012419752940447626905_)"/></g></g><path d="m415.948 286.687c3.598-5.418 5.634-11.641 5.634-18.671 0-16.081-4.521-31.36-11.395-45.156 13.796 6.874 29.076 11.395 45.156 11.395 7.031 0 13.253-2.037 18.671-5.634l-100.653-100.654-58.067 58.067z" fill="url(#SVGID_00000112620573000929507400000001517811188659397279_)"/><path d="m381.109 144.455c-.993-1.285-1.688-2.786-1.878-4.398-.523-4.418-2.48-8.7-5.87-12.09s-7.671-5.347-12.09-5.87c-1.613-.191-3.114-.885-4.398-1.878-3.469-2.682-7.821-4.278-12.545-4.278s-9.076 1.596-12.545 4.278c-1.285.993-2.786 1.688-4.398 1.878-4.418.523-8.7 2.48-12.09 5.87s-5.347 7.671-5.87 12.09c-.191 1.613-.885 3.114-1.878 4.398-2.682 3.469-4.278 7.821-4.278 12.545s1.596 9.076 4.278 12.545c.993 1.285 1.688 2.786 1.878 4.398.523 4.418 2.48 8.7 5.87 12.09s7.671 5.347 12.09 5.87c1.613.191 3.114.885 4.398 1.878 3.469 2.682 7.821 4.278 12.545 4.278s9.076-1.596 12.545-4.278c1.285-.993 2.786-1.688 4.398-1.878 4.418-.523 8.7-2.48 12.09-5.87s5.347-7.671 5.87-12.09c.191-1.613.885-3.114 1.878-4.398 2.682-3.469 4.278-7.821 4.278-12.545s-1.596-9.076-4.278-12.545z" fill="url(#SVGID_00000100340575444590651050000013117741811749560765_)"/><path d="m370.336 148.129c-.702-.908-1.193-1.97-1.328-3.11-.37-3.124-1.753-6.152-4.151-8.549s-5.424-3.781-8.549-4.151c-1.14-.135-2.202-.626-3.11-1.328-2.453-1.896-5.53-3.025-8.871-3.025s-6.418 1.128-8.871 3.025c-.908.702-1.97 1.193-3.11 1.328-3.124.37-6.152 1.753-8.549 4.151-2.397 2.397-3.781 5.424-4.151 8.549-.135 1.14-.626 2.202-1.328 3.11-1.896 2.453-3.025 5.53-3.025 8.871s1.128 6.418 3.025 8.871c.702.908 1.193 1.97 1.328 3.11.37 3.124 1.753 6.152 4.151 8.549s5.424 3.781 8.549 4.151c1.14.135 2.202.626 3.11 1.328 2.453 1.896 5.53 3.025 8.871 3.025s6.418-1.128 8.871-3.025c.908-.702 1.97-1.193 3.11-1.328 3.124-.37 6.152-1.753 8.549-4.151s3.781-5.424 4.151-8.549c.135-1.14.626-2.202 1.328-3.11 1.896-2.453 3.025-5.53 3.025-8.871s-1.129-6.418-3.025-8.871z" fill="url(#SVGID_00000117678529070677504720000018076193132846950566_)"/><path d="m353.592 153.84c-.25-.324-.425-.702-.473-1.108-.132-1.113-.625-2.191-1.479-3.045s-1.932-1.347-3.045-1.479c-.406-.048-.784-.223-1.108-.473-.874-.676-1.97-1.077-3.16-1.077s-2.286.402-3.16 1.077c-.324.25-.702.425-1.108.473-1.113.132-2.191.625-3.045 1.479s-1.347 1.932-1.479 3.045c-.048.406-.223.784-.473 1.108-.676.874-1.077 1.97-1.077 3.16s.402 2.286 1.077 3.16c.25.324.425.702.473 1.108.132 1.113.625 2.191 1.479 3.045s1.932 1.347 3.045 1.479c.406.048.784.223 1.108.473.874.676 1.97 1.077 3.16 1.077s2.286-.402 3.16-1.077c.324-.25.702-.425 1.108-.473 1.113-.132 2.191-.625 3.045-1.479s1.347-1.932 1.479-3.045c.048-.406.223-.784.473-1.108.676-.874 1.077-1.97 1.077-3.16s-.401-2.286-1.077-3.16z" fill="url(#SVGID_00000032617723910440907770000006427312448761746613_)"/></g></g></svg>