<svg id="Flat" height="512" viewBox="0 0 512 512" width="512" xmlns="http://www.w3.org/2000/svg"><path d="m256 24c-96 0-184 48-184 128 0 128 112 144 112 144h144s112-16 112-144c0-80-88-128-184-128z" fill="#c7312e"/><path d="m256 248a8 8 0 0 1 -8-8v-112a8 8 0 0 1 16 0v112a8 8 0 0 1 -8 8z" fill="#962523"/><path d="m256 248a8.007 8.007 0 0 1 -7.7-10.2l32-112a8 8 0 1 1 15.384 4.4l-32 112a8 8 0 0 1 -7.684 5.8z" fill="#962523"/><path d="m256 248a8 8 0 0 1 -7.688-5.8l-32-112a8 8 0 1 1 15.384-4.4l32 112a8.007 8.007 0 0 1 -7.696 10.2z" fill="#962523"/><path d="m256 488c96 0 184-48 184-128 0-128-112-144-112-144h-144s-112 16-112 144c0 80 88 128 184 128z" fill="#c7312e"/><path d="m352 400c40 0 136-48 136-144.095 0-95.9-96-144.158-136-144-24 .095-72 96.095-72 96.095h-32v96h32s48 96 72 96z" fill="#eb423f"/><g fill="#c7312e"><path d="m392 264h-112a8 8 0 0 1 0-16h112a8 8 0 0 1 0 16z"/><path d="m280 264a8 8 0 0 1 -3.155-15.355l112-48a8 8 0 1 1 6.3 14.706l-112 48a7.977 7.977 0 0 1 -3.145.649z"/><path d="m392 312a7.956 7.956 0 0 1 -3.147-.649l-112-48a8 8 0 0 1 6.3-14.706l112 48a8 8 0 0 1 -3.153 15.355z"/></g><path d="m160 111.905c-40 0-136 48-136 144.094 0 95.906 96 144.158 136 144 24-.094 72-96.094 72-96.094h32v-96h-32s-48-96-72-96z" fill="#eb423f"/><path d="m232 263.9h-112a8 8 0 0 1 0-16h112a8 8 0 0 1 0 16z" fill="#c7312e"/><path d="m256 392a8 8 0 0 1 -8-8v-112a8 8 0 0 1 16 0v112a8 8 0 0 1 -8 8z" fill="#962523"/><path d="m224 392a8.007 8.007 0 0 1 -7.7-10.2l32-112a8 8 0 1 1 15.384 4.4l-32 112a8 8 0 0 1 -7.684 5.8z" fill="#962523"/><path d="m288 392a8 8 0 0 1 -7.688-5.8l-32-112a8 8 0 1 1 15.384-4.4l32 112a8.007 8.007 0 0 1 -7.696 10.2z" fill="#962523"/><path d="m120 311.907a8 8 0 0 1 -3.155-15.355l112-48a8 8 0 1 1 6.3 14.706l-112 48a7.977 7.977 0 0 1 -3.145.649z" fill="#c7312e"/><path d="m232 263.907a7.974 7.974 0 0 1 -3.147-.649l-112-48a8 8 0 1 1 6.3-14.706l112 48a8 8 0 0 1 -3.153 15.355z" fill="#c7312e"/><path d="m307.6 256a15.981 15.981 0 0 0 -9.855-30.331 15.98 15.98 0 0 0 -25.8-18.745 15.981 15.981 0 0 0 -31.892 0 15.98 15.98 0 0 0 -25.8 18.745 15.981 15.981 0 0 0 -9.853 30.331 15.98 15.98 0 0 0 9.855 30.33 15.981 15.981 0 0 0 25.8 18.746 15.981 15.981 0 0 0 31.892 0 15.981 15.981 0 0 0 25.8-18.746 15.98 15.98 0 0 0 9.853-30.33z" fill="#414649"/><circle cx="256" cy="256" fill="#ffd33a" r="16"/></svg>