<svg xmlns="http://www.w3.org/2000/svg" version="1.1" xmlns:xlink="http://www.w3.org/1999/xlink" width="512" height="512" x="0" y="0" viewBox="0 0 128 128" style="enable-background:new 0 0 512 512" xml:space="preserve" class=""><g><linearGradient id="a" x1="64.071" x2="64.071" y1="42" y2="90" gradientUnits="userSpaceOnUse"><stop stop-opacity="1" stop-color="#bfdfd2" offset="0"></stop><stop stop-opacity="1" stop-color="#abcde8" offset="0.5096525096525096"></stop><stop stop-opacity="1" stop-color="#c8a2f2" offset="0.9845559845559846"></stop></linearGradient><path fill="#c8a2f2" d="M33 68a5 5 0 1 1 0-10 5 5 0 0 1 0 10z" opacity="1" data-original="#4282ff"></path><path fill="url(#a)" fill-opacity=".8" d="M33 68a5 5 0 1 1 0-10 5 5 0 0 1 0 10z" opacity="1" data-original="url(#a)" class=""></path><g fill-rule="evenodd" clip-rule="evenodd"><path fill="#c8a2f2" d="M58 90a4 4 0 0 1-4-4V70h-3v14c0 3.235-2.68 6.173-6.28 5.92-12.921-.91-23.786-9.407-29.847-21.228a5.901 5.901 0 0 1 0-5.384C20.934 51.487 31.799 42.989 44.72 42.08 48.32 41.827 51 44.765 51 48v14h3V46a4 4 0 0 1 8 0v16h3V48a4 4 0 0 1 8 0v14h3V52a4 4 0 0 1 8 0v10h2.465c4.446-8.69 11.807-15.248 20.829-16.703a5.654 5.654 0 0 1 5.595 2.381 5.909 5.909 0 0 1 .508 5.766L107.797 66l5.6 12.556a5.909 5.909 0 0 1-.508 5.766 5.654 5.654 0 0 1-5.595 2.381C98.272 85.248 90.911 78.69 86.464 70H84v10a4 4 0 0 1-8 0V70h-3v14a4 4 0 0 1-8 0V70h-3v16a4 4 0 0 1-4 4zM22.5 66c4.691-8.54 12.145-14.276 20.5-15.67v31.34C34.645 80.276 27.191 74.54 22.5 66zm70.907 0c2.687-5.425 6.488-9.342 10.708-11.383l-3.988 8.939a6 6 0 0 0 0 4.888l3.988 8.94c-4.22-2.042-8.021-5.959-10.708-11.384z" opacity="1" data-original="#4282ff"></path><path fill="url(#a)" fill-opacity=".8" d="M58 90a4 4 0 0 1-4-4V70h-3v14c0 3.235-2.68 6.173-6.28 5.92-12.921-.91-23.786-9.407-29.847-21.228a5.901 5.901 0 0 1 0-5.384C20.934 51.487 31.799 42.989 44.72 42.08 48.32 41.827 51 44.765 51 48v14h3V46a4 4 0 0 1 8 0v16h3V48a4 4 0 0 1 8 0v14h3V52a4 4 0 0 1 8 0v10h2.465c4.446-8.69 11.807-15.248 20.829-16.703a5.654 5.654 0 0 1 5.595 2.381 5.909 5.909 0 0 1 .508 5.766L107.797 66l5.6 12.556a5.909 5.909 0 0 1-.508 5.766 5.654 5.654 0 0 1-5.595 2.381C98.272 85.248 90.911 78.69 86.464 70H84v10a4 4 0 0 1-8 0V70h-3v14a4 4 0 0 1-8 0V70h-3v16a4 4 0 0 1-4 4zM22.5 66c4.691-8.54 12.145-14.276 20.5-15.67v31.34C34.645 80.276 27.191 74.54 22.5 66zm70.907 0c2.687-5.425 6.488-9.342 10.708-11.383l-3.988 8.939a6 6 0 0 0 0 4.888l3.988 8.94c-4.22-2.042-8.021-5.959-10.708-11.384z" opacity="1" data-original="url(#a)" class=""></path></g></g></svg>