<svg xmlns="http://www.w3.org/2000/svg" version="1.1" xmlns:xlink="http://www.w3.org/1999/xlink" width="512" height="512" x="0" y="0" viewBox="0 0 512 512" style="enable-background:new 0 0 512 512" xml:space="preserve"><g><linearGradient id="a" x1="0" x2="512" y1="258" y2="258" gradientTransform="matrix(1 0 0 -1 0 514)" gradientUnits="userSpaceOnUse"><stop stop-opacity="1" stop-color="#c8a2f2" offset="0"></stop><stop stop-opacity="1" stop-color="#abcde8" offset="0.525096525096525"></stop><stop stop-opacity="1" stop-color="#bfdfd2" offset="1"></stop></linearGradient><path d="M492 146c-39.571 0-77.211 10.563-109.844 30.694C337.278 137.436 280.31 116 220 116c-91.495 0-174.899 50.052-217.666 130.624a20.001 20.001 0 0 0 0 18.753C45.101 345.948 128.505 396 220 396c60.31 0 117.276-21.436 162.156-60.694C414.788 355.438 452.428 366 492 366c11.046 0 20-8.954 20-20V166c0-11.046-8.954-20-20-20zM42.959 256c21.718-36.242 53.629-64.286 90.99-81.335C150.827 198.293 160 226.687 160 256s-9.173 57.708-26.051 81.335c-37.36-17.049-69.271-45.092-90.99-81.335zM472 324.878c-29.232-3.314-56.583-13.918-80.019-31.154-7.954-5.851-18.992-5.019-25.982 1.959C327.05 334.579 275.2 356 220 356c-16.013 0-31.729-1.83-46.9-5.339C190.583 322.399 200 289.669 200 256s-9.418-66.399-26.9-94.661A208.028 208.028 0 0 1 220 156c55.2 0 107.05 21.421 145.999 60.317 6.989 6.979 18.026 7.813 25.982 1.959 23.436-17.236 50.786-27.84 80.019-31.154v137.756z" style="fill:url(#a);" fill=""></path></g></svg>