<?xml version="1.0" encoding="iso-8859-1"?><svg version="1.1" id="Capa_1" xmlns="http://www.w3.org/2000/svg" xmlns:xlink="http://www.w3.org/1999/xlink" x="0px" y="0px"	 viewBox="0 0 512 512" style="enable-background:new 0 0 512 512;" xml:space="preserve"><linearGradient id="SVGID_1_" gradientUnits="userSpaceOnUse" x1="0" y1="258" x2="512" y2="258" gradientTransform="matrix(1 0 0 -1 0 514)">	<stop  offset="0" style="stop-color:#80D8FF"/>	<stop  offset="1" style="stop-color:#EA80FC"/></linearGradient><path style="fill:url(#SVGID_1_);" d="M492,146c-39.571,0-77.211,10.563-109.844,30.694C337.278,137.436,280.31,116,220,116	c-91.495,0-174.899,50.052-217.666,130.624c-3.112,5.863-3.112,12.89,0,18.753C45.101,345.948,128.505,396,220,396	c60.31,0,117.276-21.436,162.156-60.694C414.788,355.438,452.428,366,492,366c11.046,0,20-8.954,20-20V166	C512,154.954,503.046,146,492,146z M42.959,256c21.718-36.242,53.629-64.286,90.99-81.335C150.827,198.293,160,226.687,160,256	s-9.173,57.708-26.051,81.335C96.589,320.286,64.678,292.243,42.959,256z M472,324.878c-29.232-3.314-56.583-13.918-80.019-31.154	c-7.954-5.851-18.992-5.019-25.982,1.959C327.05,334.579,275.2,356,220,356c-16.013,0-31.729-1.83-46.9-5.339	C190.583,322.399,200,289.669,200,256s-9.418-66.399-26.9-94.661C188.271,157.83,203.988,156,220,156	c55.2,0,107.05,21.421,145.999,60.317c6.989,6.979,18.026,7.813,25.982,1.959c23.436-17.236,50.786-27.84,80.019-31.154V324.878z"/><g></g><g></g><g></g><g></g><g></g><g></g><g></g><g></g><g></g><g></g><g></g><g></g><g></g><g></g><g></g></svg>
