<svg xmlns="http://www.w3.org/2000/svg" version="1.1" xmlns:xlink="http://www.w3.org/1999/xlink" width="512" height="512" x="0" y="0" viewBox="0 0 512 512" style="enable-background:new 0 0 512 512" xml:space="preserve"><g><linearGradient id="a" x1="0" x2="512" y1="256" y2="256" gradientUnits="userSpaceOnUse"><stop stop-opacity="1" stop-color="#c8a2f2" offset="0"></stop><stop stop-opacity="1" stop-color="#9dd6fc" offset="0.3745173745173745"></stop><stop stop-opacity="1" stop-color="#bfdfd2" offset="1"></stop></linearGradient><path d="m133.137 378.863 234.01-234.01m20.548 149.157L217.99 124.304m113.137 226.275L161.421 180.873m84.853 197.99L133.137 265.726M310.579 88.284l113.137 113.137c15.621 15.621 40.948 15.621 56.569 0 7.81-7.811 11.716-18.047 11.716-28.284V60c0-10.237-3.905-20.474-11.716-28.284S462.237 20 452 20H338.863c-10.237 0-20.474 3.905-28.284 11.716-15.621 15.621-15.621 40.947 0 56.568zM133.137 378.863c-31.242-31.242-81.895-31.242-113.137 0L133.137 492c31.242-31.242 31.242-81.895 0-113.137z" style="fill:none;stroke:url(#a);stroke-width:40;stroke-linecap:round;stroke-linejoin:round;stroke-miterlimit:10;" fill="none" stroke-width="40" stroke-linecap="round" stroke-linejoin="round" stroke-miterlimit="10"></path></g></svg>