<svg width="47" height="43" viewBox="0 0 47 43" fill="none" xmlns="http://www.w3.org/2000/svg">
<path d="M14.2257 31.3138C15.5941 31.3138 16.7035 30.301 16.7035 29.0516C16.7035 27.8022 15.5941 26.7893 14.2257 26.7893C12.8574 26.7893 11.748 27.8022 11.748 29.0516C11.748 30.301 12.8574 31.3138 14.2257 31.3138Z" fill="#292D32"/>
<path d="M20.4198 25.6578C21.7882 25.6578 22.8975 24.645 22.8975 23.3956C22.8975 22.1461 21.7882 21.1333 20.4198 21.1333C19.0514 21.1333 17.9421 22.1461 17.9421 23.3956C17.9421 24.645 19.0514 25.6578 20.4198 25.6578Z" fill="#292D32"/>
<path fill-rule="evenodd" clip-rule="evenodd" d="M22.8975 34.7068C22.8975 33.4581 21.7875 32.4446 20.4198 32.4446C19.0521 32.4446 17.9421 33.4581 17.9421 34.7068C17.9421 35.9556 19.0521 36.9691 20.4198 36.9691C21.7875 36.9691 22.8975 35.9556 22.8975 34.7068Z" fill="#292D32"/>
<path d="M8.03141 36.9691C9.39981 36.9691 10.5091 35.9562 10.5091 34.7068C10.5091 33.4574 9.39981 32.4446 8.03141 32.4446C6.66302 32.4446 5.55371 33.4574 5.55371 34.7068C5.55371 35.9562 6.66302 36.9691 8.03141 36.9691Z" fill="#292D32"/>
<path fill-rule="evenodd" clip-rule="evenodd" d="M10.5091 23.3956C10.5091 22.1468 9.39911 21.1333 8.03141 21.1333C6.66372 21.1333 5.55371 22.1468 5.55371 23.3956C5.55371 24.6443 6.66372 25.6578 8.03141 25.6578C9.39911 25.6578 10.5091 24.6443 10.5091 23.3956Z" fill="#292D32"/>
<path d="M10.0962 16.0715H17.8929C24.3902 16.0715 26.9891 18.6704 26.9891 25.1677V32.9644C26.9891 39.4617 24.3902 42.0606 17.8929 42.0606H10.0962C3.59891 42.0606 1 39.4617 1 32.9644V25.1677C1 18.6704 3.59891 16.0715 10.0962 16.0715Z" stroke="#292D32" stroke-width="1.5" stroke-linecap="round" stroke-linejoin="round"/>
<path fill-rule="evenodd" clip-rule="evenodd" d="M30.9548 14.8158C29.6689 14.3927 28.2492 15.0036 27.7859 16.1799C27.3225 17.354 27.9915 18.6503 29.2774 19.0733C30.5634 19.4964 31.9856 18.8856 32.4489 17.7115C32.9122 16.5374 32.2433 15.2388 30.9548 14.8158Z" fill="#292D32"/>
<path fill-rule="evenodd" clip-rule="evenodd" d="M34.9992 25.4783C35.4625 24.302 34.7935 23.0057 33.5076 22.5827C32.2217 22.1596 30.7995 22.7704 30.3386 23.9445C29.8753 25.1209 30.5442 26.4172 31.8302 26.8402C33.1161 27.2633 34.5383 26.6524 34.9992 25.4783Z" fill="#292D32"/>
<path fill-rule="evenodd" clip-rule="evenodd" d="M28.6686 9.87414C29.132 8.70004 28.463 7.4015 27.177 6.97846C25.8886 6.55768 24.4689 7.16623 24.0056 8.3426C23.5423 9.51671 24.2112 10.813 25.4972 11.236C26.7856 11.6591 28.2053 11.0483 28.6686 9.87414Z" fill="#292D32"/>
<path d="M28.7685 30.6845C34.81 33.0752 37.9263 31.5151 40.317 25.4737L43.186 18.224C45.5767 12.1826 44.1165 8.80969 38.075 6.41892L30.8253 3.55C24.7839 1.15923 21.4111 2.61949 19.0203 8.66091L15.7744 15.8116" stroke="#292D32" stroke-width="1.5" stroke-linecap="round" stroke-linejoin="round"/>
</svg>
