<svg xmlns="http://www.w3.org/2000/svg" version="1.1" xmlns:xlink="http://www.w3.org/1999/xlink" width="512" height="512" x="0" y="0" viewBox="0 0 512 512" style="enable-background:new 0 0 512 512" xml:space="preserve" class=""><g><linearGradient id="a" x1="256" x2="256" y1="512" y2="0" gradientUnits="userSpaceOnUse"><stop stop-opacity="1" stop-color="#c8a2f2" offset="0"></stop><stop stop-opacity="1" stop-color="#abcde8" offset="0.5173745173745173"></stop><stop stop-opacity="1" stop-color="#bfdfd2" offset="1"></stop><stop stop-opacity="1" stop-color="#bfdfd2" offset="1"></stop></linearGradient><path fill="url(#a)" d="M499.277 308.658a15 15 0 0 0-17.98 1.634c-36.074 32.7-82.48 50.708-130.67 50.708-107.523 0-195-87.477-195-195 0-48.189 18.009-94.595 50.708-130.67a15 15 0 0 0-15.198-24.508C85.447 40.733 5.627 137.943 5.627 256c0 141.159 114.393 256 255 256 117.121 0 215.005-79.893 245.177-186.51a14.997 14.997 0 0 0-6.527-16.832zM260.627 482c-124.065 0-225-101.383-225-226 0-83.209 46.524-158.722 117.59-197.495-17.992 32.799-27.59 69.666-27.59 107.495 0 124.065 100.935 225 225 225 37.877 0 74.783-9.619 107.613-27.654C419.431 435.041 343.831 482 260.627 482zm90-392c24.813 0 45 20.187 45 45 0 8.284 6.716 15 15 15s15-6.716 15-15c0-24.813 20.187-45 45-45 8.284 0 15-6.716 15-15s-6.716-15-15-15c-24.813 0-45-20.187-45-45 0-8.284-6.716-15-15-15s-15 6.716-15 15c0 24.813-20.187 45-45 45-8.284 0-15 6.716-15 15s6.716 15 15 15zm60-30.047A75.619 75.619 0 0 0 425.674 75a75.619 75.619 0 0 0-15.047 15.047A75.619 75.619 0 0 0 395.58 75a75.619 75.619 0 0 0 15.047-15.047zM260.627 241c24.813 0 45 20.187 45 45 0 8.284 6.716 15 15 15s15-6.716 15-15c0-24.813 20.187-45 45-45 8.284 0 15-6.716 15-15s-6.716-15-15-15c-24.813 0-45-20.187-45-45 0-8.284-6.716-15-15-15s-15 6.716-15 15c0 24.813-20.187 45-45 45-8.284 0-15 6.716-15 15s6.716 15 15 15zm60-30.047A75.619 75.619 0 0 0 335.674 226a75.645 75.645 0 0 0-15.047 15.047A75.619 75.619 0 0 0 305.58 226a75.645 75.645 0 0 0 15.047-15.047z" opacity="1" data-original="url(#a)" class=""></path></g></svg>