<svg xmlns="http://www.w3.org/2000/svg" version="1.1" xmlns:xlink="http://www.w3.org/1999/xlink" width="512" height="512" x="0" y="0" viewBox="0 0 479.977 479.977" style="enable-background:new 0 0 512 512" xml:space="preserve" class=""><g><path fill="#b1cee9" d="M413.324 131.246c3.09-57.11-53.75-98.42-107.12-77.83-31.09-48.03-101.36-48.01-132.44 0-53.37-20.59-110.21 20.72-107.12 77.83-57.84 15.4-78.83 88.03-35.8 131.05l57.64 57.65c98.972 28.978 203.931 28.995 303 0l57.64-57.65c43.03-43.02 22.04-115.65-35.8-131.05z" opacity="1" data-original="#cbe3fa" class=""></path><path fill="#d5e6f7" d="M294.394 39.096c-30.28-6.34-63.71 5.1-82.63 34.32-53.37-20.59-110.21 20.72-107.12 77.83-57.84 15.4-78.83 88.03-35.8 131.05l32.63 32.63c-4.57 1.59-8.91 3.26-12.99 5.02l-57.64-57.65c-43.03-43.02-22.04-115.65 35.8-131.05-3.09-57.11 53.75-98.42 107.12-77.83 27.6-42.63 86.1-47.42 120.63-14.32z" opacity="1" data-original="#eef7ff" class=""></path><path fill="#87afd7" d="m398.484 264.156-44.87 43.45c-35.28-8.75-77.52-13.41-113.55-13.41-36.02 0-78.26 4.66-113.54 13.41l-44.86-43.45c-32.579-32.579-16.683-87.677 27.11-99.26-2.369-43.05 40.599-74.621 81.15-58.95 23.472-36.298 76.731-36.448 100.3 0 40.288-15.57 83.525 15.611 81.14 58.95 43.744 11.57 59.746 66.633 27.12 99.26z" opacity="1" data-original="#b5d5f5" class=""></path><path fill="#c5a2f4" d="M422.544 370.176c-118.35 40.399-246.559 40.485-365.13 0-32.824-48.763 97.841-75.98 182.56-75.98 66.335 0 218.291 22.912 182.57 75.98z" opacity="1" data-original="#ff6d7a" class=""></path><path fill="#c5a2f4" d="M412.484 331.116c-42.46-13.63-100.75-19.92-135.51-19.92-80.74 0-203.21 24.72-186.13 69.25a561.923 561.923 0 0 1-33.43-10.27c-32.82-48.76 97.84-75.98 182.56-75.98 46.9 0 136.61 11.45 172.51 36.92z" opacity="1" data-original="#ff8c95" class=""></path><path fill="#b1cee9" d="M315.834 462.576h-151.71c-71.44 0-149.59-65.21-111.69-89.37 36.519-23.375 80.954-28.027 121.09-6.94 36.54-37.25 96.5-37.12 132.91 0 40.109-21.073 84.543-16.453 121.09 6.94 38 24.22-40.58 89.37-111.69 89.37z" opacity="1" data-original="#cbe3fa" class=""></path><path fill="#d5e6f7" d="M300.384 360.626c-30.33-6.77-63.41 1.74-86.86 25.64-62.266-32.714-191.238 3.344-96.66 67.82-53.18-18.46-93.91-62.09-64.43-80.88 36.519-23.375 80.954-28.027 121.09-6.94 34.58-35.25 90.14-37.03 126.86-5.64zM239.974 215.346c27.01 0 48.9 21.9 48.9 48.9 0 27.01-21.89 48.9-48.9 48.9-27 0-48.89-21.89-48.89-48.9 0-27 21.89-48.9 48.89-48.9z" opacity="1" data-original="#eef7ff" class=""></path><path fill="#ffffff" d="M275.514 230.656c-29.52-3.247-54.43 19.796-54.43 48.59 0 13 5.08 24.83 13.36 33.59-24.4-2.75-43.36-23.45-43.36-48.59 0-27 21.89-48.9 48.89-48.9 14 0 26.63 5.88 35.54 15.31z" opacity="1" data-original="#ffffff" class=""></path><path d="M421.43 125.355c-1.026-57.576-57.066-98.289-112.135-81.465-34.671-45.98-103.945-45.985-138.62 0-55.073-16.815-111.11 23.881-112.136 81.465-59.706 20.474-78.849 97.108-33.356 142.603l49.64 49.641c-20.915 11.077-37.114 27.957-28.006 49.768-10.603 7.424-14.603 18.732-10.944 31.283 9.438 32.376 70.472 71.924 128.248 71.924H315.84c57.779 0 118.818-39.562 128.261-71.95 3.654-12.533-.352-23.833-10.961-31.258 9.034-21.674-6.846-38.565-27.977-49.783l49.624-49.624c45.549-45.553 26.285-122.152-33.357-142.604zm7.309 268.79c-6.957 23.862-60.304 60.428-112.9 60.428h-20.204c20.137-14.703 35.379-34.206 44.75-57.525a8 8 0 0 0-14.845-5.967c-11.351 28.248-32.575 50.167-61.428 63.492H247.98v-54.098a8 8 0 0 0-16 0v54.098h-16.131c-28.853-13.326-50.077-35.245-61.428-63.492a7.996 7.996 0 0 0-10.406-4.439 7.999 7.999 0 0 0-4.439 10.406c9.371 23.319 24.613 42.822 44.75 57.525H164.12c-52.594 0-105.934-36.55-112.888-60.402-1.846-6.331-.202-10.582 5.496-14.213 34.681-22.099 75.948-26.121 113.068-6.607a8 8 0 0 0 9.434-1.479c33.442-34.092 88.194-33.952 121.497 0a8 8 0 0 0 9.434 1.479c35.764-18.802 76.975-16.393 113.068 6.607 5.702 3.632 7.35 7.876 5.51 14.187zm-39.112-83.657c-6.563-2.597-13.451-4.902-20.401-6.946l34.731-33.634c35.4-35.4 20.778-94.294-24.643-110.86-1.645-43.778-44.019-74.512-86.111-62.557-27.04-34.428-79.395-34.44-106.444 0-42.139-11.968-84.469 18.828-86.11 62.557-45.564 16.619-59.904 75.6-24.735 110.771 1.983 1.983-7.111-6.888 20.512 19.864a8 8 0 0 0 11.13-11.494l-20.372-19.728c-26.615-26.677-15.852-71.221 18.462-84.169l51.461 70.415a8 8 0 0 0 12.918-9.442l-53.399-73.067c-.373-34.657 32.781-59.826 66.019-50.216l10.945 73.155a8.001 8.001 0 0 0 7.902 6.817c4.909 0 8.644-4.358 7.922-9.185l-11.203-74.884c20.658-28.329 62.934-28.26 83.539-.003l-11.203 74.887c-.723 4.835 3.02 9.185 7.922 9.185a8.002 8.002 0 0 0 7.902-6.817l10.943-73.154c33.286-9.628 66.392 15.612 66.024 50.208l-53.404 73.075a8 8 0 0 0 12.918 9.442l51.462-70.417c34.301 12.94 45.091 57.481 18.467 84.168l-41.647 40.331c-11.382-2.667-22.291-4.672-31.506-6.139-4.36-.703-8.464 2.28-9.157 6.644a7.999 7.999 0 0 0 6.644 9.157c29.583 4.708 110.237 22.246 101.974 50.757-36.089-18.285-75.667-19.31-111.164-2.614-38.429-34.973-97.43-35.004-135.89 0-35.494-16.694-75.067-15.673-111.156 2.609-9.726-33.752 101.732-52.055 138.454-55.196 10.336 10.564 24.735 17.138 40.647 17.138 31.373 0 56.897-25.524 56.897-56.897s-25.524-56.897-56.897-56.897c-31.374 0-56.898 25.524-56.898 56.897a56.54 56.54 0 0 0 5.643 24.69c-31.518 3.25-69.162 10.04-98.357 21.575l-53.87-53.871C-1.927 218.221 16.425 152.896 68.7 138.978a8 8 0 0 0 5.93-8.162c-2.773-51.346 48.355-88.41 96.261-69.937a8 8 0 0 0 9.596-3.117c27.938-43.175 91.104-43.103 118.996 0a8 8 0 0 0 9.596 3.117c47.973-18.503 99.03 18.667 96.261 69.937a8 8 0 0 0 5.93 8.162c52.299 13.924 70.609 79.261 32.203 117.665zm-190.546-46.239c0-22.551 18.347-40.897 40.898-40.897s40.897 18.347 40.897 40.897-18.347 40.897-40.897 40.897c-22.551 0-40.898-18.347-40.898-40.897z" fill="#0d1320" opacity="1" data-original="#000000" class=""></path></g></svg>