<svg width="15" height="15" viewBox="0 0 15 15" fill="none" xmlns="http://www.w3.org/2000/svg"><path d="M14.3306 11.8899C14.2944 11.3945 14.1641 10.8483 13.9435 10.2663C13.9305 10.232 13.8978 10.214 13.8665 10.2239C13.8353 10.2338 13.8151 10.2689 13.8191 10.306C13.8204 10.3183 13.9453 11.5323 13.5447 11.9023C13.4111 12.0257 13.2262 12.039 12.9954 11.9418C12.9948 11.9416 12.9943 11.9416 12.9938 11.9414C12.9388 11.6061 12.7532 11.155 12.1958 10.8294C12.1953 10.829 12.1946 10.8288 12.1941 10.8284C12.1859 10.8239 11.9884 10.7182 11.7247 10.6815C11.3696 10.632 11.0646 10.7331 10.8431 10.9742C10.8327 10.9855 10.8265 10.9998 10.824 11.0148C10.7628 10.9869 10.6966 10.9716 10.634 10.9573C10.5298 10.9335 10.4313 10.9111 10.3621 10.8399C10.247 10.722 10.202 10.2965 10.215 10.0474C10.2234 9.88621 10.3169 9.73929 10.4118 9.60267C10.5376 9.42164 10.6681 9.24576 10.7943 9.07564C11.1565 8.58766 11.4985 8.12686 11.7545 7.53499C12.1631 6.59037 12.3028 5.64278 12.1941 4.55263C12.1497 4.10788 12.0153 3.60861 11.7944 3.06868C11.2522 1.74317 10.2703 0.772183 9.10037 0.404767C8.35665 0.171191 7.55145 0.0908867 6.7716 0.172579C5.95219 0.258435 5.17713 0.523934 4.53051 0.940128C3.6253 1.52288 2.94665 2.48613 2.61923 3.65223C2.36151 4.57008 2.30688 5.57358 2.46511 6.47794C2.70571 7.85184 3.25575 8.50756 3.6575 8.98641C3.8361 9.19917 3.97807 9.3685 4.04862 9.54675C4.05496 9.90029 4.01266 10.8011 3.74808 11.061C3.7462 11.0583 3.74449 11.0557 3.74226 11.0531C3.52427 10.8118 3.22424 10.7105 2.87456 10.76C2.61512 10.7969 2.42093 10.9028 2.41271 10.9072C2.4122 10.9076 2.41151 10.9078 2.411 10.9082C1.91438 11.2034 1.72259 11.62 1.65358 11.9547C1.43815 12.0368 1.26451 12.0193 1.13744 11.9019C0.736727 11.532 0.861737 10.3179 0.863107 10.3056C0.867045 10.2683 0.846838 10.2334 0.815671 10.2235C0.784333 10.2136 0.751625 10.2316 0.738611 10.2659C0.517875 10.8481 0.387728 11.3941 0.351595 11.8895C0.322483 12.2892 0.354164 12.657 0.445609 12.983C0.603327 13.5445 0.882971 13.7852 0.894616 13.7949C1.14515 14.0079 1.38797 14.0832 1.60631 14.0832C1.82465 14.0832 2.01456 14.0093 2.16629 13.9218C2.39764 13.7882 2.56871 13.6068 2.65126 13.509C2.74938 13.6829 2.86908 13.8283 3.00145 13.9218C3.20712 14.0672 3.45388 14.1415 3.71932 14.1415C3.84484 14.1415 3.97447 14.1249 4.10582 14.0914C4.30258 14.041 4.54763 13.954 4.69901 13.7261C4.74354 13.6591 4.761 13.5929 4.77025 13.53C4.93602 13.7505 5.17319 13.9232 5.43914 14.0053C5.53452 14.0349 5.66073 14.0608 5.80937 14.0608C6.1171 14.0608 6.52004 13.9492 6.94165 13.5253C6.97144 13.4999 7.18379 13.308 7.30229 12.9021C7.42079 13.308 7.63314 13.4999 7.66293 13.5253C8.08454 13.9492 8.48748 14.0608 8.79521 14.0608C8.94368 14.0608 9.07006 14.0349 9.16528 14.0053C9.43259 13.9226 9.67079 13.7487 9.83673 13.5267C9.83878 13.5429 9.84084 13.5566 9.84255 13.5639C9.86344 13.6556 9.91156 13.7434 9.98143 13.8183C10.1332 13.9809 10.328 14.0476 10.4988 14.0912C10.6301 14.1249 10.7597 14.1413 10.8853 14.1413C11.1507 14.1413 11.3975 14.067 11.6031 13.9216C11.7499 13.8179 11.8811 13.6506 11.9845 13.4513C12.027 13.5072 12.2232 13.7527 12.5157 13.9214C12.6674 14.0091 12.8596 14.083 13.0758 14.083C13.2921 14.083 13.537 14.0077 13.7874 13.7947C13.7992 13.7848 14.0787 13.5439 14.2365 12.9826C14.3282 12.6568 14.3598 12.2888 14.3306 11.8891V11.8899Z" fill="#6D768B"/></svg>
