<svg xmlns="http://www.w3.org/2000/svg" version="1.1" xmlns:xlink="http://www.w3.org/1999/xlink" width="512" height="512" x="0" y="0" viewBox="0 0 3873 3873" style="enable-background:new 0 0 512 512" xml:space="preserve"><g><linearGradient id="a" x1="836.583" x2="3036.359" y1="801.13" y2="3000.907" gradientTransform="matrix(1 0 0 -1 0 3872)" gradientUnits="userSpaceOnUse"><stop stop-opacity="1" stop-color="#c8a2f2" offset="0.15444015444015444"></stop><stop stop-opacity="1" stop-color="#abcde8" offset="0.4517374517374517"></stop><stop stop-opacity="1" stop-color="#bfdfd2" offset="1"></stop></linearGradient><path fill="url(#a)" d="M3614.2 1764.7c-60.6-81.7-141.1-138-242.9-156.3 70.9-212.6 41-409-146.4-536.7-84.1-57.3-178.1-83.7-279.4-68.1-26.1-194.1-129.6-332.3-320.7-378.3-114.8-27.6-226-11.3-324.2 60.1-79-141-203.5-214.9-364.1-214.9-156.9 0-280.7 73.9-358.3 219.2-99.6-75-212.9-92.5-329.9-64.4-190.8 45.9-294.6 183.8-320.8 378.3-101.2-15.6-195.2 10.7-279.5 68.1-187.4 127.7-217.5 324.2-146.4 536.7-101.2 18.3-181.8 74.1-242.8 156.3-134.9 181.9-99.8 377.9 39.8 557.3 63.9 82.2 153.8 166.5 267.3 250.7 120.8 89.6 365.7 229.4 628 370.7-73 35.3-123.4 79.8-150.1 132.6-20.3 40.1-36.3 105.5 2.4 189.2 31.8 68.7 105.3 112 218.5 128.8 191.7 28.4 485.9-22.3 671.7-68 48.7 12 205.7 48.5 374 66.4 173.1 18.4 444 28.9 516.3-127.2 38.7-83.7 22.7-149.1 2.4-189.2-26.9-53.2-78-98.1-152-133.5 321.5-173.7 533.1-298 630-369.8 158.5-117.6 336.6-283 381.3-475.2 28.3-122-1.4-234.6-74.2-332.8zm-457.4-592.9c164.8 112.3 151.9 282.8 73.2 467-30.6 70.4-74.3 147.4-129.7 228.8-130.7 191.9-705.1 816.3-862.1 985.8 96.8-155.5 300.1-473.7 387.7-676.6 146.9-321.8 241.6-569 281.5-734.6 24.6-102.4 43.1-212.8 44.7-316.9 70.9-14.1 138.2 1.2 204.7 46.5zM2596.4 743c149.8 36.1 226.8 146 234.3 335.3-.5 24.4 8.7 129.2-40.9 335.5-50.2 208.6-184.9 517.8-274.5 713.9-107.9 236.5-273.5 489.7-404.7 701.8 64.6-262 129.2-542.7 181.3-805.2 45.7-230.2 110.7-591.4 110.7-825.8 0-130.7-11.8-273.1-52.4-397.9 70.7-61.5 151.6-80.3 246.2-57.6zm-873.3-54.3c53.2-65.3 123-97.1 213.4-97.1 146.8 0 234.6 80.1 287.3 214.6 38.3 98.6 57.8 230.6 57.8 392.3 0 169.8-36.5 439.7-108.3 802.2-65.4 329.5-152.6 697.2-236 1022.1-105.3-419.7-335.5-1384.8-335.5-1820.2-.2-242 40.7-414.9 121.3-513.9zM1276.6 743c97.8-23.5 180.9-2.6 253.4 63.9-38.1 123.1-49.5 266.4-49.5 395.7 0 407 190.8 1238.8 286 1633.6-162.8-263.7-279.8-436.8-409.4-709.7-207.6-454.7-306.3-734.5-314.9-986.3-6.5-192.5 45.4-351.7 234.4-397.2zm-560.4 428.8c66.4-45.2 133.7-60.6 204.6-46.4 1.6 104 20.1 214.5 44.7 316.9 52.2 216.9 188.3 530.4 281.5 734.6 86.8 200.9 274.1 494.1 387.7 676.6-156.7-169.2-731.3-793.9-862.1-985.8-160.6-236-293.4-534.4-56.4-695.9zm-413.7 898.3c-19.2-82.6-1.6-158.9 53.5-233.3 51.2-68.9 114.5-106.1 193-112.7 32.1 67 73.4 137.8 123.7 211.7 146.8 215.6 794.4 915.8 976.4 1110.8-514.8-265.8-869.2-465.8-1011.1-571-193.5-143.6-306.4-280-335.5-405.5zm890.7 1178.6c-18.9-9.8-31.1-21-37.2-34.3-19.9-43-12-68.4-4.3-83.6 28.4-56.5 122.7-94.6 184.2-111.4 148.5 78.6 296.5 155.1 425.3 220.7-137.9 26.3-442.8 73.5-568 8.6zm1528-117.9c7.7 15.3 15.6 40.6-4.3 83.7-17.7 38.2-84.5 53.7-126 59.9-139.4 20.8-340.2-7.7-479.1-34.2 105.9-54.4 258.1-133.4 423.1-221.3 62.3 16.7 157.7 55 186.3 111.9zm849.3-1060.7c-29.1 125.5-142 261.9-335.5 405.4-163.5 121.3-672.2 393.6-1009.8 569.6 181.1-194.1 828.5-894.2 975-1109.4 50.3-73.9 91.8-144.9 123.8-211.7 78.4 6.7 141.8 43.8 192.9 112.7 55.3 74.6 72.8 150.9 53.6 233.4z" opacity="1" data-original="url(#a)"></path></g></svg>