<svg height="512" viewBox="0 0 512 512" width="512" xmlns="http://www.w3.org/2000/svg" xmlns:xlink="http://www.w3.org/1999/xlink"><linearGradient id="linear-gradient" gradientUnits="userSpaceOnUse" x1="124.498" x2="378.243" y1="393.623" y2="139.879"><stop offset="0" stop-color="#41dfd0"/><stop offset="1" stop-color="#ee83ef"/></linearGradient><g id="gradient"><path d="m145.945 170.035a8 8 0 1 1 9.892 5.492 8 8 0 0 1 -9.892-5.492zm-14.118-15.663a8 8 0 1 0 -9.891-5.492 8 8 0 0 0 9.891 5.492zm-24.01-21.155a8 8 0 1 0 -9.891-5.492 8 8 0 0 0 9.891 5.492zm-28.409-36.538a8 8 0 1 0 9.891 5.492 8 8 0 0 0 -9.891-5.492zm135.892 231.621a8 8 0 1 0 4.03 10.572 8 8 0 0 0 -4.03-10.572zm-.713-21.075a8 8 0 1 0 -10.572 4.03 8 8 0 0 0 10.575-4.031zm-4.743-31.646a8 8 0 1 0 -10.572 4.03 8 8 0 0 0 10.575-4.031zm-4.744-31.648a8 8 0 1 0 -10.572 4.03 8 8 0 0 0 10.572-4.03zm-59.1-12.124a8 8 0 1 0 -6.789-9.05 8 8 0 0 0 6.789 9.05zm-35.9 4.237a8 8 0 1 0 9.051-6.789 8 8 0 0 0 -9.051 6.789zm-22.321 22.337a8 8 0 1 0 -6.789-9.05 8 8 0 0 0 6.789 9.05zm-29.111 13.287a8 8 0 1 0 -6.789-9.05 8 8 0 0 0 6.789 9.05zm-39.317 15.7a23.852 23.852 0 0 1 .612-25.334l52.687-80.357-36.332-88.962a24 24 0 0 1 28.532-32.229l92.711 25.276 73.38-62.044a24 24 0 0 1 39.468 17.176l4.611 95.983 81.68 50.616a24 24 0 0 1 -4.139 42.844l-89.861 34.046-22.9 93.326a23.852 23.852 0 0 1 -18.121 17.714 24.308 24.308 0 0 1 -5.261.578 23.825 23.825 0 0 1 -18.644-8.988l-60.148-74.942-95.826 7.063a23.862 23.862 0 0 1 -22.449-11.761zm13.789-8.117a7.853 7.853 0 0 0 7.482 3.921l100.028-7.372c.2-.014.394-.022.589-.022a8 8 0 0 1 6.239 2.993l62.781 78.229a8 8 0 0 0 14.008-3.1l23.9-97.411a8 8 0 0 1 4.936-5.575l93.797-35.539a8 8 0 0 0 1.379-14.281l-85.258-52.832a8 8 0 0 1 -3.778-6.416l-4.816-100.185a8 8 0 0 0 -13.156-5.725l-76.592 64.764a8 8 0 0 1 -7.27 1.61l-96.768-26.387a8 8 0 0 0 -9.51 10.743l37.922 92.855a8 8 0 0 1 -.716 7.411l-54.993 83.88a7.847 7.847 0 0 0 -.204 8.444zm138.5-95.555a24 24 0 1 1 19.522 39.819q-.777.048-1.548.048a24 24 0 0 1 -17.971-39.863zm12.719 21.869a8 8 0 1 0 5.3-14c-.171 0-.343 0-.515.016a8 8 0 0 0 -4.784 13.987zm147.221 5.9a8 8 0 1 0 -11-2.667 8 8 0 0 0 11.003 2.674zm-31.992-.721a8 8 0 1 0 -11-2.666 8 8 0 0 0 11.003 2.673zm-31.992-.72a8 8 0 1 0 -11-2.666 8 8 0 0 0 11.004 2.673zm-40.32-14.382a8 8 0 1 0 11 2.667 8 8 0 0 0 -10.997-2.66zm-16.737-33.61a8 8 0 1 0 -9.834-5.595 8 8 0 0 0 9.837 5.602zm9.515-30.552a8 8 0 1 0 -9.833-5.6 8 8 0 0 0 9.836 5.607zm9.516-30.553a8 8 0 1 0 -9.833-5.595 8 8 0 0 0 9.836 5.602zm9.515-30.552a8 8 0 1 0 -9.833-5.6 8 8 0 0 0 9.836 5.607zm239.654 206.67a26.922 26.922 0 0 1 11.824 32.845l-1.513 4.652c-11.04 33.935-23.65 67.671-37.6 100.663l4.7 2.662a30.28 30.28 0 0 1 15.031 22.376 29.973 29.973 0 0 1 -13.091 28.857l-32.414 21.775a30.137 30.137 0 0 1 -46.7-21.173l-.686-5.33q-7.683.093-15.371.1c-32.274 0-64.613-1.24-96.64-3.712l-.3-.023a26.921 26.921 0 0 1 -25.919-23.364 61.358 61.358 0 0 1 23.249-56.543l-.025-7.055a61.607 61.607 0 0 1 27.307-51.46l1.684-1.132.636-1.541a61.571 61.571 0 0 1 56.847-38.189h1.668l1.684-1.132a61.613 61.613 0 0 1 57.97-5.821l6.523 2.691a61.353 61.353 0 0 1 61.136-.146zm-115.216 15.6 15.277 42.755a325.718 325.718 0 0 0 12.613 30.341c.023.046.044.093.065.139l19.292 42.577-.412-116.945-5.381-2.22a45.635 45.635 0 0 0 -41.456 3.359zm-55.209 31.709 35.286 32.068c7.562 6.872 14.9 14.172 21.81 21.7l26.762 28.053-15.235-33.621a341.82 341.82 0 0 1 -13.2-31.77l-15.473-43.284a45.591 45.591 0 0 0 -39.95 26.859zm-29.023 49.367.021 5.821 107.75 44.458-33.28-34.885c-.036-.037-.071-.075-.106-.113-6.6-7.193-13.611-14.169-20.835-20.734l-34.786-31.608a45.616 45.616 0 0 0 -18.764 37.066zm123.59 74.1-130.43-53.806a45.44 45.44 0 0 0 -16.514 41.316 10.84 10.84 0 0 0 10.548 9.412c.168 0 .336.01.5.023l.526.04a1242.6 1242.6 0 0 0 135.37 3.024zm45.375-16.043-3.172-1.8q-3.279 7.482-6.645 14.9l-1.578 3.476a25.559 25.559 0 0 1 -22.329 15.048c-6.7.278-13.422.484-20.147.653l.463 3.6a14.209 14.209 0 0 0 7.051 10.5 14.061 14.061 0 0 0 14.855-.565l32.414-21.776a14.061 14.061 0 0 0 6.139-13.539 14.209 14.209 0 0 0 -7.051-10.488zm-21.9-141.137.5 141a1242.57 1242.57 0 0 0 46.981-122.055l1.58-4.856q.073-.225.159-.445a10.843 10.843 0 0 0 -4.724-13.325 45.43 45.43 0 0 0 -44.495-.31z" fill="url(#linear-gradient)"/></g></svg>