<svg width="11" height="11" viewBox="0 0 11 11" fill="none" xmlns="http://www.w3.org/2000/svg"><path d="M5.88977 0.83237L6.64142 3.2977C6.7416 3.6262 6.92106 3.92506 7.16391 4.1679C7.40678 4.41078 7.70567 4.59017 8.0342 4.69035L10.4997 5.44197C10.7208 5.50934 10.7208 5.82302 10.4997 5.89038L8.0342 6.642C7.70558 6.742 7.40661 6.92137 7.1637 7.16424C6.92083 7.40712 6.74146 7.70607 6.64142 8.03466L5.88977 10.5C5.82241 10.7211 5.50868 10.7211 5.44129 10.5L4.68964 8.03466C4.5896 7.70607 4.41023 7.40712 4.16733 7.16424C3.92445 6.92137 3.62548 6.742 3.29686 6.642L0.831334 5.89038C0.610258 5.82302 0.610258 5.50934 0.831334 5.44197L3.29686 4.69035C3.62539 4.59017 3.92428 4.41078 4.16713 4.1679C4.41 3.92506 4.58943 3.6262 4.68964 3.2977L5.44129 0.83237C5.50868 0.610259 5.82241 0.610259 5.88977 0.83237Z" fill="#99CDBD"/></svg>
